<svg width="22" height="22" viewBox="0 0 22 22" fill="none" xmlns="http://www.w3.org/2000/svg">
<path fill-rule="evenodd" clip-rule="evenodd" d="M1.625 3.125C1.625 2.29657 2.29657 1.625 3.125 1.625H18.875C19.7034 1.625 20.375 2.29657 20.375 3.125V18.875C20.375 19.7034 19.7034 20.375 18.875 20.375H3.125C2.29657 20.375 1.625 19.7034 1.625 18.875V3.125Z" stroke="white" stroke-width="1.5" stroke-linecap="round" stroke-linejoin="round"/>
<path d="M5.375 15.375L8.26 11.5284C8.47737 11.2383 8.80993 11.057 9.17146 11.0312C9.53299 11.0055 9.88789 11.1379 10.1442 11.3942L11 12.25L13.75 8.58337C13.9861 8.26862 14.3566 8.08337 14.75 8.08337C15.1434 8.08337 15.5139 8.26862 15.75 8.58337L17.975 11.55" stroke="white" stroke-width="1.5" stroke-linecap="round" stroke-linejoin="round"/>
<path fill-rule="evenodd" clip-rule="evenodd" d="M6.3125 7.875C7.17544 7.875 7.875 7.17544 7.875 6.3125C7.875 5.44956 7.17544 4.75 6.3125 4.75C5.44956 4.75 4.75 5.44956 4.75 6.3125C4.75 7.17544 5.44956 7.875 6.3125 7.875Z" stroke="white" stroke-width="1.5" stroke-linecap="round" stroke-linejoin="round"/>
<path d="M1.625 15.375H20.375" stroke="white" stroke-width="1.5" stroke-linecap="round" stroke-linejoin="round"/>
</svg>