<svg width="164" height="164" viewBox="0 0 164 164" fill="none" xmlns="http://www.w3.org/2000/svg">
<g filter="url(#filter0_d_1550_6670)">
<path d="M152 82C152 120.66 120.66 152 82 152C43.3401 152 12 120.66 12 82C12 43.3401 43.3401 12 82 12C120.66 12 152 43.3401 152 82ZM19 82C19 116.794 47.2061 145 82 145C116.794 145 145 116.794 145 82C145 47.2061 116.794 19 82 19C47.2061 19 19 47.2061 19 82Z" fill="#2A2B31"/>
</g>
<path d="M82 16.5C82 14.567 83.568 12.9909 85.4986 13.0875C96.4792 13.6369 107.194 16.7666 116.765 22.2431C127.35 28.3 136.169 37.0172 142.349 47.5314C148.528 58.0456 151.854 69.9918 151.995 82.1866C152.137 94.3814 149.09 106.402 143.157 117.057C137.223 127.711 128.609 136.631 118.167 142.933C107.726 149.234 95.8191 152.698 83.6268 152.981C71.4344 153.265 59.3796 150.358 48.6564 144.548C38.9607 139.296 30.6579 131.835 24.4085 122.79C23.3097 121.199 23.8239 119.036 25.4672 118.018V118.018C27.1105 117.001 29.2598 117.514 30.3674 119.098C35.9685 127.11 43.3676 133.722 51.9908 138.394C61.6417 143.622 72.491 146.238 83.4641 145.983C94.4372 145.728 105.153 142.61 114.551 136.939C123.948 131.268 131.701 123.24 137.041 113.651C142.381 104.061 145.123 93.2432 144.996 82.2679C144.868 71.2926 141.875 60.541 136.314 51.0783C130.752 41.6155 122.815 33.77 113.288 28.3188C104.776 23.448 95.2586 20.64 85.4983 20.0972C83.5683 19.9899 82 18.433 82 16.5V16.5Z" fill="#50ff7f"/>
<path d="M46.543 89.1836H46.7656C48.0156 89.1836 49.0312 89.0078 49.8125 88.6562C50.5938 88.3047 51.1953 87.832 51.6172 87.2383C52.0391 86.6445 52.3281 85.9766 52.4844 85.2344C52.6406 84.4844 52.7188 83.7148 52.7188 82.9258V80.3125C52.7188 79.5391 52.6289 78.8516 52.4492 78.25C52.2773 77.6484 52.0352 77.1445 51.7227 76.7383C51.418 76.332 51.0703 76.0234 50.6797 75.8125C50.2891 75.6016 49.875 75.4961 49.4375 75.4961C48.9375 75.4961 48.4883 75.5977 48.0898 75.8008C47.6992 75.9961 47.3672 76.2734 47.0938 76.6328C46.8281 76.9922 46.625 77.4141 46.4844 77.8984C46.3438 78.3828 46.2734 78.9102 46.2734 79.4805C46.2734 79.9883 46.3359 80.4805 46.4609 80.957C46.5859 81.4336 46.7773 81.8633 47.0352 82.2461C47.293 82.6289 47.6133 82.9336 47.9961 83.1602C48.3867 83.3789 48.8438 83.4883 49.3672 83.4883C49.8516 83.4883 50.3047 83.3945 50.7266 83.207C51.1562 83.0117 51.5352 82.75 51.8633 82.4219C52.1992 82.0859 52.4648 81.707 52.6602 81.2852C52.8633 80.8633 52.9805 80.4219 53.0117 79.9609H54.043C54.043 80.6094 53.9141 81.25 53.6562 81.8828C53.4062 82.5078 53.0547 83.0781 52.6016 83.5938C52.1484 84.1094 51.6172 84.5234 51.0078 84.8359C50.3984 85.1406 49.7344 85.293 49.0156 85.293C48.1719 85.293 47.4414 85.1289 46.8242 84.8008C46.207 84.4727 45.6992 84.0352 45.3008 83.4883C44.9102 82.9414 44.6172 82.332 44.4219 81.6602C44.2344 80.9805 44.1406 80.293 44.1406 79.5977C44.1406 78.7852 44.2539 78.0234 44.4805 77.3125C44.707 76.6016 45.043 75.9766 45.4883 75.4375C45.9336 74.8906 46.4844 74.4648 47.1406 74.1602C47.8047 73.8555 48.5703 73.7031 49.4375 73.7031C50.4141 73.7031 51.2461 73.8984 51.9336 74.2891C52.6211 74.6797 53.1797 75.2031 53.6094 75.8594C54.0469 76.5156 54.3672 77.2539 54.5703 78.0742C54.7734 78.8945 54.875 79.7383 54.875 80.6055V81.3906C54.875 82.2734 54.8164 83.1719 54.6992 84.0859C54.5898 84.9922 54.375 85.8594 54.0547 86.6875C53.7422 87.5156 53.2852 88.2578 52.6836 88.9141C52.082 89.5625 51.2969 90.0781 50.3281 90.4609C49.3672 90.8359 48.1797 91.0234 46.7656 91.0234H46.543V89.1836ZM60.393 89.1836H60.6156C61.8656 89.1836 62.8813 89.0078 63.6625 88.6562C64.4438 88.3047 65.0453 87.832 65.4672 87.2383C65.8891 86.6445 66.1781 85.9766 66.3344 85.2344C66.4906 84.4844 66.5688 83.7148 66.5688 82.9258V80.3125C66.5688 79.5391 66.4789 78.8516 66.2992 78.25C66.1273 77.6484 65.8852 77.1445 65.5727 76.7383C65.268 76.332 64.9203 76.0234 64.5297 75.8125C64.1391 75.6016 63.725 75.4961 63.2875 75.4961C62.7875 75.4961 62.3383 75.5977 61.9398 75.8008C61.5492 75.9961 61.2172 76.2734 60.9438 76.6328C60.6781 76.9922 60.475 77.4141 60.3344 77.8984C60.1938 78.3828 60.1234 78.9102 60.1234 79.4805C60.1234 79.9883 60.1859 80.4805 60.3109 80.957C60.4359 81.4336 60.6273 81.8633 60.8852 82.2461C61.143 82.6289 61.4633 82.9336 61.8461 83.1602C62.2367 83.3789 62.6938 83.4883 63.2172 83.4883C63.7016 83.4883 64.1547 83.3945 64.5766 83.207C65.0063 83.0117 65.3852 82.75 65.7133 82.4219C66.0492 82.0859 66.3148 81.707 66.5102 81.2852C66.7133 80.8633 66.8305 80.4219 66.8617 79.9609H67.893C67.893 80.6094 67.7641 81.25 67.5063 81.8828C67.2563 82.5078 66.9047 83.0781 66.4516 83.5938C65.9984 84.1094 65.4672 84.5234 64.8578 84.8359C64.2484 85.1406 63.5844 85.293 62.8656 85.293C62.0219 85.293 61.2914 85.1289 60.6742 84.8008C60.057 84.4727 59.5492 84.0352 59.1508 83.4883C58.7602 82.9414 58.4672 82.332 58.2719 81.6602C58.0844 80.9805 57.9906 80.293 57.9906 79.5977C57.9906 78.7852 58.1039 78.0234 58.3305 77.3125C58.557 76.6016 58.893 75.9766 59.3383 75.4375C59.7836 74.8906 60.3344 74.4648 60.9906 74.1602C61.6547 73.8555 62.4203 73.7031 63.2875 73.7031C64.2641 73.7031 65.0961 73.8984 65.7836 74.2891C66.4711 74.6797 67.0297 75.2031 67.4594 75.8594C67.8969 76.5156 68.2172 77.2539 68.4203 78.0742C68.6234 78.8945 68.725 79.7383 68.725 80.6055V81.3906C68.725 82.2734 68.6664 83.1719 68.5492 84.0859C68.4398 84.9922 68.225 85.8594 67.9047 86.6875C67.5922 87.5156 67.1352 88.2578 66.5336 88.9141C65.932 89.5625 65.1469 90.0781 64.1781 90.4609C63.2172 90.8359 62.0297 91.0234 60.6156 91.0234H60.393V89.1836ZM74.2898 88.4219V90.168C74.2898 90.8789 74.1102 91.6289 73.7508 92.418C73.3914 93.2148 72.8875 93.8789 72.2391 94.4102L71.0086 93.5547C71.2586 93.2109 71.4695 92.8594 71.6414 92.5C71.8133 92.1484 71.9422 91.7812 72.0281 91.3984C72.1219 91.0234 72.1688 90.625 72.1688 90.2031V88.4219H74.2898ZM79.9133 82.8789L78.1789 82.4336L79.0344 73.9375H87.7883V75.9414H80.8742L80.3586 80.582C80.6711 80.4023 81.0656 80.2344 81.5422 80.0781C82.0266 79.9219 82.5812 79.8438 83.2062 79.8438C83.9953 79.8438 84.7023 79.9805 85.3273 80.2539C85.9523 80.5195 86.4836 80.9023 86.9211 81.4023C87.3664 81.9023 87.7062 82.5039 87.9406 83.207C88.175 83.9102 88.2922 84.6953 88.2922 85.5625C88.2922 86.3828 88.1789 87.1367 87.9523 87.8242C87.7336 88.5117 87.4016 89.1133 86.9562 89.6289C86.5109 90.1367 85.9484 90.5312 85.2687 90.8125C84.5969 91.0938 83.8039 91.2344 82.8898 91.2344C82.2023 91.2344 81.55 91.1406 80.9328 90.9531C80.3234 90.7578 79.7766 90.4648 79.2922 90.0742C78.8156 89.6758 78.425 89.1836 78.1203 88.5977C77.8234 88.0039 77.6359 87.3086 77.5578 86.5117H79.6203C79.7141 87.1523 79.9016 87.6914 80.1828 88.1289C80.4641 88.5664 80.8312 88.8984 81.2844 89.125C81.7453 89.3438 82.2805 89.4531 82.8898 89.4531C83.4055 89.4531 83.8625 89.3633 84.2609 89.1836C84.6594 89.0039 84.9953 88.7461 85.2687 88.4102C85.5422 88.0742 85.7492 87.668 85.8898 87.1914C86.0383 86.7148 86.1125 86.1797 86.1125 85.5859C86.1125 85.0469 86.0383 84.5469 85.8898 84.0859C85.7414 83.625 85.5187 83.2227 85.2219 82.8789C84.9328 82.5352 84.5773 82.2695 84.1555 82.082C83.7336 81.8867 83.2492 81.7891 82.7023 81.7891C81.9758 81.7891 81.425 81.8867 81.05 82.082C80.6828 82.2773 80.3039 82.543 79.9133 82.8789ZM101.732 81.1094V83.7109C101.732 85.1094 101.607 86.2891 101.357 87.25C101.107 88.2109 100.748 88.9844 100.279 89.5703C99.8102 90.1562 99.2438 90.582 98.5797 90.8477C97.9234 91.1055 97.1813 91.2344 96.3531 91.2344C95.6969 91.2344 95.0914 91.1523 94.5367 90.9883C93.982 90.8242 93.482 90.5625 93.0367 90.2031C92.5992 89.8359 92.2242 89.3594 91.9117 88.7734C91.5992 88.1875 91.3609 87.4766 91.1969 86.6406C91.0328 85.8047 90.9508 84.8281 90.9508 83.7109V81.1094C90.9508 79.7109 91.0758 78.5391 91.3258 77.5938C91.5836 76.6484 91.9469 75.8906 92.4156 75.3203C92.8844 74.7422 93.4469 74.3281 94.1031 74.0781C94.7672 73.8281 95.5094 73.7031 96.3297 73.7031C96.9938 73.7031 97.6031 73.7852 98.1578 73.9492C98.7203 74.1055 99.2203 74.3594 99.6578 74.7109C100.095 75.0547 100.466 75.5156 100.771 76.0938C101.084 76.6641 101.322 77.3633 101.486 78.1914C101.65 79.0195 101.732 79.9922 101.732 81.1094ZM99.5523 84.0625V80.7461C99.5523 79.9805 99.5055 79.3086 99.4117 78.7305C99.3258 78.1445 99.1969 77.6445 99.025 77.2305C98.8531 76.8164 98.6344 76.4805 98.3688 76.2227C98.1109 75.9648 97.8102 75.7773 97.4664 75.6602C97.1305 75.5352 96.7516 75.4727 96.3297 75.4727C95.8141 75.4727 95.357 75.5703 94.9586 75.7656C94.5602 75.9531 94.2242 76.2539 93.9508 76.668C93.6852 77.082 93.482 77.625 93.3414 78.2969C93.2008 78.9688 93.1305 79.7852 93.1305 80.7461V84.0625C93.1305 84.8281 93.1734 85.5039 93.2594 86.0898C93.3531 86.6758 93.4898 87.1836 93.6695 87.6133C93.8492 88.0352 94.068 88.3828 94.3258 88.6562C94.5836 88.9297 94.8805 89.1328 95.2164 89.2656C95.5602 89.3906 95.9391 89.4531 96.3531 89.4531C96.8844 89.4531 97.3492 89.3516 97.7477 89.1484C98.1461 88.9453 98.4781 88.6289 98.7438 88.1992C99.0172 87.7617 99.2203 87.2031 99.3531 86.5234C99.4859 85.8359 99.5523 85.0156 99.5523 84.0625ZM104.684 78.1211V77.2188C104.684 76.5703 104.824 75.9805 105.105 75.4492C105.387 74.918 105.789 74.4922 106.312 74.1719C106.836 73.8516 107.457 73.6914 108.176 73.6914C108.91 73.6914 109.535 73.8516 110.051 74.1719C110.574 74.4922 110.977 74.918 111.258 75.4492C111.539 75.9805 111.68 76.5703 111.68 77.2188V78.1211C111.68 78.7539 111.539 79.3359 111.258 79.8672C110.984 80.3984 110.586 80.8242 110.062 81.1445C109.547 81.4648 108.926 81.625 108.199 81.625C107.473 81.625 106.844 81.4648 106.312 81.1445C105.789 80.8242 105.387 80.3984 105.105 79.8672C104.824 79.3359 104.684 78.7539 104.684 78.1211ZM106.312 77.2188V78.1211C106.312 78.4805 106.379 78.8203 106.512 79.1406C106.652 79.4609 106.863 79.7227 107.145 79.9258C107.426 80.1211 107.777 80.2188 108.199 80.2188C108.621 80.2188 108.969 80.1211 109.242 79.9258C109.516 79.7227 109.719 79.4609 109.852 79.1406C109.984 78.8203 110.051 78.4805 110.051 78.1211V77.2188C110.051 76.8516 109.98 76.5078 109.84 76.1875C109.707 75.8594 109.5 75.5977 109.219 75.4023C108.945 75.1992 108.598 75.0977 108.176 75.0977C107.762 75.0977 107.414 75.1992 107.133 75.4023C106.859 75.5977 106.652 75.8594 106.512 76.1875C106.379 76.5078 106.312 76.8516 106.312 77.2188ZM112.992 87.7305V86.8164C112.992 86.1758 113.133 85.5898 113.414 85.0586C113.695 84.5273 114.098 84.1016 114.621 83.7812C115.145 83.4609 115.766 83.3008 116.484 83.3008C117.219 83.3008 117.844 83.4609 118.359 83.7812C118.883 84.1016 119.285 84.5273 119.566 85.0586C119.848 85.5898 119.988 86.1758 119.988 86.8164V87.7305C119.988 88.3711 119.848 88.957 119.566 89.4883C119.293 90.0195 118.895 90.4453 118.371 90.7656C117.855 91.0859 117.234 91.2461 116.508 91.2461C115.781 91.2461 115.156 91.0859 114.633 90.7656C114.109 90.4453 113.703 90.0195 113.414 89.4883C113.133 88.957 112.992 88.3711 112.992 87.7305ZM114.621 86.8164V87.7305C114.621 88.0898 114.688 88.4336 114.82 88.7617C114.961 89.082 115.172 89.3438 115.453 89.5469C115.734 89.7422 116.086 89.8398 116.508 89.8398C116.93 89.8398 117.277 89.7422 117.551 89.5469C117.832 89.3438 118.039 89.082 118.172 88.7617C118.305 88.4414 118.371 88.0977 118.371 87.7305V86.8164C118.371 86.4492 118.301 86.1055 118.16 85.7852C118.027 85.4648 117.82 85.207 117.539 85.0117C117.266 84.8086 116.914 84.707 116.484 84.707C116.07 84.707 115.723 84.8086 115.441 85.0117C115.168 85.207 114.961 85.4648 114.82 85.7852C114.688 86.1055 114.621 86.4492 114.621 86.8164ZM117.023 76.3633L108.691 89.6992L107.473 88.9258L115.805 75.5898L117.023 76.3633Z" fill="white"/>
<defs>
<filter id="filter0_d_1550_6670" x="0" y="0" width="164" height="164" filterUnits="userSpaceOnUse" color-interpolation-filters="sRGB">
<feFlood flood-opacity="0" result="BackgroundImageFix"/>
<feColorMatrix in="SourceAlpha" type="matrix" values="0 0 0 0 0 0 0 0 0 0 0 0 0 0 0 0 0 0 127 0" result="hardAlpha"/>
<feMorphology radius="12" operator="dilate" in="SourceAlpha" result="effect1_dropShadow_1550_6670"/>
<feOffset/>
<feComposite in2="hardAlpha" operator="out"/>
<feColorMatrix type="matrix" values="0 0 0 0 0 0 0 0 0 0 0 0 0 0 0 0 0 0 0.02 0"/>
<feBlend mode="normal" in2="BackgroundImageFix" result="effect1_dropShadow_1550_6670"/>
<feBlend mode="normal" in="SourceGraphic" in2="effect1_dropShadow_1550_6670" result="shape"/>
</filter>
</defs>
</svg>
