<svg width="24" height="24" viewBox="0 0 24 24" fill="none" xmlns="http://www.w3.org/2000/svg">
<path d="M12 1C5.93477 1 1 5.93435 1 12C1 18.0657 5.93477 23 12 23C18.0652 23 23 18.0657 23 12C23 5.93435 18.0652 1 12 1ZM12 22.1538C6.40142 22.1538 1.84615 17.5986 1.84615 12C1.84615 6.40142 6.40142 1.84615 12 1.84615C17.5986 1.84615 22.1538 6.40142 22.1538 12C22.1538 17.5986 17.5986 22.1538 12 22.1538Z" fill="#101212" stroke="#101212" stroke-width="0.5"/>
<path fill-rule="evenodd" clip-rule="evenodd" d="M11.75 15.5C11.336 15.5 11 15.836 11 16.25C11 16.664 11.336 17 11.75 17C12.164 17 12.5 16.664 12.5 16.25C12.5 15.836 12.164 15.5 11.75 15.5Z" fill="#101212"/>
<path fill-rule="evenodd" clip-rule="evenodd" d="M12.5 14H11V7H12.5V14Z" fill="#101212"/>
</svg>