<svg width="24" height="24" viewBox="0 0 24 24" fill="none" xmlns="http://www.w3.org/2000/svg">
<path d="M12 1C5.93477 1 1 5.93435 1 12C1 18.0657 5.93477 23 12 23C18.0652 23 23 18.0657 23 12C23 5.93435 18.0652 1 12 1ZM12 22.1538C6.40142 22.1538 1.84615 17.5986 1.84615 12C1.84615 6.40142 6.40142 1.84615 12 1.84615C17.5986 1.84615 22.1538 6.40142 22.1538 12C22.1538 17.5986 17.5986 22.1538 12 22.1538Z" fill="#101212" stroke="#101212" stroke-width="0.5"/>
<line x1="11.4302" y1="12.3856" x2="17.1642" y2="16.4007" stroke="#101212" stroke-width="1.5"/>
<line x1="11.25" y1="13" x2="11.25" y2="6" stroke="#101212" stroke-width="1.5"/>
</svg>
