<svg width="35" height="35" viewBox="0 0 35 35" fill="none" xmlns="http://www.w3.org/2000/svg">
<g clip-path="url(#clip0_125_299)">
<path d="M33 0H2C0.89543 0 0 0.89543 0 2V33C0 34.1046 0.89543 35 2 35H33C34.1046 35 35 34.1046 35 33V2C35 0.89543 34.1046 0 33 0Z" fill="#4C4D55"/>
<path fill-rule="evenodd" clip-rule="evenodd" d="M8.19606 20.4283H12.1061C12.4438 20.3829 12.7567 20.226 12.9952 19.9825C13.2338 19.7389 13.3844 19.4227 13.4232 19.0838V15.8446C13.3849 15.5051 13.2341 15.1883 12.995 14.9446C12.7559 14.7009 12.4422 14.5444 12.1039 14.5H8.19606C8.01193 14.5003 7.83538 14.5735 7.70498 14.7037C7.57457 14.8338 7.50089 15.0103 7.5 15.1947V19.728C7.50088 19.9125 7.57453 20.0891 7.70491 20.2194C7.83528 20.3498 8.01183 20.4232 8.19606 20.4238" fill="white"/>
<path fill-rule="evenodd" clip-rule="evenodd" d="M8.19606 21.5773H12.171C12.783 21.5149 13.3542 21.2409 13.7864 20.8025C14.2185 20.3641 14.4846 19.7886 14.5389 19.1751V15.8249C14.4843 15.2111 14.2176 14.6355 13.7848 14.1972C13.3519 13.759 12.7801 13.4855 12.1676 13.4238H8.19606C8.01174 13.4235 7.83503 13.3501 7.70459 13.2198C7.57415 13.0894 7.50059 12.9126 7.5 12.728V8.19579C7.50059 8.01124 7.57415 7.83444 7.70459 7.70405C7.83503 7.57366 8.01174 7.5003 8.19606 7.5H12.7283C12.9125 7.5003 13.0891 7.5737 13.2194 7.70412C13.3496 7.83454 13.4229 8.01135 13.4232 8.19579V12.1678C13.4857 12.7811 13.7598 13.3534 14.1984 13.7862C14.6369 14.2189 15.2125 14.485 15.8259 14.5387H19.1752C19.7886 14.4852 20.3641 14.2191 20.8025 13.7863C21.2409 13.3535 21.5147 12.7811 21.5768 12.1678C21.6439 10.8972 21.5768 9.47871 21.5768 8.19579C21.5773 8.01144 21.6508 7.83481 21.781 7.70445C21.9112 7.57409 22.0876 7.50059 22.2717 7.5H26.805C26.9893 7.5003 27.1659 7.5737 27.2961 7.70412C27.4264 7.83454 27.4997 8.01135 27.5 8.19579V12.728C27.4997 12.9125 27.4264 13.0893 27.2961 13.2197C27.1659 13.3501 26.9893 13.4235 26.805 13.4238H22.8324C22.2205 13.4852 21.6491 13.7582 21.2165 14.1958C20.7839 14.6334 20.5171 15.2083 20.4622 15.8216V19.1751C20.5159 19.7892 20.7822 20.3653 21.2149 20.8038C21.6476 21.2424 22.2197 21.516 22.8324 21.5773H26.805C26.9891 21.5776 27.1655 21.6509 27.2957 21.781C27.426 21.9112 27.4994 22.0877 27.5 22.272V26.8053C27.4994 26.9896 27.426 27.1661 27.2957 27.2963C27.1655 27.4265 26.9891 27.4997 26.805 27.5H22.2717C22.0878 27.4994 21.9115 27.4261 21.7813 27.2959C21.6512 27.1658 21.5776 26.9895 21.5768 26.8053V22.8333C21.5143 22.2202 21.2403 21.648 20.802 21.2153C20.3637 20.7826 19.7884 20.5164 19.1752 20.4625C15.9008 20.4625 15.5942 19.8193 14.1853 21.2277C13.7537 21.6587 13.4844 22.2261 13.4232 22.8333V26.8053C13.4226 26.9896 13.3492 27.1661 13.219 27.2963C13.0887 27.4265 12.9123 27.4997 12.7283 27.5H8.19606C8.01193 27.4997 7.83538 27.4265 7.70498 27.2963C7.57457 27.1662 7.50089 26.9897 7.5 26.8053V22.272C7.50089 22.0876 7.57457 21.9111 7.70498 21.781C7.83538 21.6508 8.01193 21.5776 8.19606 21.5773Z" fill="white"/>
</g>
<defs>
<clipPath id="clip0_125_299">
<rect width="35" height="35" fill="white"/>
</clipPath>
</defs>
</svg>
