<svg width="35" height="35" viewBox="0 0 35 35" fill="none" xmlns="http://www.w3.org/2000/svg">
<rect width="35" height="35" rx="2" fill=""/>
<path d="M23.9607 19.2052C23.2705 18.7969 22.4932 18.6786 21.7232 18.6511C21.0772 18.6279 20.1135 18.2039 20.1135 17.0001C20.1135 16.1031 20.8232 15.3813 21.7235 15.3491C22.4934 15.3215 23.2707 15.203 23.9607 14.7949C25.6744 13.7814 26.4304 11.6536 25.7536 9.74878C25.0768 7.84392 23.1626 6.71182 21.2139 7.06387C19.2652 7.41592 17.8445 9.15048 17.8445 11.1776C17.8445 11.9869 18.1255 12.7317 18.484 13.4224C18.7856 14.0034 18.9381 15.0817 17.9039 15.6933C17.1346 16.1483 16.1745 15.8602 15.6949 15.074C15.2898 14.4099 14.8008 13.7876 14.1162 13.3826C12.4025 12.3691 10.2259 12.7622 8.95395 14.3151C7.68202 15.8679 7.68202 18.1321 8.95395 19.685C10.2259 21.2378 12.4025 21.631 14.1162 20.6174C14.8006 20.2126 15.2897 19.5908 15.6945 18.9271C16.027 18.3821 16.8572 17.6874 17.9039 18.3069C18.672 18.7616 18.9095 19.7577 18.4837 20.5782C18.1252 21.2688 17.8446 22.0134 17.8446 22.8226C17.8446 24.8497 19.2653 26.5841 21.214 26.9361C23.1626 27.2881 25.0767 26.156 25.7535 24.2512C26.4303 22.3464 25.6744 20.2188 23.9607 19.2052Z" fill="#42434B"/>
</svg>