<svg width="20" height="24" viewBox="0 0 20 24" fill="none" xmlns="http://www.w3.org/2000/svg">
<path d="M10 0L3.85757 3.53116L6.11276 4.8368L10 2.61128L13.8872 4.8368L16.1424 3.53116L10 0ZM13.8872 
6.70623L16.1424 8.01187V10.6231L12.2552 12.8487V17.2997L10 18.6053L7.74481 17.2997V12.8487L3.85757 
10.6231V8.01187L6.11276 6.70623L10 8.93175L13.8872 6.70623ZM16.1424 12.4926V15.1039L13.8872 16.4095V13.7982L16.1424 
12.4926ZM13.8576 18.2493L17.7448 16.0237V11.5727L20 10.2671V17.359L13.8576 20.8902V18.2493ZM17.7448 7.09199L15.4896
 5.78635L17.7448 4.48071L20 5.78635V8.39763L17.7448 9.70326V7.09199ZM7.74481 21.8101V19.1988L10 20.5044L12.2552 19.1988V21.8101L10 23.1157L7.74481
  21.8101ZM6.11276 16.4095L3.85757 15.1039V12.4926L6.11276 13.7982V16.4095ZM10 7.09199L7.74481 5.78635L10 4.48071L12.2552 5.78635L10 7.09199ZM4.51039
   5.78635L2.25519 7.09199V9.70326L0 8.39763V5.78635L2.25519 4.48071L4.51039 5.78635ZM0 10.2374L2.25519 11.543V15.9941L6.14243 18.2196V20.8309L0 
   17.2997V10.2374Z" fill="white"/>
</svg>
