<svg width="18" height="19" viewBox="0 0 18 19" fill="none" xmlns="http://www.w3.org/2000/svg">
<path d="M18 9.5C18 4.53714 13.9629 0.5 9 0.5C4.03714 0.5 0 4.53714 0 9.5C0 14.4629 4.03714 18.5 9 18.5C13.9629 18.5 18 14.4629 18 9.5ZM1.26 9.5C1.26 5.23143 4.73143 1.76 9 1.76C13.2686 1.76 16.74 5.23143 16.74 9.5C16.74 13.7686 13.2686 17.24 9 17.24C4.73143 17.24 1.26 13.7686 1.26 9.5Z" fill="#101212"/>
<path d="M11.1051 9.05551L8.45652 6.40694C8.21039 6.16082 7.80999 6.16082 7.56386 6.40694C7.31774 6.65307 7.31774 7.05347 7.56386 7.2996L9.76795 9.50368L7.56386 11.7078C7.31774 11.9539 7.31774 12.3543 7.56386 12.6004C7.68509 12.7216 7.84672 12.7841 8.00835 12.7841C8.16999 12.7841 8.33162 12.7216 8.45284 12.6004L11.1014 9.95184C11.3512 9.69837 11.3512 9.30164 11.1051 9.05551Z" fill="#101212"/>
</svg>