<svg width="31" height="30" viewBox="0 0 31 30" fill="none" xmlns="http://www.w3.org/2000/svg">
<path d="M30.5625 15C30.5625 23.2842 23.7627 30 15.375 30C6.98728 30 0.1875 23.2842 0.1875 15C0.1875 6.71583 6.98728 0 15.375 0C23.7627 0 30.5625 6.71583 30.5625 15Z" fill="#FFCC4D"/>
<path d="M15.375 17.5C12.3181 17.5 10.2897 17.1484 7.78125 16.6667C7.20834 16.5575 6.09375 16.6667 6.09375 18.3334C6.09375 21.6667 9.97078 25.8334 15.375 25.8334C20.7784 25.8334 24.6562 21.6667 24.6562 18.3334C24.6562 16.6667 23.5417 16.5567 22.9688 16.6667C20.4603 17.1484 18.4319 17.5 15.375 17.5Z" fill="#664500"/>
<path d="M7.78125 18.3333C7.78125 18.3333 10.3125 19.1666 15.375 19.1666C20.4375 19.1666 22.9688 18.3333 22.9688 18.3333C22.9688 18.3333 21.2812 21.6666 15.375 21.6666C9.46875 21.6666 7.78125 18.3333 7.78125 18.3333Z" fill="white"/>
<path d="M13.4189 3.67752L9.58659 4.34503L7.61222 0.800858C7.39453 0.410025 6.94734 0.200858 6.50522 0.277525C6.06056 0.355025 5.71462 0.703358 5.64544 1.14336L5.01684 5.14086L1.18453 5.80836C0.733124 5.88669 0.384655 6.24586 0.323062 6.69503C0.261468 7.14419 0.501093 7.58086 0.916218 7.77586L4.35028 9.38586L3.71916 13.3959C3.64912 13.8425 3.87862 14.2825 4.287 14.4867C4.43803 14.5617 4.60003 14.5975 4.76119 14.5975C5.03709 14.5975 5.30962 14.4909 5.51297 14.2875L8.47622 11.32L12.2883 13.1075C12.7017 13.3009 13.1945 13.21 13.5083 12.8809C13.8222 12.5517 13.8847 12.0609 13.6644 11.665L11.6833 8.10836L14.3538 5.43502C14.6761 5.11252 14.7495 4.62086 14.5369 4.21919C14.3226 3.81752 13.8678 3.60002 13.4189 3.67752ZM17.3305 3.67752L21.1628 4.34503L23.1372 0.800858C23.3549 0.410025 23.8021 0.200858 24.2442 0.277525C24.688 0.355025 25.034 0.703358 25.1032 1.14336L25.7317 5.14086L29.5641 5.80836C30.0163 5.88669 30.3648 6.24503 30.4255 6.69419C30.4863 7.14336 30.2475 7.58002 29.8324 7.77502L26.3983 9.38503L27.0294 13.395C27.0995 13.8417 26.87 14.2817 26.4616 14.4859C26.3106 14.5609 26.1486 14.5967 25.9874 14.5967C25.7115 14.5967 25.439 14.49 25.2356 14.2867L22.2724 11.3192L18.4603 13.1067C18.0469 13.3 17.5541 13.2092 17.2402 12.88C16.9264 12.5509 16.8639 12.06 17.0842 11.6642L19.0653 8.10836L16.3948 5.43502C16.0725 5.11252 15.9991 4.62086 16.2117 4.21919C16.4269 3.81752 16.8817 3.60002 17.3305 3.67752Z" fill="#E95F28"/>
</svg>