<svg width="35" height="35" viewBox="0 0 35 35" fill="none" xmlns="http://www.w3.org/2000/svg">
<rect width="35" height="35" rx="2" fill="#4C4D55"/>
<path d="M21.0886 18.4189C19.9509 19.6162 18.4302 20.3429 16.7647 20.3429C15.0993 20.3429 13.5786 19.6162 12.4408 18.4189C10.4404 19.6791 9.02799 21.7875 8.70936 24.2396C8.63661 24.7996 9.07293 25.2967 9.63906 25.2967H19.5429C19.5429 22.9563 20.9466 20.9378 22.9562 20.0383C22.4208 19.4084 21.791 18.8614 21.0886 18.4189Z" fill="white"/>
<path d="M16.5597 18.3964C19.0397 18.3964 21.0501 15.9984 21.0501 13.0402C21.0501 10.082 19.0397 7.68391 16.5597 7.68391C14.0797 7.68391 12.0692 10.082 12.0692 13.0402C12.0692 15.9984 14.0797 18.3964 16.5597 18.3964Z" fill="white"/>
<path d="M25.8671 21.5819C23.5081 21.5819 21.589 23.501 21.589 25.86C21.589 28.219 23.5082 30.1381 25.8671 30.1381C28.226 30.1381 30.1452 28.2189 30.1452 25.8599C30.1452 23.501 28.226 21.5819 25.8671 21.5819ZM27.5648 26.5999H26.607V27.5576C26.607 27.9662 26.2757 28.2975 25.8671 28.2975C25.4585 28.2975 25.1272 27.9662 25.1272 27.5576V26.5999H24.1694C23.7608 26.5999 23.4295 26.2686 23.4295 25.86C23.4295 25.4513 23.7608 25.1201 24.1694 25.1201H25.1272V24.1623C25.1272 23.7537 25.4585 23.4225 25.8671 23.4225C26.2757 23.4225 26.607 23.7537 26.607 24.1623V25.1201H27.5648C27.9734 25.1201 28.3046 25.4514 28.3046 25.86C28.3047 26.2686 27.9734 26.5999 27.5648 26.5999Z" fill="white"/>
</svg>
