<svg width="32" height="30" viewBox="0 0 32 30" fill="none" xmlns="http://www.w3.org/2000/svg">
<path d="M31.0625 15C31.0625 23.2842 24.2627 30 15.875 30C7.48813 30 0.6875 23.2842 0.6875 15C0.6875 6.71667 7.48813 0 15.875 0C24.2627 0 31.0625 6.71667 31.0625 15Z" fill="#FFCC4D"/>
<path d="M10.3906 15.0001C11.5556 15.0001 12.5 13.6942 12.5 12.0834C12.5 10.4726 11.5556 9.16675 10.3906 9.16675C9.22565 9.16675 8.28125 10.4726 8.28125 12.0834C8.28125 13.6942 9.22565 15.0001 10.3906 15.0001Z" fill="#664500"/>
<path d="M21.3594 15.0001C22.5244 15.0001 23.4688 13.6942 23.4688 12.0834C23.4688 10.4726 22.5244 9.16675 21.3594 9.16675C20.1944 9.16675 19.25 10.4726 19.25 12.0834C19.25 13.6942 20.1944 15.0001 21.3594 15.0001Z" fill="#664500"/>
<path d="M7.9984 23.2258C8.14859 23.3599 8.37303 23.3683 8.53419 23.2499C8.56709 23.2258 11.8434 20.8333 15.8748 20.8333C19.8961 20.8333 23.1834 23.2258 23.2154 23.2499C23.3766 23.3683 23.601 23.3583 23.7512 23.2258C23.9006 23.0924 23.9343 22.8724 23.8305 22.7024C23.7217 22.5241 21.1162 18.3333 15.8748 18.3333C10.6334 18.3333 8.02709 22.5233 7.91909 22.7024C7.81531 22.8733 7.84822 23.0924 7.9984 23.2258Z" fill="#664500"/>
</svg>