
<svg width="27" height="32" viewBox="0 0 27 32" fill="none" xmlns="http://www.w3.org/2000/svg">
<path fill-rule="evenodd" clip-rule="evenodd" d="M15.2886 0.845795C19.3837 0.845795 23.2261 2.47259 26.0625 5.31284L23.2956 8.076C21.1854 5.96296 18.335 4.75617 15.2886 4.75617C9.0391 4.75617 3.97287 9.82239 3.97287 16.0719C3.97287 22.3214 9.0391 27.3876 15.2886 27.3876C18.104 27.3876 20.7543 26.3581 22.8132 24.5235L25.4146 27.443C22.6462 29.9098 19.0727 31.298 15.2886 31.298C6.87946 31.298 0.0625 24.481 0.0625 16.0719C0.0625 7.66275 6.87946 0.845795 15.2886 0.845795ZM15.2252 8.28467C17.36 8.28467 19.3652 9.13366 20.8438 10.6143L18.0769 13.3774C17.3245 12.624 16.3113 12.195 15.2252 12.195C12.9994 12.195 11.195 13.9994 11.195 16.2252C11.195 18.451 12.9994 20.2553 15.2252 20.2553C16.2291 20.2553 17.1709 19.8895 17.9047 19.2356L20.5062 22.1551C19.0628 23.4412 17.1977 24.1657 15.2252 24.1657C10.8397 24.1657 7.28464 20.6106 7.28464 16.2252C7.28464 11.8398 10.8397 8.28467 15.2252 8.28467Z" fill="#000000"/>
</svg>
