<svg width="36" height="36" viewBox="0 0 36 36" fill="none" xmlns="http://www.w3.org/2000/svg">
<mask id="mask0_22_105" style="mask-type:luminance" maskUnits="userSpaceOnUse" x="0" y="0" width="36" height="36">
<path d="M33.5 0.5H2.5C1.39543 0.5 0.5 1.39543 0.5 2.5V33.5C0.5 34.6046 1.39543 35.5 2.5 35.5H33.5C34.6046 35.5 35.5 34.6046 35.5 33.5V2.5C35.5 1.39543 34.6046 0.5 33.5 0.5Z" fill="white"/>
</mask>
<g mask="url(#mask0_22_105)">
<path fill-rule="evenodd" clip-rule="evenodd" d="M2.89686 0.5H33.1034C34.4215 0.5 35.5 1.57851 35.5 2.89662V33.1031C35.5 34.4215 34.4215 35.5 33.1034 35.5H2.89686C1.5785 35.5 0.5 34.4215 0.5 33.1031V2.89662C0.5 1.57851 1.5785 0.5 2.89686 0.5Z" fill="#50FF7F"/>
<path fill-rule="evenodd" clip-rule="evenodd" d="M8.69606 20.9826H12.6061C12.9438 20.9372 13.2567 20.7803 13.4952 20.5368C13.7338 20.2932 13.8844 19.977 13.9232 19.6381V16.3989C13.8849 16.0594 13.7341 15.7426 13.495 15.4989C13.2559 15.2552 12.9422 15.0987 12.6039 15.0543H8.69606C8.51193 15.0546 8.33538 15.1278 8.20498 15.258C8.07457 15.3881 8.00089 15.5646 8 15.749V20.2823C8.00088 20.4668 8.07453 20.6434 8.20491 20.7737C8.33528 20.9041 8.51183 20.9775 8.69606 20.9781" fill="black"/>
<path fill-rule="evenodd" clip-rule="evenodd" d="M8.69606 22.0773H12.671C13.283 22.0149 13.8542 21.7409 14.2864 21.3025C14.7185 20.8641 14.9846 20.2886 15.0389 19.6751V16.3249C14.9843 15.7111 14.7176 15.1355 14.2848 14.6972C13.8519 14.259 13.2801 13.9855 12.6676 13.9238H8.69606C8.51174 13.9235 8.33503 13.8501 8.20459 13.7198C8.07415 13.5894 8.00059 13.4126 8 13.228V8.69579C8.00059 8.51124 8.07415 8.33444 8.20459 8.20405C8.33503 8.07366 8.51174 8.0003 8.69606 8H13.2283C13.4125 8.0003 13.5891 8.0737 13.7194 8.20412C13.8496 8.33454 13.9229 8.51135 13.9232 8.69579V12.6678C13.9857 13.2811 14.2598 13.8534 14.6984 14.2862C15.1369 14.7189 15.7125 14.985 16.3259 15.0387H19.6752C20.2886 14.9852 20.8641 14.7191 21.3025 14.2863C21.7409 13.8535 22.0147 13.2811 22.0768 12.6678C22.1439 11.3972 22.0768 9.97871 22.0768 8.69579C22.0773 8.51144 22.1508 8.33481 22.281 8.20445C22.4112 8.07409 22.5876 8.00059 22.7717 8H27.305C27.4893 8.0003 27.6659 8.0737 27.7961 8.20412C27.9264 8.33454 27.9997 8.51135 28 8.69579V13.228C27.9997 13.4125 27.9264 13.5893 27.7961 13.7197C27.6659 13.8501 27.4893 13.9235 27.305 13.9238H23.3324C22.7205 13.9852 22.1491 14.2582 21.7165 14.6958C21.2839 15.1334 21.0171 15.7083 20.9622 16.3216V19.6751C21.0159 20.2892 21.2822 20.8653 21.7149 21.3038C22.1476 21.7424 22.7197 22.016 23.3324 22.0773H27.305C27.4891 22.0776 27.6655 22.1509 27.7957 22.281C27.926 22.4112 27.9994 22.5877 28 22.772V27.3053C27.9994 27.4896 27.926 27.6661 27.7957 27.7963C27.6655 27.9265 27.4891 27.9997 27.305 28H22.7717C22.5878 27.9994 22.4115 27.9261 22.2813 27.7959C22.1512 27.6658 22.0776 27.4895 22.0768 27.3053V23.3333C22.0143 22.7202 21.7403 22.148 21.302 21.7153C20.8637 21.2826 20.2884 21.0164 19.6752 20.9625C16.4008 20.9625 16.0942 20.3193 14.6853 21.7277C14.2537 22.1587 13.9844 22.7261 13.9232 23.3333V27.3053C13.9226 27.4896 13.8492 27.6661 13.719 27.7963C13.5887 27.9265 13.4123 27.9997 13.2283 28H8.69606C8.51193 27.9997 8.33538 27.9265 8.20498 27.7963C8.07457 27.6662 8.00089 27.4897 8 27.3053V22.772C8.00089 22.5876 8.07457 22.4111 8.20498 22.281C8.33538 22.1508 8.51193 22.0776 8.69606 22.0773Z" fill="black"/>
</g>
</svg>
