<svg width="50" height="50" viewBox="0 0 50 50" fill="none" xmlns="http://www.w3.org/2000/svg">
<rect width="50" height="50" rx="2" fill="#000000"/>
<path d="M39.6296 22.9235C39.6068 22.4928 39.3081 22.2078 38.9624 22.2868L36.4363 22.8643C36.1751 22.9241 35.962 23.1749 35.8834 23.4798C34.7737 21.8813 32.8189 19.2932 31.4287 18.7115C31.2363 18.6324 30.0384 18.2378 25.3453 18.2378C20.6521 18.2378 19.4544 18.6324 19.2578 18.7132C17.8706 19.2936 15.9167 21.8813 14.8072 23.4798C14.7285 23.1749 14.5155 22.9241 14.2542 22.8643L11.7282 22.2868C11.3826 22.2078 11.0838 22.4928 11.061 22.9235C11.038 23.3542 11.2997 23.7674 11.6452 23.8465L13.886 24.3588C13.1048 24.9412 12.5989 25.8723 12.5989 26.9215L12.9184 32.4365C12.9184 33.4888 13.7715 34.3418 14.8238 34.3418H15.9696C17.0219 34.3418 17.8749 33.4888 17.8749 32.4365L17.8375 32.0328H32.8529L32.8155 32.4365C32.8155 33.4888 33.6685 34.3418 34.7208 34.3418H35.8667C36.919 34.3418 37.7721 33.4888 37.7721 32.4365L38.0915 26.9215C38.0915 25.8723 37.5856 24.9413 36.8045 24.3588L39.0452 23.8465C39.3909 23.7674 39.6526 23.3542 39.6296 22.9235ZM19.7847 20.0166C19.8948 19.9808 21.0487 19.6435 25.3453 19.6435C29.6333 19.6435 30.7912 19.9795 30.9053 20.0165C31.7369 20.3777 33.1636 22.1008 34.336 23.7268H16.3545C17.5283 22.0987 18.9565 20.3737 19.7847 20.0166ZM28.0288 31.1002H22.6618C22.4147 31.1002 22.2145 30.8999 22.2145 30.653C22.2145 30.4059 22.4147 30.2057 22.6618 30.2057H28.0288C28.276 30.2057 28.4761 30.406 28.4761 30.653C28.4761 30.8999 28.276 31.1002 28.0288 31.1002ZM32.3993 28.7148C32.3993 28.7148 31.5047 28.1995 30.4186 28.0738H19.7226C18.6365 28.1995 17.7419 28.7148 17.7419 28.7148C15.2501 29.3538 14.5728 27.3092 14.5728 27.3092H35.5685C35.5684 27.3092 34.8911 29.3537 32.3993 28.7148Z" fill="#ffffff"/>
</svg>
