<svg width="100" height="77" viewBox="0 0 100 77" fill="none" xmlns="http://www.w3.org/2000/svg">
<path d="M36.7568 29.8348C36.5612 20.7109 35.9887 11.587 36.351 2.45679C36.7568 11.5807 37.1844 20.7046 36.7568 29.8348Z" fill="#606166"/>
<path d="M55.2351 0.425049C55.2351 9.03471 55.2351 17.6443 55.2351 26.254C55.1264 17.6443 54.6047 9.03471 54.9163 0.425049C55.0178 0.425049 55.1264 0.425049 55.2351 0.425049Z" fill="#606166"/>
<path d="M73.873 21.924C73.9673 14.7193 74.0615 7.36324 74.1557 0C74.8006 2.01733 74.4455 20.1084 73.873 21.924Z" fill="#606166"/>
<path d="M86.9424 62.0357C87.0004 61.3369 87.0583 60.638 87.1163 59.9319C87.2177 59.9392 87.3264 59.9463 87.4278 59.9607C87.3626 60.6596 87.3046 61.3585 87.2394 62.0646C87.138 62.0502 87.0366 62.0429 86.9424 62.0357Z" fill="#606166"/>
<path d="M75.1667 41.3654C68.3839 40.6809 61.8691 38.8221 55.3037 37.1722C55.3255 37.0786 55.3472 36.9849 55.3689 36.8984C61.9706 38.3898 68.565 39.874 75.1667 41.3654Z" fill="#606166"/>
<path d="M32.1143 38.0296C33.3607 37.8494 34.5999 37.6765 35.8463 37.4964C35.8608 37.5612 35.868 37.6261 35.8825 37.6909C34.6433 37.9143 33.4041 38.1376 32.1722 38.361C32.1505 38.2529 32.1288 38.1376 32.1143 38.0296Z" fill="#606166"/>
<path d="M57.6445 70.7679C58.8402 69.1756 60.0431 67.5762 61.2388 65.9839C60.5866 67.9653 59.1084 69.3485 57.8329 70.8759C57.7677 70.8399 57.7025 70.8039 57.6445 70.7679Z" fill="#606166"/>
<path d="M88.1455 63.0444C88.2977 61.4306 88.4499 59.8239 88.602 58.21C88.7397 58.2172 88.8702 58.2317 89.0079 58.2389C88.8847 59.8455 88.7543 61.4594 88.6311 63.0732C88.4644 63.0588 88.3049 63.0516 88.1455 63.0444Z" fill="#606166"/>
<path d="M93.2095 60.9046C94.1008 61.589 96.2024 61.4954 97.0068 60.7317C97.3981 60.3642 97.3329 59.9463 96.8908 59.7446C96.4053 59.5213 95.8473 59.3339 95.3256 59.3411C93.7965 59.37 92.2675 59.4997 90.7385 59.5933C90.6081 59.6005 90.4776 59.5933 90.3037 59.4276C90.6081 59.3195 90.9124 59.1394 91.224 59.125C92.8689 59.0458 94.514 58.9809 96.1662 58.9737C96.514 58.9737 96.8981 59.161 97.2097 59.3484C97.8763 59.7518 97.9271 60.3714 97.3836 60.9334C96.7169 61.6251 94.3111 62.1726 93.4487 61.7619C93.2096 61.6466 93.1009 61.2792 92.927 61.0271C93.0284 60.991 93.1153 60.9478 93.2095 60.9046Z" fill="#606166"/>
<path d="M99.2753 45.3712C98.5507 45.8971 96.3042 45.8971 95.8187 45.4432C95.5506 45.1983 95.4273 44.802 95.2099 44.4129C95.2244 44.4129 95.0867 44.4274 94.8476 44.4562C94.9635 44.24 95.0505 44.096 95.1302 43.9519C94.8838 43.7213 94.3404 44.3986 94.2897 43.5916C94.2752 43.3611 93.7461 43.1593 93.391 42.9864C95.6954 46.3366 98.0289 49.658 100 53.5197C92.9201 56.0414 85.9488 58.5126 78.992 61.0127C75.5861 62.2375 72.202 63.5055 68.8178 64.7807C68.2164 65.0041 67.883 64.8888 67.4482 64.3917C64.151 60.602 60.8103 56.8483 57.4769 53.0875C57.1725 52.7416 56.8464 52.4246 56.3464 51.9059C56.4696 55.746 56.9262 59.37 56.4914 62.9868C56.3972 62.9868 56.303 62.994 56.2087 62.994C56.0493 59.1178 55.8826 55.2489 55.7232 51.3727C55.6362 51.3439 55.542 51.3223 55.4551 51.2935C55.0927 51.7186 54.7522 52.1653 54.3681 52.5687C51.3245 55.746 48.5998 59.1826 46.0998 62.7922C45.6143 63.4911 45.0562 63.4623 44.4548 63.1813C42.6939 62.3744 40.9474 61.5314 39.2155 60.6741C33.6429 57.9219 28.0702 55.1552 22.5048 52.3886C19.6641 50.9765 16.8307 49.5572 13.8379 48.0658C14.1785 47.5831 14.4973 47.1003 14.8524 46.6464C17.0916 43.7501 19.3597 40.8826 21.5627 37.9647C22.0047 37.3811 22.4614 37.0785 23.186 37.0209C30.2007 36.4445 37.2154 35.8609 44.2301 35.2413C45.9258 35.09 47.6143 34.8018 49.3027 34.6001C49.6361 34.5569 49.9984 34.6001 50.3318 34.6649C57.861 36.1707 65.4047 37.5252 73.0281 38.4979C79.1152 39.276 85.1806 40.2342 91.2533 41.1132C91.5069 41.1492 91.7823 41.1852 91.9997 41.3077C94.3041 42.5829 96.5941 43.8726 98.8912 45.155C98.9855 45.2199 99.0869 45.2703 99.2753 45.3712ZM56.0348 50.6739C56.4841 51.171 56.8247 51.5529 57.1798 51.9275C58.5421 53.3829 59.9407 54.8094 61.2741 56.2864C63.4626 58.7072 65.6293 61.1496 67.7815 63.5992C68.3323 64.226 68.8685 64.3557 69.6729 64.0315C72.7382 62.8066 75.8035 61.5963 78.9123 60.4867C85.2893 58.2028 91.6881 55.9909 98.0796 53.7431C98.4999 53.5918 98.9057 53.3972 99.4492 53.1595C96.9129 49.3914 94.4563 45.7314 91.9707 42.0858C91.8475 41.9057 91.4852 41.7616 91.2751 41.7976C90.5142 41.9489 89.7678 42.1939 89.0141 42.3884C85.8474 43.2098 82.6879 44.0239 79.5211 44.838C76.9775 45.4865 74.4267 46.1133 71.8831 46.7833C68.5859 47.6479 65.3032 48.5845 61.9988 49.4202C60.0857 49.9029 58.1436 50.2344 56.0348 50.6739ZM89.9561 41.7328C89.9416 41.6463 89.9344 41.5599 89.9199 41.4734C88.1808 41.1852 86.4488 40.861 84.7096 40.6233C79.2602 39.8812 73.789 39.2832 68.3541 38.4258C62.5495 37.518 56.7884 36.3869 51.0056 35.3494C49.8824 35.1477 49.8245 35.1981 49.897 36.3581C50.0419 38.9446 50.1868 41.5311 50.3173 44.1176C50.339 44.5498 50.281 44.9893 50.2521 45.4216C50.1434 45.4216 50.0346 45.4216 49.9259 45.4216C49.7303 42.0858 49.5274 38.7572 49.3317 35.3782C40.3749 36.1635 31.4906 36.9344 22.6135 37.7126C23.0918 38.116 23.599 38.3754 24.128 38.5771C28.8311 40.3639 33.5486 42.1219 38.2444 43.9302C43.5924 45.9836 48.9186 48.0874 54.2594 50.1479C54.6652 50.3064 55.1798 50.3857 55.6001 50.292C59.4118 49.4347 63.2235 48.5773 67.0062 47.6263C70.9483 46.632 74.8615 45.5153 78.7964 44.485C81.9052 43.6709 85.014 42.8928 88.1301 42.1074C88.7315 41.9417 89.3474 41.8481 89.9561 41.7328ZM14.519 47.8496C17.5916 49.3122 20.5699 50.7747 23.5773 52.1509C30.5775 55.3498 37.4618 58.7864 44.1867 62.5113C44.9693 62.9435 45.462 62.9219 45.9693 62.1438C48.4694 58.3541 51.4259 54.9247 54.5347 51.6105C54.7014 51.4304 54.8247 51.2142 54.9769 50.9981C43.9548 46.7473 33.0124 42.5325 22.0483 38.3033C19.6062 41.4086 17.0916 44.5859 14.519 47.8496Z" fill="#606166"/>
<path d="M22.9765 53.1163C23.0997 53.9448 23.3171 54.7734 23.3171 55.6019C23.3171 56.7907 23.7953 57.3599 24.9113 57.9219C30.7013 60.8326 36.3899 63.9378 42.1655 66.8773C46.0062 68.8298 49.9266 70.631 53.818 72.4754C54.4847 72.7924 55.2094 73.0014 56.1297 73.3472C56.1297 70.4149 56.1297 67.6771 56.1297 64.9393C56.2601 64.9393 56.3905 64.9393 56.5282 64.9321C56.5282 67.7347 56.5282 70.5373 56.5282 73.5993C58.6587 73.0662 60.5719 72.7348 62.3835 72.1152C68.4272 70.0402 74.4346 67.85 80.471 65.739C82.9783 64.86 85.5074 64.0675 88.0292 63.239C88.0655 63.3182 88.0945 63.3902 88.1307 63.4695C88.0148 63.5415 87.8987 63.6352 87.7755 63.6784C81.442 65.9912 75.1157 68.3183 68.7677 70.5878C66.4561 71.4163 64.0864 72.0863 61.7313 72.7996C57.2167 74.1613 55.905 74.0316 51.644 72.0864C43.4553 68.3471 35.4406 64.262 27.5636 59.9175C26.2519 59.1899 24.8606 58.5991 23.5127 57.929C23.3461 57.8426 23.0852 57.7201 23.0707 57.5904C22.8605 56.1279 22.6939 54.6581 22.5127 53.1956C22.6649 53.1667 22.8243 53.1379 22.9765 53.1163Z" fill="#606166"/>
<path d="M0.00472102 72.3314C-0.0604984 71.6397 0.562791 71.4596 1.08455 71.3443C2.01211 71.1282 2.99032 71.1137 3.9034 70.8688C5.40344 70.4725 6.87451 69.961 8.34557 69.4783C8.62094 69.3846 8.86012 69.1684 9.11375 69.0172C9.09201 68.9451 9.07755 68.8731 9.05581 68.801C8.17172 68.801 7.28762 68.837 6.41078 68.7938C4.72232 68.7073 3.04837 68.5272 1.62079 67.5042C0.388865 66.6252 0.417798 65.386 1.83813 64.8672C4.50488 63.8874 7.17891 63.8946 9.6645 65.494C10.5558 66.0704 10.9907 66.9206 10.6863 68.3111C12.0704 67.8932 13.2951 67.6627 14.382 67.1511C15.7372 66.5171 16.998 65.6742 18.259 64.86C19.6286 63.9739 21.0923 63.4479 22.7373 63.4191C25.1142 63.3831 27.4621 63.4263 29.7521 64.2836C30.6941 64.6367 31.8101 64.5214 32.8391 64.6727C33.658 64.788 34.4623 64.9825 35.2377 65.3211C33.5855 65.141 31.9261 64.9537 30.1579 64.7592C30.3391 66.2506 29.368 66.6972 28.3607 67.0503C25.9113 67.922 23.3895 68.167 20.8387 67.6194C20.3677 67.5186 19.9692 67.0791 19.5344 66.7981C19.8895 66.3875 20.1721 65.8327 20.6214 65.6021C22.3605 64.7303 24.2519 64.4782 26.1867 64.4494C26.5273 64.4422 26.8679 64.4494 27.2375 64.262C27.0418 64.2116 26.8461 64.1396 26.6505 64.1252C25.5852 64.0603 24.5128 64.0027 23.4403 63.9522C21.4547 63.8514 19.7155 64.4782 18.0415 65.5229C16.4618 66.5099 14.8313 67.5474 13.0776 68.1166C11.3167 68.6857 9.59924 69.2117 7.99774 70.1915C6.12087 71.3371 3.91797 71.4092 1.80921 71.7478C1.22223 71.8414 0.664162 72.108 0.00472102 72.3314ZM7.75864 68.2462C8.13546 68.2462 8.51948 68.2967 8.88181 68.2319C9.3311 68.1526 9.7587 67.9725 10.2007 67.8356C9.99783 67.3168 9.86015 66.7621 9.57029 66.301C9.38912 66.0128 8.99782 65.8327 8.67897 65.6453C6.86007 64.5934 4.88897 64.7375 2.93963 65.0185C2.38889 65.0978 1.58456 65.5013 1.44688 65.9335C1.20774 66.6756 2.04826 67.007 2.62799 67.2952C4.22949 68.0805 5.96873 68.3039 7.75864 68.2462ZM20.0924 66.3442C20.1069 66.4595 20.1213 66.5748 20.1285 66.6828C20.4909 66.8197 20.8532 67.0863 21.2155 67.0791C23.1069 67.0719 25.0056 67.0575 26.8897 66.9062C27.6361 66.8485 28.3824 66.4739 29.0781 66.1425C29.31 66.0344 29.5637 65.5805 29.5057 65.35C29.4477 65.1122 29.0419 64.788 28.781 64.7808C26.4042 64.7231 24.0345 64.7808 21.7518 65.5229C21.1721 65.7318 20.6431 66.0776 20.0924 66.3442Z" fill="#606166"/>
<path d="M79.2035 77C78.7107 76.5389 78.631 76.2002 79.131 75.7535C79.5658 75.3645 80.1311 75.0835 80.6891 74.8962C81.334 74.6728 82.0297 74.6008 82.8703 74.4279C81.4645 74.2045 80.2252 74.0316 79.0006 73.801C78.5513 73.7146 78.102 73.5489 77.7107 73.3183C77.1455 72.9941 77.1672 72.5402 77.718 72.18C77.8847 72.0719 78.073 71.9638 78.2686 71.935C80.2687 71.6324 82.2615 71.582 84.1601 72.3961C84.6312 72.5978 84.9718 73.0806 85.5225 73.5633C85.7326 73.4768 86.1964 73.3183 86.624 73.095C87.3559 72.6987 87.4574 72.0863 86.7762 71.5964C86.0806 71.0993 85.3124 70.595 84.5008 70.4004C82.7109 69.9826 80.8775 69.6872 79.0441 69.4926C77.4208 69.3197 75.7831 69.3485 74.1309 69.1324C74.2541 69.0964 74.3773 69.0243 74.5004 69.0243C77.7107 68.9739 80.9426 68.8298 84.0732 69.716C85.0587 69.997 86.037 70.4436 86.8849 71.0056C88.0516 71.7765 87.9791 72.9077 86.6964 73.4768C85.2761 74.1036 83.7688 74.5215 82.2833 75.0042C81.9282 75.1195 81.5441 75.1411 81.1745 75.2132C79.689 75.5158 79.5151 75.6743 79.2035 77ZM84.508 73.3976C83.508 72.1944 79.3122 71.7477 77.8991 72.6411C78.9499 73.6858 83.1819 74.1973 84.508 73.3976Z" fill="#606166"/>
</svg>
