<svg width="25" height="24" viewBox="0 0 25 24" fill="none" xmlns="http://www.w3.org/2000/svg">
<path d="M12.5 24C19.1274 24 24.5 18.6274 24.5 12C24.5 5.37258 19.1274 0 12.5 0C5.87258 0 0.5 5.37258 0.5 12C0.5 18.6274 5.87258 24 12.5 24Z" fill="#F3BA2F"/>
<path fill-rule="evenodd" clip-rule="evenodd" d="M15.6125 13.2761L17.4226 15.0811L12.502 19.9966L7.58648 15.0811L9.39662 13.2761L12.502 16.3815L15.6125 13.2761ZM12.502 10.1656L14.3381 12.0018L12.502 13.8379L10.671 12.007V12.0018L10.9935 11.6793L11.1495 11.5232L12.502 10.1656ZM6.3121 10.1916L8.12224 12.0018L6.3121 13.8067L4.50195 11.9966L6.3121 10.1916ZM18.6918 10.1916L20.502 12.0018L18.6918 13.8067L16.8817 11.9966L18.6918 10.1916ZM12.502 4.00175L17.4174 8.91723L15.6073 10.7274L12.502 7.61684L9.39662 10.7222L7.58648 8.91723L12.502 4.00175Z" fill="#FAFAFA"/>
</svg>
