<svg width="35" height="36" viewBox="0 0 35 36" fill="none" xmlns="http://www.w3.org/2000/svg">
<rect y="0.00457764" width="35" height="35.0178" rx="2" fill="white"/>
<path fill-rule="evenodd" clip-rule="evenodd" d="M25.3629 15.4412C25.7059 13.1473 23.9602 11.9141 21.5732 11.0915L22.3475 7.98407L20.457 7.51267L19.7032 10.5382C19.2062 10.4143 18.6957 10.2974 18.1885 10.1816L18.9477 7.1361L17.0582 6.6647L16.2834 9.77105C15.872 9.67731 15.4682 9.58465 15.0762 9.48714L15.0783 9.47744L12.4711 8.82611L11.9682 10.8464C11.9682 10.8464 13.3708 11.168 13.3412 11.1879C14.1069 11.3792 14.2453 11.8861 14.2222 12.288L13.3402 15.828C13.3929 15.8415 13.4613 15.8609 13.5367 15.8911L13.4726 15.8751C13.4287 15.8641 13.3833 15.8527 13.3369 15.8415L12.1006 20.8006C12.0069 21.0333 11.7695 21.3824 11.2342 21.2499C11.2531 21.2774 9.86008 20.9067 9.86008 20.9067L8.92154 23.0719L11.3818 23.6855C11.6564 23.7544 11.9278 23.8252 12.1963 23.8952L12.1966 23.8953C12.3755 23.942 12.5531 23.9883 12.7295 24.0335L11.9472 27.1765L13.8355 27.6479L14.6104 24.5383C15.1262 24.6784 15.627 24.8077 16.117 24.9294L15.3448 28.0245L17.2354 28.4959L18.0178 25.3588C21.2415 25.9692 23.6657 25.723 24.6861 22.8057C25.5083 20.4569 24.6452 19.1019 22.949 18.2184C24.1842 17.9334 25.1147 17.1205 25.3629 15.4412ZM21.0434 21.5015C20.5074 23.6565 17.1359 22.7655 15.5933 22.3579L15.5933 22.3579C15.4545 22.3212 15.3305 22.2884 15.2248 22.2622L16.2629 18.0983C16.3917 18.1304 16.5491 18.1658 16.7274 18.2058C18.3229 18.564 21.5926 19.298 21.0434 21.5015ZM17.048 16.2735C18.3341 16.6169 21.1395 17.3659 21.6282 15.4073C22.1272 13.4039 19.4006 12.8 18.0689 12.505C17.9191 12.4719 17.787 12.4426 17.6791 12.4157L16.7379 16.1922C16.8268 16.2144 16.9311 16.2423 17.048 16.2735Z" fill="#1D2024"/>
</svg>
