<svg width="16" height="16" viewBox="0 0 16 16" fill="none" xmlns="http://www.w3.org/2000/svg">
<path fill-rule="evenodd" clip-rule="evenodd" d="M1.83687 0.0799561C1.2625 0.0799561 0.796875 0.54558 0.796875 1.11996V14.64C0.796875 15.2143 1.2625 15.68 1.83688 15.68H14.8565C15.4309 15.68 15.8965 15.2143 15.8965 14.64V1.11996C15.8965 0.54558 15.4309 0.0799561 14.8565 0.0799561H1.83687ZM3.31472 1.56775C3.02753 1.56775 2.79472 1.80056 2.79472 2.08775V3.7301C2.79472 4.01728 3.02753 4.2501 3.31472 4.2501H13.3041C13.5913 4.2501 13.8241 4.01728 13.8241 3.7301V2.08775C13.8241 1.80056 13.5913 1.56775 13.3041 1.56775H3.31472ZM4.50024 7.05596C4.50024 6.76877 4.73305 6.53596 5.02024 6.53596H6.66824C6.95543 6.53596 7.18824 6.76877 7.18824 7.05596V8.70396C7.18824 8.99114 6.95543 9.22396 6.66824 9.22396H5.02024C4.73305 9.22396 4.50024 8.99114 4.50024 8.70396V7.05596ZM9.95061 6.53596C9.66342 6.53596 9.43061 6.76877 9.43061 7.05596V8.70396C9.43061 8.99114 9.66342 9.22396 9.95061 9.22396H11.5986C11.8858 9.22396 12.1186 8.99114 12.1186 8.70396V7.05596C12.1186 6.76877 11.8858 6.53596 11.5986 6.53596H9.95061ZM4.50024 11.4495C4.50024 11.1623 4.73305 10.9295 5.02024 10.9295H6.66824C6.95543 10.9295 7.18824 11.1623 7.18824 11.4495V13.0975C7.18824 13.3846 6.95543 13.6175 6.66824 13.6175H5.02024C4.73305 13.6175 4.50024 13.3846 4.50024 13.0975V11.4495ZM9.95061 10.9295C9.66342 10.9295 9.43061 11.1623 9.43061 11.4495V13.0975C9.43061 13.3846 9.66342 13.6175 9.95061 13.6175H11.5986C11.8858 13.6175 12.1186 13.3846 12.1186 13.0975V11.4495C12.1186 11.1623 11.8858 10.9295 11.5986 10.9295H9.95061Z" fill="#43444B"/>
</svg>