<svg width="256" height="256" viewBox="0 0 256 256" fill="none" xmlns="http://www.w3.org/2000/svg">
<rect width="256" height="256" rx="128" fill="#2A2B31"/>
<circle cx="128" cy="128" r="3.5" transform="rotate(-90 128 128)" fill="#42434B" stroke="#42434B"/>
<path d="M124.645 19.5625V31H123.2V21.3672L120.286 22.4297V21.125L124.419 19.5625H124.645ZM136.448 29.8125V31H129.003V29.9609L132.73 25.8125C133.188 25.3021 133.542 24.8698 133.792 24.5156C134.047 24.1562 134.224 23.8359 134.323 23.5547C134.428 23.2682 134.48 22.9766 134.48 22.6797C134.48 22.3047 134.402 21.9661 134.245 21.6641C134.094 21.3568 133.87 21.112 133.573 20.9297C133.277 20.7474 132.917 20.6562 132.495 20.6562C131.99 20.6562 131.568 20.7552 131.23 20.9531C130.896 21.1458 130.646 21.4167 130.48 21.7656C130.313 22.1146 130.23 22.5156 130.23 22.9688H128.784C128.784 22.3281 128.925 21.7422 129.206 21.2109C129.487 20.6797 129.904 20.2578 130.456 19.9453C131.008 19.6276 131.688 19.4688 132.495 19.4688C133.214 19.4688 133.829 19.5964 134.339 19.8516C134.849 20.1016 135.24 20.4557 135.511 20.9141C135.787 21.3672 135.925 21.8984 135.925 22.5078C135.925 22.8411 135.868 23.1797 135.753 23.5234C135.644 23.862 135.49 24.2005 135.292 24.5391C135.099 24.8776 134.873 25.2109 134.612 25.5391C134.357 25.8672 134.084 26.1901 133.792 26.5078L130.745 29.8125H136.448Z" fill="white"/>
<path d="M74.6453 33.5625V45H73.2V35.3672L70.2859 36.4297V35.125L74.4187 33.5625H74.6453ZM83.7453 33.5625V45H82.3V35.3672L79.3859 36.4297V35.125L83.5187 33.5625H83.7453Z" fill="white"/>
<path d="M36.6453 71.5625V83H35.2V73.3672L32.2859 74.4297V73.125L36.4187 71.5625H36.6453ZM48.1359 76.4062V78.1406C48.1359 79.0729 48.0526 79.8594 47.8859 80.5C47.7193 81.1406 47.4797 81.6562 47.1672 82.0469C46.8547 82.4375 46.4771 82.7214 46.0344 82.8984C45.5969 83.0703 45.1021 83.1562 44.55 83.1562C44.1125 83.1562 43.7089 83.1016 43.3391 82.9922C42.9693 82.8828 42.6359 82.7083 42.3391 82.4688C42.0474 82.224 41.7974 81.9062 41.5891 81.5156C41.3807 81.125 41.2219 80.651 41.1125 80.0938C41.0031 79.5365 40.9484 78.8854 40.9484 78.1406V76.4062C40.9484 75.474 41.0318 74.6927 41.1984 74.0625C41.3703 73.4323 41.6125 72.9271 41.925 72.5469C42.2375 72.1615 42.6125 71.8854 43.05 71.7188C43.4927 71.5521 43.9875 71.4688 44.5344 71.4688C44.9771 71.4688 45.3833 71.5234 45.7531 71.6328C46.1281 71.737 46.4615 71.9062 46.7531 72.1406C47.0448 72.3698 47.2922 72.6771 47.4953 73.0625C47.7036 73.4427 47.8625 73.9089 47.9719 74.4609C48.0812 75.013 48.1359 75.6615 48.1359 76.4062ZM46.6828 78.375V76.1641C46.6828 75.6536 46.6516 75.2057 46.5891 74.8203C46.5318 74.4297 46.4458 74.0964 46.3312 73.8203C46.2167 73.5443 46.0708 73.3203 45.8937 73.1484C45.7219 72.9766 45.5214 72.8516 45.2922 72.7734C45.0682 72.6901 44.8156 72.6484 44.5344 72.6484C44.1906 72.6484 43.8859 72.7135 43.6203 72.8438C43.3547 72.9688 43.1307 73.1693 42.9484 73.4453C42.7714 73.7214 42.6359 74.0833 42.5422 74.5312C42.4484 74.9792 42.4016 75.5234 42.4016 76.1641V78.375C42.4016 78.8854 42.4302 79.3359 42.4875 79.7266C42.55 80.1172 42.6411 80.4557 42.7609 80.7422C42.8807 81.0234 43.0266 81.2552 43.1984 81.4375C43.3703 81.6198 43.5682 81.7552 43.7922 81.8438C44.0214 81.9271 44.274 81.9688 44.55 81.9688C44.9042 81.9688 45.2141 81.901 45.4797 81.7656C45.7453 81.6302 45.9667 81.4193 46.1437 81.1328C46.326 80.8411 46.4615 80.4688 46.55 80.0156C46.6385 79.5573 46.6828 79.0104 46.6828 78.375Z" fill="white"/>
<path d="M23.8828 131.789H24.0312C24.8646 131.789 25.5417 131.672 26.0625 131.438C26.5833 131.203 26.9844 130.888 27.2656 130.492C27.5469 130.096 27.7396 129.651 27.8438 129.156C27.9479 128.656 28 128.143 28 127.617V125.875C28 125.359 27.9401 124.901 27.8203 124.5C27.7057 124.099 27.5443 123.763 27.3359 123.492C27.1328 123.221 26.901 123.016 26.6406 122.875C26.3802 122.734 26.1042 122.664 25.8125 122.664C25.4792 122.664 25.1797 122.732 24.9141 122.867C24.6536 122.997 24.4323 123.182 24.25 123.422C24.0729 123.661 23.9375 123.943 23.8438 124.266C23.75 124.589 23.7031 124.94 23.7031 125.32C23.7031 125.659 23.7448 125.987 23.8281 126.305C23.9115 126.622 24.0391 126.909 24.2109 127.164C24.3828 127.419 24.5964 127.622 24.8516 127.773C25.112 127.919 25.4167 127.992 25.7656 127.992C26.0885 127.992 26.3906 127.93 26.6719 127.805C26.9583 127.674 27.2109 127.5 27.4297 127.281C27.6536 127.057 27.8307 126.805 27.9609 126.523C28.0964 126.242 28.1745 125.948 28.1953 125.641H28.8828C28.8828 126.073 28.7969 126.5 28.625 126.922C28.4583 127.339 28.224 127.719 27.9219 128.062C27.6198 128.406 27.2656 128.682 26.8594 128.891C26.4531 129.094 26.0104 129.195 25.5312 129.195C24.9688 129.195 24.4818 129.086 24.0703 128.867C23.6589 128.648 23.3203 128.357 23.0547 127.992C22.7943 127.628 22.599 127.221 22.4688 126.773C22.3438 126.32 22.2812 125.862 22.2812 125.398C22.2812 124.857 22.3568 124.349 22.5078 123.875C22.6589 123.401 22.8828 122.984 23.1797 122.625C23.4766 122.26 23.8438 121.977 24.2812 121.773C24.724 121.57 25.2344 121.469 25.8125 121.469C26.4635 121.469 27.0182 121.599 27.4766 121.859C27.9349 122.12 28.3073 122.469 28.5938 122.906C28.8854 123.344 29.099 123.836 29.2344 124.383C29.3698 124.93 29.4375 125.492 29.4375 126.07V126.594C29.4375 127.182 29.3984 127.781 29.3203 128.391C29.2474 128.995 29.1042 129.573 28.8906 130.125C28.6823 130.677 28.3776 131.172 27.9766 131.609C27.5755 132.042 27.0521 132.385 26.4062 132.641C25.7656 132.891 24.974 133.016 24.0312 133.016H23.8828V131.789Z" fill="white"/>
<path d="M43.6172 179.922C43.6172 180.615 43.4557 181.203 43.1328 181.688C42.8151 182.167 42.3828 182.531 41.8359 182.781C41.2943 183.031 40.6823 183.156 40 183.156C39.3177 183.156 38.7031 183.031 38.1562 182.781C37.6094 182.531 37.1771 182.167 36.8594 181.688C36.5417 181.203 36.3828 180.615 36.3828 179.922C36.3828 179.469 36.4688 179.055 36.6406 178.68C36.8177 178.299 37.0651 177.969 37.3828 177.688C37.7057 177.406 38.0859 177.19 38.5234 177.039C38.9661 176.883 39.4531 176.805 39.9844 176.805C40.6823 176.805 41.3047 176.94 41.8516 177.211C42.3984 177.477 42.8281 177.844 43.1406 178.312C43.4583 178.781 43.6172 179.318 43.6172 179.922ZM42.1641 179.891C42.1641 179.469 42.0729 179.096 41.8906 178.773C41.7083 178.445 41.4531 178.19 41.125 178.008C40.7969 177.826 40.4167 177.734 39.9844 177.734C39.5417 177.734 39.1589 177.826 38.8359 178.008C38.5182 178.19 38.2708 178.445 38.0938 178.773C37.9167 179.096 37.8281 179.469 37.8281 179.891C37.8281 180.328 37.9141 180.703 38.0859 181.016C38.263 181.323 38.513 181.56 38.8359 181.727C39.1641 181.888 39.5521 181.969 40 181.969C40.4479 181.969 40.8333 181.888 41.1562 181.727C41.4792 181.56 41.7266 181.323 41.8984 181.016C42.0755 180.703 42.1641 180.328 42.1641 179.891ZM43.3516 174.586C43.3516 175.138 43.2057 175.635 42.9141 176.078C42.6224 176.521 42.224 176.87 41.7188 177.125C41.2135 177.38 40.6406 177.508 40 177.508C39.349 177.508 38.7682 177.38 38.2578 177.125C37.7526 176.87 37.3568 176.521 37.0703 176.078C36.7839 175.635 36.6406 175.138 36.6406 174.586C36.6406 173.924 36.7839 173.362 37.0703 172.898C37.362 172.435 37.7604 172.081 38.2656 171.836C38.7708 171.591 39.3464 171.469 39.9922 171.469C40.6432 171.469 41.2214 171.591 41.7266 171.836C42.2318 172.081 42.6276 172.435 42.9141 172.898C43.2057 173.362 43.3516 173.924 43.3516 174.586ZM41.9062 174.609C41.9062 174.229 41.8255 173.893 41.6641 173.602C41.5026 173.31 41.2786 173.081 40.9922 172.914C40.7057 172.742 40.3724 172.656 39.9922 172.656C39.612 172.656 39.2786 172.737 38.9922 172.898C38.7109 173.055 38.4896 173.279 38.3281 173.57C38.1719 173.862 38.0938 174.208 38.0938 174.609C38.0938 175 38.1719 175.341 38.3281 175.633C38.4896 175.924 38.7135 176.151 39 176.312C39.2865 176.474 39.6198 176.555 40 176.555C40.3802 176.555 40.7109 176.474 40.9922 176.312C41.2786 176.151 41.5026 175.924 41.6641 175.633C41.8255 175.341 41.9062 175 41.9062 174.609Z" fill="white"/>
<path d="M81.7969 209.625V210.438L77.0859 221H75.5625L80.2656 210.812H74.1094V209.625H81.7969Z" fill="white"/>
<line y1="-1" x2="104" y2="-1" transform="matrix(-0.5 0.866025 0.866025 0.5 128.5 128.5)" stroke="#42434B" stroke-width="2"/>
<rect x="54" y="192" width="48" height="48" rx="24" fill="#42434B"/>
<path d="M81.7969 210.438L77.0859 221H75.5703L80.2656 210.812H74.1094V209.625H81.7969V210.438Z" fill="white"/>
<path d="M129.992 223.609H130.117V224.836H129.992C129.227 224.836 128.586 224.961 128.07 225.211C127.555 225.456 127.146 225.786 126.844 226.203C126.542 226.615 126.323 227.078 126.188 227.594C126.057 228.109 125.992 228.633 125.992 229.164V230.836C125.992 231.341 126.052 231.789 126.172 232.18C126.292 232.565 126.456 232.891 126.664 233.156C126.872 233.422 127.107 233.622 127.367 233.758C127.633 233.893 127.909 233.961 128.195 233.961C128.529 233.961 128.826 233.898 129.086 233.773C129.346 233.643 129.565 233.464 129.742 233.234C129.924 233 130.062 232.724 130.156 232.406C130.25 232.089 130.297 231.74 130.297 231.359C130.297 231.021 130.255 230.695 130.172 230.383C130.089 230.065 129.961 229.784 129.789 229.539C129.617 229.289 129.401 229.094 129.141 228.953C128.885 228.807 128.581 228.734 128.227 228.734C127.826 228.734 127.451 228.833 127.102 229.031C126.758 229.224 126.474 229.479 126.25 229.797C126.031 230.109 125.906 230.451 125.875 230.82L125.109 230.812C125.182 230.229 125.318 229.732 125.516 229.32C125.719 228.904 125.969 228.565 126.266 228.305C126.568 228.039 126.904 227.846 127.273 227.727C127.648 227.602 128.044 227.539 128.461 227.539C129.029 227.539 129.518 227.646 129.93 227.859C130.341 228.073 130.68 228.359 130.945 228.719C131.211 229.073 131.406 229.474 131.531 229.922C131.661 230.365 131.727 230.82 131.727 231.289C131.727 231.826 131.651 232.328 131.5 232.797C131.349 233.266 131.122 233.677 130.82 234.031C130.523 234.385 130.156 234.661 129.719 234.859C129.281 235.057 128.773 235.156 128.195 235.156C127.581 235.156 127.044 235.031 126.586 234.781C126.128 234.526 125.747 234.188 125.445 233.766C125.143 233.344 124.917 232.875 124.766 232.359C124.615 231.844 124.539 231.32 124.539 230.789V230.109C124.539 229.307 124.62 228.521 124.781 227.75C124.943 226.979 125.221 226.281 125.617 225.656C126.018 225.031 126.573 224.534 127.281 224.164C127.99 223.794 128.893 223.609 129.992 223.609Z" fill="white"/>
<path d="M176.273 215.586L175.117 215.289L175.688 209.625H181.523V210.961H176.914L176.57 214.055C176.779 213.935 177.042 213.823 177.359 213.719C177.682 213.615 178.052 213.562 178.469 213.562C178.995 213.562 179.466 213.654 179.883 213.836C180.299 214.013 180.654 214.268 180.945 214.602C181.242 214.935 181.469 215.336 181.625 215.805C181.781 216.273 181.859 216.797 181.859 217.375C181.859 217.922 181.784 218.424 181.633 218.883C181.487 219.341 181.266 219.742 180.969 220.086C180.672 220.424 180.297 220.688 179.844 220.875C179.396 221.062 178.867 221.156 178.258 221.156C177.799 221.156 177.365 221.094 176.953 220.969C176.547 220.839 176.182 220.643 175.859 220.383C175.542 220.117 175.281 219.789 175.078 219.398C174.88 219.003 174.755 218.539 174.703 218.008H176.078C176.141 218.435 176.266 218.794 176.453 219.086C176.641 219.378 176.885 219.599 177.188 219.75C177.495 219.896 177.852 219.969 178.258 219.969C178.602 219.969 178.906 219.909 179.172 219.789C179.438 219.669 179.661 219.497 179.844 219.273C180.026 219.049 180.164 218.779 180.258 218.461C180.357 218.143 180.406 217.786 180.406 217.391C180.406 217.031 180.357 216.698 180.258 216.391C180.159 216.083 180.01 215.815 179.812 215.586C179.62 215.357 179.383 215.18 179.102 215.055C178.82 214.924 178.497 214.859 178.133 214.859C177.648 214.859 177.281 214.924 177.031 215.055C176.786 215.185 176.534 215.362 176.273 215.586Z" fill="white"/>
<path d="M220.133 179.172V180.359H211.914V179.508L217.008 171.625H218.188L216.922 173.906L213.555 179.172H220.133ZM218.547 171.625V183H217.102V171.625H218.547Z" fill="white"/>
<path d="M228.555 126.602H229.586C230.091 126.602 230.508 126.518 230.836 126.352C231.169 126.18 231.417 125.948 231.578 125.656C231.745 125.359 231.828 125.026 231.828 124.656C231.828 124.219 231.755 123.852 231.609 123.555C231.464 123.258 231.245 123.034 230.953 122.883C230.661 122.732 230.292 122.656 229.844 122.656C229.438 122.656 229.078 122.737 228.766 122.898C228.458 123.055 228.216 123.279 228.039 123.57C227.867 123.862 227.781 124.206 227.781 124.602H226.336C226.336 124.023 226.482 123.497 226.773 123.023C227.065 122.549 227.474 122.172 228 121.891C228.531 121.609 229.146 121.469 229.844 121.469C230.531 121.469 231.133 121.591 231.648 121.836C232.164 122.076 232.565 122.435 232.852 122.914C233.138 123.388 233.281 123.979 233.281 124.688C233.281 124.974 233.214 125.281 233.078 125.609C232.948 125.932 232.742 126.234 232.461 126.516C232.185 126.797 231.826 127.029 231.383 127.211C230.94 127.388 230.409 127.477 229.789 127.477H228.555V126.602ZM228.555 127.789V126.922H229.789C230.513 126.922 231.112 127.008 231.586 127.18C232.06 127.352 232.432 127.581 232.703 127.867C232.979 128.154 233.172 128.469 233.281 128.812C233.396 129.151 233.453 129.49 233.453 129.828C233.453 130.359 233.362 130.831 233.18 131.242C233.003 131.654 232.75 132.003 232.422 132.289C232.099 132.576 231.719 132.792 231.281 132.938C230.844 133.083 230.367 133.156 229.852 133.156C229.357 133.156 228.891 133.086 228.453 132.945C228.021 132.805 227.638 132.602 227.305 132.336C226.971 132.065 226.711 131.734 226.523 131.344C226.336 130.948 226.242 130.497 226.242 129.992H227.688C227.688 130.388 227.773 130.734 227.945 131.031C228.122 131.328 228.372 131.56 228.695 131.727C229.023 131.888 229.409 131.969 229.852 131.969C230.294 131.969 230.674 131.893 230.992 131.742C231.315 131.586 231.562 131.352 231.734 131.039C231.911 130.727 232 130.333 232 129.859C232 129.385 231.901 128.997 231.703 128.695C231.505 128.388 231.224 128.161 230.859 128.016C230.5 127.865 230.076 127.789 229.586 127.789H228.555Z" fill="white"/>
<path d="M219.898 81.8125V83H212.453V81.9609L216.18 77.8125C216.638 77.3021 216.992 76.8698 217.242 76.5156C217.497 76.1562 217.674 75.8359 217.773 75.5547C217.878 75.2682 217.93 74.9766 217.93 74.6797C217.93 74.3047 217.852 73.9661 217.695 73.6641C217.544 73.3568 217.32 73.112 217.023 72.9297C216.727 72.7474 216.367 72.6562 215.945 72.6562C215.44 72.6562 215.018 72.7552 214.68 72.9531C214.346 73.1458 214.096 73.4167 213.93 73.7656C213.763 74.1146 213.68 74.5156 213.68 74.9688H212.234C212.234 74.3281 212.375 73.7422 212.656 73.2109C212.938 72.6797 213.354 72.2578 213.906 71.9453C214.458 71.6276 215.138 71.4688 215.945 71.4688C216.664 71.4688 217.279 71.5964 217.789 71.8516C218.299 72.1016 218.69 72.4557 218.961 72.9141C219.237 73.3672 219.375 73.8984 219.375 74.5078C219.375 74.8411 219.318 75.1797 219.203 75.5234C219.094 75.862 218.94 76.2005 218.742 76.5391C218.549 76.8776 218.323 77.2109 218.062 77.5391C217.807 77.8672 217.534 78.1901 217.242 78.5078L214.195 81.8125H219.898Z" fill="white"/>
<path d="M179.195 33.5625V45H177.75V35.3672L174.836 36.4297V35.125L178.969 33.5625H179.195Z" fill="white"/>
</svg>
