<svg width="17" height="17" viewBox="0 0 17 17" fill="none" xmlns="http://www.w3.org/2000/svg">
<path fill-rule="evenodd" clip-rule="evenodd" d="M1.94979 0.845734C1.37541 0.845734 0.90979 1.31136 0.90979 1.88573V15.4057C0.90979 15.9801 1.37541 16.4457 1.94979 16.4457H14.9694C15.5438 16.4457 16.0094 15.9801 16.0094 15.4057V1.88573C16.0094 1.31136 15.5438 0.845734 14.9694 0.845734H1.94979ZM3.42763 2.33352C3.14044 2.33352 2.90763 2.56634 2.90763 2.85352V4.49587C2.90763 4.78306 3.14044 5.01587 3.42763 5.01587H13.4171C13.7042 5.01587 13.9371 4.78306 13.9371 4.49587V2.85352C13.9371 2.56634 13.7042 2.33352 13.4171 2.33352H3.42763ZM4.61316 7.82173C4.61316 7.53454 4.84597 7.30173 5.13316 7.30173H6.78116C7.06835 7.30173 7.30116 7.53455 7.30116 7.82173V9.46973C7.30116 9.75692 7.06834 9.98973 6.78116 9.98973H5.13316C4.84597 9.98973 4.61316 9.75692 4.61316 9.46973V7.82173ZM10.0635 7.30173C9.77634 7.30173 9.54353 7.53454 9.54353 7.82173V9.46973C9.54353 9.75692 9.77634 9.98973 10.0635 9.98973H11.7115C11.9987 9.98973 12.2315 9.75692 12.2315 9.46973V7.82173C12.2315 7.53455 11.9987 7.30173 11.7115 7.30173H10.0635ZM4.61316 12.2152C4.61316 11.928 4.84597 11.6952 5.13316 11.6952H6.78116C7.06835 11.6952 7.30116 11.928 7.30116 12.2152V13.8632C7.30116 14.1504 7.06834 14.3832 6.78116 14.3832H5.13316C4.84597 14.3832 4.61316 14.1504 4.61316 13.8632V12.2152ZM10.52 12C10.2328 12 10 12.2328 10 12.52V14.168C10 14.4552 10.2328 14.688 10.52 14.688H12.168C12.4552 14.688 12.688 14.4552 12.688 14.168V12.52C12.688 12.2328 12.4552 12 12.168 12H10.52Z" fill="white"/>
</svg>
