<svg width="17" height="17" viewBox="0 0 17 17" fill="none" xmlns="http://www.w3.org/2000/svg">
<path fill-rule="evenodd" clip-rule="evenodd" d="M1.89962 0.944214C1.32524 0.944214 0.859619 1.40984 0.859619 1.98421V15.1042C0.859619 15.6786 1.32524 16.1442 1.89962 16.1442H15.0196C15.594 16.1442 16.0596 15.6786 16.0596 15.1042V1.98421C16.0596 1.40984 15.594 0.944214 15.0196 0.944214H1.89962ZM3.85293 4.64626C3.56574 4.64626 3.33293 4.87908 3.33293 5.16626V12.9083C3.33293 13.1955 3.56574 13.4283 3.85293 13.4283H4.73293C5.02011 13.4283 5.25293 13.1955 5.25293 12.9083V5.16626C5.25293 4.87908 5.02011 4.64626 4.73293 4.64626H3.85293ZM7.49962 7.76325C7.49962 7.47606 7.73243 7.24325 8.01962 7.24325H8.89962C9.18681 7.24325 9.41962 7.47606 9.41962 7.76325V12.9083C9.41962 13.1955 9.18681 13.4283 8.89962 13.4283H8.01962C7.73243 13.4283 7.49962 13.1955 7.49962 12.9083V7.76325ZM12.1863 9.84467C11.8991 9.84467 11.6663 10.0775 11.6663 10.3647V12.9083C11.6663 13.1955 11.8991 13.4283 12.1863 13.4283H13.0663C13.3535 13.4283 13.5863 13.1955 13.5863 12.9083V10.3647C13.5863 10.0775 13.3535 9.84467 13.0663 9.84467H12.1863Z" fill="white"/>
</svg>
