<svg width="26" height="30" viewBox="0 0 26 30" fill="none" xmlns="http://www.w3.org/2000/svg">
<path fill-rule="evenodd" clip-rule="evenodd" d="M15.2261 0C19.3212 0 23.1636 1.60264 26 4.40071L23.2331 7.12284C21.1229 5.04118 18.2725 3.85231 15.2261 3.85231C8.9766 3.85231 3.91037 8.8433 3.91037 15C3.91037 21.1567 8.9766 26.1477 15.2261 26.1477C18.0415 26.1477 20.6918 25.1335 22.7507 23.3261L25.3521 26.2023C22.5837 28.6324 19.0102 30 15.2261 30C6.81696 30 0 23.2843 0 15C0 6.71573 6.81696 0 15.2261 0ZM15.1627 7.32841C17.2975 7.32841 19.3028 8.16479 20.7813 9.62341L18.0144 12.3455C17.262 11.6033 16.2488 11.1807 15.1627 11.1807C12.9369 11.1807 11.1325 12.9583 11.1325 15.151C11.1325 17.3437 12.9369 19.1213 15.1627 19.1213C16.1666 19.1213 17.1084 18.7609 17.8423 18.1167L20.4437 20.9929C19.0004 22.2598 17.1353 22.9736 15.1627 22.9736C10.7773 22.9736 7.22217 19.4713 7.22217 15.151C7.22217 10.8307 10.7773 7.32841 15.1627 7.32841Z" fill="#61972B"/>
</svg>
