<svg width="17" height="17" viewBox="0 0 17 17" fill="none" xmlns="http://www.w3.org/2000/svg">
<path fill-rule="evenodd" clip-rule="evenodd" d="M4.8346 0.927673C4.54741 0.927673 4.3146 1.16049 4.3146 1.44767V2.12767H4.31395V4.12522C4.31395 4.41241 4.08114 4.64522 3.79395 4.64522H3.18737C2.90018 4.64522 2.66737 4.41241 2.66737 4.12522V2.12767H1.89962C1.32524 2.12767 0.859619 2.5933 0.859619 3.16767V15.4877C0.859619 16.062 1.32524 16.5277 1.89962 16.5277H15.0196C15.594 16.5277 16.0596 16.062 16.0596 15.4877V3.16767C16.0596 2.5933 15.594 2.12767 15.0196 2.12767H14.8187L14.6028 1.32094C14.5419 1.09354 14.3358 0.935388 14.1004 0.935388H12.6509C12.3637 0.935388 12.1309 1.1682 12.1309 1.45539V2.12767V4.12522C12.1309 4.41241 11.8981 4.64522 11.6109 4.64522H11.0043C10.7171 4.64522 10.4843 4.41241 10.4843 4.12522V2.12767H6.99908L6.78528 1.31532C6.72515 1.08689 6.51862 0.927673 6.2824 0.927673H4.8346ZM11.7675 7.9396C11.7675 7.65241 12.0003 7.4196 12.2875 7.4196H13.9355C14.2227 7.4196 14.4555 7.65241 14.4555 7.9396V9.5876C14.4555 9.87479 14.2227 10.1076 13.9355 10.1076H12.2875C12.0003 10.1076 11.7675 9.87479 11.7675 9.5876V7.9396ZM7.71221 7.4196C7.42502 7.4196 7.19221 7.65241 7.19221 7.9396V9.5876C7.19221 9.87479 7.42502 10.1076 7.7122 10.1076H9.36021C9.64739 10.1076 9.88021 9.87479 9.88021 9.5876V7.9396C9.88021 7.65241 9.64739 7.4196 9.36021 7.4196H7.71221ZM2.61688 7.9396C2.61688 7.65241 2.84969 7.4196 3.13688 7.4196H4.78488C5.07207 7.4196 5.30488 7.65241 5.30488 7.9396V9.5876C5.30488 9.87479 5.07207 10.1076 4.78488 10.1076H3.13688C2.84969 10.1076 2.61688 9.87479 2.61688 9.5876V7.9396ZM7.71221 12.1821C7.42502 12.1821 7.19221 12.415 7.19221 12.7021V14.3501C7.19221 14.6373 7.42502 14.8701 7.7122 14.8701H9.36021C9.64739 14.8701 9.88021 14.6373 9.88021 14.3501V12.7021C9.88021 12.415 9.64739 12.1821 9.36021 12.1821H7.71221ZM2.61688 12.7021C2.61688 12.415 2.84969 12.1821 3.13688 12.1821H4.78488C5.07207 12.1821 5.30488 12.415 5.30488 12.7021V14.3501C5.30488 14.6373 5.07207 14.8701 4.78488 14.8701H3.13688C2.84969 14.8701 2.61688 14.6373 2.61688 14.3501V12.7021Z" fill="white"/>
</svg>
