<svg width="16" height="16" viewBox="0 0 16 16" fill="none" xmlns="http://www.w3.org/2000/svg">
<path fill-rule="evenodd" clip-rule="evenodd" d="M1.99276 0.229187C1.41838 0.229187 0.952759 0.69481 0.952759 1.26919V13.8292C0.952759 14.7128 1.6691 15.4292 2.55276 15.4292H4.4701H12.0006H14.3664C15.2501 15.4292 15.9664 14.7128 15.9664 13.8292V4.45766C15.9664 3.88329 15.5008 3.41766 14.9264 3.41766H13.0406V1.26919C13.0406 0.694811 12.575 0.229187 12.0006 0.229187H1.99276ZM2.80754 2.79213C2.80754 2.50494 3.04036 2.27213 3.32754 2.27213H10.7075C10.9947 2.27213 11.2275 2.50494 11.2275 2.79213V5.30909C11.2275 5.59628 10.9947 5.82909 10.7075 5.82909H3.32754C3.04036 5.82909 2.80754 5.59628 2.80754 5.30909V2.79213ZM3.32754 7.82919C3.04036 7.82919 2.80754 8.062 2.80754 8.34919V9.07719C2.80754 9.36438 3.04036 9.59719 3.32754 9.59719H10.7075C10.9947 9.59719 11.2275 9.36438 11.2275 9.07719V8.34919C11.2275 8.062 10.9947 7.82919 10.7075 7.82919H3.32754ZM2.80754 11.6247C2.80754 11.3375 3.04036 11.1047 3.32754 11.1047H8.53237C8.81956 11.1047 9.05237 11.3375 9.05237 11.6247V12.3527C9.05237 12.6399 8.81956 12.8727 8.53237 12.8727H3.32754C3.04036 12.8727 2.80754 12.6399 2.80754 12.3527V11.6247ZM14.1669 5.82909H12.3989V12.3743C12.3989 12.8625 12.7946 13.2583 13.2829 13.2583C13.7711 13.2583 14.1669 12.8625 14.1669 12.3743V5.82909Z" fill="white"/>
</svg>
