<svg width="17" height="16" viewBox="0 0 17 16" fill="none" xmlns="http://www.w3.org/2000/svg">
<path fill-rule="evenodd" clip-rule="evenodd" d="M7.34026 0.212646C7.18479 0.212646 7.05304 0.327108 7.03132 0.481053L6.77657 2.28643C6.34329 2.41317 5.93003 2.58693 5.54262 2.80181L4.08615 1.69754C3.96193 1.60336 3.78726 1.61531 3.67703 1.72554L2.08643 3.31614C1.9765 3.42607 1.96428 3.60017 2.05777 3.72438L3.15905 5.18753C2.94482 5.57403 2.77116 5.98626 2.64384 6.41839L0.835406 6.66712C0.680975 6.68836 0.565918 6.82033 0.565918 6.97621V9.22565C0.565918 9.38112 0.680379 9.51287 0.834324 9.53459L2.61443 9.78578C2.73779 10.2334 2.91064 10.6605 3.12672 11.0607L2.05081 12.4798C1.95663 12.604 1.96859 12.7787 2.07881 12.8889L3.66941 14.4795C3.77934 14.5894 3.95344 14.6016 4.07765 14.5081L5.46665 13.4627C5.87852 13.6989 6.32057 13.8883 6.78562 14.0235L7.02039 15.7305C7.04163 15.8849 7.1736 16 7.32948 16H9.57892C9.7344 16 9.86614 15.8855 9.88786 15.7316L10.1266 14.0395C10.6 13.9067 11.05 13.718 11.4691 13.481L12.833 14.5151C12.9573 14.6093 13.1319 14.5973 13.2422 14.4871L14.8328 12.8965C14.9427 12.7866 14.9549 12.6125 14.8614 12.4883L13.8184 11.1026C14.0456 10.6896 14.2265 10.2476 14.3542 9.78341L16.0838 9.54552C16.2382 9.52428 16.3533 9.39232 16.3533 9.23643V6.98699C16.3533 6.83152 16.2388 6.69977 16.0849 6.67805L14.3275 6.43008C14.1963 5.98137 14.0151 5.55403 13.7905 5.15456L14.8684 3.73288C14.9626 3.60866 14.9506 3.43399 14.8404 3.32376L13.2498 1.73316C13.1398 1.62323 12.9657 1.61101 12.8415 1.7045L11.4013 2.78855C11.007 2.5722 10.5863 2.39833 10.1451 2.2731L9.89879 0.482134C9.87755 0.327703 9.74559 0.212646 9.5897 0.212646H7.34026ZM10.4132 8.15367C10.4132 9.23346 9.54696 10.1043 8.48397 10.1043C7.42098 10.1043 6.55475 9.23346 6.55475 8.15367C6.55475 7.07388 7.42098 6.20302 8.48397 6.20302C9.54696 6.20302 10.4132 7.07388 10.4132 8.15367Z" fill="#43444B"/>
</svg>
