<svg width="15" height="17" viewBox="0 0 15 17" fill="none" xmlns="http://www.w3.org/2000/svg">
<path fill-rule="evenodd" clip-rule="evenodd" d="M6.20954 0.311157C6.05406 0.311157 5.92232 0.425618 5.9006 0.579563L5.71873 1.8684C2.58176 2.64697 0.256714 5.48169 0.256714 8.85945C0.256714 12.8375 3.48153 16.0623 7.45955 16.0623C11.4376 16.0623 14.6624 12.8375 14.6624 8.85945C14.6624 5.4844 12.3411 2.65151 9.20792 1.87028L9.03054 0.580645C9.0093 0.426214 8.87733 0.311157 8.72145 0.311157H6.20954ZM7.01955 4.35844C6.73236 4.35844 6.49955 4.59125 6.49955 4.87844V9.8379H8.41955V4.87844C8.41955 4.59125 8.18674 4.35844 7.89955 4.35844H7.01955ZM11.821 9.73185C12.0911 9.82994 12.2304 10.1285 12.1321 10.3985L11.8313 11.2251C11.7331 11.4949 11.4347 11.6341 11.1648 11.5358L6.50443 9.83961H8.41992V8.49663L11.821 9.73185Z" fill="#43444B"/>
</svg>
