<svg width="20" height="20" viewBox="0 0 20 20" fill="none" xmlns="http://www.w3.org/2000/svg">
<path d="M5.83333 14.1667H4.16667C3.72464 14.1667 3.30072 13.9911 2.98816 13.6785C2.67559 13.366 2.5 12.942 2.5 12.5V4.16667C2.5 3.72464 2.67559 3.30072 2.98816 2.98816C3.30072 2.67559 3.72464 2.5 4.16667 2.5H12.5C12.942 2.5 13.366 2.67559 13.6785 2.98816C13.9911 3.30072 14.1667 3.72464 14.1667 4.16667V5.83333" stroke="white" stroke-width="1.5" stroke-linecap="round" stroke-linejoin="round"/>
<path d="M16.5791 5.83333H6.75408C6.24552 5.83333 5.83325 6.2456 5.83325 6.75416V16.5792C5.83325 17.0877 6.24552 17.5 6.75408 17.5H16.5791C17.0876 17.5 17.4999 17.0877 17.4999 16.5792V6.75416C17.4999 6.2456 17.0876 5.83333 16.5791 5.83333Z" stroke="white" stroke-width="1.5" stroke-linecap="round" stroke-linejoin="round"/>
</svg>
