<svg width="35" height="36" viewBox="0 0 50 50" fill="none" xmlns="http://www.w3.org/2000/svg">
<rect width="50" height="50" rx="2" fill="#4C4D55"/>
<path d="M39.6296 22.9236C39.6068 22.4929 39.3081 22.2078 38.9624 22.2869L36.4363 22.8644C36.1751 22.9241 35.962 23.175 35.8834 23.4799C34.7737 21.8814 32.8189 19.2932 31.4287 18.7116C31.2363 18.6325 30.0384 18.2379 25.3453 18.2379C20.6521 18.2379 19.4544 18.6325 19.2578 18.7133C17.8706 19.2937 15.9167 21.8814 14.8072 23.4798C14.7285 23.1749 14.5155 22.9241 14.2542 22.8644L11.7282 22.2869C11.3826 22.2078 11.0838 22.4929 11.061 22.9236C11.038 23.3543 11.2997 23.7675 11.6452 23.8465L13.886 24.3589C13.1048 24.9413 12.5989 25.8723 12.5989 26.9216L12.9184 32.4365C12.9184 33.4888 13.7715 34.3418 14.8238 34.3418H15.9696C17.0219 34.3418 17.8749 33.4888 17.8749 32.4365L17.8375 32.0328H32.8529L32.8155 32.4365C32.8155 33.4888 33.6685 34.3418 34.7208 34.3418H35.8667C36.919 34.3418 37.7721 33.4888 37.7721 32.4365L38.0915 26.9216C38.0915 25.8723 37.5856 24.9413 36.8045 24.3589L39.0452 23.8465C39.3909 23.7675 39.6526 23.3543 39.6296 22.9236ZM19.7847 20.0167C19.8948 19.9809 21.0487 19.6436 25.3453 19.6436C29.6333 19.6436 30.7912 19.9796 30.9053 20.0165C31.7369 20.3778 33.1636 22.1008 34.336 23.7269H16.3545C17.5283 22.0988 18.9565 20.3738 19.7847 20.0167ZM28.0288 31.1003H22.6618C22.4147 31.1003 22.2145 30.9 22.2145 30.653C22.2145 30.406 22.4147 30.2058 22.6618 30.2058H28.0288C28.276 30.2058 28.4761 30.406 28.4761 30.653C28.4761 30.9 28.276 31.1003 28.0288 31.1003ZM32.3993 28.7149C32.3993 28.7149 31.5047 28.1996 30.4186 28.0738H19.7226C18.6365 28.1996 17.7419 28.7149 17.7419 28.7149C15.2501 29.3538 14.5728 27.3092 14.5728 27.3092H35.5685C35.5684 27.3092 34.8911 29.3538 32.3993 28.7149Z" fill="#FAFAFA"/>
</svg>