
<svg width="16" height="16" viewBox="0 0 16 16" fill="none" xmlns="http://www.w3.org/2000/svg">
<path d="M5.22185 16C3.88386 16 2.54588 15.5044 1.50523 14.5841C-0.501744 12.6726 -0.501744 9.48673 1.50523 7.57522L8.3438 1.06195C9.08713 0.353982 9.97911 0 11.0198 0C11.9861 0 12.9524 0.353982 13.6215 1.06195C15.1081 2.47788 15.1081 4.67257 13.6215 6.0885L6.78283 12.6018C5.89084 13.4513 4.47853 13.4513 3.66087 12.6018C3.21488 12.177 2.99188 11.6106 2.99188 11.0442C2.99188 10.4779 3.21488 9.9115 3.66087 9.55752L9.97911 3.53982C10.2764 3.25664 10.7225 3.25664 11.0198 3.53982C11.3171 3.82301 11.3171 4.24779 11.0198 4.53097L4.70153 10.5487C4.55285 10.6903 4.47853 10.8319 4.47853 11.0442C4.47853 11.2566 4.55285 11.3982 4.70153 11.5398C4.99885 11.823 5.44484 11.823 5.74218 11.5398L12.5808 5.02655C13.4728 4.17699 13.4728 2.83186 12.5808 2.0531C11.7631 1.27434 10.2764 1.27434 9.45879 2.0531L2.62021 8.56637C1.13357 9.9823 1.13357 12.177 2.62021 13.5929C4.10686 15.0089 6.41116 15.0089 7.89781 13.5929L14.7364 7.07965C15.0337 6.79646 15.4798 6.79646 15.777 7.07965C16.0743 7.36283 16.0743 7.78761 15.777 8.0708L8.93846 14.5841C7.89781 15.5044 6.55983 16 5.22185 16Z" fill="#000"/>
</svg>
