<svg width="15" height="15" viewBox="0 0 15 13" fill="none" xmlns="http://www.w3.org/2000/svg">
<path d="M1.25 0.875H5C5.66304 0.875 6.29893 1.13839 6.76777 1.60723C7.23661 2.07607 7.5 2.71196 7.5 3.375V12.125C7.5 11.6277 7.30246 11.1508 6.95083 10.7992C6.5992 10.4475 6.12228 10.25 5.625 10.25H1.25V0.875Z" stroke="#3F4048" stroke-width="1.33333" stroke-linecap="round" stroke-linejoin="round"/>
<path d="M13.75 0.875H10C9.33696 0.875 8.70107 1.13839 8.23223 1.60723C7.76339 2.07607 7.5 2.71196 7.5 3.375V12.125C7.5 11.6277 7.69754 11.1508 8.04917 10.7992C8.40081 10.4475 8.87772 10.25 9.375 10.25H13.75V0.875Z" stroke="#3F4048" stroke-width="1.33333" stroke-linecap="round" stroke-linejoin="round"/>
</svg>