<svg width="25" height="25" viewBox="0 0 25 25" fill="none" xmlns="http://www.w3.org/2000/svg">
<path d="M19.0027 12.5001C19.0027 12.7764 18.7788 13.0003 18.5025 13.0003C18.2263 13.0003 18.0023 12.7764 18.0023 12.5001C18.0023 12.2239 18.2263 11.9999 18.5025 11.9999C18.7788 11.9999 19.0027 12.2239 19.0027 12.5001" stroke="white" stroke-width="1.5" stroke-linecap="round" stroke-linejoin="round"/>
<path d="M13.0002 12.5001C13.0002 12.7764 12.7763 13.0003 12.5 13.0003C12.2238 13.0003 11.9998 12.7764 11.9998 12.5001C11.9998 12.2239 12.2238 11.9999 12.5 11.9999C12.7763 11.9999 13.0002 12.2239 13.0002 12.5001" stroke="white" stroke-width="1.5" stroke-linecap="round" stroke-linejoin="round"/>
<path d="M6.99773 12.5001C6.99773 12.7764 6.77378 13.0003 6.49752 13.0003C6.22127 13.0003 5.99731 12.7764 5.99731 12.5001C5.99731 12.2239 6.22127 11.9999 6.49752 11.9999C6.77378 11.9999 6.99773 12.2239 6.99773 12.5001" stroke="white" stroke-width="1.5" stroke-linecap="round" stroke-linejoin="round"/>
</svg>
