<svg width="20" height="16" viewBox="0 0 21 16" fill="none" xmlns="http://www.w3.org/2000/svg">
<path d="M10.5538 7.19995C11.036 7.19995 11.3575 7.51995 11.3575 7.99995V15.2C11.3575 15.68 11.036 16 10.5538 16C10.0715 16 9.75 15.68 9.75 15.2V7.99995C9.75 7.51995 10.0715 7.19995 10.5538 7.19995Z" fill="#50ff7f"/>
<path d="M17.3022 13.92C16.9807 13.92 16.7396 13.76 16.5789 13.52C16.3377 13.12 16.4985 12.64 16.9004 12.4C17.6237 12 18.1864 11.28 18.4275 10.48C18.6686 9.68003 18.5882 8.80003 18.1864 8.08003C17.6237 7.04003 16.5789 6.40003 15.3732 6.40003H14.3283C13.9265 6.40003 13.605 6.16003 13.5246 5.84003C12.7208 2.88003 9.66654 1.04003 6.69264 1.84003C5.24588 2.16003 4.04025 3.04003 3.31687 4.32003C2.51311 5.68003 2.35236 7.12003 2.67387 8.64003C2.91499 9.52003 3.31687 10.32 3.8795 10.96C4.201 11.28 4.12063 11.76 3.79912 12.08C3.47762 12.4 2.99537 12.32 2.67387 12C1.95048 11.12 1.38786 10.16 1.06635 9.04003C0.584101 7.20003 0.825228 5.28003 1.87011 3.60003C2.91499 1.92003 4.44213 0.800028 6.29077 0.320028C9.98804 -0.719972 13.7657 1.28003 14.9713 4.80003H15.3732C17.1415 4.80003 18.749 5.76003 19.6331 7.28003C20.2761 8.40003 20.3565 9.68003 20.035 10.96C19.6331 12.16 18.8294 13.2 17.7041 13.84C17.5434 13.84 17.463 13.92 17.3022 13.92Z" fill="white"/>
<path d="M7.33891 11.2C7.58004 11.2 7.74079 11.28 7.90154 11.44L10.5539 14.08L13.2064 11.44C13.5279 11.12 14.0101 11.12 14.3316 11.44C14.6531 11.76 14.6531 12.24 14.3316 12.56L11.1166 15.76C10.7951 16.08 10.3128 16.08 9.99131 15.76L6.77628 12.56C6.45478 12.24 6.45478 11.76 6.77628 11.44C6.93703 11.28 7.09779 11.2 7.33891 11.2Z" fill="#50ff7f"/>
</svg>
