<svg width="30" height="30" viewBox="0 0 30 30" fill="none" xmlns="http://www.w3.org/2000/svg">
<rect width="30" height="30" rx="2" fill="#3F4048"/>
<g clip-path="url(#clip0_319_481)">
<path fill-rule="evenodd" clip-rule="evenodd" d="M8.5 15C8.5 13.2761 9.18482 11.6228 10.4038 10.4038C11.6228 9.18482 13.2761 8.5 15 8.5C16.7239 8.5 18.3772 9.18482 19.5962 10.4038C20.8152 11.6228 21.5 13.2761 21.5 15C21.5 16.7239 20.8152 18.3772 19.5962 19.5962C18.3772 20.8152 16.7239 21.5 15 21.5C13.2761 21.5 11.6228 20.8152 10.4038 19.5962C9.18482 18.3772 8.5 16.7239 8.5 15ZM15 7C12.8783 7 10.8434 7.84285 9.34315 9.34315C7.84285 10.8434 7 12.8783 7 15C7 17.1217 7.84285 19.1566 9.34315 20.6569C10.8434 22.1571 12.8783 23 15 23C17.1217 23 19.1566 22.1571 20.6569 20.6569C22.1571 19.1566 23 17.1217 23 15C23 12.8783 22.1571 10.8434 20.6569 9.34315C19.1566 7.84285 17.1217 7 15 7ZM12 15C12.2652 15 12.5196 14.8946 12.7071 14.7071C12.8946 14.5196 13 14.2652 13 14C13 13.7348 12.8946 13.4804 12.7071 13.2929C12.5196 13.1054 12.2652 13 12 13C11.7348 13 11.4804 13.1054 11.2929 13.2929C11.1054 13.4804 11 13.7348 11 14C11 14.2652 11.1054 14.5196 11.2929 14.7071C11.4804 14.8946 11.7348 15 12 15ZM19 14C19 14.2652 18.8946 14.5196 18.7071 14.7071C18.5196 14.8946 18.2652 15 18 15C17.7348 15 17.4804 14.8946 17.2929 14.7071C17.1054 14.5196 17 14.2652 17 14C17 13.7348 17.1054 13.4804 17.2929 13.2929C17.4804 13.1054 17.7348 13 18 13C18.2652 13 18.5196 13.1054 18.7071 13.2929C18.8946 13.4804 19 13.7348 19 14ZM12.32 16.636C12.4813 16.523 12.6806 16.4781 12.8749 16.5108C13.0691 16.5435 13.2426 16.6514 13.358 16.811L13.365 16.82C13.4678 16.9379 13.5855 17.0421 13.715 17.13C13.979 17.308 14.398 17.5 15 17.5C15.602 17.5 16.02 17.308 16.285 17.129C16.4145 17.0411 16.5322 16.937 16.635 16.819L16.642 16.811C16.7574 16.6489 16.9324 16.5394 17.1285 16.5064C17.3247 16.4734 17.526 16.5196 17.688 16.635C17.85 16.7504 17.9596 16.9254 17.9926 17.1215C18.0256 17.3177 17.9794 17.519 17.864 17.681L17.25 17.25C17.864 17.68 17.864 17.681 17.863 17.681V17.682L17.862 17.684L17.86 17.687L17.855 17.694L17.841 17.713C17.7848 17.7883 17.7233 17.8594 17.657 17.926C17.4963 18.0924 17.3187 18.2415 17.127 18.371C16.4972 18.7894 15.7561 19.0086 15 19C14.054 19 13.348 18.692 12.874 18.37C12.6232 18.2003 12.3968 17.9971 12.201 17.766C12.1867 17.7486 12.1727 17.7309 12.159 17.713L12.145 17.693L12.14 17.687L12.138 17.684V17.682H12.137L12.75 17.25L12.136 17.68C12.022 17.5172 11.9772 17.3159 12.0115 17.1201C12.0458 16.9244 12.1564 16.7503 12.319 16.636H12.32Z" fill="#FAFAFA"/>
</g>
<defs>
<clipPath id="clip0_319_481">
<rect width="16" height="16" fill="white" transform="translate(7 7)"/>
</clipPath>
</defs>
</svg>