<svg width="20" height="19" viewBox="0 0 20 19" fill="none" xmlns="http://www.w3.org/2000/svg">
<path d="M19.5369 0L10.9551 6.34995L12.5509 2.60772L19.5369 0Z" fill="#B9B9BD"/>
<path d="M0.484375 0.00744629L7.45163 2.60816L8.96698 6.39946L0.484375 0.00744629Z" fill="#B9B9BD"/>
<path d="M16.0828 13.5045L19.8758 13.5767L18.5502 18.08L13.9219 16.8057L16.0828 13.5045Z" fill="#B9B9BD"/>
<path d="M3.91802 13.5045L6.07093 16.8057L1.45036 18.0801L0.132812 13.5767L3.91802 13.5045Z" fill="#B9B9BD"/>
<path d="M8.76065 5.43372L8.91571 10.4402L4.27734 10.2292L5.59669 8.23878L5.61339 8.21958L8.76065 5.43372Z" fill="#B9B9BD"/>
<path d="M11.192 5.37793L14.3873 8.21984L14.4038 8.23889L15.7232 10.2293L11.0859 10.4403L11.192 5.37793Z" fill="#B9B9BD"/>
<path d="M6.20622 13.519L8.73891 15.4924L5.79688 16.9128L6.20622 13.519Z" fill="#B9B9BD"/>
<path d="M13.7946 13.5188L14.1955 16.9129L11.2617 15.4923L13.7946 13.5188Z" fill="#B9B9BD"/>
<path d="M11.3262 15.3064L14.3033 16.748L11.534 18.0641L11.5627 17.1942L11.3262 15.3064Z" fill="#D5BFB2"/>
<path d="M8.67194 15.307L8.44465 17.1799L8.46331 18.063L5.6875 16.7479L8.67194 15.307Z" fill="#D5BFB2"/>
<path d="M7.81215 11.0936L8.59012 12.7286L5.94141 11.9527L7.81215 11.0936Z" fill="#233447"/>
<path d="M12.186 11.0939L14.0655 11.9528L11.4082 12.7285L12.186 11.0939Z" fill="#233447"/>
<path d="M6.40846 13.5023L5.9803 17.021L3.68555 13.5792L6.40846 13.5023Z" fill="#A3A3A9"/>
<path d="M13.5918 13.5024L16.3148 13.5794L14.0114 17.0213L13.5918 13.5024Z" fill="#A3A3A9"/>
<path d="M15.7909 10.0303L13.8092 12.0499L12.2814 11.3517L11.5499 12.8895L11.0703 10.245L15.7909 10.0303Z" fill="#A3A3A9"/>
<path d="M4.20898 10.0303L8.93041 10.2451L8.45086 12.8895L7.7192 11.3519L6.19938 12.05L4.20898 10.0303Z" fill="#A3A3A9"/>
<path d="M4.07617 9.61584L6.31823 11.8909L6.39593 14.1369L4.07617 9.61584Z" fill="#D0D0D1"/>
<path d="M15.9274 9.61169L13.6035 14.1409L13.691 11.8908L15.9274 9.61169Z" fill="#D0D0D1"/>
<path d="M8.82061 9.75439L8.91084 10.3224L9.13381 11.7373L8.99047 16.083L8.31272 12.592L8.3125 12.5559L8.82061 9.75439Z" fill="#D0D0D1"/>
<path d="M11.1781 9.74646L11.6876 12.5558L11.6873 12.5919L11.0079 16.0916L10.981 15.2163L10.875 11.7114L11.1781 9.74646Z" fill="#D0D0D1"/>
<path d="M13.8899 11.8004L13.814 13.7518L11.4488 15.5946L10.9707 15.2568L11.5067 12.4962L13.8899 11.8004Z" fill="#DEDEE1"/>
<path d="M6.11914 11.8005L8.49412 12.4963L9.03006 15.2568L8.55193 15.5947L6.18664 13.7517L6.11914 11.8005Z" fill="#DEDEE1"/>
<path d="M5.23633 16.317L8.26227 17.7508L8.24946 17.1385L8.50264 16.9163H11.4975L11.7598 17.1378L11.7405 17.7496L14.7472 16.3206L13.2842 17.5297L11.515 18.7448H8.47839L6.71035 17.5247L5.23633 16.317Z" fill="#C0AC9D"/>
<path d="M11.1106 15.1156L11.5384 15.4178L11.7891 17.4182L11.4263 17.1118H8.57663L8.2207 17.4244L8.46319 15.418L8.89117 15.1156H11.1106Z" fill="#161616"/>
<path d="M18.9707 0.175781L20.0009 3.26621L19.3575 6.39093L19.8156 6.74435L19.1957 7.2173L19.6616 7.57709L19.0447 8.13894L19.4234 8.41322L18.4183 9.58711L14.2957 8.38676L14.2599 8.36761L11.2891 5.86148L18.9707 0.175781Z" fill="#85858A"/>
<path d="M1.03016 0.175781L8.71184 5.86148L5.74097 8.36761L5.70524 8.38676L1.58256 9.58711L0.577439 8.41321L0.955881 8.13914L0.339259 7.57709L0.804262 7.21769L0.175104 6.74338L0.650492 6.38976L0 3.26633L1.03016 0.175781Z" fill="#85858A"/>
<path d="M14.0931 8.12427L18.4613 9.39605L19.8804 13.7699L16.1364 13.7699L13.5566 13.8025L15.4327 10.1456L14.0931 8.12427Z" fill="#DEDEE1"/>
<path d="M5.90645 8.12427L4.56651 10.1456L6.44286 13.8025L3.86436 13.7699H0.126953L1.53815 9.39608L5.90645 8.12427Z" fill="#DEDEE1"/>
<path d="M12.7651 2.58691L11.5433 5.88682L11.284 10.3447L11.1848 11.7419L11.177 15.3113H8.82451L8.81688 11.7486L8.71735 10.3435L8.45795 5.88682L7.23633 2.58691H12.7651Z" fill="#DEDEE1"/>
</svg>