<svg width="35" height="35" viewBox="0 0 35 35" fill="none" xmlns="http://www.w3.org/2000/svg">
<rect width="35" height="35" rx="2" fill="#4C4D55"/>
<path d="M18.5872 18.4189C17.4494 19.6162 15.9288 20.3429 14.2633 20.3429C12.5978 20.3429 11.0771 19.6162 9.93935 18.4189C7.93895 19.6791 6.52652 21.7875 6.20789 24.2396C6.13514 24.7996 6.57147 25.2967 7.1376 25.2967H17.0414C17.0414 22.9563 18.4452 20.9378 20.4548 20.0383C19.9193 19.4084 19.2896 18.8614 18.5872 18.4189Z" fill="white"/>
<path d="M14.0582 18.3964C16.5382 18.3964 18.5486 15.9984 18.5486 13.0402C18.5486 10.082 16.5382 7.68392 14.0582 7.68392C11.5782 7.68392 9.56775 10.082 9.56775 13.0402C9.56775 15.9984 11.5782 18.3964 14.0582 18.3964Z" fill="white"/>
<line x1="22.2485" y1="21.25" x2="27.2485" y2="21.25" stroke="white" stroke-width="1.5" stroke-linecap="round"/>
<line x1="19.95" y1="24.75" x2="27.45" y2="24.75" stroke="white" stroke-width="1.5" stroke-linecap="round"/>
<path d="M24.4985 8.31875C23.561 9.25625 22.1579 9.56875 21.061 9.56875C21.0885 10.8103 21.4154 12.0269 22.0138 13.115C22.6123 14.2032 23.4647 15.1307 24.4985 15.8188C25.5324 15.1307 26.3848 14.2032 26.9832 13.115C27.5817 12.0269 27.9086 10.8103 27.936 9.56875C26.8392 9.56875 25.436 9.25313 24.4985 8.31875Z" fill="white"/>
<path d="M24.2485 13.2125L22.9517 11.95L23.4173 11.4875L24.2485 12.2812L25.8892 10.6031L26.3548 11.0688L24.2485 13.2125Z" fill="#4C4D55"/>
</svg>
