<svg width="28" height="25" viewBox="0 0 28 25" fill="none" xmlns="http://www.w3.org/2000/svg">
<g clip-path="url(#clip0_141_955)">
<path d="M18.1975 11.7809C18.2397 11.8376 18.2945 11.8837 18.3575 11.9156C18.4206 11.9474 18.4902 11.9641 18.5608 11.9643H9.43049C9.36642 11.9642 9.30326 11.9491 9.246 11.9203C9.18875 11.8915 9.13897 11.8498 9.10062 11.7983L0.558855 0.461509C0.52777 0.418348 0.509086 0.367476 0.504837 0.314423C0.500588 0.26137 0.510936 0.208165 0.534754 0.16059C0.558572 0.113016 0.59495 0.0728912 0.639935 0.0445784C0.68492 0.0162655 0.736791 0.00084847 0.789909 0H9.23431C9.30515 0.000112963 9.37499 0.0167465 9.4383 0.0485859C9.50161 0.0804253 9.55665 0.126595 9.59906 0.183438L18.1975 11.7809Z" fill="url(#paint0_linear_141_955)"/>
<path d="M9.80275 11.7809C9.76064 11.8377 9.70586 11.8839 9.64279 11.9157C9.57971 11.9476 9.51009 11.9642 9.43945 11.9643H18.5654C18.6295 11.9644 18.6927 11.9495 18.75 11.9206C18.8073 11.8918 18.8571 11.8499 18.8953 11.7983L27.437 0.461509C27.4681 0.418348 27.4868 0.367476 27.491 0.314423C27.4953 0.26137 27.4849 0.208165 27.4611 0.16059C27.4373 0.113016 27.4009 0.0728912 27.3559 0.0445784C27.311 0.0162655 27.2591 0.000848469 27.206 0H18.7659C18.6951 0.000112963 18.6253 0.0167465 18.5619 0.0485859C18.4986 0.0804253 18.4436 0.126595 18.4012 0.183438L9.80275 11.7809Z" fill="#95FF00"/>
<path d="M18.1975 13.2193C18.2397 13.1626 18.2945 13.1165 18.3575 13.0846C18.4206 13.0528 18.4902 13.0361 18.5608 13.0359H9.43049C9.36648 13.0363 9.30343 13.0515 9.24623 13.0803C9.18902 13.1091 9.1392 13.1507 9.10062 13.2019L0.558855 24.5387C0.52777 24.5819 0.509086 24.6327 0.504837 24.6858C0.500588 24.7388 0.510936 24.792 0.534754 24.8396C0.558572 24.8872 0.59495 24.9273 0.639935 24.9556C0.68492 24.9839 0.736791 24.9994 0.789909 25.0002H9.23431C9.30505 25.0004 9.37485 24.984 9.43816 24.9524C9.50148 24.9208 9.55657 24.8749 9.59906 24.8182L18.1975 13.2193Z" fill="url(#paint1_linear_141_955)"/>
<path d="M9.80275 13.2193C9.76064 13.1625 9.70586 13.1163 9.64279 13.0845C9.57971 13.0526 9.51009 13.036 9.43945 13.0359H18.5654C18.6294 13.0361 18.6926 13.0512 18.7498 13.08C18.807 13.1088 18.8568 13.1505 18.8953 13.2019L27.437 24.5387C27.4681 24.5819 27.4868 24.6327 27.491 24.6858C27.4953 24.7388 27.4849 24.792 27.4611 24.8396C27.4373 24.8872 27.4009 24.9273 27.3559 24.9556C27.311 24.9839 27.2591 24.9994 27.206 25.0002H18.7659C18.6952 25.0004 18.6254 24.984 18.5621 24.9524C18.4988 24.9208 18.4437 24.8749 18.4012 24.8182L9.80275 13.2193Z" fill="#95FF00"/>
</g>
<defs>
<linearGradient id="paint0_linear_141_955" x1="11.3777" y1="8.76286" x2="6.54429" y2="2.00882" gradientUnits="userSpaceOnUse">
<stop stop-color="#229613"/>
<stop offset="0.02" stop-color="#249813"/>
<stop offset="0.48" stop-color="#61CF09"/>
<stop offset="0.82" stop-color="#87F202"/>
<stop offset="1" stop-color="#95FF00"/>
</linearGradient>
<linearGradient id="paint1_linear_141_955" x1="11.3777" y1="16.2373" x2="6.54429" y2="22.9928" gradientUnits="userSpaceOnUse">
<stop stop-color="#229613"/>
<stop offset="0.02" stop-color="#249813"/>
<stop offset="0.48" stop-color="#61CF09"/>
<stop offset="0.82" stop-color="#87F202"/>
<stop offset="1" stop-color="#95FF00"/>
</linearGradient>
<clipPath id="clip0_141_955">
<rect width="27" height="25.0001" fill="white" transform="translate(0.5)"/>
</clipPath>
</defs>
</svg>
