<svg width="32" height="30" viewBox="0 0 32 30" fill="none" xmlns="http://www.w3.org/2000/svg">
<path d="M16.125 30C24.5128 30 31.3125 23.2843 31.3125 15C31.3125 6.71573 24.5128 0 16.125 0C7.73718 0 0.9375 6.71573 0.9375 15C0.9375 23.2843 7.73718 30 16.125 30Z" fill="#FFCC4D"/>
<path d="M10.3032 14.8C11.7012 14.8 12.8345 13.6808 12.8345 12.3C12.8345 10.9193 11.7012 9.80005 10.3032 9.80005C8.90525 9.80005 7.77197 10.9193 7.77197 12.3C7.77197 13.6808 8.90525 14.8 10.3032 14.8Z" fill="#664500"/>
<path d="M21.9468 14.8C23.3447 14.8 24.478 13.6808 24.478 12.3C24.478 10.9193 23.3447 9.80005 21.9468 9.80005C20.5488 9.80005 19.4155 10.9193 19.4155 12.3C19.4155 13.6808 20.5488 14.8 21.9468 14.8Z" fill="#664500"/>
<path d="M22.5038 19.15C18.4032 22 13.8469 21.95 9.74631 19.15C9.24006 18.8 8.83506 19.4 9.13881 19.95C10.4044 21.95 12.8851 23.8 16.1251 23.8C19.3651 23.8 21.8457 22 23.1113 19.95C23.4151 19.4 23.0101 18.8 22.5038 19.15Z" fill="#664500"/>
</svg>