<svg width="18" height="19" viewBox="0 0 18 19" fill="none" xmlns="http://www.w3.org/2000/svg">
<path d="M18 9.5C18 4.53714 13.9629 0.5 9 0.5C4.03714 0.5 0 4.53714 0 9.5C0 14.4629 4.03714 18.5 9 18.5C13.9629 18.5 18 14.4629 18 9.5ZM1.26 9.5C1.26 5.23143 4.73143 1.76 9 1.76C13.2686 1.76 16.74 5.23143 16.74 9.5C16.74 13.7686 13.2686 17.24 9 17.24C4.73143 17.24 1.26 13.7686 1.26 9.5Z" fill="#78797E"/>
<path d="M6.56325 9.95102L9.21182 12.5996C9.45794 12.8457 9.85835 12.8457 10.1045 12.5996C10.3506 12.3535 10.3506 11.9531 10.1045 11.7069L7.90039 9.50285L10.1045 7.29877C10.3506 7.05265 10.3506 6.65224 10.1045 6.40612C9.98325 6.28489 9.82161 6.22245 9.65998 6.22245C9.49835 6.22245 9.33672 6.28489 9.21549 6.40612L6.56692 9.05469C6.31712 9.30816 6.31712 9.70489 6.56325 9.95102Z" fill="#78797E"/>
</svg>
