<svg width="110" height="35" viewBox="0 0 110 35" fill="none" xmlns="http://www.w3.org/2000/svg">
<path d="M109.989 30.2636C109.984 30.2636 109.979 30.2684 109.979 30.2742C109.973 32.8734 107.804 35 105.109 35H4.86968C2.19241 35 0 32.8881 0 30.2636V4.73639C0 2.1324 2.17133 0 4.86968 0H105.13C107.808 0 110 2.1119 110 4.73639V30.2531C110 30.2589 109.995 30.2636 109.989 30.2636Z" fill="black"/>
<path d="M30.0834 21.6176C29.5468 22.7866 29.2976 23.3232 28.6269 24.3581C27.6687 25.8146 26.3271 27.616 24.679 27.616C23.2033 27.6352 22.82 26.6578 20.8269 26.6578C18.8338 26.677 18.4122 27.616 16.9366 27.616C15.2693 27.5969 14.0044 25.9679 13.0462 24.5306C10.3823 20.4869 10.114 15.7341 11.743 13.2044C12.912 11.4029 14.7518 10.368 16.4766 10.368C18.2398 10.368 19.3513 11.3263 20.8078 11.3263C22.226 11.3263 23.0884 10.368 25.1198 10.368C26.6529 10.368 28.2819 11.2113 29.4509 12.6486C25.6181 14.7375 26.2313 20.1611 30.0834 21.6176Z" fill="white"/>
<path d="M23.5467 8.73903C24.2941 7.7808 24.8499 6.45845 24.6391 5.07861C23.4317 5.15527 22.0136 5.92185 21.1895 6.93757C20.4421 7.83829 19.8288 9.19896 20.0588 10.5021C21.4003 10.5596 22.761 9.77391 23.5467 8.73903Z" fill="white"/>
<path d="M38.1907 13.1469L34.377 24.358H36.1209L37.2516 20.9084H40.9312L42.1002 24.358H43.9017L40.0688 13.1469H38.1907ZM39.0914 14.9866C39.2256 15.4849 39.3597 16.0023 39.5322 16.5773L40.5671 19.5478H37.6541L38.6698 16.5581C38.8039 16.079 38.9573 15.5424 39.0914 14.9866Z" fill="white"/>
<path d="M48.8276 16.0598C47.6778 16.0598 46.7387 16.5006 46.1254 17.363L46.0488 16.2515H44.5156V16.3856C44.554 17.0755 44.5731 17.8421 44.5731 18.9345V27.5776H46.2788V23.5531C46.7962 24.1855 47.6394 24.5497 48.5976 24.5497C49.5942 24.5497 50.4949 24.1664 51.1657 23.4573C51.9131 22.6715 52.2964 21.5408 52.2964 20.1993C52.2964 19.0111 51.9514 17.9763 51.319 17.2288C50.6866 16.4623 49.805 16.0598 48.8276 16.0598ZM48.406 17.4588C49.92 17.4588 50.5908 18.8578 50.5908 20.2568C50.5908 22.0391 49.7283 23.1507 48.3293 23.1507C47.3711 23.1507 46.5662 22.4991 46.3362 21.5792C46.2979 21.4259 46.2788 21.2534 46.2788 21.0234V19.6627C46.2788 19.5477 46.2979 19.3944 46.3362 19.2411C46.3362 19.2028 46.3554 19.1453 46.3554 19.107C46.6237 18.1296 47.4669 17.4588 48.406 17.4588Z" fill="white"/>
<path d="M57.5655 16.0598C56.4157 16.0598 55.4766 16.5006 54.8634 17.363L54.7867 16.2515H53.2344V16.3856C53.2727 17.0755 53.2919 17.8421 53.2919 18.9345V27.5776H54.9975V23.5531C55.5149 24.1855 56.3582 24.5497 57.3164 24.5497C58.3129 24.5497 59.2137 24.1664 59.8844 23.4573C60.6318 22.6715 61.0151 21.5408 61.0151 20.1993C61.0151 19.0111 60.6702 17.9763 60.0377 17.2288C59.4245 16.4623 58.5429 16.0598 57.5655 16.0598ZM57.1439 17.4588C58.6579 17.4588 59.3287 18.8578 59.3287 20.2568C59.3287 22.0391 58.4663 23.1507 57.0673 23.1507C56.1282 23.1507 55.3041 22.4991 55.0742 21.5792C55.0358 21.4259 55.0167 21.2534 55.0167 21.0234V19.6627C55.0167 19.5477 55.0358 19.3944 55.0742 19.2411C55.0742 19.2028 55.0933 19.1453 55.0933 19.107C55.3616 18.1296 56.1857 17.4588 57.1439 17.4588Z" fill="white"/>
<path d="M68.5082 17.8996C66.9175 17.2863 66.4192 16.8072 66.4192 15.9065C66.4192 15.1591 67.0133 14.3925 68.3549 14.3925C69.4472 14.3925 70.1563 14.7758 70.348 14.8908L70.5013 14.9866L70.9804 13.5685L70.8846 13.511C70.5971 13.3385 69.7922 12.9552 68.4124 12.9552C66.2468 12.9552 64.7328 14.2392 64.7328 16.0598C64.7328 17.5355 65.6718 18.5704 67.7033 19.2986C69.1406 19.8352 69.6772 20.391 69.6772 21.33C69.6772 22.4033 68.8531 23.0548 67.5116 23.0548C66.6492 23.0548 65.7485 22.8057 65.0586 22.3649L64.9053 22.2691L64.4453 23.7256L64.522 23.7831C65.1544 24.2047 66.3618 24.5113 67.3966 24.5113C70.3096 24.5113 71.3445 22.7291 71.3445 21.2151C71.3637 19.6627 70.5396 18.7045 68.5082 17.8996Z" fill="white"/>
<path d="M74.4309 14.2968L72.7636 14.8142V16.2324H71.5371V17.593H72.7636V21.7517C72.7636 22.7483 72.9553 23.4573 73.3577 23.8981C73.741 24.3197 74.316 24.5497 75.0059 24.5497C75.6383 24.5497 76.0982 24.4156 76.3091 24.3389L76.4049 24.3006L76.3282 22.9399L76.1749 22.9974C75.9641 23.0549 75.7341 23.0932 75.3892 23.0932C74.7376 23.0932 74.4501 22.6716 74.4501 21.6942V17.593H76.5007V16.2324H74.4501V14.2968H74.4309Z" fill="white"/>
<path d="M80.6788 16.0598C78.3024 16.0598 76.6543 17.8229 76.6543 20.3718C76.6543 22.8249 78.2641 24.5497 80.5638 24.5497H80.583C82.5186 24.5497 84.6075 23.189 84.6075 20.2185C84.6075 19.0112 84.2434 17.9763 83.5343 17.2097C82.8061 16.4623 81.8287 16.0598 80.6788 16.0598ZM80.6213 17.4013C82.1545 17.4013 82.8444 18.8961 82.8444 20.276C82.8444 21.9816 81.9054 23.2082 80.583 23.2082H80.5638C79.2798 23.2082 78.3408 22.0008 78.3408 20.3143C78.3599 18.8578 79.069 17.4013 80.6213 17.4013Z" fill="white"/>
<path d="M89.7806 16.1365L89.6848 16.1173C89.5315 16.079 89.4165 16.0598 89.2632 16.0598C88.3816 16.0598 87.5767 16.5772 87.1359 17.4205L87.0784 16.2323H85.5645L85.5836 16.3665C85.6219 17.0372 85.6411 17.7846 85.6411 18.8003L85.6219 24.3389H87.3276V20.0077C87.3276 19.7777 87.3467 19.5478 87.3659 19.3561C87.5575 18.3212 88.2666 17.6505 89.1482 17.6505C89.3207 17.6505 89.4548 17.6696 89.6081 17.6696L89.7806 17.6888V16.1365Z" fill="white"/>
<path d="M93.5946 16.0406C91.3332 16.0406 89.7617 17.8421 89.7617 20.4293C89.7617 22.9207 91.3332 24.5305 93.7671 24.5305C95.0511 24.5305 95.9327 24.243 96.4501 24.013L96.5459 23.9747L96.2201 22.7099L96.086 22.7674C95.626 22.959 95.0128 23.1506 93.9587 23.1506C93.2305 23.1506 91.5249 22.9015 91.4099 20.6976L96.8909 20.7168L96.9101 20.6018C96.9484 20.4293 96.9676 20.1993 96.9676 19.8927C96.9676 18.1104 96.086 16.0406 93.5946 16.0406ZM93.4988 17.3247C94.0162 17.3247 94.4378 17.478 94.7445 17.8038C95.2236 18.302 95.3194 19.0303 95.3194 19.3753H91.4482C91.6015 18.3979 92.2148 17.3247 93.4988 17.3247Z" fill="white"/>
<path d="M34.377 5.50024C34.8561 5.44274 35.3927 5.38525 36.0059 5.38525C37.0983 5.38525 37.884 5.61522 38.4015 6.03684C38.9381 6.47762 39.2447 7.09088 39.2447 7.95328C39.2447 8.81568 38.9381 9.52476 38.4015 10.023C37.8457 10.5213 36.9258 10.7896 35.7951 10.7896C35.2394 10.7896 34.7986 10.7705 34.3961 10.7321V5.50024H34.377ZM35.1435 10.1955C35.3352 10.2339 35.6226 10.2339 35.9101 10.2339C37.5391 10.2339 38.4206 9.40978 38.4206 7.99161C38.4206 6.72676 37.6349 5.94102 36.0251 5.94102C35.6226 5.94102 35.3352 5.97935 35.1244 6.01768V10.1955H35.1435Z" fill="white"/>
<path d="M41.967 10.8088C40.8363 10.8088 39.9355 10.0614 39.9355 8.85406C39.9355 7.57004 40.8746 6.82263 42.0436 6.82263C43.251 6.82263 44.0751 7.60836 44.0751 8.77739C44.0751 10.1956 42.9635 10.8088 41.967 10.8088ZM41.9861 10.2914C42.7144 10.2914 43.2702 9.67813 43.2702 8.79657C43.2702 8.14498 42.906 7.34006 42.0053 7.34006C41.1046 7.34006 40.7021 8.08748 40.7021 8.81573C40.7021 9.65896 41.2387 10.2914 41.9861 10.2914Z" fill="white"/>
<path d="M45.2811 6.91846L45.856 8.85407C45.971 9.27568 46.086 9.67814 46.1627 10.0806H46.1818C46.2777 9.69731 46.4118 9.29484 46.5651 8.87323L47.255 6.93762H47.9066L48.5582 8.83491C48.7115 9.27569 48.8457 9.69731 48.9415 10.0806H48.9607C49.0373 9.69731 49.1523 9.29485 49.2865 8.83491L49.8806 6.91846H50.6471L49.2865 10.7322H48.5774L47.9258 8.91156C47.7725 8.47078 47.6575 8.10666 47.5425 7.64671H47.5233C47.4275 8.10666 47.2934 8.5091 47.1401 8.91156L46.4501 10.713H45.741L44.457 6.89929H45.2811V6.91846Z" fill="white"/>
<path d="M51.4133 7.95333C51.4133 7.55087 51.4133 7.24425 51.375 6.91845H52.0649L52.1033 7.53171H52.1224C52.3332 7.18675 52.8315 6.82263 53.5214 6.82263C54.1155 6.82263 55.0162 7.12926 55.0162 8.45161V10.7322H54.2497V8.52826C54.2497 7.915 54.0005 7.39756 53.2723 7.39756C52.774 7.39756 52.3716 7.72335 52.2374 8.10664C52.1991 8.20246 52.1799 8.31745 52.1799 8.43244V10.7322H51.4133V7.95333Z" fill="white"/>
<path d="M56.2617 5.13611H57.0283V10.7321H56.2617V5.13611Z" fill="white"/>
<path d="M60.0392 10.8088C58.9085 10.8088 58.0078 10.0614 58.0078 8.85406C58.0078 7.57004 58.9469 6.82263 60.1159 6.82263C61.3233 6.82263 62.1473 7.60836 62.1473 8.77739C62.1473 10.1956 61.055 10.8088 60.0392 10.8088ZM60.0776 10.2914C60.8058 10.2914 61.3616 9.67813 61.3616 8.79657C61.3616 8.14498 60.9975 7.34006 60.0967 7.34006C59.196 7.34006 58.7936 8.08748 58.7936 8.81573C58.7936 9.65896 59.311 10.2914 60.0776 10.2914Z" fill="white"/>
<path d="M66.1139 9.81229C66.1139 10.1381 66.1331 10.4639 66.1714 10.7322H65.4815L65.4048 10.2531H65.3857C65.1557 10.5597 64.6957 10.828 64.0825 10.828C63.2201 10.828 62.7793 10.2914 62.7793 9.73563C62.7793 8.81573 63.68 8.31747 65.3282 8.31747V8.2408C65.3282 7.93417 65.2323 7.35924 64.3699 7.35924C63.9675 7.35924 63.565 7.45507 63.2584 7.64671L63.0859 7.18676C63.4309 6.99512 63.9483 6.86096 64.4849 6.86096C65.7881 6.86096 66.0947 7.64671 66.0947 8.41329V9.81229H66.1139ZM65.3473 8.7774C64.5041 8.75824 63.5459 8.89239 63.5459 9.6398C63.5459 10.0998 63.8717 10.3106 64.255 10.3106C64.8107 10.3106 65.1749 10.0039 65.2898 9.67814C65.309 9.60148 65.3282 9.52482 65.3282 9.44816V8.7774H65.3473Z" fill="white"/>
<path d="M71.0002 5.1361V9.73557C71.0002 10.0805 71.0002 10.4638 71.0386 10.713H70.3486L70.3103 10.0422H70.2912C70.0612 10.4638 69.5437 10.7896 68.8538 10.7896C67.8381 10.7896 67.0332 10.0039 67.0332 8.85401C67.0332 7.56999 67.9148 6.80341 68.9305 6.80341C69.5821 6.80341 70.0229 7.07171 70.2145 7.37834H70.2337V5.11694H71.0002V5.1361ZM70.2337 8.47072C70.2337 8.3749 70.2337 8.25991 70.1953 8.16409C70.0803 7.72331 69.6587 7.37834 69.0838 7.37834C68.2789 7.37834 67.8189 8.01078 67.8189 8.83485C67.8189 9.62059 68.2406 10.253 69.0646 10.253C69.5821 10.253 70.0612 9.94638 70.1953 9.42894C70.2145 9.33312 70.2337 9.2373 70.2337 9.12231V8.47072Z" fill="white"/>
<path d="M75.8498 10.8088C74.7191 10.8088 73.8184 10.0614 73.8184 8.85406C73.8184 7.57004 74.7574 6.82263 75.9264 6.82263C77.1338 6.82263 77.9579 7.60836 77.9579 8.77739C77.9579 10.1956 76.8655 10.8088 75.8498 10.8088ZM75.869 10.2914C76.5972 10.2914 77.153 9.67813 77.153 8.79657C77.153 8.14498 76.7888 7.34006 75.8881 7.34006C74.9874 7.34006 74.5849 8.08748 74.5849 8.81573C74.6041 9.65896 75.1215 10.2914 75.869 10.2914Z" fill="white"/>
<path d="M78.9348 7.95333C78.9348 7.55087 78.9348 7.24425 78.8965 6.91845H79.5864L79.6247 7.53171H79.6439C79.8547 7.18675 80.353 6.82263 81.0429 6.82263C81.637 6.82263 82.5377 7.12926 82.5377 8.45161V10.7322H81.7711V8.52826C81.7711 7.915 81.522 7.39756 80.7938 7.39756C80.2955 7.39756 79.893 7.72335 79.7589 8.10664C79.7206 8.20246 79.7014 8.31745 79.7014 8.43244V10.7322H78.9348V7.95333Z" fill="white"/>
<path d="M86.5627 5.99854V6.91844H87.6742V7.45504H86.5627V9.50564C86.5627 9.98475 86.716 10.253 87.1376 10.253C87.3484 10.253 87.4634 10.2339 87.5784 10.2147L87.6167 10.7513C87.4634 10.7897 87.2335 10.8471 86.9268 10.8471C86.5627 10.8471 86.2752 10.7322 86.1028 10.5597C85.8919 10.3489 85.7961 10.0039 85.7961 9.56313V7.49337H85.1445V6.95676H85.7961V6.24768L86.5627 5.99854Z" fill="white"/>
<path d="M88.5352 5.13611H89.3017V7.5125H89.3209C89.4359 7.32086 89.6275 7.12921 89.8767 7.03339C90.1066 6.89924 90.3749 6.84175 90.6624 6.84175C91.2373 6.84175 92.1381 7.14838 92.1381 8.47072V10.7321H91.3715V8.54739C91.3715 7.93412 91.1224 7.41668 90.3941 7.41668C89.8958 7.41668 89.5125 7.72331 89.3592 8.10659C89.3209 8.20242 89.3017 8.29824 89.3017 8.43239V10.7321H88.5352V5.13611Z" fill="white"/>
<path d="M93.8252 8.93073C93.8443 9.86978 94.4959 10.2531 95.2625 10.2531C95.8183 10.2531 96.1632 10.1572 96.4315 10.0614L96.5657 10.5405C96.2974 10.6555 95.8183 10.7897 95.1475 10.7897C93.8443 10.7897 93.0586 10.0039 93.0586 8.87322C93.0586 7.72336 93.8252 6.80347 95.0517 6.80347C96.4315 6.80347 96.7957 7.89584 96.7957 8.60493C96.7957 8.73908 96.7957 8.85407 96.7765 8.93073H93.8252ZM96.0866 8.45161C96.0866 8.01083 95.8758 7.32091 95.0325 7.32091C94.2468 7.32091 93.921 7.9725 93.8443 8.45161H96.0866Z" fill="white"/>
</svg>
