<svg width="30" height="30" viewBox="0 0 30 30" fill="none" xmlns="http://www.w3.org/2000/svg">
<path d="M10.1448 13.0052L15 8.15003L19.8575 13.0073L22.6825 10.1823L15 2.50001L7.32 10.18L10.1449 13.005L10.1448 13.0052ZM2.5 15.0001L5.3251 12.1745L8.15 14.9995L5.3249 17.8246L2.5 15.0001ZM10.1448 16.9952L15 21.8501L19.8574 16.9929L22.6839 19.8164L22.6825 19.8179L15 27.5001L7.32 19.8201L7.316 19.8161L10.1451 16.9949L10.1448 16.9952ZM21.85 15.0013L24.6751 12.1761L27.5 15.0011L24.675 17.8262L21.85 15.0013Z" fill="#F3BA2F"/>
<path d="M17.8651 14.9986H17.8663L14.9999 12.1319L12.8812 14.2501L12.6378 14.4936L12.1358 14.9957L12.1318 14.9996L12.1358 15.0037L14.9999 17.8683L17.8665 15.0016L17.8679 15L17.8653 14.9986" fill="#F3BA2F"/>
</svg>
