<svg width="110" height="35" viewBox="0 0 110 35" fill="none" xmlns="http://www.w3.org/2000/svg">
<path d="M109.989 30.272C109.983 30.272 109.978 30.2768 109.978 30.2828C109.973 32.8928 107.803 35 105.118 35H4.86022C2.17204 35 0 32.887 0 30.272V4.72804C0 2.11297 2.17204 0 4.86022 0H105.14C107.828 0 110 2.11297 110 4.72804V30.2612C110 30.2672 109.995 30.272 109.989 30.272Z" fill="black"/>
<path d="M11.4883 6.29529V17.3608V28.4458L22.6515 17.3608L11.4883 6.29529Z" fill="url(#paint0_linear_1589_2842)"/>
<path d="M25.6623 14.3891L21.1461 11.7889L11.4883 6.21704V6.29524L22.6515 17.3607L25.6623 14.3891Z" fill="url(#paint1_linear_1589_2842)"/>
<path d="M11.4883 28.4458V28.524L21.1461 22.9521L25.6623 20.3519L22.6515 17.3607L11.4883 28.4458Z" fill="url(#paint2_linear_1589_2842)"/>
<path d="M25.6631 14.389L22.6523 17.3607L25.6631 20.3519L30.8048 17.3607L25.6631 14.389Z" fill="url(#paint3_linear_1589_2842)"/>
<path d="M81.8115 21.7008C81.401 21.7008 81.0099 21.6226 80.658 21.4662C80.3061 21.3098 80.0129 21.0752 79.7783 20.7429H79.7196C79.7587 21.1143 79.7978 21.4662 79.7978 21.8182V24.477H78.8203V15.1515H79.6219L79.7587 16.0312H79.7978C80.052 15.6793 80.3452 15.4252 80.6776 15.2688C81.01 15.1124 81.401 15.0342 81.8311 15.0342C82.6913 15.0342 83.3364 15.3274 83.8056 15.9139C84.2749 16.5005 84.5095 17.3216 84.5095 18.3773C84.5095 19.433 84.2749 20.2541 83.8056 20.8406C83.2973 21.4076 82.6522 21.7008 81.8115 21.7008ZM81.6747 15.8553C81.01 15.8553 80.5407 16.0312 80.2475 16.4027C79.9542 16.7742 79.7978 17.3411 79.7978 18.1427V18.3577C79.7978 19.2571 79.9542 19.9022 80.2475 20.2932C80.5407 20.6842 81.0295 20.8797 81.6942 20.8797C82.2416 20.8797 82.6913 20.6451 83.0041 20.1955C83.3169 19.7458 83.4733 19.1202 83.4733 18.3382C83.4733 17.5366 83.3169 16.911 83.0041 16.4809C82.6913 16.0703 82.2416 15.8553 81.6747 15.8553Z" fill="#F9F9F9"/>
<path d="M86.7373 21.5835H85.7598V12.434H86.7373V21.5835Z" fill="#F9F9F9"/>
<path d="M92.35 21.5835L92.1545 20.6647H92.1154C91.8026 21.0752 91.4703 21.3489 91.1575 21.4858C90.8447 21.6226 90.4341 21.7008 89.9649 21.7008C89.3197 21.7008 88.831 21.5444 88.4595 21.2121C88.0881 20.8797 87.9121 20.4105 87.9121 19.8045C87.9121 18.4946 88.9483 17.8299 91.0402 17.7517L92.135 17.7126V17.3216C92.135 16.8133 92.0177 16.4418 91.8026 16.2072C91.5876 15.9726 91.2357 15.8553 90.7665 15.8553C90.2386 15.8553 89.613 16.0117 88.9483 16.3441L88.655 15.6011C88.9678 15.4252 89.3197 15.2883 89.6912 15.1906C90.0626 15.0928 90.4536 15.0342 90.8251 15.0342C91.5876 15.0342 92.1545 15.2101 92.526 15.5425C92.8974 15.8748 93.0734 16.4223 93.0734 17.1847V21.5835H92.35ZM90.1604 20.8993C90.7665 20.8993 91.2357 20.7233 91.5876 20.391C91.9395 20.0586 92.1154 19.5894 92.1154 18.9834V18.3968L91.1379 18.4359C90.3559 18.4555 89.8085 18.5923 89.4566 18.8074C89.1047 19.0224 88.9483 19.3548 88.9483 19.8045C88.9483 20.1564 89.046 20.4301 89.2611 20.606C89.4761 20.8015 89.7694 20.8993 90.1604 20.8993Z" fill="#F9F9F9"/>
<path d="M93.6387 15.132H94.6748L96.0825 18.8074C96.3953 19.6481 96.5908 20.2541 96.6494 20.6256H96.6885C96.7472 20.4301 96.8449 20.0782 97.0013 19.609C97.1577 19.1202 97.7051 17.6344 98.6045 15.1515H99.6602L96.9231 22.4829C96.6494 23.2063 96.3366 23.7146 95.9652 24.0274C95.5937 24.3402 95.144 24.477 94.6162 24.477C94.3229 24.477 94.0297 24.4379 93.7364 24.3793V23.5973C93.9515 23.6364 94.1861 23.6755 94.4598 23.6755C95.1245 23.6755 95.6133 23.304 95.887 22.5415L96.2389 21.6227L93.6387 15.132Z" fill="#F9F9F9"/>
<path d="M63.7256 15.738C64.0384 15.9922 64.6836 16.5396 64.6836 17.5562C64.6836 18.5533 64.1166 19.0225 63.5496 19.4721C63.3737 19.6481 63.1782 19.8436 63.1782 20.1369C63.1782 20.4301 63.3737 20.5865 63.5301 20.7234L64.0188 21.0948C64.6054 21.6031 65.1528 22.0528 65.1528 22.9912C65.1528 24.262 63.9211 25.5327 61.6142 25.5327C59.6591 25.5327 58.7207 24.5943 58.7207 23.5973C58.7207 23.1085 58.9553 22.4242 59.7569 21.955C60.5975 21.4467 61.7315 21.3685 62.3375 21.3294C62.142 21.0948 61.927 20.8407 61.927 20.4106C61.927 20.176 61.9856 20.0391 62.0638 19.8827C61.9074 19.9022 61.7706 19.9022 61.6337 19.9022C60.2065 19.9022 59.405 18.8465 59.405 17.7908C59.405 17.1652 59.6787 16.4809 60.2652 15.9922C61.0276 15.3666 61.9465 15.2493 62.6699 15.2493H65.446L64.5858 15.738H63.7256ZM62.7872 21.7204C62.6699 21.7009 62.6112 21.7009 62.4744 21.7009C62.3571 21.7009 61.6337 21.7204 61.0667 21.9159C60.7735 22.0137 59.9133 22.346 59.9133 23.304C59.9133 24.262 60.8517 24.9462 62.2789 24.9462C63.5692 24.9462 64.2534 24.3206 64.2534 23.4995C64.2534 22.8152 63.8038 22.4438 62.7872 21.7204ZM63.1782 19.1593C63.491 18.8465 63.5105 18.4164 63.5105 18.1818C63.5105 17.2043 62.924 15.6989 61.8097 15.6989C61.4577 15.6989 61.0863 15.8749 60.8712 16.1486C60.6366 16.4223 60.578 16.7937 60.578 17.1456C60.578 18.045 61.1058 19.5503 62.2593 19.5503C62.5917 19.5308 62.9436 19.3744 63.1782 19.1593Z" fill="#F9F9F9"/>
<path d="M55.261 21.5054C53.13 21.5054 51.9766 19.8436 51.9766 18.3383C51.9766 16.5787 53.4233 15.0734 55.4565 15.0734C57.4311 15.0734 58.6628 16.6178 58.6628 18.2405C58.6628 19.8241 57.4507 21.5054 55.261 21.5054ZM56.9423 20.4106C57.2747 19.9805 57.3529 19.4331 57.3529 18.9248C57.3529 17.7322 56.7859 15.4839 55.1242 15.4839C54.6745 15.4839 54.2444 15.6599 53.912 15.9336C53.3842 16.4028 53.2864 16.9893 53.2864 17.5758C53.2864 18.9052 53.9511 21.0949 55.5738 21.0949C56.0821 21.0949 56.6295 20.8407 56.9423 20.4106Z" fill="#F9F9F9"/>
<path d="M47.9681 21.5054C45.8371 21.5054 44.6836 19.8436 44.6836 18.3383C44.6836 16.5787 46.1303 15.0734 48.1636 15.0734C50.1381 15.0734 51.3698 16.6178 51.3698 18.2405C51.3698 19.8241 50.1577 21.5054 47.9681 21.5054ZM49.6494 20.4106C49.9817 19.9805 50.0599 19.4331 50.0599 18.9248C50.0599 17.7322 49.493 15.4839 47.8312 15.4839C47.3815 15.4839 46.9514 15.6599 46.6191 15.9336C46.0912 16.4028 45.9935 16.9893 45.9935 17.5758C45.9935 18.9052 46.6582 21.0949 48.2809 21.0949C48.7892 21.0949 49.3366 20.8407 49.6494 20.4106Z" fill="#F9F9F9"/>
<path d="M43.6478 21.2903L41.7123 21.74C40.9303 21.8573 40.2265 21.9746 39.4836 21.9746C35.7494 21.9746 34.3223 19.2375 34.3223 17.087C34.3223 14.4672 36.336 12.0234 39.7768 12.0234C40.5002 12.0234 41.204 12.1407 41.8491 12.3167C42.8658 12.6099 43.335 12.9423 43.6282 13.1574L42.5139 14.2326L42.0446 14.3499L42.377 13.8025C41.9078 13.3529 41.0867 12.5317 39.4836 12.5317C37.3526 12.5317 35.7299 14.1544 35.7299 16.52C35.7299 19.0616 37.5676 21.4467 40.5197 21.4467C41.3799 21.4467 41.8296 21.2708 42.2402 21.1143V18.9443L40.2069 19.0616L41.2822 18.4751H44.1561L43.8042 18.8074C43.7064 18.8856 43.6869 18.9247 43.6673 19.0225C43.6478 19.1398 43.6478 19.5308 43.6478 19.6676V21.2903Z" fill="#F9F9F9"/>
<path d="M68.0087 20.8994C67.559 20.8603 67.4613 20.7821 67.4613 20.2542V20.0978V12.5905C67.4613 12.5709 67.4613 12.5318 67.4613 12.5123C67.5199 12.0431 67.6568 11.9648 68.0673 11.7107H66.1319L65.1152 12.1995H66.1514V20.0978V20.5475C66.1514 20.8212 66.0928 20.8603 65.78 21.2708H68.1651L68.6734 20.9776C68.4779 20.9385 68.2433 20.9385 68.0087 20.8994Z" fill="#F9F9F9"/>
<path d="M73.5204 21.0362C73.364 21.1144 73.2272 21.2122 73.0708 21.2708C72.6211 21.4663 72.1714 21.525 71.7609 21.525C71.3308 21.525 70.6661 21.5054 69.9818 20.9971C69.0238 20.3324 68.6133 19.179 68.6133 18.1623C68.6133 16.09 70.3142 15.0538 71.6827 15.0538C72.1714 15.0538 72.6602 15.1711 73.0708 15.4253C73.7355 15.8749 73.9114 16.4419 74.0092 16.7547L70.8616 18.0255L69.8254 18.1037C70.1578 19.8046 71.3112 20.8016 72.6015 20.8016C73.2858 20.8016 73.7746 20.567 74.2438 20.3324L73.5204 21.0362ZM72.2496 17.0284C72.5038 16.9307 72.6406 16.8525 72.6406 16.657C72.6406 16.1291 72.0346 15.5035 71.3112 15.5035C70.7638 15.5035 69.7668 15.914 69.7668 17.3608C69.7668 17.5954 69.7863 17.83 69.8058 18.0646L72.2496 17.0284Z" fill="#F9F9F9"/>
<path d="M74.8109 15.1516V16.0314H74.6936V15.1516H74.4004V15.0538H75.0847V15.1516H74.8109Z" fill="#F9F9F9"/>
<path d="M76.0222 16.0509V15.1516L75.7485 16.0509H75.6703L75.3966 15.1516V16.0509H75.2988V15.0734H75.4748L75.7289 15.8554L75.9831 15.0734H76.159V16.0509H76.0222Z" fill="#F9F9F9"/>
<path d="M37.0221 9.38426H36.3574C36.3574 9.28651 36.2988 9.03236 36.1619 8.60225H35.1844C35.0475 9.03236 34.9889 9.28651 34.9889 9.38426H34.3633C34.3633 9.32561 34.5197 8.87596 34.852 8.03529C35.1844 7.19463 35.3408 6.72542 35.3408 6.64722H36.1424C36.1424 6.72542 36.2988 7.17508 36.592 8.01574C36.8657 8.85641 37.0221 9.30606 37.0221 9.38426ZM36.0446 8.19169C35.81 7.46833 35.6927 7.07732 35.6927 7.01867H35.6536C35.6536 7.07732 35.5363 7.46833 35.2821 8.19169H36.0446Z" fill="#FBFBFB"/>
<path d="M39.7209 9.38416H39.1931C39.1931 9.32551 38.9976 9.03225 38.6066 8.46529C38.196 7.87878 37.981 7.48778 37.9223 7.27272H37.8832C37.9223 7.58553 37.9419 7.85924 37.9419 8.11339C37.9419 8.4653 37.9419 8.87585 37.981 9.38416H37.4727C37.4922 8.95406 37.5118 8.46529 37.5118 7.95698C37.5118 7.44868 37.4922 7.01857 37.4727 6.64712H38.0983C38.0983 6.72532 38.2742 7.01857 38.6261 7.52688C38.9976 8.07429 39.2126 8.44574 39.2517 8.64125H39.2908C39.2517 8.32844 39.2322 8.05474 39.2322 7.80058C39.2322 7.42913 39.2126 7.03812 39.1931 6.62756H39.7209C39.7014 6.97947 39.6818 7.40958 39.6818 7.93744C39.7014 8.48485 39.7014 8.95406 39.7209 9.38416Z" fill="#FBFBFB"/>
<path d="M42.7698 7.91799C42.7698 8.309 42.633 8.6609 42.3788 8.95415C42.1247 9.24741 41.7728 9.40382 41.3036 9.40382C41.0885 9.40382 40.8148 9.40382 40.4434 9.38426C40.4629 8.95416 40.4629 8.48495 40.4629 7.95709C40.4629 7.44878 40.4629 7.01867 40.4434 6.64722H40.8148C40.8735 6.64722 40.9712 6.64722 41.0885 6.64722C41.2058 6.64722 41.284 6.64722 41.3231 6.64722C41.8314 6.64722 42.2029 6.76452 42.4179 7.01867C42.6525 7.27283 42.7698 7.56608 42.7698 7.91799ZM42.2029 8.01574C42.2029 7.74204 42.1247 7.52698 41.9683 7.33148C41.8119 7.15553 41.5773 7.05778 41.2449 7.05778C41.1863 7.05778 41.1081 7.05777 40.9908 7.07732C41.0103 7.35103 41.0103 7.64428 41.0103 7.95709C41.0103 8.28944 41.0103 8.6218 41.0299 8.95415C41.1276 8.97371 41.2058 8.97371 41.3036 8.97371C41.5968 8.97371 41.8314 8.87596 41.9683 8.7C42.1247 8.5045 42.2029 8.2699 42.2029 8.01574Z" fill="#FBFBFB"/>
<path d="M45.5842 9.38426H44.9586C44.8022 8.89551 44.6653 8.5827 44.5871 8.4654C44.5089 8.34809 44.3525 8.28944 44.1766 8.28944C44.0984 8.28944 44.0202 8.28944 43.942 8.28944C43.942 8.64135 43.942 9.01281 43.9615 9.38426H43.375C43.3946 8.95416 43.3946 8.48495 43.3946 7.95709C43.3946 7.44878 43.3946 7.01867 43.375 6.64722H43.7465C43.7856 6.64722 43.8833 6.64722 44.0006 6.64722C44.1375 6.64722 44.2548 6.64722 44.3721 6.64722C45.0172 6.64722 45.33 6.86227 45.33 7.31193C45.33 7.66383 45.1541 7.89844 44.7826 8.03529V8.07439C44.9195 8.11349 45.0563 8.23079 45.1541 8.40675C45.2518 8.56315 45.3887 8.89551 45.5842 9.38426ZM44.7826 7.44878C44.7826 7.17508 44.6067 7.03822 44.2352 7.03822C44.0984 7.03822 43.9811 7.03822 43.8833 7.07732C43.9029 7.29237 43.9029 7.58563 43.9029 7.91799C43.9811 7.91799 44.0397 7.91799 44.0984 7.91799C44.5676 7.91799 44.7826 7.76159 44.7826 7.44878Z" fill="#FBFBFB"/>
<path d="M48.5963 7.95704C48.5963 8.38715 48.4595 8.73905 48.2053 9.03231C47.9512 9.30601 47.6188 9.46242 47.2278 9.46242C46.8564 9.46242 46.5436 9.32557 46.309 9.07141C46.0548 8.81726 45.9375 8.4849 45.9375 8.07434C45.9375 7.64424 46.0744 7.29233 46.3285 6.99907C46.5827 6.72537 46.915 6.56897 47.306 6.56897C47.6775 6.56897 47.9903 6.70582 48.2249 6.95998C48.4595 7.23368 48.5963 7.56603 48.5963 7.95704ZM48.0098 8.01569C48.0098 7.72244 47.9316 7.48783 47.7948 7.31188C47.6384 7.13593 47.4624 7.03818 47.2474 7.03818C47.0519 7.03818 46.8759 7.13593 46.7195 7.31188C46.5827 7.48783 46.5045 7.72244 46.5045 8.01569C46.5045 8.30895 46.5827 8.54355 46.7391 8.71951C46.8955 8.89546 47.0714 8.99321 47.2865 8.99321C47.482 8.99321 47.6579 8.89546 47.8143 8.71951C47.9316 8.54355 48.0098 8.30895 48.0098 8.01569Z" fill="#FBFBFB"/>
<path d="M49.7682 9.38426H49.1816C49.2012 8.95416 49.2012 8.4654 49.2012 7.95709C49.2012 7.44878 49.2012 7.01867 49.1816 6.64722H49.7682C49.7486 6.99912 49.7486 7.42923 49.7486 7.95709C49.7486 8.48495 49.7682 8.95416 49.7682 9.38426Z" fill="#FBFBFB"/>
<path d="M52.8187 7.91799C52.8187 8.309 52.6818 8.6609 52.4277 8.95415C52.1735 9.24741 51.8216 9.40382 51.3524 9.40382C51.1373 9.40382 50.8636 9.40382 50.4922 9.38426C50.5117 8.95416 50.5117 8.48495 50.5117 7.95709C50.5117 7.44878 50.5117 7.01867 50.4922 6.64722H50.8636C50.9223 6.64722 51.02 6.64722 51.1373 6.64722C51.2546 6.64722 51.3329 6.64722 51.372 6.64722C51.8803 6.64722 52.2517 6.76452 52.4668 7.01867C52.7014 7.27283 52.8187 7.56608 52.8187 7.91799ZM52.2517 8.01574C52.2517 7.74204 52.1735 7.52698 52.0171 7.33148C51.8607 7.15553 51.6261 7.05778 51.2938 7.05778C51.2351 7.05778 51.1569 7.05777 51.0396 7.07732C51.0591 7.35103 51.0591 7.64428 51.0591 7.95709C51.0591 8.28944 51.0591 8.6218 51.0787 8.95415C51.1764 8.97371 51.2546 8.97371 51.3524 8.97371C51.6457 8.97371 51.8803 8.87596 52.0171 8.7C52.1735 8.5045 52.2517 8.2699 52.2517 8.01574Z" fill="#FBFBFB"/>
<path d="M56.8659 9.38426H56.2012C56.2012 9.28651 56.1425 9.03236 56.0057 8.60225H55.0281C54.8913 9.03236 54.8326 9.28651 54.8326 9.38426H54.207C54.207 9.32561 54.3634 8.87596 54.6958 8.03529C55.0281 7.19463 55.1845 6.72542 55.1845 6.64722H55.9861C55.9861 6.72542 56.1425 7.17508 56.4358 8.01574C56.7095 8.85641 56.8659 9.30606 56.8659 9.38426ZM55.8884 8.19169C55.6538 7.46833 55.5365 7.07732 55.5365 7.01867H55.4974C55.4974 7.07732 55.3801 7.46833 55.1259 8.19169H55.8884Z" fill="#FBFBFB"/>
<path d="M59.3105 7.37058C59.3105 7.70293 59.1932 7.95709 58.9391 8.11349C58.6849 8.2699 58.3917 8.34809 58.0202 8.34809C57.9616 8.34809 57.9029 8.34809 57.8834 8.34809C57.8834 8.60225 57.8834 8.95416 57.9029 9.38426H57.3164C57.336 8.97371 57.336 8.5045 57.336 7.95709C57.336 7.44878 57.336 7.01867 57.3164 6.64722H57.6879C57.7465 6.64722 57.8443 6.64722 57.9811 6.64722C58.1375 6.64722 58.2548 6.64722 58.3721 6.64722C58.6458 6.64722 58.8609 6.70587 59.0368 6.82317C59.2128 6.94047 59.3105 7.11642 59.3105 7.37058ZM58.7631 7.48788C58.7631 7.19462 58.5676 7.03822 58.1571 7.03822C58.0593 7.03822 57.9616 7.05777 57.8443 7.07732C57.8638 7.35103 57.8638 7.64428 57.8638 7.97664C57.9029 7.97664 57.942 7.97664 57.9811 7.97664C58.509 7.95709 58.7631 7.80068 58.7631 7.48788Z" fill="#FBFBFB"/>
<path d="M61.832 7.37058C61.832 7.70293 61.7147 7.95709 61.4606 8.11349C61.2064 8.2699 60.9132 8.34809 60.5417 8.34809C60.4831 8.34809 60.4244 8.34809 60.4049 8.34809C60.4049 8.60225 60.4049 8.95416 60.4244 9.38426H59.8379C59.8574 8.97371 59.8574 8.5045 59.8574 7.95709C59.8574 7.44878 59.8574 7.01867 59.8379 6.64722H60.2094C60.268 6.64722 60.3658 6.64722 60.5026 6.64722C60.659 6.64722 60.7763 6.64722 60.8936 6.64722C61.1673 6.64722 61.3824 6.70587 61.5583 6.82317C61.7343 6.94047 61.832 7.11642 61.832 7.37058ZM61.2846 7.48788C61.2846 7.19462 61.0891 7.03822 60.6786 7.03822C60.5808 7.03822 60.4831 7.05777 60.3658 7.07732C60.3853 7.35103 60.3853 7.64428 60.3853 7.97664C60.4244 7.97664 60.4635 7.97664 60.5026 7.97664C61.0305 7.95709 61.2846 7.80068 61.2846 7.48788Z" fill="#FBFBFB"/>
<path d="M65.9362 7.95704C65.9362 8.38715 65.7993 8.73905 65.5452 9.03231C65.291 9.30601 64.9587 9.46242 64.5677 9.46242C64.1962 9.46242 63.8834 9.32557 63.6488 9.07141C63.3946 8.81726 63.2773 8.4849 63.2773 8.07434C63.2773 7.64424 63.4142 7.29233 63.6684 6.99907C63.9225 6.72537 64.2549 6.56897 64.6459 6.56897C65.0173 6.56897 65.3301 6.70582 65.5647 6.95998C65.8189 7.23368 65.9362 7.56603 65.9362 7.95704ZM65.3692 8.01569C65.3692 7.72244 65.291 7.48783 65.1542 7.31188C64.9978 7.13593 64.8218 7.03818 64.6068 7.03818C64.4113 7.03818 64.2353 7.13593 64.0789 7.31188C63.9421 7.48783 63.8639 7.72244 63.8639 8.01569C63.8639 8.30895 63.9421 8.54355 64.0985 8.71951C64.2549 8.89546 64.4308 8.99321 64.6459 8.99321C64.8414 8.99321 65.0173 8.89546 65.1737 8.71951C65.291 8.54355 65.3692 8.30895 65.3692 8.01569Z" fill="#FBFBFB"/>
<path d="M68.7913 9.38416H68.2634C68.2634 9.32551 68.0679 9.03225 67.6769 8.46529C67.2663 7.87878 67.0513 7.48778 66.9926 7.27272H66.9535C66.9926 7.58553 67.0122 7.85924 67.0122 8.11339C67.0122 8.4653 67.0122 8.87585 67.0513 9.38416H66.543C66.5625 8.95406 66.5821 8.46529 66.5821 7.95698C66.5821 7.44868 66.5625 7.01857 66.543 6.64712H67.1686C67.1686 6.72532 67.3445 7.01857 67.6964 7.52688C68.0679 8.07429 68.283 8.44574 68.3221 8.64125H68.3611C68.322 8.32844 68.3025 8.05474 68.3025 7.80058C68.3025 7.42913 68.3025 7.03812 68.2634 6.62756H68.7913C68.7717 6.97947 68.7522 7.40958 68.7522 7.93744C68.7717 8.48485 68.7717 8.95406 68.7913 9.38416Z" fill="#FBFBFB"/>
<defs>
<linearGradient id="paint0_linear_1589_2842" x1="17.0744" y1="6.29239" x2="17.0744" y2="28.4435" gradientUnits="userSpaceOnUse">
<stop stop-color="#316199"/>
<stop offset="0.2863" stop-color="#4C819E"/>
<stop offset="0.767" stop-color="#79B8A4"/>
<stop offset="1" stop-color="#8BD0A5"/>
</linearGradient>
<linearGradient id="paint1_linear_1589_2842" x1="11.4894" y1="11.7899" x2="25.6594" y2="11.7899" gradientUnits="userSpaceOnUse">
<stop stop-color="#5DBC91"/>
<stop offset="1" stop-color="#DAEF7E"/>
</linearGradient>
<linearGradient id="paint2_linear_1589_2842" x1="18.5743" y1="17.368" x2="18.5743" y2="28.524" gradientUnits="userSpaceOnUse">
<stop stop-color="#F91B1C"/>
<stop offset="0.1668" stop-color="#E01D31"/>
<stop offset="0.5748" stop-color="#A82163"/>
<stop offset="0.8619" stop-color="#872281"/>
<stop offset="1" stop-color="#7A238D"/>
</linearGradient>
<linearGradient id="paint3_linear_1589_2842" x1="26.7365" y1="14.3931" x2="26.7365" y2="20.3426" gradientUnits="userSpaceOnUse">
<stop stop-color="#FA6C61"/>
<stop offset="0.1194" stop-color="#FB7860"/>
<stop offset="0.7128" stop-color="#FDAE59"/>
<stop offset="1" stop-color="#FEC455"/>
</linearGradient>
</defs>
</svg>
