<svg width="60" height="60" viewBox="0 0 60 60" fill="none" xmlns="http://www.w3.org/2000/svg">
<rect width="60" height="60" rx="2" fill="#2A2B31"/>
<path d="M30 18C23.3834 18 18 23.3829 18 30C18 36.6171 23.3834 42 30 42C36.6166 42 42 36.6171 42 30C42 23.3829 36.6166 18 30 18ZM30 41.0769C23.8925 41.0769 18.9231 36.1075 18.9231 30C18.9231 23.8925 23.8925 18.9231 30 18.9231C36.1075 18.9231 41.0769 23.8925 41.0769 30C41.0769 36.1075 36.1075 41.0769 30 41.0769Z" fill="white" stroke="white" stroke-width="0.5"/>
<path fill-rule="evenodd" clip-rule="evenodd" d="M29.7264 33.8182C29.2747 33.8182 28.9082 34.1848 28.9082 34.6364C28.9082 35.0881 29.2747 35.4546 29.7264 35.4546C30.178 35.4546 30.5446 35.0881 30.5446 34.6364C30.5446 34.1848 30.178 33.8182 29.7264 33.8182Z" fill="#DADADA"/>
<path fill-rule="evenodd" clip-rule="evenodd" d="M30.5446 32.1818H28.9082V24.5454H30.5446V32.1818Z" fill="#DADADA"/>
</svg>
