<svg width="30" height="30" viewBox="0 0 30 30" fill="none" xmlns="http://www.w3.org/2000/svg">
<path d="M6.50977 16.8679L7.11185 16.6079L14.5284 13.3785L22.547 16.8679L19.5366 23.0939L12.1748 24.1339L6.63292 18.1541L6.50977 16.8679Z" fill="#133444"/>
<path d="M20.8915 13.0364C19.5642 11.4355 17.6895 10.4092 15.637 10.1355L15.5001 10.1218C14.857 10.0397 14.2139 10.0397 13.5707 10.1218L13.4339 10.1355C11.3813 10.4092 9.50668 11.4491 8.17937 13.0364L7.85096 13.5838L7.28993 14.5006L6.87942 15.1711C6.87942 15.1848 6.86573 15.2122 6.85205 15.2258V15.2395L7.74149 15.7732L13.4202 19.1394L14.5149 19.7825V11.7502L13.4202 12.2428V11.0386L14.5149 10.546L15.6096 11.0386L21.1925 13.5838L20.8915 13.0364Z" fill="#C42370"/>
<path d="M22.7935 18.8653C22.7799 21.5062 21.5894 23.9967 19.5505 25.6661C18.7706 26.3093 17.8948 26.7882 16.9369 27.1166C16.157 27.3766 15.3496 27.4998 14.5286 27.4998C9.95827 27.4998 6.25 23.4357 6.25 18.8653C6.25 18.1948 6.3321 17.5243 6.49631 16.8674L14.5149 21.6157L22.5336 16.8674C22.7114 17.5243 22.8072 18.1948 22.7935 18.8653Z" fill="#1C4D6B"/>
<path d="M13.5709 10.1216L14.5288 10.5458L13.4341 11.0521V10.0532L13.5709 10.1216Z" fill="black"/>
<path d="M13.4341 12.2564L14.5288 11.7501V19.7961L13.4341 19.1393V12.2564Z" fill="black"/>
<path d="M14.5288 11.7501V19.7961L22.2191 15.2531L14.5288 11.7501Z" fill="#1D4259"/>
<path d="M14.5288 2.49997V11.7502L22.2191 15.2532L14.5288 2.49997Z" fill="#4B6B9A"/>
<path d="M14.5286 11.7502V19.7825L13.4339 19.1394L6.85206 15.2532H6.83838H6.85206C6.85206 15.2396 6.86575 15.2122 6.87943 15.1985L7.83729 13.5975L13.4202 11.066V12.2565L14.5286 11.7502Z" fill="#343535"/>
<path d="M14.5286 11.7501V19.7961L13.4339 19.1393L6.85205 15.2531L6.86573 15.2395L13.4339 12.2564L14.5286 11.7501Z" fill="#3E5578"/>
<path d="M14.5286 2.49997V11.7502L6.85205 15.2532L14.5286 2.49997Z" fill="#6DB2D8"/>
<path d="M11.4224 26.8434C11.5318 26.8981 11.655 26.9391 11.7645 26.9801C11.655 26.9391 11.5455 26.8844 11.4224 26.8434Z" fill="#335F8A"/>
<path d="M11.7646 26.9802C11.8741 27.0213 11.9973 27.076 12.1204 27.1034C12.011 27.076 11.8878 27.035 11.7646 26.9802Z" fill="#335F8A"/>
<path d="M12.4351 27.1987C12.5308 27.2261 12.6129 27.2535 12.7087 27.2671C12.6129 27.2535 12.5172 27.2261 12.4351 27.1987Z" fill="#335F8A"/>
<path d="M6.50998 16.8674L14.5286 21.6157C14.4191 22.3409 14.2275 23.0388 13.9539 23.723C13.3107 25.2829 12.0245 26.925 9.50669 25.6661C7.46783 23.9966 6.27736 21.5062 6.26367 18.8653C6.26367 18.1948 6.34577 17.5243 6.50998 16.8674Z" fill="#6DB2D8"/>
<path d="M19.5506 25.6666L19.5232 25.6803C19.4822 25.7076 19.4411 25.7487 19.4001 25.776L19.3864 25.7897C19.3453 25.8308 19.2906 25.8581 19.2495 25.8992C19.1948 25.9403 19.1537 25.9813 19.099 26.0087C19.0443 26.036 18.9895 26.0771 18.9485 26.1181C18.8938 26.1592 18.8527 26.1729 18.8117 26.2139L18.7843 26.2276C18.7296 26.255 18.6885 26.2823 18.6475 26.3234C18.6475 26.3234 18.6338 26.3234 18.6338 26.3371C18.579 26.3644 18.538 26.3918 18.4832 26.4329C18.4285 26.4602 18.3738 26.4876 18.319 26.5286C18.2643 26.556 18.2096 26.5834 18.1548 26.6107L17.9906 26.6928C17.9359 26.7202 17.8812 26.7476 17.8264 26.775C17.7717 26.8023 17.717 26.8297 17.6622 26.8571C17.5528 26.9118 17.4296 26.9528 17.3201 26.9939C17.2107 27.0349 17.0875 27.076 16.9644 27.117C16.9233 27.1307 16.8686 27.1444 16.8275 27.1581L16.6633 27.2128C16.5675 27.2402 16.4854 27.2676 16.3896 27.2812C16.3623 27.2949 16.3212 27.2949 16.2802 27.3086L16.2254 27.3223L16.0749 27.3497C16.0202 27.3633 15.9928 27.3633 15.9381 27.377C15.897 27.3907 15.856 27.3907 15.8149 27.4044C15.7739 27.4044 15.7191 27.4181 15.6781 27.4318C15.6507 27.4318 15.637 27.4318 15.6097 27.4455L15.5002 27.4591H15.4455C15.4044 27.4591 15.3634 27.4728 15.336 27.4728C15.295 27.4728 15.2402 27.4865 15.1992 27.4865C15.1581 27.4865 15.1308 27.4865 15.0897 27.4865C15.0486 27.4865 15.0213 27.4865 14.9939 27.4865C14.9529 27.4865 14.9118 27.4865 14.8844 27.4865C14.8571 27.4865 14.775 27.4865 14.7339 27.4865H14.4055C14.3508 27.4865 14.296 27.4865 14.255 27.4865C14.2139 27.4865 14.1729 27.4865 14.1455 27.4865C14.1182 27.4865 14.0771 27.4865 14.0497 27.4865C14.0224 27.4865 13.9813 27.4865 13.9403 27.4865C13.8992 27.4865 13.8445 27.4728 13.8034 27.4728C13.7624 27.4728 13.7213 27.4728 13.694 27.4591H13.6392C13.6119 27.4591 13.5708 27.4455 13.5298 27.4455C13.5024 27.4455 13.4887 27.4454 13.4613 27.4318C13.4203 27.4318 13.3656 27.4181 13.3245 27.4044C13.2835 27.4044 13.2424 27.3907 13.2014 27.377C13.1603 27.377 13.1056 27.3633 13.0645 27.3497C13.0235 27.336 12.9687 27.3223 12.914 27.3223L12.8593 27.3086C12.8182 27.3086 12.7772 27.2949 12.7498 27.2949C12.654 27.2676 12.5582 27.2402 12.4761 27.2265L12.3119 27.1718C12.2572 27.1581 12.2161 27.1444 12.1751 27.1307C12.0519 27.0897 11.9425 27.0486 11.8193 27.0076C11.6962 26.9665 11.5867 26.9118 11.4772 26.8707C11.4225 26.8434 11.3677 26.816 11.313 26.7886L11.1488 26.7065L10.9846 26.6244C10.9299 26.5971 10.8751 26.5697 10.8204 26.5423C10.7657 26.515 10.7109 26.4876 10.6562 26.4465C10.6015 26.4192 10.5604 26.3918 10.5057 26.3508L10.492 26.3371C10.4373 26.3097 10.3962 26.2823 10.3552 26.2413L10.3278 26.2276C10.2867 26.2002 10.232 26.1729 10.1909 26.1318C10.1499 26.1045 10.0815 26.0634 10.0404 26.0224C9.98569 25.9813 9.93096 25.9539 9.88991 25.9129L9.75307 25.8034L9.73939 25.7897C9.69834 25.7624 9.65729 25.7213 9.61623 25.6939L9.58887 25.6803C12.093 26.9255 13.3929 25.2834 14.0361 23.7372C14.3097 23.0667 14.5013 22.3551 14.6108 21.6299C14.7202 22.3551 14.9118 23.053 15.1855 23.7372C15.7465 25.2697 17.0465 26.9118 19.5506 25.6666Z" fill="#529BBA"/>
<path d="M16.3623 27.2808C16.4581 27.2534 16.5539 27.226 16.636 27.2123C16.5539 27.226 16.4581 27.2534 16.3623 27.2808Z" fill="#335F8A"/>
<path d="M16.937 27.1034C17.0602 27.0623 17.1696 27.0213 17.2928 26.9802C17.1833 27.035 17.0602 27.076 16.937 27.1034Z" fill="#335F8A"/>
<path d="M17.293 26.9801C17.4024 26.9391 17.5256 26.8844 17.635 26.8434C17.5256 26.8844 17.4161 26.9391 17.293 26.9801Z" fill="#335F8A"/>
<path d="M22.7938 18.8653C22.7801 21.5062 21.5896 23.9967 19.5507 25.6661C17.0466 26.9113 15.7467 25.2693 15.1035 23.723C14.8299 23.0525 14.6383 22.3409 14.5288 21.6157L22.5475 16.8674C22.7117 17.5243 22.7938 18.1948 22.7938 18.8653Z" fill="#4B6B9A"/>
</svg>
