<svg width="18" height="19" viewBox="0 0 18 19" fill="none" xmlns="http://www.w3.org/2000/svg">
<path d="M18 9.5C18 4.53714 13.9629 0.5 9 0.5C4.03714 0.5 0 4.53714 0 9.5C0 14.4629 4.03714 18.5 9 18.5C13.9629 18.5 18 14.4629 18 9.5ZM1.26 9.5C1.26 5.23143 4.73143 1.76 9 1.76C13.2686 1.76 16.74 5.23143 16.74 9.5C16.74 13.7686 13.2686 17.24 9 17.24C4.73143 17.24 1.26 13.7686 1.26 9.5Z" fill="#78797E"/>
<path d="M6.56355 9.95089L9.21212 12.5995C9.45825 12.8456 9.85865 12.8456 10.1048 12.5995C10.3509 12.3533 10.3509 11.9529 10.1048 11.7068L7.90069 9.50273L10.1048 7.29865C10.3509 7.05253 10.3509 6.65212 10.1048 6.406C9.98355 6.28477 9.82192 6.22232 9.66029 6.22232C9.49865 6.22232 9.33702 6.28477 9.2158 6.406L6.56722 9.05457C6.31743 9.30804 6.31743 9.70477 6.56355 9.95089Z" fill="#78797E"/>
</svg>
