<svg width="30" height="30" viewBox="0 0 30 30" fill="none" xmlns="http://www.w3.org/2000/svg">
<path d="M26.2629 19.8137L24.7474 24.7408L21.7725 23.9584L26.2629 19.8137Z" fill="#E4761B" stroke="#E4761B" stroke-width="0.190386"/>
<path d="M21.7725 23.9584L24.6418 20.178L26.2629 19.8137L21.7725 23.9584Z" fill="#E4761B" stroke="#E4761B" stroke-width="0.190386"/>
<path d="M24.0327 16.0989L26.2624 19.8137L24.6414 20.178L24.0327 16.0989ZM24.0327 16.0989L25.4674 15.1433L26.2624 19.8137L24.0327 16.0989Z" fill="#F6851B" stroke="#F6851B" stroke-width="0.190386"/>
<path d="M22.207 13.2919L26.331 11.6675L26.126 12.5573L22.207 13.2919ZM25.9956 13.6264L22.207 13.2919L26.126 12.5573L25.9956 13.6264Z" fill="#763D16" stroke="#763D16" stroke-width="0.190386"/>
<path d="M25.9956 13.6264L25.4677 15.1433L22.207 13.2919L25.9956 13.6264ZM26.8216 12.0437L26.126 12.5573L26.331 11.6675L26.8216 12.0437ZM25.9956 13.6264L26.126 12.5573L26.6788 12.9993L25.9956 13.6264Z" fill="#763D16" stroke="#763D16" stroke-width="0.190386"/>
<path d="M18.5737 22.758L19.6047 23.0745L21.7723 23.9584L18.5737 22.758Z" fill="#E2761B" stroke="#E2761B" stroke-width="0.190386"/>
<path d="M25.4677 15.1433L25.9956 13.6264L26.449 13.9608L25.4677 15.1433ZM25.4677 15.1433L21.1885 13.7876L22.207 13.2919L25.4677 15.1433Z" fill="#763D16" stroke="#763D16" stroke-width="0.190386"/>
<path d="M23.2256 8.63952L22.207 13.2919L21.1885 13.7876L23.2256 8.63952Z" fill="#763D16" stroke="#763D16" stroke-width="0.190386"/>
<path d="M26.331 11.6675L22.207 13.2919L23.2256 8.63952L26.331 11.6675Z" fill="#763D16" stroke="#763D16" stroke-width="0.190386"/>
<path d="M23.2256 8.6395L27.5297 8.16172L26.331 11.6675L23.2256 8.6395Z" fill="#763D16" stroke="#763D16" stroke-width="0.190386"/>
<path d="M25.4677 15.1433L24.033 16.0989L21.1885 13.7876L25.4677 15.1433Z" fill="#F6851B" stroke="#F6851B" stroke-width="0.190386"/>
<path d="M27.3433 4.81127L27.5297 8.16173L23.2256 8.63951L27.3433 4.81127Z" fill="#763D16" stroke="#763D16" stroke-width="0.190386"/>
<path d="M27.3431 4.81127L18.7412 10.8254L18.6294 6.74629L27.3431 4.81127Z" fill="#E2761B" stroke="#E2761B" stroke-width="0.190386"/>
<path d="M12.2324 6.25657L18.6295 6.7463L18.7413 10.8254L12.2324 6.25657Z" fill="#F6851B" stroke="#F6851B" stroke-width="0.190386"/>
<path d="M21.1887 13.7876L18.7417 10.8254L23.2259 8.63952L21.1887 13.7876Z" fill="#763D16" stroke="#763D16" stroke-width="0.190386"/>
<path d="M21.1885 13.7876L24.0331 16.0989L20.0396 16.5229L21.1885 13.7876Z" fill="#E4761B" stroke="#E4761B" stroke-width="0.190386"/>
<path d="M20.0398 16.5229L18.7417 10.8254L21.1887 13.7876L20.0398 16.5229Z" fill="#E4761B" stroke="#E4761B" stroke-width="0.190386"/>
<path d="M23.2259 8.63951L18.7417 10.8254L27.3436 4.81127L23.2259 8.63951Z" fill="#763D16" stroke="#763D16" stroke-width="0.190386"/>
<path d="M12.2885 23.8629L14.3195 25.8994L11.5557 23.4807L12.2885 23.8629Z" fill="#C0AD9E" stroke="#C0AD9E" stroke-width="0.190386"/>
<path d="M21.7725 23.9584L22.7351 20.4408L24.6419 20.178L21.7725 23.9584Z" fill="#CD6116" stroke="#CD6116" stroke-width="0.190386"/>
<path d="M4.05273 14.0624L7.56804 10.5089L4.50612 13.6383L4.05273 14.0624Z" fill="#E2761B" stroke="#E2761B" stroke-width="0.190386"/>
<path d="M24.6416 20.178L22.7349 20.4408L24.0329 16.0989L24.6416 20.178ZM18.7413 10.8254L15.3192 10.7179L12.2324 6.25657L18.7413 10.8254Z" fill="#F6851B" stroke="#F6851B" stroke-width="0.190386"/>
<path d="M24.033 16.0989L22.735 20.4408L22.6294 18.3206L24.033 16.0989Z" fill="#E4751F" stroke="#E4751F" stroke-width="0.190386"/>
<path d="M20.0396 16.5229L24.0331 16.0989L22.6294 18.3206L20.0396 16.5229Z" fill="#CD6116" stroke="#CD6116" stroke-width="0.190386"/>
<path d="M15.3193 10.7179L18.7415 10.8254L20.0395 16.5229L15.3193 10.7179Z" fill="#F6851B" stroke="#F6851B" stroke-width="0.190386"/>
<path d="M15.3193 10.7179L6.08386 2.5L12.2325 6.25657L15.3193 10.7179ZM12.2263 25.1111L4.20199 27.5L2.59961 21.6173L12.2263 25.1111Z" fill="#E4761B" stroke="#E4761B" stroke-width="0.190386"/>
<path d="M5.24512 15.5315L8.27598 13.2441L10.8162 13.8115L5.24512 15.5315Z" fill="#763D16" stroke="#763D16" stroke-width="0.190386"/>
<path d="M10.8166 13.8115L8.27637 13.2442L9.63653 7.84521L10.8166 13.8115Z" fill="#763D16" stroke="#763D16" stroke-width="0.190386"/>
<path d="M4.50635 13.6383L8.27629 13.2441L5.24543 15.5315L4.50635 13.6383Z" fill="#763D16" stroke="#763D16" stroke-width="0.190386"/>
<path d="M22.6295 18.3206L21.0643 17.5621L20.0396 16.5229L22.6295 18.3206Z" fill="#CD6116" stroke="#CD6116" stroke-width="0.190386"/>
<path d="M4.50632 13.6383L4.23926 12.2826L8.27627 13.2442L4.50632 13.6383Z" fill="#763D16" stroke="#763D16" stroke-width="0.190386"/>
<path d="M20.7412 19.2702L21.0642 17.5621L22.6293 18.3206L20.7412 19.2702Z" fill="#233447" stroke="#233447" stroke-width="0.190386"/>
<path d="M22.7349 20.4407L20.7412 19.2702L22.6293 18.3206L22.7349 20.4407Z" fill="#F6851B" stroke="#F6851B" stroke-width="0.190386"/>
<path d="M8.27634 13.2442L4.23933 12.2826L3.91016 11.1419L8.27634 13.2442ZM9.6365 7.84521L8.27634 13.2442L3.91016 11.1419L9.6365 7.84521ZM9.6365 7.84521L15.3194 10.7179L10.8165 13.8115L9.6365 7.84521Z" fill="#763D16" stroke="#763D16" stroke-width="0.190386"/>
<path d="M10.8164 13.8115L15.3192 10.7179L17.3253 16.6125L10.8164 13.8115ZM17.3253 16.6125L11.1021 16.4871L10.8164 13.8115L17.3253 16.6125Z" fill="#E4761B" stroke="#E4761B" stroke-width="0.190386"/>
<path d="M5.24512 15.5315L10.8162 13.8115L11.1019 16.4871L5.24512 15.5315ZM20.0392 16.5229L17.3251 16.6125L15.319 10.7179L20.0392 16.5229Z" fill="#F6851B" stroke="#F6851B" stroke-width="0.190386"/>
<path d="M21.0643 17.5621L20.7414 19.2702L20.0396 16.5229L21.0643 17.5621Z" fill="#CD6116" stroke="#CD6116" stroke-width="0.190386"/>
<path d="M6.08398 2.5L15.3194 10.7179L9.63655 7.8452L6.08398 2.5Z" fill="#763D16" stroke="#763D16" stroke-width="0.190386"/>
<path d="M2.59961 21.6173L10.3879 21.3067L12.2263 25.1111L2.59961 21.6173Z" fill="#E4761B" stroke="#E4761B" stroke-width="0.190386"/>
<path d="M12.2266 25.1111L10.3882 21.3067L14.214 21.1276L12.2266 25.1111Z" fill="#CD6116" stroke="#CD6116" stroke-width="0.190386"/>
<path d="M20.7413 19.2702L22.735 20.4408L23.8343 22.9312L20.7413 19.2702ZM11.1022 16.4871L2.59961 21.6173L5.2454 15.5315L11.1022 16.4871ZM10.3879 21.3067L2.59961 21.6173L11.1022 16.4871L10.3879 21.3067ZM20.0395 16.5229L20.5488 18.3027L18.0893 18.44L20.0395 16.5229ZM18.0893 18.44L17.3254 16.6125L20.0395 16.5229L18.0893 18.44Z" fill="#F6851B" stroke="#F6851B" stroke-width="0.190386"/>
<path d="M14.3191 25.8994L12.2261 25.1111L19.5051 26.2876L14.3191 25.8994Z" fill="#C0AD9E" stroke="#C0AD9E" stroke-width="0.190386"/>
<path d="M5.24521 15.5315L4.05273 14.0623L4.50612 13.6383L5.24521 15.5315Z" fill="#763D16" stroke="#763D16" stroke-width="0.190386"/>
<path d="M20.3311 25.4157L19.5051 26.2876L12.2261 25.1111L20.3311 25.4157Z" fill="#D7C1B3" stroke="#D7C1B3" stroke-width="0.190386"/>
<path d="M20.7224 23.2776L12.2261 25.1111L14.2135 21.1276L20.7224 23.2776Z" fill="#E4761B" stroke="#E4761B" stroke-width="0.190386"/>
<path d="M12.2261 25.1111L20.7224 23.2776L20.3311 25.4157L12.2261 25.1111Z" fill="#D7C1B3" stroke="#D7C1B3" stroke-width="0.190386"/>
<path d="M3.90986 11.1419L3.63037 6.54921L9.6362 7.8452L3.90986 11.1419ZM4.50609 13.6383L3.68006 12.8321L4.23903 12.2826L4.50609 13.6383Z" fill="#763D16" stroke="#763D16" stroke-width="0.190386"/>
<path d="M15.9341 17.795L17.3253 16.6125L17.1266 19.5031L15.9341 17.795Z" fill="#CD6116" stroke="#CD6116" stroke-width="0.190386"/>
<path d="M17.3251 16.6125L15.9339 17.795L13.9092 18.8044L17.3251 16.6125Z" fill="#CD6116" stroke="#CD6116" stroke-width="0.190386"/>
<path d="M23.8342 22.9312L23.4553 22.6624L20.7412 19.2702L23.8342 22.9312Z" fill="#F6851B" stroke="#F6851B" stroke-width="0.190386"/>
<path d="M13.9093 18.8043L11.1021 16.4871L17.3253 16.6125L13.9093 18.8043Z" fill="#CD6116" stroke="#CD6116" stroke-width="0.190386"/>
<path d="M17.1265 19.5031L17.3252 16.6125L18.0891 18.4401L17.1265 19.5031Z" fill="#E4751F" stroke="#E4751F" stroke-width="0.190386"/>
<path d="M3.40723 11.5958L3.9103 11.1419L4.23947 12.2826L3.40723 11.5958Z" fill="#763D16" stroke="#763D16" stroke-width="0.190386"/>
<path d="M17.1264 19.5031L13.9092 18.8043L15.9339 17.795L17.1264 19.5031Z" fill="#233447" stroke="#233447" stroke-width="0.190386"/>
<path d="M9.6362 7.8452L3.63037 6.54921L6.08363 2.5L9.6362 7.8452Z" fill="#763D16" stroke="#763D16" stroke-width="0.190386"/>
<path d="M19.5053 26.2876L19.8469 27.1835L14.3193 25.8994L19.5053 26.2876Z" fill="#C0AD9E" stroke="#C0AD9E" stroke-width="0.190386"/>
<path d="M14.2135 21.1276L13.9092 18.8044L17.1264 19.5031L14.2135 21.1276Z" fill="#F6851B" stroke="#F6851B" stroke-width="0.190386"/>
<path d="M11.1021 16.4871L13.9093 18.8043L14.2137 21.1276L11.1021 16.4871Z" fill="#E4751F" stroke="#E4751F" stroke-width="0.190386"/>
<path d="M18.0896 18.44L20.549 18.3027L23.4557 22.6624L18.0896 18.44ZM11.1024 16.4871L14.214 21.1276L10.3882 21.3067L11.1024 16.4871Z" fill="#F6851B" stroke="#F6851B" stroke-width="0.190386"/>
<path d="M18.0891 18.44L21.1448 22.9133L17.1265 19.5031L18.0891 18.44Z" fill="#E4751F" stroke="#E4751F" stroke-width="0.190386"/>
<path d="M17.1265 19.5031L21.1448 22.9133L20.7225 23.2776L17.1265 19.5031Z" fill="#F6851B" stroke="#F6851B" stroke-width="0.190386"/>
<path d="M20.7228 23.2776L14.2139 21.1276L17.1267 19.5031L20.7228 23.2776ZM23.4555 22.6624L21.1451 22.9133L18.0894 18.44L23.4555 22.6624Z" fill="#F6851B" stroke="#F6851B" stroke-width="0.190386"/>
<path d="M24.0641 24.7647L23.0704 26.6818L19.847 27.1835L24.0641 24.7647ZM19.847 27.1835L19.5054 26.2876L20.3314 25.4157L19.847 27.1835Z" fill="#C0AD9E" stroke="#C0AD9E" stroke-width="0.190386"/>
<path d="M20.3316 25.4157L20.9403 25.1828L19.8472 27.1835L20.3316 25.4157ZM19.8472 27.1835L20.9403 25.1828L24.0643 24.7647L19.8472 27.1835Z" fill="#C0AD9E" stroke="#C0AD9E" stroke-width="0.190386"/>
<path d="M23.4554 22.6624L24.2193 23.1104L21.8965 23.3791L23.4554 22.6624Z" fill="#161616" stroke="#161616" stroke-width="0.190386"/>
<path d="M21.8965 23.3791L21.145 22.9133L23.4554 22.6624L21.8965 23.3791ZM21.6295 23.7315L24.4554 23.403L24.0641 24.7647L21.6295 23.7315Z" fill="#161616" stroke="#161616" stroke-width="0.190386"/>
<path d="M24.0642 24.7647L20.9402 25.1828L21.6296 23.7315L24.0642 24.7647ZM20.9402 25.1828L20.3315 25.4157L20.7228 23.2776L20.9402 25.1828ZM20.7228 23.2776L21.1452 22.9133L21.8967 23.3791L20.7228 23.2776ZM24.2195 23.1104L24.4555 23.403L21.6296 23.7315L24.2195 23.1104Z" fill="#161616" stroke="#161616" stroke-width="0.190386"/>
<path d="M21.6294 23.7315L21.8965 23.3791L24.2193 23.1104L21.6294 23.7315ZM20.7227 23.2776L21.6294 23.7315L20.94 25.1827L20.7227 23.2776Z" fill="#161616" stroke="#161616" stroke-width="0.190386"/>
<path d="M21.8965 23.3791L21.6294 23.7315L20.7227 23.2776L21.8965 23.3791Z" fill="#161616" stroke="#161616" stroke-width="0.190386"/>
</svg>
