<svg width="20" height="19" viewBox="0 0 20 19" fill="none" xmlns="http://www.w3.org/2000/svg">
<path fill-rule="evenodd" clip-rule="evenodd" d="M1.5625 2.5625C1.5625 1.73407 2.23407 1.0625 3.0625 1.0625H16.9375C17.7659 1.0625 18.4375 1.73407 18.4375 2.5625V16.4375C18.4375 17.2659 17.7659 17.9375 16.9375 17.9375H3.0625C2.23407 17.9375 1.5625 17.2659 1.5625 16.4375V2.5625Z" stroke="white" stroke-width="1.5" stroke-linecap="round" stroke-linejoin="round"/>
<path d="M4.9375 13.4375L7.534 9.9755C7.72964 9.71448 8.02894 9.55122 8.35431 9.52805C8.67969 9.50488 8.9991 9.62408 9.22975 9.85475L10 10.625L12.475 7.325C12.6875 7.04172 13.0209 6.875 13.375 6.875C13.7291 6.875 14.0625 7.04172 14.275 7.325L16.2775 9.995" stroke="white" stroke-width="1.5" stroke-linecap="round" stroke-linejoin="round"/>
<path fill-rule="evenodd" clip-rule="evenodd" d="M5.78125 6.6875C6.5579 6.6875 7.1875 6.0579 7.1875 5.28125C7.1875 4.5046 6.5579 3.875 5.78125 3.875C5.0046 3.875 4.375 4.5046 4.375 5.28125C4.375 6.0579 5.0046 6.6875 5.78125 6.6875Z" stroke="white" stroke-width="1.5" stroke-linecap="round" stroke-linejoin="round"/>
<path d="M1.5625 13.4375H18.4375" stroke="white" stroke-width="1.5" stroke-linecap="round" stroke-linejoin="round"/>
</svg>
