<svg width="16" height="16" viewBox="0 0 16 16" fill="none" xmlns="http://www.w3.org/2000/svg">
<path d="M4.95587 16C3.68153 16 2.4072 15.5044 1.41605 14.5841C-0.495455 12.6726 -0.495455 9.48673 1.41605 7.57522L7.92932 1.06195C8.63729 0.353982 9.48684 0 10.478 0C11.3983 0 12.3187 0.353982 12.9559 1.06195C14.3718 2.47788 14.3718 4.67257 12.9559 6.0885L6.4426 12.6018C5.59304 13.4513 4.24791 13.4513 3.46915 12.6018C3.04437 12.177 2.83198 11.6106 2.83198 11.0442C2.83198 10.4779 3.04437 9.9115 3.46915 9.55752L9.48684 3.53982C9.77003 3.25664 10.1948 3.25664 10.478 3.53982C10.7612 3.82301 10.7612 4.24779 10.478 4.53097L4.4603 10.5487C4.3187 10.6903 4.24791 10.8319 4.24791 11.0442C4.24791 11.2566 4.3187 11.3982 4.4603 11.5398C4.74348 11.823 5.16826 11.823 5.45145 11.5398L11.9647 5.02655C12.8143 4.17699 12.8143 2.83186 11.9647 2.0531C11.1859 1.27434 9.77003 1.27434 8.99127 2.0531L2.47799 8.56637C1.06207 9.9823 1.06207 12.177 2.47799 13.5929C3.89392 15.0089 6.08861 15.0089 7.50454 13.5929L14.0178 7.07965C14.301 6.79646 14.7258 6.79646 15.0089 7.07965C15.2921 7.36283 15.2921 7.78761 15.0089 8.0708L8.49569 14.5841C7.50454 15.5044 6.23021 16 4.95587 16Z" fill="#85858A"/>
</svg>
