<svg width="25" height="24" viewBox="0 0 25 24" fill="none" xmlns="http://www.w3.org/2000/svg">
<path d="M12.5 24C19.1274 24 24.5 18.6274 24.5 12C24.5 5.37258 19.1274 0 12.5 0C5.87258 0 0.5 5.37258 0.5 12C0.5 18.6274 5.87258 24 12.5 24Z" fill="#627EEA"/>
<path d="M12.874 2.99835V9.65117L18.4968 12.164L12.874 2.99835Z" fill="white" fill-opacity="0.602"/>
<path d="M12.8737 2.99835L7.25098 12.164L12.8737 9.65117V2.99835Z" fill="white"/>
<path d="M12.874 16.4746V20.9951L18.5 13.2105L12.874 16.4746Z" fill="white" fill-opacity="0.602"/>
<path d="M12.8737 20.9951V16.4746L7.25098 13.2105L12.8737 20.9951Z" fill="white"/>
<path d="M12.874 15.4281L18.4968 12.164L12.874 9.65118V15.4281Z" fill="white" fill-opacity="0.2"/>
<path d="M7.25098 12.164L12.8737 15.4281V9.65118L7.25098 12.164Z" fill="white" fill-opacity="0.602"/>
</svg>
