<svg width="25" height="24" viewBox="0 0 25 24" fill="none" xmlns="http://www.w3.org/2000/svg">
<path d="M12.4953 0C19.1257 0 24.5 5.37321 24.5 12.0024C24.5 18.6315 19.1257 24 12.5 24C5.86954 24 0.500003 18.6268 0.500003 12.0024C0.495281 5.37321 5.86954 0 12.4953 0Z" fill="#8247E5"/>
<path d="M16.4261 9.38661C16.1381 9.22136 15.7698 9.22136 15.444 9.38661L13.1493 10.7464L11.5912 11.6105L9.33899 12.9656C9.05097 13.1309 8.68269 13.1309 8.3569 12.9656L6.59573 11.8938C6.30771 11.7285 6.10468 11.398 6.10468 11.0297V8.97111C6.10468 8.6406 6.26994 8.31481 6.59573 8.10705L8.3569 7.07774C8.64492 6.91248 9.0132 6.91248 9.33899 7.07774L11.1002 8.14955C11.3882 8.3148 11.5912 8.64532 11.5912 9.0136V10.3734L13.1493 9.46688V8.06928C13.1493 7.73877 12.9841 7.41297 12.6583 7.20522L9.38149 5.26936C9.09347 5.1041 8.72518 5.1041 8.39939 5.26936L5.04232 7.24772C4.71653 7.41297 4.55127 7.74349 4.55127 8.06928V11.9363C4.55127 12.2668 4.71653 12.5926 5.04232 12.8003L8.36162 14.7362C8.64964 14.9015 9.01792 14.9015 9.34371 14.7362L11.5959 13.4189L13.1541 12.5123L15.4063 11.195C15.6943 11.0297 16.0626 11.0297 16.3884 11.195L18.1495 12.2243C18.4376 12.3896 18.6406 12.7201 18.6406 13.0884V15.147C18.6406 15.4775 18.4753 15.8033 18.1495 16.011L16.4309 17.0404C16.1428 17.2056 15.7746 17.2056 15.4488 17.0404L13.6829 16.011C13.3949 15.8458 13.1918 15.5153 13.1918 15.147V13.8297L11.6337 14.7362V16.096C11.6337 16.4265 11.799 16.7523 12.1247 16.9601L15.444 18.896C15.7321 19.0612 16.1004 19.0612 16.4261 18.896L19.7454 16.9601C20.0335 16.7948 20.2365 16.4643 20.2365 16.096V12.1865C20.2365 11.856 20.0712 11.5302 19.7454 11.3225L16.4261 9.38661Z" fill="white"/>
</svg>
