<svg width="35" height="35" viewBox="0 0 35 35" fill="none" xmlns="http://www.w3.org/2000/svg">
<rect width="35" height="35" rx="2" fill="#4C4D55"/>
<path d="M22.5016 21.0106L22.5009 27.0116C22.5009 27.6193 21.8161 27.9747 21.3192 27.6249L17.5008 24.9371L13.6844 27.6248C13.1875 27.9747 12.5025 27.6193 12.5025 27.0116L12.5007 21.0124C13.8702 22.11 15.6084 22.7665 17.5 22.7665C19.3926 22.7665 21.1318 22.1092 22.5016 21.0106ZM17.5 7.76648C21.366 7.76648 24.5 10.9005 24.5 14.7665C24.5 18.6325 21.366 21.7665 17.5 21.7665C13.634 21.7665 10.5 18.6325 10.5 14.7665C10.5 10.9005 13.634 7.76648 17.5 7.76648Z" fill="white"/>
</svg>
