<svg width="138" height="107" viewBox="0 0 138 107" fill="none" xmlns="http://www.w3.org/2000/svg">
<path d="M50.7223 41.4587C50.4523 28.7801 49.6623 16.1014 50.1623 3.41399C50.7223 16.0927 51.3123 28.7713 50.7223 41.4587Z" fill="#606166"/>
<path d="M76.2216 0.590691C76.2216 12.5548 76.2216 24.5188 76.2216 36.4829C76.0716 24.5188 75.3517 12.5548 75.7817 0.590691C75.9217 0.590691 76.0716 0.590691 76.2216 0.590691Z" fill="#606166"/>
<path d="M101.941 30.4658C102.071 20.4541 102.201 10.232 102.331 0C103.221 2.8033 102.731 27.9429 101.941 30.4658Z" fill="#606166"/>
<path d="M119.977 86.2055C120.057 85.2344 120.137 84.2632 120.217 83.2821C120.357 83.2921 120.506 83.3021 120.646 83.3221C120.556 84.2933 120.476 85.2644 120.386 86.2456C120.246 86.2256 120.107 86.2155 119.977 86.2055Z" fill="#606166"/>
<path d="M103.726 57.4818C94.3664 56.5306 85.3764 53.9476 76.3164 51.6549C76.3464 51.5247 76.3764 51.3946 76.4064 51.2744C85.5164 53.3469 94.6164 55.4093 103.726 57.4818Z" fill="#606166"/>
<path d="M44.3164 52.8463C46.0364 52.596 47.7464 52.3557 49.4664 52.1054C49.4864 52.1955 49.4964 52.2856 49.5164 52.3757C47.8064 52.6861 46.0964 52.9965 44.3964 53.3068C44.3664 53.1567 44.3364 52.9965 44.3164 52.8463Z" fill="#606166"/>
<path d="M79.5469 98.3398C81.1969 96.1272 82.8568 93.9046 84.5068 91.692C83.6068 94.4452 81.5669 96.3675 79.8069 98.49C79.7169 98.4399 79.6269 98.3898 79.5469 98.3398Z" fill="#606166"/>
<path d="M121.637 87.6072C121.847 85.3646 122.057 83.1319 122.267 80.8893C122.457 80.8993 122.637 80.9193 122.827 80.9294C122.657 83.162 122.477 85.4046 122.307 87.6472C122.077 87.6272 121.857 87.6172 121.637 87.6072Z" fill="#606166"/>
<path d="M128.625 84.6337C129.855 85.5848 132.755 85.4546 133.865 84.3934C134.405 83.8828 134.315 83.3021 133.705 83.0218C133.035 82.7114 132.265 82.4511 131.545 82.4611C129.435 82.5012 127.325 82.6814 125.215 82.8116C125.035 82.8216 124.855 82.8115 124.615 82.5813C125.035 82.4311 125.455 82.1808 125.885 82.1608C128.155 82.0507 130.425 81.9605 132.705 81.9505C133.185 81.9505 133.715 82.2108 134.145 82.4711C135.065 83.0318 135.135 83.8928 134.385 84.6737C133.465 85.6349 130.145 86.3957 128.955 85.8251C128.625 85.6649 128.475 85.1543 128.235 84.8039C128.375 84.7538 128.495 84.6937 128.625 84.6337Z" fill="#606166"/>
<path d="M136.996 63.0483C135.996 63.7791 132.896 63.7792 132.226 63.1484C131.856 62.808 131.686 62.2574 131.386 61.7167C131.406 61.7167 131.216 61.7368 130.886 61.7768C131.046 61.4765 131.166 61.2762 131.276 61.076C130.936 60.7556 130.186 61.6967 130.116 60.5754C130.096 60.255 129.366 59.9747 128.876 59.7344C132.056 64.3899 135.276 69.0053 137.996 74.3716C128.226 77.8757 118.606 81.3098 109.006 84.7839C104.306 86.4859 99.6357 88.2479 94.9657 90.02C94.1357 90.3304 93.6757 90.1702 93.0757 89.4794C88.5257 84.2132 83.9157 78.9971 79.3157 73.7709C78.8957 73.2904 78.4456 72.8498 77.7556 72.129C77.9256 77.4653 78.5557 82.5012 77.9557 87.5271C77.8257 87.5271 77.6957 87.5371 77.5657 87.5371C77.3457 82.1508 77.1156 76.7745 76.8956 71.3881C76.7756 71.3481 76.6456 71.318 76.5256 71.278C76.0256 71.8687 75.5556 72.4894 75.0256 73.0501C70.8256 77.4653 67.0657 82.2409 63.6157 87.2568C62.9457 88.2279 62.1757 88.1879 61.3457 87.7974C58.9157 86.6761 56.5057 85.5048 54.1157 84.3134C46.4257 80.4889 38.7357 76.6443 31.0557 72.7998C27.1357 70.8375 23.2257 68.8652 19.0957 66.7927C19.5657 66.122 20.0057 65.4511 20.4957 64.8204C23.5857 60.7957 26.7156 56.811 29.7556 52.7562C30.3656 51.9453 30.9957 51.5248 31.9957 51.4447C41.6757 50.6437 51.3556 49.8328 61.0356 48.9718C63.3756 48.7615 65.7056 48.361 68.0356 48.0807C68.4956 48.0206 68.9957 48.0807 69.4557 48.1708C79.8457 50.2633 90.2556 52.1455 100.776 53.4971C109.176 54.5783 117.546 55.9099 125.926 57.1314C126.276 57.1814 126.656 57.2315 126.956 57.4017C130.136 59.1737 133.296 60.9659 136.466 62.7479C136.596 62.8381 136.736 62.9081 136.996 63.0483ZM77.3257 70.417C77.9457 71.1078 78.4156 71.6384 78.9056 72.159C80.7856 74.1814 82.7157 76.1637 84.5557 78.2162C87.5757 81.5801 90.5656 84.9741 93.5356 88.3781C94.2956 89.2492 95.0356 89.4293 96.1456 88.9788C100.376 87.2768 104.606 85.5948 108.896 84.053C117.696 80.8793 126.526 77.8056 135.346 74.682C135.926 74.4717 136.486 74.2014 137.236 73.871C133.736 68.6349 130.346 63.5489 126.916 58.483C126.746 58.2327 126.246 58.0324 125.956 58.0825C124.906 58.2927 123.876 58.6331 122.836 58.9034C118.466 60.0448 114.106 61.1761 109.736 62.3074C106.226 63.2085 102.706 64.0795 99.1957 65.0106C94.6457 66.212 90.1157 67.5135 85.5557 68.6749C82.9157 69.3457 80.2357 69.8063 77.3257 70.417ZM124.136 57.9924C124.116 57.8722 124.106 57.7521 124.086 57.6319C121.686 57.2315 119.296 56.781 116.896 56.4506C109.376 55.4194 101.826 54.5884 94.3257 53.397C86.3157 52.1355 78.3656 50.5636 70.3856 49.1219C68.8356 48.8416 68.7557 48.9117 68.8557 50.5236C69.0557 54.1178 69.2557 57.712 69.4357 61.3063C69.4657 61.907 69.3857 62.5177 69.3457 63.1184C69.1957 63.1184 69.0456 63.1184 68.8956 63.1184C68.6256 58.4829 68.3457 53.8575 68.0757 49.162C55.7157 50.2533 43.4557 51.3245 31.2057 52.4058C31.8657 52.9665 32.5657 53.3269 33.2957 53.6072C39.7857 56.0901 46.2956 58.533 52.7756 61.046C60.1556 63.8993 67.5056 66.8227 74.8756 69.6861C75.4356 69.9064 76.1457 70.0165 76.7257 69.8863C81.9857 68.6949 87.2457 67.5035 92.4657 66.182C97.9057 64.8004 103.306 63.2485 108.736 61.8169C113.026 60.6855 117.316 59.6043 121.616 58.513C122.446 58.2827 123.296 58.1525 124.136 57.9924ZM20.0356 66.4923C24.2756 68.5247 28.3856 70.5572 32.5356 72.4694C42.1956 76.9146 51.6957 81.6903 60.9757 86.8663C62.0557 87.467 62.7357 87.437 63.4357 86.3557C66.8857 81.0895 70.9656 76.3239 75.2556 71.7185C75.4856 71.4682 75.6557 71.1678 75.8657 70.8675C60.6557 64.9605 45.5557 59.1037 30.4257 53.2268C27.0557 57.5418 23.5856 61.957 20.0356 66.4923Z" fill="#606166"/>
<path d="M31.7064 73.8109C31.8764 74.9623 32.1764 76.1137 32.1764 77.265C32.1764 78.9169 32.8363 79.7079 34.3763 80.4888C42.3663 84.5336 50.2164 88.8487 58.1864 92.9335C63.4864 95.6467 68.8964 98.1496 74.2664 100.713C75.1864 101.153 76.1864 101.443 77.4564 101.924C77.4564 97.8492 77.4564 94.0448 77.4564 90.2403C77.6364 90.2403 77.8163 90.2403 78.0063 90.2303C78.0063 94.1248 78.0063 98.0194 78.0063 102.274C80.9463 101.534 83.5864 101.073 86.0864 100.212C94.4264 97.3286 102.716 94.285 111.046 91.3516C114.506 90.1301 117.996 89.0289 121.476 87.8775C121.526 87.9877 121.566 88.0877 121.616 88.1978C121.456 88.298 121.296 88.4282 121.126 88.4882C112.386 91.702 103.656 94.9358 94.8964 98.0895C91.7064 99.2408 88.4364 100.172 85.1864 101.163C78.9564 103.055 77.1464 102.875 71.2664 100.172C59.9664 94.9758 48.9064 89.2992 38.0364 83.2621C36.2264 82.2509 34.3064 81.4299 32.4464 80.4988C32.2164 80.3786 31.8564 80.2085 31.8364 80.0283C31.5464 77.9959 31.3164 75.9535 31.0664 73.9211C31.2764 73.8811 31.4964 73.841 31.7064 73.8109Z" fill="#606166"/>
<path d="M0.00651481 100.512C-0.0834852 99.5513 0.776627 99.301 1.49663 99.1408C2.77663 98.8404 4.12652 98.8204 5.38652 98.48C7.45652 97.9293 9.48652 97.2185 11.5165 96.5477C11.8965 96.4176 12.2266 96.1172 12.5766 95.9069C12.5466 95.8068 12.5266 95.7067 12.4966 95.6066C11.2766 95.6066 10.0566 95.6567 8.8466 95.5966C6.5166 95.4764 4.20662 95.2262 2.23662 93.8045C0.536617 92.5831 0.576544 90.861 2.53654 90.1402C6.21654 88.7786 9.90659 88.7886 13.3366 91.0112C14.5666 91.8121 15.1666 92.9935 14.7466 94.9258C16.6566 94.3451 18.3466 94.0248 19.8466 93.3139C21.7166 92.4329 23.4566 91.2615 25.1966 90.1302C27.0866 88.8987 29.1065 88.1679 31.3765 88.1278C34.6565 88.0778 37.8966 88.1378 41.0566 89.3292C42.3566 89.8198 43.8966 89.6596 45.3166 89.8699C46.4466 90.0301 47.5565 90.3003 48.6265 90.7709C46.3465 90.5206 44.0566 90.2603 41.6166 89.99C41.8666 92.0625 40.5265 92.6832 39.1365 93.1738C35.7565 94.3852 32.2765 94.7256 28.7565 93.9647C28.1065 93.8245 27.5566 93.2138 26.9566 92.8234C27.4466 92.2527 27.8366 91.4818 28.4566 91.1614C30.8566 89.95 33.4665 89.5996 36.1365 89.5595C36.6065 89.5495 37.0766 89.5595 37.5866 89.2992C37.3166 89.2291 37.0465 89.129 36.7765 89.109C35.3065 89.0189 33.8266 88.9388 32.3466 88.8687C29.6066 88.7285 27.2065 89.5996 24.8965 91.0513C22.7165 92.4229 20.4666 93.8645 18.0466 94.6555C15.6166 95.4464 13.2465 96.1773 11.0365 97.5389C8.44654 99.1307 5.40663 99.2309 2.49663 99.7015C1.68663 99.8316 0.916515 100.202 0.00651481 100.512ZM10.7066 94.8357C11.2266 94.8357 11.7565 94.9058 12.2565 94.8157C12.8765 94.7056 13.4666 94.4552 14.0766 94.265C13.7966 93.5442 13.6066 92.7733 13.2066 92.1326C12.9566 91.7321 12.4166 91.4818 11.9766 91.2214C9.46661 89.7597 6.74656 89.96 4.05656 90.3504C3.29656 90.4606 2.18663 91.0212 1.99663 91.6219C1.66663 92.6532 2.82651 93.1136 3.62651 93.5141C5.83651 94.6054 8.23659 94.9158 10.7066 94.8357ZM27.7266 92.1926C27.7466 92.3528 27.7665 92.513 27.7765 92.6631C28.2765 92.8534 28.7765 93.2238 29.2765 93.2138C31.8865 93.2038 34.5066 93.1838 37.1066 92.9735C38.1366 92.8934 39.1665 92.3728 40.1265 91.9123C40.4465 91.7621 40.7966 91.1314 40.7166 90.811C40.6366 90.4806 40.0766 90.03 39.7166 90.02C36.4366 89.9399 33.1665 90.02 30.0165 91.0513C29.2165 91.3416 28.4866 91.8222 27.7266 92.1926Z" fill="#606166"/>
<path d="M109.297 107C108.617 106.359 108.507 105.889 109.197 105.268C109.797 104.727 110.577 104.337 111.347 104.077C112.237 103.766 113.197 103.666 114.357 103.426C112.417 103.115 110.707 102.875 109.017 102.555C108.397 102.435 107.777 102.204 107.237 101.884C106.457 101.433 106.487 100.803 107.247 100.302C107.477 100.152 107.737 100.002 108.007 99.9617C110.767 99.5412 113.517 99.4711 116.137 100.602C116.787 100.883 117.257 101.554 118.017 102.224C118.307 102.104 118.947 101.884 119.537 101.574C120.547 101.023 120.687 100.172 119.747 99.4912C118.787 98.8004 117.727 98.0996 116.607 97.8292C114.137 97.2486 111.607 96.8381 109.077 96.5678C106.837 96.3275 104.577 96.3675 102.297 96.0672C102.467 96.0171 102.637 95.917 102.807 95.917C107.237 95.8469 111.697 95.6467 116.017 96.8781C117.377 97.2686 118.727 97.8893 119.897 98.6702C121.507 99.7415 121.407 101.313 119.637 102.104C117.677 102.975 115.597 103.556 113.547 104.227C113.057 104.387 112.527 104.417 112.017 104.517C109.967 104.938 109.727 105.158 109.297 107ZM116.617 101.994C115.237 100.322 109.447 99.7014 107.497 100.943C108.947 102.395 114.787 103.105 116.617 101.994Z" fill="#606166"/>
</svg>
