<svg width="30" height="30" viewBox="0 0 30 30" fill="none" xmlns="http://www.w3.org/2000/svg">
<g clip-path="url(#clip0_82_2562)">
<path d="M30 15C30 6.71573 23.2843 0 15 0C6.71573 0 0 6.71573 0 15C0 23.2843 6.71573 30 15 30C23.2843 30 30 23.2843 30 15Z" fill="white"/>
<path fill-rule="evenodd" clip-rule="evenodd" d="M22.0643 8.57902C22.1883 8.5792 22.311 8.60397 22.4253 8.6519C22.5396 8.69983 22.6433 8.76997 22.7303 8.85824C22.8173 8.94652 22.8859 9.05118 22.9322 9.16617C22.9785 9.28117 23.0015 9.4042 22.9999 9.52814C22.955 12.2097 22.8515 14.2608 22.6581 15.8844C22.4695 17.508 22.1858 18.7142 21.7585 19.6901C21.4706 20.3422 21.1152 20.8819 20.6976 21.3411C20.1348 21.9485 19.4929 22.3892 18.7905 22.8078C18.4905 22.9872 18.1786 23.1643 17.852 23.3502C17.1539 23.7466 16.3867 24.1826 15.5159 24.7651C15.3623 24.8684 15.1815 24.9235 14.9964 24.9235C14.8114 24.9235 14.6305 24.8684 14.477 24.7651C13.5932 24.1762 12.8159 23.7345 12.1121 23.3358C11.9555 23.247 11.8023 23.1597 11.6526 23.0738C10.8293 22.5974 10.088 22.1425 9.4403 21.4862C9.00848 21.0544 8.63511 20.5276 8.33773 19.9029C7.93327 19.0666 7.65835 18.0547 7.45684 16.7449C7.18436 14.9933 7.0505 12.7033 7.00012 9.528C6.99811 9.40443 7.02055 9.28168 7.06615 9.16681C7.11175 9.05195 7.17961 8.94723 7.26583 8.85869C7.44371 8.68099 7.68458 8.58073 7.93601 8.57974H8.32291C9.51471 8.5842 12.1459 8.46732 14.4215 6.6956C14.5858 6.56879 14.7875 6.5 14.9951 6.5C15.2026 6.5 15.4043 6.56879 15.5686 6.6956C17.8442 8.46747 20.4754 8.5855 21.673 8.57974M19.9731 19.0915C20.2654 18.4888 20.5085 17.6564 20.6927 16.4603C20.9131 15.0296 21.0481 13.0864 21.1116 10.4423C19.7082 10.4017 17.2973 10.1318 14.9986 8.58406C12.7 10.1268 10.2891 10.3959 8.89002 10.442C8.93954 12.6284 9.03842 14.3283 9.19589 15.6641C9.37581 17.184 9.63202 18.2146 9.95156 18.9386C10.163 19.42 10.3969 19.7663 10.6756 20.0729C11.0489 20.4822 11.5212 20.8195 12.1639 21.2071C12.4307 21.3669 12.7252 21.5337 13.0448 21.7152C13.6153 22.038 14.2682 22.4075 14.9966 22.871C15.7121 22.4147 16.3553 22.0491 16.9196 21.7281C17.0896 21.6314 17.2521 21.5396 17.4074 21.4493C18.199 20.9951 18.7834 20.6172 19.2195 20.1769C19.514 19.8742 19.753 19.546 19.9732 19.0912" fill="#3375BB"/>
</g>
<defs>
<clipPath id="clip0_82_2562">
<rect width="30" height="30" fill="white"/>
</clipPath>
</defs>
</svg>
