<svg width="30" height="30" viewBox="0 0 30 30" fill="none" xmlns="http://www.w3.org/2000/svg">
<g clip-path="url(#clip0_82_2561)">
<path d="M30 15C30 6.71573 23.2843 0 15 0C6.71573 0 0 6.71573 0 15C0 23.2843 6.71573 30 15 30C23.2843 30 30 23.2843 30 15Z" fill="url(#paint0_radial_82_2561)"/>
<path d="M9.91442 11.7874C12.723 9.03754 17.2766 9.03754 20.0852 11.7874L20.4232 12.1183C20.5636 12.2558 20.5636 12.4787 20.4232 12.6162L19.2669 13.7483C19.1967 13.8171 19.0828 13.8171 19.0126 13.7483L18.5475 13.2929C16.5881 11.3745 13.4114 11.3745 11.4521 13.2929L10.954 13.7806C10.8838 13.8494 10.7699 13.8494 10.6997 13.7806L9.54341 12.6485C9.40298 12.511 9.40298 12.2881 9.54341 12.1506L9.91442 11.7874ZM22.4765 14.1287L23.5056 15.1363C23.646 15.2737 23.646 15.4967 23.5056 15.6342L18.8653 20.1774C18.7249 20.3149 18.4972 20.3149 18.3568 20.1774C18.3568 20.1774 18.3568 20.1774 18.3568 20.1774L15.0634 16.9529C15.0283 16.9186 14.9714 16.9186 14.9362 16.9529C14.9362 16.9529 14.9362 16.9529 14.9362 16.9529L11.6429 20.1774C11.5025 20.3149 11.2748 20.3149 11.1344 20.1774C11.1344 20.1774 11.1344 20.1774 11.1344 20.1774L6.49399 15.6341C6.35356 15.4966 6.35356 15.2737 6.49399 15.1362L7.52309 14.1286C7.66352 13.9911 7.8912 13.9911 8.03163 14.1286L11.3251 17.3532C11.3602 17.3875 11.4171 17.3875 11.4522 17.3532C11.4522 17.3532 11.4522 17.3532 11.4522 17.3532L14.7455 14.1286C14.8859 13.9911 15.1136 13.9911 15.254 14.1286C15.254 14.1286 15.254 14.1286 15.254 14.1286L18.5474 17.3532C18.5825 17.3875 18.6395 17.3875 18.6746 17.3532L21.9679 14.1287C22.1084 13.9912 22.336 13.9912 22.4765 14.1287Z" fill="white"/>
</g>
<defs>
<radialGradient id="paint0_radial_82_2561" cx="0" cy="0" r="1" gradientUnits="userSpaceOnUse" gradientTransform="translate(0 15) scale(30)">
<stop stop-color="#5D9DF6"/>
<stop offset="1" stop-color="#006FFF"/>
</radialGradient>
<clipPath id="clip0_82_2561">
<rect width="30" height="30" fill="white"/>
</clipPath>
</defs>
</svg>
