<svg width="21" height="16" viewBox="0 0 21 16" fill="none" xmlns="http://www.w3.org/2000/svg">
<path d="M10.5538 7.19995C11.036 7.19995 11.3575 7.51995 11.3575 7.99995V15.2C11.3575 15.68 11.036 16 10.5538 16C10.0715 16 9.75 15.68 9.75 15.2V7.99995C9.75 7.51995 10.0715 7.19995 10.5538 7.19995Z" fill="#61972B"/>
<path d="M17.3017 13.92C16.9802 13.92 16.7391 13.76 16.5784 13.52C16.3372 13.12 16.498 12.64 16.8999 12.4C17.6232 12 18.1859 11.28 18.427 10.48C18.6681 9.68003 18.5878 8.80003 18.1859 8.08003C17.6232 7.04003 16.5784 6.40003 15.3727 6.40003H14.3278C13.926 6.40003 13.6045 6.16003 13.5241 5.84003C12.7203 2.88003 9.66605 1.04003 6.69216 1.84003C5.2454 2.16003 4.03976 3.04003 3.31638 4.32003C2.51263 5.68003 2.35187 7.12003 2.67338 8.64003C2.9145 9.52003 3.31638 10.32 3.87901 10.96C4.20051 11.28 4.12014 11.76 3.79864 12.08C3.47713 12.4 2.99488 12.32 2.67338 12C1.95 11.12 1.38737 10.16 1.06587 9.04003C0.583613 7.20003 0.82474 5.28003 1.86962 3.60003C2.9145 1.92003 4.44164 0.800028 6.29028 0.320028C9.98756 -0.719972 13.7652 1.28003 14.9709 4.80003H15.3727C17.141 4.80003 18.7485 5.76003 19.6326 7.28003C20.2756 8.40003 20.356 9.68003 20.0345 10.96C19.6326 12.16 18.8289 13.2 17.7036 13.84C17.5429 13.84 17.4625 13.92 17.3017 13.92Z" fill="white"/>
<path d="M7.33794 11.2C7.57906 11.2 7.73981 11.28 7.90056 11.44L10.553 14.08L13.2054 11.44C13.5269 11.12 14.0091 11.12 14.3307 11.44C14.6522 11.76 14.6522 12.24 14.3307 12.56L11.1156 15.76C10.7941 16.08 10.3118 16.08 9.99033 15.76L6.77531 12.56C6.4538 12.24 6.4538 11.76 6.77531 11.44C6.93606 11.28 7.09681 11.2 7.33794 11.2Z" fill="#61972B"/>
</svg>
