<svg width="181" height="181" viewBox="0 0 181 181" fill="none" xmlns="http://www.w3.org/2000/svg">
<g clip-path="url(#clip0_5_1438)">
<path d="M56.75 173.002C54.6736 173.002 52.998 174.682 52.998 176.754C52.998 178.825 54.6736 180.5 56.75 180.5C58.8155 180.5 60.4961 178.824 60.4961 176.754C60.4961 174.683 58.8155 173.002 56.75 173.002Z" fill="#85858A"/>
<path d="M64.2481 173.002C62.177 173.002 60.4961 174.682 60.4961 176.754C60.4961 178.825 62.177 180.5 64.2481 180.5C66.3192 180.5 68.0001 178.824 68.0001 176.754C68.0001 174.683 66.3192 173.002 64.2481 173.002Z" fill="#85858A"/>
<path d="M68 176.754C68 178.825 69.6756 180.5 71.746 180.5C73.8171 180.5 75.498 178.824 75.498 176.754C75.498 174.683 73.8171 173.002 71.746 173.002C69.6756 173.002 68 174.682 68 176.754Z" fill="#85858A"/>
<path d="M82.9966 176.754C82.9966 178.825 84.6771 180.5 86.7482 180.5C88.8193 180.5 90.5002 178.825 90.5002 176.754C90.5002 174.682 88.8193 173.002 86.7482 173.002C84.6771 173.002 82.9966 174.682 82.9966 176.754Z" fill="#85858A"/>
<path d="M101.75 173.002C99.6789 173.002 97.998 174.682 97.998 176.754C97.998 178.825 99.6789 180.5 101.75 180.5C103.821 180.5 105.496 178.824 105.496 176.754C105.496 174.683 103.821 173.002 101.75 173.002Z" fill="#85858A"/>
<path d="M113 176.754C113 178.825 114.675 180.5 116.746 180.5C118.817 180.5 120.498 178.824 120.498 176.754C120.498 174.683 118.817 173.002 116.746 173.002C114.675 173.002 113 174.682 113 176.754Z" fill="#85858A"/>
<path d="M124.25 180.5C126.321 180.5 127.996 178.824 127.996 176.754C127.996 174.683 126.321 173.002 124.25 173.002C122.179 173.002 120.498 174.682 120.498 176.754C120.498 178.825 122.179 180.5 124.25 180.5Z" fill="#85858A"/>
<path d="M139.246 173.002C137.175 173.002 135.5 174.682 135.5 176.754C135.5 178.825 137.175 180.5 139.246 180.5C141.317 180.5 142.998 178.824 142.998 176.754C142.998 174.683 141.317 173.002 139.246 173.002Z" fill="#85858A"/>
<path d="M142.998 176.754C142.998 178.825 144.679 180.5 146.75 180.5C148.821 180.5 150.496 178.824 150.496 176.754C150.496 174.683 148.821 173.002 146.75 173.002C144.679 173.002 142.998 174.682 142.998 176.754Z" fill="#85858A"/>
<path d="M154.249 180.5C156.319 180.5 158 178.824 158 176.754C158 174.683 156.319 173.002 154.249 173.002C152.177 173.002 150.497 174.682 150.497 176.754C150.497 178.825 152.178 180.5 154.249 180.5Z" fill="#85858A"/>
<path d="M165.498 176.754C165.498 178.825 167.179 180.5 169.25 180.5C171.321 180.5 172.996 178.824 172.996 176.754C172.996 174.683 171.321 173.002 169.25 173.002C167.179 173.002 165.498 174.682 165.498 176.754Z" fill="#85858A"/>
<path d="M60.4961 169.25C60.4961 167.179 58.8155 165.504 56.75 165.504C54.6736 165.504 52.998 167.18 52.998 169.25C52.998 171.326 54.6736 173.002 56.75 173.002C58.8155 173.002 60.4961 171.326 60.4961 169.25Z" fill="#85858A"/>
<path d="M71.746 165.504C69.6752 165.504 68 167.18 68 169.25C68 171.326 69.6756 173.002 71.746 173.002C73.8171 173.002 75.498 171.326 75.498 169.25C75.498 167.18 73.8171 165.504 71.746 165.504Z" fill="#85858A"/>
<path d="M79.25 165.504C77.1736 165.504 75.498 167.18 75.498 169.25C75.498 171.326 77.1736 173.002 79.25 173.002C81.3212 173.002 82.9964 171.326 82.9964 169.25C82.9964 167.18 81.3212 165.504 79.25 165.504Z" fill="#85858A"/>
<path d="M86.7482 165.504C84.6771 165.504 82.9966 167.18 82.9966 169.25C82.9966 171.326 84.6771 173.002 86.7482 173.002C88.8193 173.002 90.5002 171.326 90.5002 169.25C90.5002 167.18 88.8193 165.504 86.7482 165.504Z" fill="#85858A"/>
<path d="M90.5 169.25C90.5 171.326 92.1752 173.002 94.246 173.002C96.3168 173.002 97.998 171.326 97.998 169.25C97.998 167.179 96.3171 165.504 94.246 165.504C92.1749 165.504 90.5 167.18 90.5 169.25Z" fill="#85858A"/>
<path d="M105.497 169.25C105.497 171.326 107.177 173.002 109.248 173.002C111.319 173.002 113 171.326 113 169.25C113 167.179 111.319 165.504 109.248 165.504C107.177 165.504 105.497 167.18 105.497 169.25Z" fill="#85858A"/>
<path d="M116.746 173.002C118.817 173.002 120.498 171.326 120.498 169.25C120.498 167.179 118.817 165.504 116.746 165.504C114.675 165.504 113 167.18 113 169.25C113 171.326 114.675 173.002 116.746 173.002Z" fill="#85858A"/>
<path d="M131.748 165.504C129.677 165.504 127.997 167.18 127.997 169.25C127.997 171.326 129.677 173.002 131.748 173.002C133.819 173.002 135.5 171.326 135.5 169.25C135.5 167.18 133.819 165.504 131.748 165.504Z" fill="#85858A"/>
<path d="M142.998 169.25C142.998 167.179 141.317 165.504 139.246 165.504C137.175 165.504 135.5 167.18 135.5 169.25C135.5 171.326 137.175 173.002 139.246 173.002C141.317 173.002 142.998 171.326 142.998 169.25Z" fill="#85858A"/>
<path d="M142.998 169.25C142.998 171.326 144.679 173.002 146.75 173.002C148.821 173.002 150.496 171.326 150.496 169.25C150.496 167.179 148.821 165.504 146.75 165.504C144.679 165.504 142.998 167.18 142.998 169.25Z" fill="#85858A"/>
<path d="M161.746 165.504C159.675 165.504 158 167.18 158 169.25C158 171.326 159.676 173.002 161.746 173.002C163.817 173.002 165.498 171.326 165.498 169.25C165.498 167.18 163.817 165.504 161.746 165.504Z" fill="#85858A"/>
<path d="M172.996 169.25C172.996 167.179 171.321 165.504 169.25 165.504C167.179 165.504 165.498 167.18 165.498 169.25C165.498 171.326 167.179 173.002 169.25 173.002C171.321 173.002 172.996 171.326 172.996 169.25Z" fill="#85858A"/>
<path d="M64.2481 158C62.177 158 60.4961 159.681 60.4961 161.752C60.4961 163.823 62.177 165.504 64.2481 165.504C66.3192 165.504 68.0001 163.823 68.0001 161.752C68.0001 159.681 66.3192 158 64.2481 158Z" fill="#85858A"/>
<path d="M75.498 161.752C75.498 159.681 73.8171 158 71.746 158C69.6752 158 68 159.681 68 161.752C68 163.823 69.6756 165.504 71.746 165.504C73.8171 165.504 75.498 163.823 75.498 161.752Z" fill="#85858A"/>
<path d="M94.246 158C92.1749 158 90.5 159.681 90.5 161.752C90.5 163.823 92.1752 165.504 94.246 165.504C96.3168 165.504 97.998 163.823 97.998 161.752C97.998 159.681 96.3171 158 94.246 158Z" fill="#85858A"/>
<path d="M97.998 161.752C97.998 163.823 99.6789 165.504 101.75 165.504C103.821 165.504 105.496 163.823 105.496 161.752C105.496 159.681 103.821 158 101.75 158C99.6793 158 97.998 159.681 97.998 161.752Z" fill="#85858A"/>
<path d="M109.248 165.504C111.319 165.504 113 163.823 113 161.752C113 159.681 111.319 158 109.248 158C107.177 158 105.497 159.681 105.497 161.752C105.497 163.823 107.177 165.504 109.248 165.504Z" fill="#85858A"/>
<path d="M124.25 158C122.179 158 120.498 159.681 120.498 161.752C120.498 163.823 122.179 165.504 124.25 165.504C126.321 165.504 127.996 163.823 127.996 161.752C127.996 159.681 126.321 158 124.25 158Z" fill="#85858A"/>
<path d="M135.5 161.752C135.5 159.681 133.819 158 131.748 158C129.677 158 127.997 159.681 127.997 161.752C127.997 163.823 129.677 165.504 131.748 165.504C133.819 165.504 135.5 163.823 135.5 161.752Z" fill="#85858A"/>
<path d="M142.998 161.752C142.998 163.823 144.679 165.504 146.75 165.504C148.821 165.504 150.496 163.823 150.496 161.752C150.496 159.681 148.821 158 146.75 158C144.679 158 142.998 159.681 142.998 161.752Z" fill="#85858A"/>
<path d="M165.498 161.752C165.498 159.681 163.817 158 161.746 158C159.675 158 158 159.681 158 161.752C158 163.823 159.676 165.504 161.746 165.504C163.817 165.504 165.498 163.823 165.498 161.752Z" fill="#85858A"/>
<path d="M172.997 161.752C172.997 163.823 174.677 165.504 176.749 165.504C178.819 165.504 180.5 163.823 180.5 161.752C180.5 159.681 178.819 158 176.749 158C174.678 158 172.997 159.681 172.997 161.752Z" fill="#85858A"/>
<path d="M56.75 150.502C54.6736 150.502 52.998 152.182 52.998 154.254C52.998 156.325 54.6736 158 56.75 158C58.8155 158 60.4961 156.324 60.4961 154.254C60.4961 152.183 58.8155 150.502 56.75 150.502Z" fill="#85858A"/>
<path d="M68.0001 154.254C68.0001 152.182 66.3192 150.502 64.2481 150.502C62.177 150.502 60.4961 152.182 60.4961 154.254C60.4961 156.325 62.177 158 64.2481 158C66.3192 158 68.0001 156.325 68.0001 154.254Z" fill="#85858A"/>
<path d="M71.746 158C73.8171 158 75.498 156.324 75.498 154.254C75.498 152.183 73.8171 150.502 71.746 150.502C69.6752 150.502 68 152.182 68 154.254C68 156.325 69.6756 158 71.746 158Z" fill="#85858A"/>
<path d="M97.998 154.254C97.998 152.182 96.3171 150.502 94.246 150.502C92.1749 150.502 90.5 152.182 90.5 154.254C90.5 156.325 92.1752 158 94.246 158C96.3168 158 97.998 156.325 97.998 154.254Z" fill="#85858A"/>
<path d="M97.998 154.254C97.998 156.325 99.6789 158 101.75 158C103.821 158 105.496 156.324 105.496 154.254C105.496 152.183 103.821 150.502 101.75 150.502C99.6793 150.502 97.998 152.182 97.998 154.254Z" fill="#85858A"/>
<path d="M116.746 150.502C114.675 150.502 113 152.182 113 154.254C113 156.325 114.675 158 116.746 158C118.817 158 120.498 156.324 120.498 154.254C120.498 152.183 118.817 150.502 116.746 150.502Z" fill="#85858A"/>
<path d="M165.498 154.254C165.498 156.325 167.179 158 169.25 158C171.321 158 172.996 156.324 172.996 154.254C172.996 152.183 171.321 150.502 169.25 150.502C167.179 150.502 165.498 152.182 165.498 154.254Z" fill="#85858A"/>
<path d="M176.749 158C178.819 158 180.5 156.324 180.5 154.254C180.5 152.183 178.819 150.502 176.749 150.502C174.677 150.502 172.997 152.182 172.997 154.254C172.997 156.325 174.678 158 176.749 158Z" fill="#85858A"/>
<path d="M60.4961 146.75C60.4961 144.679 58.8155 143.004 56.75 143.004C54.6736 143.004 52.998 144.68 52.998 146.75C52.998 148.826 54.6736 150.502 56.75 150.502C58.8155 150.502 60.4961 148.826 60.4961 146.75Z" fill="#85858A"/>
<path d="M75.498 146.75C75.498 144.679 73.8171 143.004 71.746 143.004C69.6752 143.004 68 144.68 68 146.75C68 148.826 69.6756 150.502 71.746 150.502C73.8171 150.502 75.498 148.826 75.498 146.75Z" fill="#85858A"/>
<path d="M79.25 150.502C81.3212 150.502 82.9964 148.826 82.9964 146.75C82.9964 144.679 81.3208 143.004 79.25 143.004C77.1736 143.004 75.498 144.68 75.498 146.75C75.498 148.826 77.1736 150.502 79.25 150.502Z" fill="#85858A"/>
<path d="M97.998 146.75C97.998 144.679 96.3171 143.004 94.246 143.004C92.1749 143.004 90.5 144.679 90.5 146.75C90.5 148.826 92.1752 150.502 94.246 150.502C96.3168 150.502 97.998 148.826 97.998 146.75Z" fill="#85858A"/>
<path d="M97.998 146.75C97.998 148.826 99.6789 150.502 101.75 150.502C103.821 150.502 105.496 148.826 105.496 146.75C105.496 144.679 103.821 143.004 101.75 143.004C99.6793 143.004 97.998 144.679 97.998 146.75Z" fill="#85858A"/>
<path d="M120.498 146.75C120.498 144.679 118.817 143.004 116.746 143.004C114.675 143.004 113 144.68 113 146.75C113 148.826 114.675 150.502 116.746 150.502C118.817 150.502 120.498 148.826 120.498 146.75Z" fill="#85858A"/>
<path d="M165.498 146.75C165.498 148.826 167.179 150.502 169.25 150.502C171.321 150.502 172.996 148.826 172.996 146.75C172.996 144.679 171.321 143.004 169.25 143.004C167.179 143.004 165.498 144.679 165.498 146.75Z" fill="#85858A"/>
<path d="M60.4961 139.252C60.4961 137.181 58.8155 135.5 56.75 135.5C54.6736 135.5 52.998 137.181 52.998 139.252C52.998 141.323 54.6736 143.004 56.75 143.004C58.8155 143.004 60.4961 141.323 60.4961 139.252Z" fill="#85858A"/>
<path d="M75.498 139.252C75.498 137.181 73.8171 135.5 71.746 135.5C69.6752 135.5 68 137.181 68 139.252C68 141.323 69.6756 143.004 71.746 143.004C73.8171 143.004 75.498 141.323 75.498 139.252Z" fill="#85858A"/>
<path d="M82.9966 139.252C82.9966 141.323 84.6771 143.004 86.7482 143.004C88.8193 143.004 90.5002 141.323 90.5002 139.252C90.5002 137.181 88.8193 135.5 86.7482 135.5C84.6771 135.5 82.9966 137.181 82.9966 139.252Z" fill="#85858A"/>
<path d="M101.75 135.5C99.6789 135.5 97.998 137.181 97.998 139.252C97.998 141.323 99.6789 143.004 101.75 143.004C103.821 143.004 105.496 141.323 105.496 139.252C105.496 137.181 103.821 135.5 101.75 135.5Z" fill="#85858A"/>
<path d="M105.497 139.252C105.497 141.323 107.177 143.004 109.248 143.004C111.319 143.004 113 141.323 113 139.252C113 137.181 111.319 135.5 109.248 135.5C107.177 135.5 105.497 137.181 105.497 139.252Z" fill="#85858A"/>
<path d="M161.746 135.5C159.675 135.5 158 137.181 158 139.252C158 141.323 159.676 143.004 161.746 143.004C163.817 143.004 165.498 141.323 165.498 139.252C165.498 137.181 163.817 135.5 161.746 135.5Z" fill="#85858A"/>
<path d="M169.25 135.5C167.179 135.5 165.498 137.181 165.498 139.252C165.498 141.323 167.179 143.004 169.25 143.004C171.321 143.004 172.996 141.323 172.996 139.252C172.996 137.181 171.321 135.5 169.25 135.5Z" fill="#85858A"/>
<path d="M172.997 139.252C172.997 141.323 174.677 143.004 176.749 143.004C178.819 143.004 180.5 141.323 180.5 139.252C180.5 137.181 178.819 135.5 176.749 135.5C174.678 135.5 172.997 137.181 172.997 139.252Z" fill="#85858A"/>
<path d="M64.2481 128.002C62.177 128.002 60.4961 129.683 60.4961 131.754C60.4961 133.825 62.177 135.5 64.2481 135.5C66.3192 135.5 68.0001 133.824 68.0001 131.754C68.0001 129.683 66.3192 128.002 64.2481 128.002Z" fill="#85858A"/>
<path d="M75.498 131.754C75.498 129.683 73.8171 128.002 71.746 128.002C69.6752 128.002 68 129.683 68 131.754C68 133.825 69.6756 135.5 71.746 135.5C73.8171 135.5 75.498 133.824 75.498 131.754Z" fill="#85858A"/>
<path d="M75.498 131.754C75.498 133.825 77.1736 135.5 79.25 135.5C81.3212 135.5 82.9964 133.824 82.9964 131.754C82.9964 129.683 81.3208 128.002 79.25 128.002C77.1736 128.002 75.498 129.683 75.498 131.754Z" fill="#85858A"/>
<path d="M86.7482 135.5C88.8193 135.5 90.5002 133.824 90.5002 131.754C90.5002 129.683 88.8193 128.002 86.7482 128.002C84.6771 128.002 82.9966 129.683 82.9966 131.754C82.9966 133.825 84.6775 135.5 86.7482 135.5Z" fill="#85858A"/>
<path d="M94.246 135.5C96.3171 135.5 97.998 133.824 97.998 131.754C97.998 129.683 96.3171 128.002 94.246 128.002C92.1749 128.002 90.5 129.683 90.5 131.754C90.5 133.825 92.1752 135.5 94.246 135.5Z" fill="#85858A"/>
<path d="M109.248 128.002C107.177 128.002 105.497 129.683 105.497 131.754C105.497 133.825 107.177 135.5 109.248 135.5C111.319 135.5 113 133.824 113 131.754C113 129.683 111.319 128.002 109.248 128.002Z" fill="#85858A"/>
<path d="M116.746 128.002C114.675 128.002 113 129.683 113 131.754C113 133.825 114.675 135.5 116.746 135.5C118.817 135.5 120.498 133.824 120.498 131.754C120.498 129.683 118.817 128.002 116.746 128.002Z" fill="#85858A"/>
<path d="M161.746 135.5C163.817 135.5 165.498 133.824 165.498 131.754C165.498 129.683 163.817 128.002 161.746 128.002C159.675 128.002 158 129.683 158 131.754C158 133.825 159.676 135.5 161.746 135.5Z" fill="#85858A"/>
<path d="M180.5 131.754C180.5 129.683 178.819 128.002 176.749 128.002C174.677 128.002 172.997 129.683 172.997 131.754C172.997 133.825 174.677 135.5 176.749 135.5C178.819 135.5 180.5 133.824 180.5 131.754Z" fill="#85858A"/>
<path d="M4.24602 120.504C2.1749 120.504 0.5 122.179 0.5 124.25C0.5 126.326 2.17525 128.002 4.24602 128.002C6.31678 128.002 7.99801 126.326 7.99801 124.25C7.99801 122.179 6.31713 120.504 4.24602 120.504Z" fill="#85858A"/>
<path d="M11.75 120.504C9.67365 120.504 7.99805 122.179 7.99805 124.25C7.99805 126.326 9.67365 128.002 11.75 128.002C13.8152 128.002 15.4961 126.326 15.4961 124.25C15.4961 122.179 13.8152 120.504 11.75 120.504Z" fill="#85858A"/>
<path d="M15.4961 124.25C15.4961 126.326 17.177 128.002 19.2481 128.002C21.3192 128.002 23.0001 126.326 23.0001 124.25C23.0001 122.179 21.3192 120.504 19.2481 120.504C17.177 120.504 15.4961 122.179 15.4961 124.25Z" fill="#85858A"/>
<path d="M30.498 124.25C30.498 126.326 32.1736 128.002 34.25 128.002C36.3152 128.002 37.9961 126.326 37.9961 124.25C37.9961 122.179 36.3152 120.504 34.25 120.504C32.1736 120.504 30.498 122.179 30.498 124.25Z" fill="#85858A"/>
<path d="M45.5 124.25C45.5 126.326 47.1756 128.002 49.246 128.002C51.3171 128.002 52.998 126.326 52.998 124.25C52.998 122.179 51.3171 120.504 49.246 120.504C47.1756 120.504 45.5 122.179 45.5 124.25Z" fill="#85858A"/>
<path d="M56.75 128.002C58.8155 128.002 60.4961 126.326 60.4961 124.25C60.4961 122.179 58.8155 120.504 56.75 120.504C54.6736 120.504 52.998 122.179 52.998 124.25C52.998 126.326 54.6736 128.002 56.75 128.002Z" fill="#85858A"/>
<path d="M75.498 124.25C75.498 122.179 73.8171 120.504 71.746 120.504C69.6752 120.504 68 122.179 68 124.25C68 126.326 69.6756 128.002 71.746 128.002C73.8171 128.002 75.498 126.326 75.498 124.25Z" fill="#85858A"/>
<path d="M75.498 124.25C75.498 126.326 77.1736 128.002 79.25 128.002C81.3212 128.002 82.9964 126.326 82.9964 124.25C82.9964 122.179 81.3208 120.504 79.25 120.504C77.1736 120.504 75.498 122.179 75.498 124.25Z" fill="#85858A"/>
<path d="M97.998 124.25C97.998 122.179 96.3171 120.504 94.246 120.504C92.1749 120.504 90.5 122.179 90.5 124.25C90.5 126.326 92.1752 128.002 94.246 128.002C96.3168 128.002 97.998 126.326 97.998 124.25Z" fill="#85858A"/>
<path d="M120.498 124.25C120.498 122.179 118.817 120.504 116.746 120.504C114.675 120.504 113 122.179 113 124.25C113 126.326 114.675 128.002 116.746 128.002C118.817 128.002 120.498 126.326 120.498 124.25Z" fill="#85858A"/>
<path d="M169.25 128.002C171.321 128.002 172.996 126.326 172.996 124.25C172.996 122.179 171.321 120.504 169.25 120.504C167.179 120.504 165.498 122.179 165.498 124.25C165.498 126.326 167.179 128.002 169.25 128.002Z" fill="#85858A"/>
<path d="M7.99801 116.752C7.99801 114.681 6.31713 113 4.24602 113C2.1749 113 0.5 114.681 0.5 116.752C0.5 118.823 2.17525 120.504 4.24602 120.504C6.31678 120.504 7.99801 118.823 7.99801 116.752Z" fill="#85858A"/>
<path d="M15.4961 116.752C15.4961 118.823 17.177 120.504 19.2481 120.504C21.3192 120.504 23.0001 118.823 23.0001 116.752C23.0001 114.681 21.3192 113 19.2481 113C17.177 113 15.4961 114.681 15.4961 116.752Z" fill="#85858A"/>
<path d="M30.498 116.752C30.498 118.823 32.1736 120.504 34.25 120.504C36.3152 120.504 37.9961 118.823 37.9961 116.752C37.9961 114.681 36.3152 113 34.25 113C32.1736 113 30.498 114.681 30.498 116.752Z" fill="#85858A"/>
<path d="M45.5 116.752C45.5 118.823 47.1756 120.504 49.246 120.504C51.3171 120.504 52.998 118.823 52.998 116.752C52.998 114.681 51.3171 113 49.246 113C47.1756 113 45.5 114.681 45.5 116.752Z" fill="#85858A"/>
<path d="M64.2481 113C62.177 113 60.4961 114.681 60.4961 116.752C60.4961 118.823 62.177 120.504 64.2481 120.504C66.3192 120.504 68.0001 118.823 68.0001 116.752C68.0001 114.681 66.3192 113 64.2481 113Z" fill="#85858A"/>
<path d="M75.498 116.752C75.498 114.681 73.8171 113 71.746 113C69.6752 113 68 114.681 68 116.752C68 118.823 69.6756 120.504 71.746 120.504C73.8171 120.504 75.498 118.823 75.498 116.752Z" fill="#85858A"/>
<path d="M79.25 120.504C81.3212 120.504 82.9964 118.823 82.9964 116.752C82.9964 114.681 81.3208 113 79.25 113C77.1736 113 75.498 114.681 75.498 116.752C75.498 118.823 77.1736 120.504 79.25 120.504Z" fill="#85858A"/>
<path d="M97.998 116.752C97.998 114.681 96.3171 113 94.246 113C92.1749 113 90.5 114.681 90.5 116.752C90.5 118.823 92.1752 120.504 94.246 120.504C96.3168 120.504 97.998 118.823 97.998 116.752Z" fill="#85858A"/>
<path d="M105.497 116.752C105.497 118.823 107.177 120.504 109.248 120.504C111.319 120.504 113 118.823 113 116.752C113 114.681 111.319 113 109.248 113C107.177 113 105.497 114.681 105.497 116.752Z" fill="#85858A"/>
<path d="M135.5 116.752C135.5 114.681 133.819 113 131.748 113C129.677 113 127.997 114.681 127.997 116.752C127.997 118.823 129.677 120.504 131.748 120.504C133.819 120.504 135.5 118.823 135.5 116.752Z" fill="#85858A"/>
<path d="M139.246 120.504C141.317 120.504 142.998 118.823 142.998 116.752C142.998 114.681 141.317 113 139.246 113C137.175 113 135.5 114.681 135.5 116.752C135.5 118.823 137.175 120.504 139.246 120.504Z" fill="#85858A"/>
<path d="M158 116.752C158 114.681 156.319 113 154.249 113C152.177 113 150.497 114.681 150.497 116.752C150.497 118.823 152.177 120.504 154.249 120.504C156.319 120.504 158 118.823 158 116.752Z" fill="#85858A"/>
<path d="M161.746 120.504C163.817 120.504 165.498 118.823 165.498 116.752C165.498 114.681 163.817 113 161.746 113C159.675 113 158 114.681 158 116.752C158 118.823 159.676 120.504 161.746 120.504Z" fill="#85858A"/>
<path d="M172.997 116.752C172.997 118.823 174.677 120.504 176.749 120.504C178.819 120.504 180.5 118.823 180.5 116.752C180.5 114.681 178.819 113 176.749 113C174.678 113 172.997 114.681 172.997 116.752Z" fill="#85858A"/>
<path d="M7.99801 109.254C7.99801 107.183 6.31713 105.502 4.24602 105.502C2.1749 105.502 0.5 107.183 0.5 109.254C0.5 111.325 2.17525 113 4.24602 113C6.31678 113 7.99801 111.324 7.99801 109.254Z" fill="#85858A"/>
<path d="M19.2481 105.502C17.177 105.502 15.4961 107.183 15.4961 109.254C15.4961 111.325 17.177 113 19.2481 113C21.3192 113 23.0001 111.324 23.0001 109.254C23.0001 107.183 21.3192 105.502 19.2481 105.502Z" fill="#85858A"/>
<path d="M26.746 105.502C24.6749 105.502 23 107.183 23 109.254C23 111.325 24.6752 113 26.746 113C28.8168 113 30.498 111.324 30.498 109.254C30.498 107.183 28.8171 105.502 26.746 105.502Z" fill="#85858A"/>
<path d="M34.25 105.502C32.1736 105.502 30.498 107.183 30.498 109.254C30.498 111.325 32.1736 113 34.25 113C36.3152 113 37.9961 111.324 37.9961 109.254C37.9961 107.183 36.3152 105.502 34.25 105.502Z" fill="#85858A"/>
<path d="M41.7481 105.502C39.677 105.502 37.9961 107.183 37.9961 109.254C37.9961 111.325 39.677 113 41.7481 113C43.8192 113 45.5001 111.324 45.5001 109.254C45.5001 107.183 43.8192 105.502 41.7481 105.502Z" fill="#85858A"/>
<path d="M49.246 105.502C47.1752 105.502 45.5 107.183 45.5 109.254C45.5 111.325 47.1756 113 49.246 113C51.3171 113 52.998 111.324 52.998 109.254C52.998 107.183 51.3171 105.502 49.246 105.502Z" fill="#85858A"/>
<path d="M52.998 109.254C52.998 111.325 54.6736 113 56.75 113C58.8155 113 60.4961 111.324 60.4961 109.254C60.4961 107.183 58.8155 105.502 56.75 105.502C54.6736 105.502 52.998 107.183 52.998 109.254Z" fill="#85858A"/>
<path d="M82.9964 109.254C82.9964 107.183 81.3208 105.502 79.25 105.502C77.1736 105.502 75.498 107.183 75.498 109.254C75.498 111.325 77.1736 113 79.25 113C81.3212 113 82.9964 111.324 82.9964 109.254Z" fill="#85858A"/>
<path d="M97.998 109.254C97.998 107.183 96.3171 105.502 94.246 105.502C92.1749 105.502 90.5 107.183 90.5 109.254C90.5 111.325 92.1752 113 94.246 113C96.3168 113 97.998 111.324 97.998 109.254Z" fill="#85858A"/>
<path d="M105.497 109.254C105.497 111.325 107.177 113 109.248 113C111.319 113 113 111.324 113 109.254C113 107.183 111.319 105.502 109.248 105.502C107.177 105.502 105.497 107.183 105.497 109.254Z" fill="#85858A"/>
<path d="M116.746 113C118.817 113 120.498 111.324 120.498 109.254C120.498 107.183 118.817 105.502 116.746 105.502C114.675 105.502 113 107.183 113 109.254C113 111.325 114.675 113 116.746 113Z" fill="#85858A"/>
<path d="M142.998 109.254C142.998 107.183 141.317 105.502 139.246 105.502C137.175 105.502 135.5 107.183 135.5 109.254C135.5 111.325 137.175 113 139.246 113C141.317 113 142.998 111.324 142.998 109.254Z" fill="#85858A"/>
<path d="M158 109.254C158 107.183 156.319 105.502 154.249 105.502C152.177 105.502 150.497 107.183 150.497 109.254C150.497 111.325 152.177 113 154.249 113C156.319 113 158 111.324 158 109.254Z" fill="#85858A"/>
<path d="M172.997 109.254C172.997 111.325 174.677 113 176.749 113C178.819 113 180.5 111.324 180.5 109.254C180.5 107.183 178.819 105.502 176.749 105.502C174.678 105.502 172.997 107.183 172.997 109.254Z" fill="#85858A"/>
<path d="M11.75 98.0036C9.67365 98.0036 7.99805 99.6792 7.99805 101.75C7.99805 103.826 9.67365 105.502 11.75 105.502C13.8152 105.502 15.4961 103.826 15.4961 101.75C15.4961 99.6789 13.8152 98.0036 11.75 98.0036Z" fill="#85858A"/>
<path d="M23.0001 101.75C23.0001 99.6789 21.3192 98.0036 19.2481 98.0036C17.177 98.0036 15.4961 99.6792 15.4961 101.75C15.4961 103.826 17.177 105.502 19.2481 105.502C21.3192 105.502 23.0001 103.826 23.0001 101.75Z" fill="#85858A"/>
<path d="M37.9961 101.75C37.9961 103.826 39.677 105.502 41.7481 105.502C43.8192 105.502 45.5001 103.826 45.5001 101.75C45.5001 99.6789 43.8192 98.0036 41.7481 98.0036C39.677 98.0036 37.9961 99.6789 37.9961 101.75Z" fill="#85858A"/>
<path d="M56.75 98.0036C54.6736 98.0036 52.998 99.6792 52.998 101.75C52.998 103.826 54.6736 105.502 56.75 105.502C58.8155 105.502 60.4961 103.826 60.4961 101.75C60.4961 99.6789 58.8155 98.0036 56.75 98.0036Z" fill="#85858A"/>
<path d="M60.4961 101.75C60.4961 103.826 62.177 105.502 64.2481 105.502C66.3192 105.502 68.0001 103.826 68.0001 101.75C68.0001 99.6789 66.3192 98.0036 64.2481 98.0036C62.177 98.0036 60.4961 99.6789 60.4961 101.75Z" fill="#85858A"/>
<path d="M82.9966 101.75C82.9966 103.826 84.6771 105.502 86.7482 105.502C88.8193 105.502 90.5002 103.826 90.5002 101.75C90.5002 99.6789 88.8193 98.0036 86.7482 98.0036C84.6771 98.0036 82.9966 99.6789 82.9966 101.75Z" fill="#85858A"/>
<path d="M101.75 98.0036C99.6789 98.0036 97.998 99.6792 97.998 101.75C97.998 103.826 99.6789 105.502 101.75 105.502C103.821 105.502 105.496 103.826 105.496 101.75C105.496 99.6789 103.821 98.0036 101.75 98.0036Z" fill="#85858A"/>
<path d="M105.497 101.75C105.497 103.826 107.177 105.502 109.248 105.502C111.319 105.502 113 103.826 113 101.75C113 99.6789 111.319 98.0036 109.248 98.0036C107.177 98.0036 105.497 99.6789 105.497 101.75Z" fill="#85858A"/>
<path d="M131.748 98.0036C129.677 98.0036 127.997 99.6792 127.997 101.75C127.997 103.826 129.677 105.502 131.748 105.502C133.819 105.502 135.5 103.826 135.5 101.75C135.5 99.6789 133.819 98.0036 131.748 98.0036Z" fill="#85858A"/>
<path d="M142.998 101.75C142.998 99.6789 141.317 98.0036 139.246 98.0036C137.175 98.0036 135.5 99.6792 135.5 101.75C135.5 103.826 137.175 105.502 139.246 105.502C141.317 105.502 142.998 103.826 142.998 101.75Z" fill="#85858A"/>
<path d="M146.75 105.502C148.821 105.502 150.496 103.826 150.496 101.75C150.496 99.6789 148.821 98.0036 146.75 98.0036C144.679 98.0036 142.998 99.6792 142.998 101.75C142.998 103.826 144.679 105.502 146.75 105.502Z" fill="#85858A"/>
<path d="M161.746 98.0036C159.675 98.0036 158 99.6792 158 101.75C158 103.826 159.676 105.502 161.746 105.502C163.817 105.502 165.498 103.826 165.498 101.75C165.498 99.6789 163.817 98.0036 161.746 98.0036Z" fill="#85858A"/>
<path d="M169.25 98.0036C167.179 98.0036 165.498 99.6792 165.498 101.75C165.498 103.826 167.179 105.502 169.25 105.502C171.321 105.502 172.996 103.826 172.996 101.75C172.996 99.6789 171.321 98.0036 169.25 98.0036Z" fill="#85858A"/>
<path d="M180.5 101.75C180.5 99.6789 178.819 98.0036 176.749 98.0036C174.677 98.0036 172.997 99.6792 172.997 101.75C172.997 103.826 174.677 105.502 176.749 105.502C178.819 105.502 180.5 103.826 180.5 101.75Z" fill="#85858A"/>
<path d="M4.24602 90.5C2.1749 90.5 0.5 92.1809 0.5 94.252C0.5 96.3228 2.17525 98.0036 4.24602 98.0036C6.31678 98.0036 7.99801 96.3228 7.99801 94.252C7.99801 92.1809 6.31713 90.5 4.24602 90.5Z" fill="#85858A"/>
<path d="M15.4961 94.252C15.4961 92.1809 13.8152 90.5 11.75 90.5C9.67365 90.5 7.99805 92.1809 7.99805 94.252C7.99805 96.3228 9.67365 98.0036 11.75 98.0036C13.8152 98.0036 15.4961 96.3228 15.4961 94.252Z" fill="#85858A"/>
<path d="M19.2481 90.5C17.177 90.5 15.4961 92.1809 15.4961 94.252C15.4961 96.3228 17.177 98.0036 19.2481 98.0036C21.3192 98.0036 23.0001 96.3228 23.0001 94.252C23.0001 92.1809 21.3192 90.5 19.2481 90.5Z" fill="#85858A"/>
<path d="M26.746 90.5C24.6749 90.5 23 92.1809 23 94.252C23 96.3228 24.6752 98.0036 26.746 98.0036C28.8168 98.0036 30.498 96.3228 30.498 94.252C30.498 92.1809 28.8171 90.5 26.746 90.5Z" fill="#85858A"/>
<path d="M34.25 90.5C32.1736 90.5 30.498 92.1809 30.498 94.252C30.498 96.3228 32.1736 98.0036 34.25 98.0036C36.3152 98.0036 37.9961 96.3228 37.9961 94.252C37.9961 92.1809 36.3152 90.5 34.25 90.5Z" fill="#85858A"/>
<path d="M37.9961 94.252C37.9961 96.3228 39.677 98.0036 41.7481 98.0036C43.8192 98.0036 45.5001 96.3228 45.5001 94.252C45.5001 92.1809 43.8192 90.5 41.7481 90.5C39.677 90.5 37.9961 92.1809 37.9961 94.252Z" fill="#85858A"/>
<path d="M49.246 98.0036C51.3171 98.0036 52.998 96.3228 52.998 94.252C52.998 92.1809 51.3171 90.5 49.246 90.5C47.1752 90.5 45.5 92.1809 45.5 94.252C45.5 96.3228 47.1756 98.0036 49.246 98.0036Z" fill="#85858A"/>
<path d="M60.4961 94.252C60.4961 96.3228 62.177 98.0036 64.2481 98.0036C66.3192 98.0036 68.0001 96.3228 68.0001 94.252C68.0001 92.1809 66.3192 90.5 64.2481 90.5C62.177 90.5 60.4961 92.1809 60.4961 94.252Z" fill="#85858A"/>
<path d="M71.746 98.0036C73.8171 98.0036 75.498 96.3228 75.498 94.252C75.498 92.1809 73.8171 90.5 71.746 90.5C69.6752 90.5 68 92.1809 68 94.252C68 96.3228 69.6756 98.0036 71.746 98.0036Z" fill="#85858A"/>
<path d="M79.25 98.0036C81.3212 98.0036 82.9964 96.3228 82.9964 94.252C82.9964 92.1809 81.3208 90.5 79.25 90.5C77.1736 90.5 75.498 92.1809 75.498 94.252C75.498 96.3228 77.1736 98.0036 79.25 98.0036Z" fill="#85858A"/>
<path d="M86.7482 98.0036C88.8193 98.0036 90.5002 96.3228 90.5002 94.252C90.5002 92.1809 88.8193 90.5 86.7482 90.5C84.6771 90.5 82.9966 92.1809 82.9966 94.252C82.9966 96.3228 84.6775 98.0036 86.7482 98.0036Z" fill="#85858A"/>
<path d="M105.496 94.252C105.496 92.1809 103.821 90.5 101.75 90.5C99.6793 90.5 97.998 92.1809 97.998 94.252C97.998 96.3228 99.6789 98.0036 101.75 98.0036C103.821 98.0036 105.496 96.3228 105.496 94.252Z" fill="#85858A"/>
<path d="M105.497 94.252C105.497 96.3228 107.177 98.0036 109.248 98.0036C111.319 98.0036 113 96.3228 113 94.252C113 92.1809 111.319 90.5 109.248 90.5C107.177 90.5 105.497 92.1809 105.497 94.252Z" fill="#85858A"/>
<path d="M124.25 90.5C122.179 90.5 120.498 92.1809 120.498 94.252C120.498 96.3228 122.179 98.0036 124.25 98.0036C126.321 98.0036 127.996 96.3228 127.996 94.252C127.996 92.1809 126.321 90.5 124.25 90.5Z" fill="#85858A"/>
<path d="M135.5 94.252C135.5 92.1809 133.819 90.5 131.748 90.5C129.677 90.5 127.997 92.1809 127.997 94.252C127.997 96.3228 129.677 98.0036 131.748 98.0036C133.819 98.0036 135.5 96.3228 135.5 94.252Z" fill="#85858A"/>
<path d="M150.497 94.252C150.497 96.3228 152.177 98.0036 154.249 98.0036C156.319 98.0036 158 96.3228 158 94.252C158 92.1809 156.319 90.5 154.249 90.5C152.178 90.5 150.497 92.1809 150.497 94.252Z" fill="#85858A"/>
<path d="M172.996 94.252C172.996 92.1809 171.321 90.5 169.25 90.5C167.179 90.5 165.498 92.1809 165.498 94.252C165.498 96.3228 167.179 98.0036 169.25 98.0036C171.321 98.0036 172.996 96.3228 172.996 94.252Z" fill="#85858A"/>
<path d="M7.99801 86.7536C7.99801 84.6825 6.31713 83.002 4.24602 83.002C2.1749 83.002 0.5 84.6825 0.5 86.7536C0.5 88.8247 2.1749 90.5 4.24602 90.5C6.31713 90.5 7.99801 88.8244 7.99801 86.7536Z" fill="#85858A"/>
<path d="M11.75 90.5C13.8152 90.5 15.4961 88.8244 15.4961 86.7536C15.4961 84.6828 13.8152 83.002 11.75 83.002C9.67365 83.002 7.99805 84.6825 7.99805 86.7536C7.99805 88.8247 9.67365 90.5 11.75 90.5Z" fill="#85858A"/>
<path d="M30.498 86.7536C30.498 84.6825 28.8171 83.002 26.746 83.002C24.6749 83.002 23 84.6825 23 86.7536C23 88.8247 24.6752 90.5 26.746 90.5C28.8168 90.5 30.498 88.8244 30.498 86.7536Z" fill="#85858A"/>
<path d="M37.9961 86.7536C37.9961 88.8247 39.677 90.5 41.7481 90.5C43.8192 90.5 45.5001 88.8244 45.5001 86.7536C45.5001 84.6828 43.8192 83.002 41.7481 83.002C39.677 83.002 37.9961 84.6825 37.9961 86.7536Z" fill="#85858A"/>
<path d="M52.998 86.7536C52.998 88.8247 54.6736 90.5 56.75 90.5C58.8155 90.5 60.4961 88.8244 60.4961 86.7536C60.4961 84.6828 58.8155 83.002 56.75 83.002C54.6736 83.002 52.998 84.6825 52.998 86.7536Z" fill="#85858A"/>
<path d="M60.4961 86.7536C60.4961 88.8247 62.177 90.5 64.2481 90.5C66.3192 90.5 68.0001 88.8244 68.0001 86.7536C68.0001 84.6828 66.3192 83.002 64.2481 83.002C62.177 83.002 60.4961 84.6825 60.4961 86.7536Z" fill="#85858A"/>
<path d="M97.998 86.7536C97.998 88.8247 99.6789 90.5 101.75 90.5C103.821 90.5 105.496 88.8244 105.496 86.7536C105.496 84.6828 103.821 83.002 101.75 83.002C99.6793 83.002 97.998 84.6825 97.998 86.7536Z" fill="#85858A"/>
<path d="M109.248 90.5C111.319 90.5 113 88.8244 113 86.7536C113 84.6828 111.319 83.002 109.248 83.002C107.177 83.002 105.497 84.6825 105.497 86.7536C105.497 88.8247 107.177 90.5 109.248 90.5Z" fill="#85858A"/>
<path d="M127.996 86.7536C127.996 84.6825 126.321 83.002 124.25 83.002C122.179 83.002 120.498 84.6825 120.498 86.7536C120.498 88.8247 122.179 90.5 124.25 90.5C126.321 90.5 127.996 88.8244 127.996 86.7536Z" fill="#85858A"/>
<path d="M139.246 83.002C137.175 83.002 135.5 84.6825 135.5 86.7536C135.5 88.8247 137.175 90.5 139.246 90.5C141.317 90.5 142.998 88.8244 142.998 86.7536C142.998 84.6828 141.317 83.002 139.246 83.002Z" fill="#85858A"/>
<path d="M142.998 86.7536C142.998 88.8247 144.679 90.5 146.75 90.5C148.821 90.5 150.496 88.8244 150.496 86.7536C150.496 84.6828 148.821 83.002 146.75 83.002C144.679 83.002 142.998 84.6825 142.998 86.7536Z" fill="#85858A"/>
<path d="M154.249 90.5C156.319 90.5 158 88.8244 158 86.7536C158 84.6828 156.319 83.002 154.249 83.002C152.177 83.002 150.497 84.6825 150.497 86.7536C150.497 88.8247 152.178 90.5 154.249 90.5Z" fill="#85858A"/>
<path d="M161.746 90.5C163.817 90.5 165.498 88.8244 165.498 86.7536C165.498 84.6828 163.817 83.002 161.746 83.002C159.675 83.002 158 84.6825 158 86.7536C158 88.8247 159.676 90.5 161.746 90.5Z" fill="#85858A"/>
<path d="M172.997 86.7536C172.997 88.8247 174.677 90.5 176.749 90.5C178.819 90.5 180.5 88.8244 180.5 86.7536C180.5 84.6828 178.819 83.002 176.749 83.002C174.678 83.002 172.997 84.6825 172.997 86.7536Z" fill="#85858A"/>
<path d="M15.4961 79.25C15.4961 77.1789 13.8152 75.5037 11.75 75.5037C9.67365 75.5037 7.99805 77.1793 7.99805 79.25C7.99805 81.3264 9.67365 83.002 11.75 83.002C13.8152 83.002 15.4961 81.3264 15.4961 79.25Z" fill="#85858A"/>
<path d="M19.2481 83.002C21.3192 83.002 23.0001 81.3264 23.0001 79.25C23.0001 77.1789 21.3192 75.5037 19.2481 75.5037C17.177 75.5037 15.4961 77.1793 15.4961 79.25C15.4961 81.3264 17.177 83.002 19.2481 83.002Z" fill="#85858A"/>
<path d="M26.746 83.002C28.8171 83.002 30.498 81.3264 30.498 79.25C30.498 77.1789 28.8171 75.5037 26.746 75.5037C24.6749 75.5037 23 77.1793 23 79.25C23 81.3264 24.6752 83.002 26.746 83.002Z" fill="#85858A"/>
<path d="M34.25 83.002C36.3152 83.002 37.9961 81.3264 37.9961 79.25C37.9961 77.1789 36.3152 75.5037 34.25 75.5037C32.1736 75.5037 30.498 77.1793 30.498 79.25C30.498 81.3264 32.1736 83.002 34.25 83.002Z" fill="#85858A"/>
<path d="M41.7481 83.002C43.8192 83.002 45.5001 81.3264 45.5001 79.25C45.5001 77.1789 43.8192 75.5037 41.7481 75.5037C39.677 75.5037 37.9961 77.1793 37.9961 79.25C37.9961 81.3264 39.677 83.002 41.7481 83.002Z" fill="#85858A"/>
<path d="M49.246 83.002C51.3171 83.002 52.998 81.3264 52.998 79.25C52.998 77.1789 51.3171 75.5037 49.246 75.5037C47.1752 75.5037 45.5 77.1793 45.5 79.25C45.5 81.3264 47.1756 83.002 49.246 83.002Z" fill="#85858A"/>
<path d="M52.998 79.25C52.998 81.3264 54.6736 83.002 56.75 83.002C58.8155 83.002 60.4961 81.3264 60.4961 79.25C60.4961 77.1789 58.8155 75.5037 56.75 75.5037C54.6736 75.5037 52.998 77.1789 52.998 79.25Z" fill="#85858A"/>
<path d="M64.2481 83.002C66.3192 83.002 68.0001 81.3264 68.0001 79.25C68.0001 77.1789 66.3192 75.5037 64.2481 75.5037C62.177 75.5037 60.4961 77.1793 60.4961 79.25C60.4961 81.3264 62.177 83.002 64.2481 83.002Z" fill="#85858A"/>
<path d="M71.746 83.002C73.8171 83.002 75.498 81.3264 75.498 79.25C75.498 77.1789 73.8171 75.5037 71.746 75.5037C69.6752 75.5037 68 77.1793 68 79.25C68 81.3264 69.6756 83.002 71.746 83.002Z" fill="#85858A"/>
<path d="M79.25 83.002C81.3212 83.002 82.9964 81.3264 82.9964 79.25C82.9964 77.1789 81.3208 75.5037 79.25 75.5037C77.1736 75.5037 75.498 77.1793 75.498 79.25C75.498 81.3264 77.1736 83.002 79.25 83.002Z" fill="#85858A"/>
<path d="M94.246 75.5037C92.1749 75.5037 90.5 77.1793 90.5 79.25C90.5 81.3264 92.1752 83.002 94.246 83.002C96.3168 83.002 97.998 81.3264 97.998 79.25C97.998 77.1789 96.3171 75.5037 94.246 75.5037Z" fill="#85858A"/>
<path d="M97.998 79.25C97.998 81.3264 99.6789 83.002 101.75 83.002C103.821 83.002 105.496 81.3264 105.496 79.25C105.496 77.1789 103.821 75.5037 101.75 75.5037C99.6793 75.5037 97.998 77.1789 97.998 79.25Z" fill="#85858A"/>
<path d="M127.996 79.25C127.996 77.1789 126.321 75.5037 124.25 75.5037C122.179 75.5037 120.498 77.1793 120.498 79.25C120.498 81.3264 122.179 83.002 124.25 83.002C126.321 83.002 127.996 81.3264 127.996 79.25Z" fill="#85858A"/>
<path d="M131.748 83.002C133.819 83.002 135.5 81.3264 135.5 79.25C135.5 77.1789 133.819 75.5037 131.748 75.5037C129.677 75.5037 127.997 77.1793 127.997 79.25C127.997 81.3264 129.678 83.002 131.748 83.002Z" fill="#85858A"/>
<path d="M142.998 79.25C142.998 81.3264 144.679 83.002 146.75 83.002C148.821 83.002 150.496 81.3264 150.496 79.25C150.496 77.1789 148.821 75.5037 146.75 75.5037C144.679 75.5037 142.998 77.1789 142.998 79.25Z" fill="#85858A"/>
<path d="M165.498 79.25C165.498 77.1789 163.817 75.5037 161.746 75.5037C159.675 75.5037 158 77.1793 158 79.25C158 81.3264 159.676 83.002 161.746 83.002C163.817 83.002 165.498 81.3264 165.498 79.25Z" fill="#85858A"/>
<path d="M172.997 79.25C172.997 81.3264 174.677 83.002 176.749 83.002C178.819 83.002 180.5 81.3264 180.5 79.25C180.5 77.1789 178.819 75.5037 176.749 75.5037C174.678 75.5037 172.997 77.1789 172.997 79.25Z" fill="#85858A"/>
<path d="M0.5 71.752C0.5 73.8228 2.17525 75.5036 4.24602 75.5036C6.31678 75.5036 7.99801 73.8228 7.99801 71.752C7.99801 69.6809 6.31713 68 4.24602 68C2.1749 68 0.5 69.6809 0.5 71.752Z" fill="#85858A"/>
<path d="M23.0001 71.752C23.0001 69.6809 21.3192 68 19.2481 68C17.177 68 15.4961 69.6809 15.4961 71.752C15.4961 73.8228 17.177 75.5036 19.2481 75.5036C21.3192 75.5036 23.0001 73.8224 23.0001 71.752Z" fill="#85858A"/>
<path d="M52.998 71.752C52.998 69.6809 51.3171 68 49.246 68C47.1752 68 45.5 69.6809 45.5 71.752C45.5 73.8228 47.1756 75.5036 49.246 75.5036C51.3171 75.5036 52.998 73.8224 52.998 71.752Z" fill="#85858A"/>
<path d="M52.998 71.752C52.998 73.8228 54.6736 75.5036 56.75 75.5036C58.8155 75.5036 60.4961 73.8228 60.4961 71.752C60.4961 69.6809 58.8155 68 56.75 68C54.6736 68 52.998 69.6809 52.998 71.752Z" fill="#85858A"/>
<path d="M75.498 71.752C75.498 69.6809 73.8171 68 71.746 68C69.6752 68 68 69.6809 68 71.752C68 73.8228 69.6756 75.5036 71.746 75.5036C73.8171 75.5036 75.498 73.8224 75.498 71.752Z" fill="#85858A"/>
<path d="M97.998 71.752C97.998 69.6809 96.3171 68 94.246 68C92.1749 68 90.5 69.6809 90.5 71.752C90.5 73.8228 92.1752 75.5036 94.246 75.5036C96.3168 75.5036 97.998 73.8224 97.998 71.752Z" fill="#85858A"/>
<path d="M101.75 68C99.6789 68 97.998 69.6809 97.998 71.752C97.998 73.8228 99.6789 75.5036 101.75 75.5036C103.821 75.5036 105.496 73.8228 105.496 71.752C105.496 69.6809 103.821 68 101.75 68Z" fill="#85858A"/>
<path d="M105.497 71.752C105.497 73.8228 107.177 75.5036 109.248 75.5036C111.319 75.5036 113 73.8228 113 71.752C113 69.6809 111.319 68 109.248 68C107.177 68 105.497 69.6809 105.497 71.752Z" fill="#85858A"/>
<path d="M116.746 75.5036C118.817 75.5036 120.498 73.8228 120.498 71.752C120.498 69.6809 118.817 68 116.746 68C114.675 68 113 69.6809 113 71.752C113 73.8224 114.675 75.5036 116.746 75.5036Z" fill="#85858A"/>
<path d="M135.5 71.752C135.5 69.6809 133.819 68 131.748 68C129.677 68 127.997 69.6809 127.997 71.752C127.997 73.8228 129.677 75.5036 131.748 75.5036C133.819 75.5036 135.5 73.8224 135.5 71.752Z" fill="#85858A"/>
<path d="M139.246 75.5036C141.317 75.5036 142.998 73.8228 142.998 71.752C142.998 69.6809 141.317 68 139.246 68C137.175 68 135.5 69.6809 135.5 71.752C135.5 73.8224 137.175 75.5036 139.246 75.5036Z" fill="#85858A"/>
<path d="M146.75 75.5036C148.821 75.5036 150.496 73.8228 150.496 71.752C150.496 69.6809 148.821 68 146.75 68C144.679 68 142.998 69.6809 142.998 71.752C142.998 73.8224 144.679 75.5036 146.75 75.5036Z" fill="#85858A"/>
<path d="M154.249 75.5036C156.319 75.5036 158 73.8228 158 71.752C158 69.6809 156.319 68 154.249 68C152.177 68 150.497 69.6809 150.497 71.752C150.497 73.8224 152.178 75.5036 154.249 75.5036Z" fill="#85858A"/>
<path d="M172.997 71.752C172.997 73.8228 174.677 75.5036 176.749 75.5036C178.819 75.5036 180.5 73.8228 180.5 71.752C180.5 69.6809 178.819 68 176.749 68C174.678 68 172.997 69.6809 172.997 71.752Z" fill="#85858A"/>
<path d="M4.24602 60.502C2.1749 60.502 0.5 62.1825 0.5 64.2537C0.5 66.3248 2.17525 68 4.24602 68C6.31678 68 7.99801 66.3244 7.99801 64.2537C7.99801 62.1829 6.31713 60.502 4.24602 60.502Z" fill="#85858A"/>
<path d="M7.99805 64.2537C7.99805 66.3248 9.67365 68 11.75 68C13.8152 68 15.4961 66.3244 15.4961 64.2537C15.4961 62.1829 13.8152 60.502 11.75 60.502C9.67365 60.502 7.99805 62.1825 7.99805 64.2537Z" fill="#85858A"/>
<path d="M23 64.2537C23 66.3248 24.6752 68 26.746 68C28.8168 68 30.498 66.3244 30.498 64.2537C30.498 62.1829 28.8171 60.502 26.746 60.502C24.6749 60.502 23 62.1825 23 64.2537Z" fill="#85858A"/>
<path d="M41.7481 60.502C39.677 60.502 37.9961 62.1825 37.9961 64.2537C37.9961 66.3248 39.677 68 41.7481 68C43.8192 68 45.5001 66.3244 45.5001 64.2537C45.5001 62.1829 43.8192 60.502 41.7481 60.502Z" fill="#85858A"/>
<path d="M52.998 64.2537C52.998 62.1825 51.3171 60.502 49.246 60.502C47.1752 60.502 45.5 62.1825 45.5 64.2537C45.5 66.3248 47.1756 68 49.246 68C51.3171 68 52.998 66.3244 52.998 64.2537Z" fill="#85858A"/>
<path d="M56.75 60.502C54.6736 60.502 52.998 62.1825 52.998 64.2537C52.998 66.3248 54.6736 68 56.75 68C58.8155 68 60.4961 66.3244 60.4961 64.2537C60.4961 62.1829 58.8155 60.502 56.75 60.502Z" fill="#85858A"/>
<path d="M60.4961 64.2537C60.4961 66.3248 62.177 68 64.2481 68C66.3192 68 68.0001 66.3244 68.0001 64.2537C68.0001 62.1829 66.3192 60.502 64.2481 60.502C62.177 60.502 60.4961 62.1825 60.4961 64.2537Z" fill="#85858A"/>
<path d="M79.25 60.502C77.1736 60.502 75.498 62.1825 75.498 64.2537C75.498 66.3248 77.1736 68 79.25 68C81.3212 68 82.9964 66.3244 82.9964 64.2537C82.9964 62.1829 81.3212 60.502 79.25 60.502Z" fill="#85858A"/>
<path d="M86.7482 60.502C84.6771 60.502 82.9966 62.1825 82.9966 64.2537C82.9966 66.3248 84.6771 68 86.7482 68C88.8193 68 90.5002 66.3244 90.5002 64.2537C90.5002 62.1829 88.8193 60.502 86.7482 60.502Z" fill="#85858A"/>
<path d="M97.998 64.2537C97.998 62.1825 96.3171 60.502 94.246 60.502C92.1749 60.502 90.5 62.1825 90.5 64.2537C90.5 66.3248 92.1752 68 94.246 68C96.3168 68 97.998 66.3244 97.998 64.2537Z" fill="#85858A"/>
<path d="M105.497 64.2537C105.497 66.3248 107.177 68 109.248 68C111.319 68 113 66.3244 113 64.2537C113 62.1829 111.319 60.502 109.248 60.502C107.177 60.502 105.497 62.1825 105.497 64.2537Z" fill="#85858A"/>
<path d="M124.25 60.502C122.179 60.502 120.498 62.1825 120.498 64.2537C120.498 66.3248 122.179 68 124.25 68C126.321 68 127.996 66.3244 127.996 64.2537C127.996 62.1829 126.321 60.502 124.25 60.502Z" fill="#85858A"/>
<path d="M135.5 64.2537C135.5 62.1825 133.819 60.502 131.748 60.502C129.677 60.502 127.997 62.1825 127.997 64.2537C127.997 66.3248 129.677 68 131.748 68C133.819 68 135.5 66.3244 135.5 64.2537Z" fill="#85858A"/>
<path d="M158 64.2537C158 62.1825 156.319 60.502 154.249 60.502C152.177 60.502 150.497 62.1825 150.497 64.2537C150.497 66.3248 152.177 68 154.249 68C156.319 68 158 66.3244 158 64.2537Z" fill="#85858A"/>
<path d="M161.746 68C163.817 68 165.498 66.3244 165.498 64.2537C165.498 62.1829 163.817 60.502 161.746 60.502C159.675 60.502 158 62.1825 158 64.2537C158 66.3248 159.676 68 161.746 68Z" fill="#85858A"/>
<path d="M180.5 64.2537C180.5 62.1825 178.819 60.502 176.749 60.502C174.677 60.502 172.997 62.1825 172.997 64.2537C172.997 66.3248 174.677 68 176.749 68C178.819 68 180.5 66.3244 180.5 64.2537Z" fill="#85858A"/>
<path d="M11.75 53.0036C9.67365 53.0036 7.99805 54.6792 7.99805 56.75C7.99805 58.8264 9.67365 60.502 11.75 60.502C13.8152 60.502 15.4961 58.8264 15.4961 56.75C15.4961 54.6788 13.8152 53.0036 11.75 53.0036Z" fill="#85858A"/>
<path d="M19.2481 53.0036C17.177 53.0036 15.4961 54.6792 15.4961 56.75C15.4961 58.8264 17.177 60.502 19.2481 60.502C21.3192 60.502 23.0001 58.8264 23.0001 56.75C23.0001 54.6788 21.3192 53.0036 19.2481 53.0036Z" fill="#85858A"/>
<path d="M26.746 53.0036C24.6749 53.0036 23 54.6792 23 56.75C23 58.8264 24.6752 60.502 26.746 60.502C28.8168 60.502 30.498 58.8264 30.498 56.75C30.498 54.6788 28.8171 53.0036 26.746 53.0036Z" fill="#85858A"/>
<path d="M34.25 53.0036C32.1736 53.0036 30.498 54.6792 30.498 56.75C30.498 58.8264 32.1736 60.502 34.25 60.502C36.3152 60.502 37.9961 58.8264 37.9961 56.75C37.9961 54.6788 36.3152 53.0036 34.25 53.0036Z" fill="#85858A"/>
<path d="M45.5001 56.75C45.5001 54.6788 43.8192 53.0036 41.7481 53.0036C39.677 53.0036 37.9961 54.6792 37.9961 56.75C37.9961 58.8264 39.677 60.502 41.7481 60.502C43.8192 60.502 45.5001 58.8264 45.5001 56.75Z" fill="#85858A"/>
<path d="M60.4961 56.75C60.4961 54.6788 58.8155 53.0036 56.75 53.0036C54.6736 53.0036 52.998 54.6792 52.998 56.75C52.998 58.8264 54.6736 60.502 56.75 60.502C58.8155 60.502 60.4961 58.8264 60.4961 56.75Z" fill="#85858A"/>
<path d="M64.2481 53.0036C62.177 53.0036 60.4961 54.6792 60.4961 56.75C60.4961 58.8264 62.177 60.502 64.2481 60.502C66.3192 60.502 68.0001 58.8264 68.0001 56.75C68.0001 54.6788 66.3192 53.0036 64.2481 53.0036Z" fill="#85858A"/>
<path d="M68 56.75C68 58.8264 69.6756 60.502 71.746 60.502C73.8171 60.502 75.498 58.8264 75.498 56.75C75.498 54.6788 73.8171 53.0036 71.746 53.0036C69.6756 53.0036 68 54.6788 68 56.75Z" fill="#85858A"/>
<path d="M90.5002 56.75C90.5002 54.6788 88.8193 53.0036 86.7482 53.0036C84.6771 53.0036 82.9966 54.6792 82.9966 56.75C82.9966 58.8264 84.6771 60.502 86.7482 60.502C88.8193 60.502 90.5002 58.8264 90.5002 56.75Z" fill="#85858A"/>
<path d="M94.246 60.502C96.3171 60.502 97.998 58.8264 97.998 56.75C97.998 54.6788 96.3171 53.0036 94.246 53.0036C92.1749 53.0036 90.5 54.6788 90.5 56.75C90.5 58.8264 92.1752 60.502 94.246 60.502Z" fill="#85858A"/>
<path d="M101.75 60.502C103.821 60.502 105.496 58.8264 105.496 56.75C105.496 54.6788 103.821 53.0036 101.75 53.0036C99.6793 53.0036 97.998 54.6792 97.998 56.75C97.998 58.8264 99.6789 60.502 101.75 60.502Z" fill="#85858A"/>
<path d="M105.497 56.75C105.497 58.8264 107.177 60.502 109.248 60.502C111.319 60.502 113 58.8264 113 56.75C113 54.6788 111.319 53.0036 109.248 53.0036C107.177 53.0036 105.497 54.6788 105.497 56.75Z" fill="#85858A"/>
<path d="M127.996 56.75C127.996 54.6788 126.321 53.0036 124.25 53.0036C122.179 53.0036 120.498 54.6792 120.498 56.75C120.498 58.8264 122.179 60.502 124.25 60.502C126.321 60.502 127.996 58.8264 127.996 56.75Z" fill="#85858A"/>
<path d="M131.748 60.502C133.819 60.502 135.5 58.8264 135.5 56.75C135.5 54.6788 133.819 53.0036 131.748 53.0036C129.677 53.0036 127.997 54.6792 127.997 56.75C127.997 58.8264 129.678 60.502 131.748 60.502Z" fill="#85858A"/>
<path d="M146.75 53.0036C144.679 53.0036 142.998 54.6792 142.998 56.75C142.998 58.8264 144.679 60.502 146.75 60.502C148.821 60.502 150.496 58.8264 150.496 56.75C150.496 54.6788 148.821 53.0036 146.75 53.0036Z" fill="#85858A"/>
<path d="M158 56.75C158 54.6788 156.319 53.0036 154.249 53.0036C152.177 53.0036 150.497 54.6792 150.497 56.75C150.497 58.8264 152.177 60.502 154.249 60.502C156.319 60.502 158 58.8264 158 56.75Z" fill="#85858A"/>
<path d="M169.25 60.502C171.321 60.502 172.996 58.8264 172.996 56.75C172.996 54.6788 171.321 53.0036 169.25 53.0036C167.179 53.0036 165.498 54.6792 165.498 56.75C165.498 58.8264 167.179 60.502 169.25 60.502Z" fill="#85858A"/>
<path d="M60.4961 49.2516C60.4961 47.1809 58.8155 45.5 56.75 45.5C54.6736 45.5 52.998 47.1809 52.998 49.2516C52.998 51.3228 54.6736 53.0036 56.75 53.0036C58.8155 53.0036 60.4961 51.3224 60.4961 49.2516Z" fill="#85858A"/>
<path d="M71.746 45.5C69.6752 45.5 68 47.1809 68 49.2516C68 51.3228 69.6756 53.0036 71.746 53.0036C73.8171 53.0036 75.498 51.3228 75.498 49.2516C75.498 47.1809 73.8171 45.5 71.746 45.5Z" fill="#85858A"/>
<path d="M79.25 45.5C77.1736 45.5 75.498 47.1809 75.498 49.2516C75.498 51.3228 77.1736 53.0036 79.25 53.0036C81.3212 53.0036 82.9964 51.3228 82.9964 49.2516C82.9964 47.1809 81.3212 45.5 79.25 45.5Z" fill="#85858A"/>
<path d="M90.5002 49.2516C90.5002 47.1809 88.8193 45.5 86.7482 45.5C84.6771 45.5 82.9966 47.1809 82.9966 49.2516C82.9966 51.3228 84.6771 53.0036 86.7482 53.0036C88.8193 53.0036 90.5002 51.3224 90.5002 49.2516Z" fill="#85858A"/>
<path d="M109.248 45.5C107.177 45.5 105.497 47.1809 105.497 49.2516C105.497 51.3228 107.177 53.0036 109.248 53.0036C111.319 53.0036 113 51.3228 113 49.2516C113 47.1809 111.319 45.5 109.248 45.5Z" fill="#85858A"/>
<path d="M116.746 45.5C114.675 45.5 113 47.1809 113 49.2516C113 51.3228 114.675 53.0036 116.746 53.0036C118.817 53.0036 120.498 51.3228 120.498 49.2516C120.498 47.1809 118.817 45.5 116.746 45.5Z" fill="#85858A"/>
<path d="M127.996 49.2516C127.996 47.1809 126.321 45.5 124.25 45.5C122.179 45.5 120.498 47.1809 120.498 49.2516C120.498 51.3228 122.179 53.0036 124.25 53.0036C126.321 53.0036 127.996 51.3224 127.996 49.2516Z" fill="#85858A"/>
<path d="M60.4961 41.7536C60.4961 39.6825 58.8155 38.0016 56.75 38.0016C54.6736 38.0016 52.998 39.6825 52.998 41.7536C52.998 43.8248 54.6736 45.5 56.75 45.5C58.8155 45.5 60.4961 43.8244 60.4961 41.7536Z" fill="#85858A"/>
<path d="M60.4961 41.7536C60.4961 43.8248 62.177 45.5 64.2481 45.5C66.3192 45.5 68.0001 43.8244 68.0001 41.7536C68.0001 39.6829 66.3192 38.0016 64.2481 38.0016C62.177 38.0016 60.4961 39.6825 60.4961 41.7536Z" fill="#85858A"/>
<path d="M86.7482 38.0016C84.6771 38.0016 82.9966 39.6825 82.9966 41.7536C82.9966 43.8248 84.6771 45.5 86.7482 45.5C88.8193 45.5 90.5002 43.8244 90.5002 41.7536C90.5002 39.6829 88.8193 38.0016 86.7482 38.0016Z" fill="#85858A"/>
<path d="M90.5 41.7536C90.5 43.8248 92.1752 45.5 94.246 45.5C96.3168 45.5 97.998 43.8244 97.998 41.7536C97.998 39.6829 96.3171 38.0016 94.246 38.0016C92.1749 38.0016 90.5 39.6825 90.5 41.7536Z" fill="#85858A"/>
<path d="M101.75 45.5C103.821 45.5 105.496 43.8244 105.496 41.7536C105.496 39.6829 103.821 38.0016 101.75 38.0016C99.6793 38.0016 97.998 39.6825 97.998 41.7536C97.998 43.8248 99.6789 45.5 101.75 45.5Z" fill="#85858A"/>
<path d="M120.498 41.7536C120.498 39.6825 118.817 38.0016 116.746 38.0016C114.675 38.0016 113 39.6825 113 41.7536C113 43.8248 114.675 45.5 116.746 45.5C118.817 45.5 120.498 43.8244 120.498 41.7536Z" fill="#85858A"/>
<path d="M60.4961 34.25C60.4961 32.1789 58.8155 30.5037 56.75 30.5037C54.6736 30.5037 52.998 32.1793 52.998 34.25C52.998 36.3264 54.6736 38.0017 56.75 38.0017C58.8155 38.0017 60.4961 36.3264 60.4961 34.25Z" fill="#85858A"/>
<path d="M64.2481 38.0017C66.3192 38.0017 68.0001 36.3264 68.0001 34.25C68.0001 32.1789 66.3192 30.5037 64.2481 30.5037C62.177 30.5037 60.4961 32.1793 60.4961 34.25C60.4961 36.3264 62.177 38.0017 64.2481 38.0017Z" fill="#85858A"/>
<path d="M71.746 38.0017C73.8171 38.0017 75.498 36.3264 75.498 34.25C75.498 32.1789 73.8171 30.5037 71.746 30.5037C69.6752 30.5037 68 32.1793 68 34.25C68 36.3264 69.6756 38.0017 71.746 38.0017Z" fill="#85858A"/>
<path d="M79.25 38.0017C81.3212 38.0017 82.9964 36.3264 82.9964 34.25C82.9964 32.1789 81.3208 30.5037 79.25 30.5037C77.1736 30.5037 75.498 32.1793 75.498 34.25C75.498 36.3264 77.1736 38.0017 79.25 38.0017Z" fill="#85858A"/>
<path d="M90.5 34.25C90.5 36.3264 92.1752 38.0017 94.246 38.0017C96.3168 38.0017 97.998 36.3264 97.998 34.25C97.998 32.1789 96.3171 30.5037 94.246 30.5037C92.1749 30.5037 90.5 32.1789 90.5 34.25Z" fill="#85858A"/>
<path d="M105.497 34.25C105.497 36.3264 107.177 38.0017 109.248 38.0017C111.319 38.0017 113 36.3264 113 34.25C113 32.1789 111.319 30.5037 109.248 30.5037C107.177 30.5037 105.497 32.1789 105.497 34.25Z" fill="#85858A"/>
<path d="M124.25 30.5037C122.179 30.5037 120.498 32.1793 120.498 34.25C120.498 36.3264 122.179 38.0017 124.25 38.0017C126.321 38.0017 127.996 36.3264 127.996 34.25C127.996 32.1789 126.321 30.5037 124.25 30.5037Z" fill="#85858A"/>
<path d="M82.9964 26.7516C82.9964 24.6809 81.3208 23 79.25 23C77.1736 23 75.498 24.6809 75.498 26.7516C75.498 28.8228 77.1736 30.5036 79.25 30.5036C81.3212 30.5036 82.9964 28.8224 82.9964 26.7516Z" fill="#85858A"/>
<path d="M86.7482 23C84.6771 23 82.9966 24.6809 82.9966 26.7516C82.9966 28.8228 84.6771 30.5036 86.7482 30.5036C88.8193 30.5036 90.5002 28.8224 90.5002 26.7516C90.5002 24.6809 88.8193 23 86.7482 23Z" fill="#85858A"/>
<path d="M90.5 26.7516C90.5 28.8228 92.1752 30.5036 94.246 30.5036C96.3168 30.5036 97.998 28.8228 97.998 26.7516C97.998 24.6809 96.3171 23 94.246 23C92.1749 23 90.5 24.6809 90.5 26.7516Z" fill="#85858A"/>
<path d="M101.75 30.5036C103.821 30.5036 105.496 28.8228 105.496 26.7516C105.496 24.6809 103.821 23 101.75 23C99.6793 23 97.998 24.6809 97.998 26.7516C97.998 28.8224 99.6789 30.5036 101.75 30.5036Z" fill="#85858A"/>
<path d="M109.248 30.5036C111.319 30.5036 113 28.8228 113 26.7516C113 24.6809 111.319 23 109.248 23C107.177 23 105.497 24.6809 105.497 26.7516C105.497 28.8224 107.177 30.5036 109.248 30.5036Z" fill="#85858A"/>
<path d="M113 26.7516C113 28.8228 114.675 30.5036 116.746 30.5036C118.817 30.5036 120.498 28.8228 120.498 26.7516C120.498 24.6809 118.817 23 116.746 23C114.675 23 113 24.6809 113 26.7516Z" fill="#85858A"/>
<path d="M56.75 15.5016C54.6736 15.5016 52.998 17.1825 52.998 19.2536C52.998 21.3248 54.6736 23 56.75 23C58.8155 23 60.4961 21.3244 60.4961 19.2536C60.4961 17.1829 58.8155 15.5016 56.75 15.5016Z" fill="#85858A"/>
<path d="M64.2481 15.5016C62.177 15.5016 60.4961 17.1825 60.4961 19.2536C60.4961 21.3248 62.177 23 64.2481 23C66.3192 23 68.0001 21.3244 68.0001 19.2536C68.0001 17.1829 66.3192 15.5016 64.2481 15.5016Z" fill="#85858A"/>
<path d="M71.746 15.5016C69.6752 15.5016 68 17.1825 68 19.2536C68 21.3248 69.6756 23 71.746 23C73.8171 23 75.498 21.3244 75.498 19.2536C75.498 17.1829 73.8171 15.5016 71.746 15.5016Z" fill="#85858A"/>
<path d="M82.9964 19.2536C82.9964 17.1825 81.3208 15.5016 79.25 15.5016C77.1736 15.5016 75.498 17.1825 75.498 19.2536C75.498 21.3248 77.1736 23 79.25 23C81.3212 23 82.9964 21.3244 82.9964 19.2536Z" fill="#85858A"/>
<path d="M86.7482 23C88.8193 23 90.5002 21.3244 90.5002 19.2536C90.5002 17.1829 88.8193 15.5016 86.7482 15.5016C84.6771 15.5016 82.9966 17.1825 82.9966 19.2536C82.9966 21.3248 84.6775 23 86.7482 23Z" fill="#85858A"/>
<path d="M94.246 23C96.3171 23 97.998 21.3244 97.998 19.2536C97.998 17.1829 96.3171 15.5016 94.246 15.5016C92.1749 15.5016 90.5 17.1825 90.5 19.2536C90.5 21.3248 92.1752 23 94.246 23Z" fill="#85858A"/>
<path d="M113 19.2536C113 17.1825 111.319 15.5016 109.248 15.5016C107.177 15.5016 105.497 17.1825 105.497 19.2536C105.497 21.3248 107.177 23 109.248 23C111.319 23 113 21.3244 113 19.2536Z" fill="#85858A"/>
<path d="M113 19.2536C113 21.3248 114.675 23 116.746 23C118.817 23 120.498 21.3244 120.498 19.2536C120.498 17.1829 118.817 15.5016 116.746 15.5016C114.675 15.5016 113 17.1825 113 19.2536Z" fill="#85858A"/>
<path d="M124.25 23C126.321 23 127.996 21.3244 127.996 19.2536C127.996 17.1829 126.321 15.5016 124.25 15.5016C122.179 15.5016 120.498 17.1825 120.498 19.2536C120.498 21.3248 122.179 23 124.25 23Z" fill="#85858A"/>
<path d="M60.4961 11.75C60.4961 9.67891 58.8155 8.00366 56.75 8.00366C54.6736 8.00366 52.998 9.67926 52.998 11.75C52.998 13.8261 54.6736 15.5017 56.75 15.5017C58.8155 15.5017 60.4961 13.8261 60.4961 11.75Z" fill="#85858A"/>
<path d="M64.2481 15.5017C66.3192 15.5017 68.0001 13.8261 68.0001 11.75C68.0001 9.67891 66.3192 8.00366 64.2481 8.00366C62.177 8.00366 60.4961 9.67926 60.4961 11.75C60.4961 13.8261 62.177 15.5017 64.2481 15.5017Z" fill="#85858A"/>
<path d="M71.746 15.5017C73.8171 15.5017 75.498 13.8261 75.498 11.75C75.498 9.67891 73.8171 8.00366 71.746 8.00366C69.6752 8.00366 68 9.67926 68 11.75C68 13.8261 69.6756 15.5017 71.746 15.5017Z" fill="#85858A"/>
<path d="M79.25 15.5017C81.3212 15.5017 82.9964 13.8261 82.9964 11.75C82.9964 9.67891 81.3208 8.00366 79.25 8.00366C77.1736 8.00366 75.498 9.67926 75.498 11.75C75.498 13.8261 77.1736 15.5017 79.25 15.5017Z" fill="#85858A"/>
<path d="M113 11.75C113 9.67891 111.319 8.00366 109.248 8.00366C107.177 8.00366 105.497 9.67926 105.497 11.75C105.497 13.8261 107.177 15.5017 109.248 15.5017C111.319 15.5017 113 13.8261 113 11.75Z" fill="#85858A"/>
<path d="M116.746 15.5017C118.817 15.5017 120.498 13.8261 120.498 11.75C120.498 9.67891 118.817 8.00366 116.746 8.00366C114.675 8.00366 113 9.67926 113 11.75C113 13.8261 114.675 15.5017 116.746 15.5017Z" fill="#85858A"/>
<path d="M60.4961 4.25164C60.4961 2.18052 58.8155 0.5 56.75 0.5C54.6736 0.5 52.998 2.18052 52.998 4.25164C52.998 6.32276 54.6736 8.00363 56.75 8.00363C58.8155 8.00363 60.4961 6.32241 60.4961 4.25164Z" fill="#85858A"/>
<path d="M75.498 4.25164C75.498 2.18052 73.8171 0.5 71.746 0.5C69.6752 0.5 68 2.18052 68 4.25164C68 6.32276 69.6756 8.00363 71.746 8.00363C73.8171 8.00363 75.498 6.32241 75.498 4.25164Z" fill="#85858A"/>
<path d="M94.246 0.5C92.1749 0.5 90.5 2.18052 90.5 4.25164C90.5 6.32276 92.1752 8.00363 94.246 8.00363C96.3168 8.00363 97.998 6.32276 97.998 4.25164C97.998 2.18052 96.3171 0.5 94.246 0.5Z" fill="#85858A"/>
<path d="M101.75 0.5C99.6789 0.5 97.998 2.18052 97.998 4.25164C97.998 6.32276 99.6789 8.00363 101.75 8.00363C103.821 8.00363 105.496 6.32276 105.496 4.25164C105.496 2.18052 103.821 0.5 101.75 0.5Z" fill="#85858A"/>
<path d="M113 4.25164C113 2.18052 111.319 0.5 109.248 0.5C107.177 0.5 105.497 2.18052 105.497 4.25164C105.497 6.32276 107.177 8.00363 109.248 8.00363C111.319 8.00363 113 6.32241 113 4.25164Z" fill="#85858A"/>
<path d="M124.25 8.00363C126.321 8.00363 127.996 6.32276 127.996 4.25164C127.996 2.18052 126.321 0.5 124.25 0.5C122.179 0.5 120.498 2.18052 120.498 4.25164C120.498 6.32276 122.179 8.00363 124.25 8.00363Z" fill="#85858A"/>
<path d="M45.5 0.5H0.5V45.5H45.5V0.5ZM37.996 38.0016H7.99801V8.00363H37.996V38.0016Z" fill="#85858A"/>
<path d="M34.251 11.751H11.751V34.251H34.251V11.751Z" fill="#85858A"/>
<path d="M0.5 180.5H45.5V135.5H0.5V180.5ZM7.99801 143.004H37.996V173.002H7.99801V143.004Z" fill="#85858A"/>
<path d="M34.251 146.752H11.751V169.252H34.251V146.752Z" fill="#85858A"/>
<path d="M135.5 0.5V45.5H180.5V0.5H135.5ZM172.996 38.0016H142.998V8.00363H172.996V38.0016Z" fill="#85858A"/>
<path d="M169.252 11.751H146.752V34.251H169.252V11.751Z" fill="#85858A"/>
<path d="M158 120.504H154.248H139.246H131.748H120.498V124.25V131.754V146.75V154.254V158H124.25H131.748H146.75H158V139.252V131.754V120.504ZM150.496 150.502H127.996V128.002H150.496V150.502Z" fill="#85858A"/>
<path d="M139.246 143.004C141.317 143.004 142.998 141.323 142.998 139.252C142.998 137.181 141.317 135.5 139.246 135.5C137.175 135.5 135.5 137.181 135.5 139.252C135.5 141.323 137.175 143.004 139.246 143.004Z" fill="#85858A"/>
</g>
<defs>
<clipPath id="clip0_5_1438">
<rect width="180" height="180" fill="white" transform="translate(0.5 0.5)"/>
</clipPath>
</defs>
</svg>
