
<svg width="60" height="60" viewBox="0 0 60 60" fill="none" xmlns="http://www.w3.org/2000/svg">
<path d="M30 0C13.4585 0 0 13.4573 0 30C0 46.5427 13.4585 60 30 60C46.5415 60 60 46.5427 60 30C60 13.4573 46.5415 0 30 0ZM30 57.6923C14.7312 57.6923 2.30769 45.2688 2.30769 30C2.30769 14.7312 14.7312 2.30769 30 2.30769C45.2688 2.30769 57.6923 14.7312 57.6923 30C57.6923 45.2688 45.2688 57.6923 30 57.6923Z" fill="#000000"/>
<path fill-rule="evenodd" clip-rule="evenodd" d="M31.7992 35.4547H28.1992V16.3638H31.7992V35.4547Z" fill="#000000"/>
<path fill-rule="evenodd" clip-rule="evenodd" d="M31.7992 42.7638H28.1992V39.1638H31.7992V42.7638Z" fill="#000000"/>
</svg>
