<svg width="100" height="100" viewBox="0 0 12 12" fill="none" xmlns="http://www.w3.org/2000/svg">
<mask id="path-1-outside-1_850_2348" maskUnits="userSpaceOnUse" x="0" y="0" width="12" height="12" fill="black">
<rect fill="white" width="12" height="12"/>
<path fill-rule="evenodd" clip-rule="evenodd" d="M6 1C3.24 1 1 3.24 1 6C1 8.76 3.24 11 6 11C8.76 11 11 8.76 11 6C11 3.24 8.76 1 6 1ZM6.49996 8.5H5.49996V7.5H6.49996V8.5ZM6.49996 6.5H5.49996V3.5H6.49996V6.5Z"/>
</mask>
<path fill-rule="evenodd" clip-rule="evenodd" d="M6 1C3.24 1 1 3.24 1 6C1 8.76 3.24 11 6 11C8.76 11 11 8.76 11 6C11 3.24 8.76 1 6 1ZM6.49996 8.5H5.49996V7.5H6.49996V8.5ZM6.49996 6.5H5.49996V3.5H6.49996V6.5Z" fill="#3F4048"/>
<path d="M5.49996 8.5H4.49996V9.5H5.49996V8.5ZM5.49996 7.5V6.5H4.49996V7.5H5.49996ZM6.49996 7.5H7.49996V6.5H6.49996V7.5ZM5.49996 6.5H4.49996V7.5H5.49996V6.5ZM5.49996 3.5V2.5H4.49996V3.5H5.49996ZM6.49996 3.5H7.49996V2.5H6.49996V3.5ZM6 0C2.68772 0 0 2.68772 0 6H2C2 3.79228 3.79228 2 6 2V0ZM0 6C0 9.31229 2.68772 12 6 12V10C3.79228 10 2 8.20772 2 6H0ZM6 12C9.31229 12 12 9.31229 12 6H10C10 8.20772 8.20772 10 6 10V12ZM12 6C12 2.68772 9.31229 0 6 0V2C8.20772 2 10 3.79228 10 6H12ZM6.49996 7.5H5.49996V9.5H6.49996V7.5ZM6.49996 8.5V7.5H4.49996V8.5H6.49996ZM5.49996 8.5H6.49996V6.5H5.49996V8.5ZM5.49996 7.5V8.5H7.49996V7.5H5.49996ZM6.49996 5.5H5.49996V7.5H6.49996V5.5ZM6.49996 6.5V3.5H4.49996V6.5H6.49996ZM5.49996 4.5H6.49996V2.5H5.49996V4.5ZM5.49996 3.5V6.5H7.49996V3.5H5.49996Z" fill="#50ff7f" mask="url(#path-1-outside-1_850_2348)"/>
</svg>