<svg width="16" height="16" viewBox="0 0 16 16" fill="none" xmlns="http://www.w3.org/2000/svg">
<path fill-rule="evenodd" clip-rule="evenodd" d="M0.793457 1.13839C0.793457 0.564012 1.25908 0.0983887 1.83346 0.0983887H14.9535C15.5278 0.0983887 15.9935 0.564013 15.9935 1.13839V14.2584C15.9935 14.8328 15.5278 15.2984 14.9535 15.2984H1.83346C1.25908 15.2984 0.793457 14.8328 0.793457 14.2584V1.13839ZM10.5 5.5C10.5 6.60457 9.60457 7.5 8.5 7.5C7.39543 7.5 6.5 6.60457 6.5 5.5C6.5 4.39543 7.39543 3.5 8.5 3.5C9.60457 3.5 10.5 4.39543 10.5 5.5ZM5 10.0955C5 8.93799 6.10584 8 7.46963 8H9.53037C10.8942 8 12 8.93799 12 10.0955V13H5V10.0955Z" fill="#FAFAFA"/>
</svg>
