<!-- <svg width="35" height="35" viewBox="0 0 35 35" fill="none" xmlns="http://www.w3.org/2000/svg">
<rect width="35" height="35" rx="2" fill="#F1F1F1"/>
<path fill-rule="evenodd" clip-rule="evenodd" d="M25.2 20.5C22.7 21.3 19.8 20.8 17.8 18.8C15.3 16.3 15.1 12.3 17.1 9.5C13 9.9 9.79999 13.3 9.79999 17.5C9.79999 21.9 13.4 25.5 17.8 25.5C21.1 25.5 24 23.4 25.2 20.5Z" stroke="#1D2024" stroke-width="1.5" stroke-linecap="round" stroke-linejoin="round"/>
</svg> -->

<svg width="20" height="20" viewBox="0 0 17 19" fill="none" xmlns="http://www.w3.org/2000/svg">
<path fill-rule="evenodd" clip-rule="evenodd" d="M16.2 12.5C13.7 13.3 10.8 12.8 8.79999 10.8C6.29999 8.3 6.09999 4.3 8.09999 1.5C3.99999 1.9 0.799988 5.3 0.799988 9.5C0.799988 13.9 4.39999 17.5 8.79999 17.5C12.1 17.5 15 15.4 16.2 12.5Z" stroke="#1D2024" stroke-width="1.5" stroke-linecap="round" stroke-linejoin="round"/>
</svg>
