<svg width="34" height="35" viewBox="0 0 34 35" fill="none" xmlns="http://www.w3.org/2000/svg">
<rect y="0.00463867" width="34" height="34" rx="2" fill="#416919"/>
<path fill-rule="evenodd" clip-rule="evenodd" d="M7.69606 19.9823H11.6061C11.9438 19.9369 12.2567 19.78 12.4952 19.5365C12.7338 19.2929 12.8844 18.9767 12.9232 18.6378V15.3986C12.8849 15.0591 12.7341 14.7423 12.495 14.4986C12.2559 14.2549 11.9422 14.0984 11.6039 14.054H7.69606C7.51193 14.0543 7.33538 14.1275 7.20498 14.2577C7.07457 14.3878 7.00089 14.5643 7 14.7487V19.282C7.00088 19.4665 7.07453 19.6431 7.20491 19.7734C7.33528 19.9038 7.51183 19.9772 7.69606 19.9778" fill="#101212"/>
<path fill-rule="evenodd" clip-rule="evenodd" d="M7.69606 21.0773H11.671C12.283 21.0149 12.8542 20.7409 13.2864 20.3025C13.7185 19.8641 13.9846 19.2886 14.0389 18.6751V15.3249C13.9843 14.7111 13.7176 14.1355 13.2848 13.6972C12.8519 13.259 12.2801 12.9855 11.6676 12.9238H7.69606C7.51174 12.9235 7.33503 12.8501 7.20459 12.7198C7.07415 12.5894 7.00059 12.4126 7 12.228V7.69579C7.00059 7.51124 7.07415 7.33444 7.20459 7.20405C7.33503 7.07366 7.51174 7.0003 7.69606 7H12.2283C12.4125 7.0003 12.5891 7.0737 12.7194 7.20412C12.8496 7.33454 12.9229 7.51135 12.9232 7.69579V11.6678C12.9857 12.2811 13.2598 12.8534 13.6984 13.2862C14.1369 13.7189 14.7125 13.985 15.3259 14.0387H18.6752C19.2886 13.9852 19.8641 13.7191 20.3025 13.2863C20.7409 12.8535 21.0147 12.2811 21.0768 11.6678C21.1439 10.3972 21.0768 8.97871 21.0768 7.69579C21.0773 7.51144 21.1508 7.33481 21.281 7.20445C21.4112 7.07409 21.5876 7.00059 21.7717 7H26.305C26.4893 7.0003 26.6659 7.0737 26.7961 7.20412C26.9264 7.33454 26.9997 7.51135 27 7.69579V12.228C26.9997 12.4125 26.9264 12.5893 26.7961 12.7197C26.6659 12.8501 26.4893 12.9235 26.305 12.9238H22.3324C21.7205 12.9852 21.1491 13.2582 20.7165 13.6958C20.2839 14.1334 20.0171 14.7083 19.9622 15.3216V18.6751C20.0159 19.2892 20.2822 19.8653 20.7149 20.3038C21.1476 20.7424 21.7197 21.016 22.3324 21.0773H26.305C26.4891 21.0776 26.6655 21.1509 26.7957 21.281C26.926 21.4112 26.9994 21.5877 27 21.772V26.3053C26.9994 26.4896 26.926 26.6661 26.7957 26.7963C26.6655 26.9265 26.4891 26.9997 26.305 27H21.7717C21.5878 26.9994 21.4115 26.9261 21.2813 26.7959C21.1512 26.6658 21.0776 26.4895 21.0768 26.3053V22.3333C21.0143 21.7202 20.7403 21.148 20.302 20.7153C19.8637 20.2826 19.2884 20.0164 18.6752 19.9625C15.4008 19.9625 15.0942 19.3193 13.6853 20.7277C13.2537 21.1587 12.9844 21.7261 12.9232 22.3333V26.3053C12.9226 26.4896 12.8492 26.6661 12.719 26.7963C12.5887 26.9265 12.4123 26.9997 12.2283 27H7.69606C7.51193 26.9997 7.33538 26.9265 7.20498 26.7963C7.07457 26.6662 7.00089 26.4897 7 26.3053V21.772C7.00089 21.5876 7.07457 21.4111 7.20498 21.281C7.33538 21.1508 7.51193 21.0776 7.69606 21.0773Z" fill="#101212"/>
</svg>
