<svg width="17" height="17" viewBox="0 0 17 17" fill="none" xmlns="http://www.w3.org/2000/svg">
<path d="M13.9 13.9473H16M2.4 8.5L1 8.53667M6.97417 8.53675H16M9.1675 3.12603H1M16 3.12603H13.9M1 13.9473H9.1675M2.4 8.5C2.4 9.60458 3.29542 10.5 4.4 10.5C5.50457 10.5 6.4 9.60458 6.4 8.5C6.4 7.39542 5.50457 6.5 4.4 6.5C3.29542 6.5 2.4 7.39542 2.4 8.5ZM13.4 14C13.4 15.1046 12.5046 16 11.4 16C10.2954 16 9.4 15.1046 9.4 14C9.4 12.8954 10.2954 12 11.4 12C12.5046 12 13.4 12.8954 13.4 14ZM13.4 3C13.4 4.10457 12.5046 5 11.4 5C10.2954 5 9.4 4.10457 9.4 3C9.4 1.89543 10.2954 1 11.4 1C12.5046 1 13.4 1.89543 13.4 3Z" stroke="#CAC9CA" stroke-width="1.5" stroke-linecap="round"/>
</svg>