<svg width="35" height="36" viewBox="0 0 35 36" fill="none" xmlns="http://www.w3.org/2000/svg">
<rect y="0.233521" width="35" height="35" rx="2" fill="#4C4D55"/>
<path d="M27.7405 16.28C27.7246 15.9785 27.5155 15.779 27.2735 15.8343L25.5052 16.2386C25.3224 16.2804 25.1732 16.456 25.1182 16.6694C24.3414 15.5505 22.973 13.7388 21.9999 13.3316C21.8652 13.2762 21.0267 13 17.7415 13C14.4563 13 13.6179 13.2762 13.4803 13.3328C12.5092 13.7391 11.1415 15.5505 10.3649 16.6694C10.3098 16.456 10.1607 16.2804 9.97779 16.2386L8.20957 15.8343C7.96761 15.779 7.7585 15.9785 7.7425 16.28C7.72641 16.5815 7.90961 16.8708 8.15148 16.9261L9.72001 17.2847C9.17321 17.6924 8.81908 18.3441 8.81908 19.0786L9.04268 22.9391C9.04268 23.6757 9.63983 24.2728 10.3765 24.2728H11.1785C11.9152 24.2728 12.5123 23.6757 12.5123 22.9391L12.4861 22.6565H22.9968L22.9707 22.9391C22.9707 23.6757 23.5678 24.2728 24.3044 24.2728H25.1065C25.8431 24.2728 26.4403 23.6757 26.4403 22.9391L26.6639 19.0786C26.6639 18.3441 26.3097 17.6924 25.7629 17.2847L27.3315 16.9261C27.5734 16.8708 27.7566 16.5815 27.7405 16.28ZM13.8491 14.2452C13.9262 14.2201 14.7339 13.984 17.7416 13.984C20.7431 13.984 21.5536 14.2192 21.6336 14.2451C22.2156 14.498 23.2144 15.7041 24.035 16.8423H11.448C12.2696 15.7027 13.2694 14.4952 13.8491 14.2452ZM19.62 22.0037H15.8631C15.6901 22.0037 15.55 21.8635 15.55 21.6906C15.55 21.5177 15.6901 21.3776 15.8631 21.3776H19.62C19.793 21.3776 19.9331 21.5177 19.9331 21.6906C19.9331 21.8635 19.793 22.0037 19.62 22.0037ZM22.6793 20.3339C22.6793 20.3339 22.0531 19.9732 21.2928 19.8852H13.8057C13.0453 19.9732 12.4192 20.3339 12.4192 20.3339C10.6749 20.7812 10.2008 19.35 10.2008 19.35H24.8977C24.8977 19.35 24.4236 20.7812 22.6793 20.3339Z" fill="white"/>
</svg>
