<svg width="17" height="17" viewBox="0 0 17 17" fill="none" xmlns="http://www.w3.org/2000/svg">
<path fill-rule="evenodd" clip-rule="evenodd" d="M12.1498 10.6918H11.3819L11.1098 10.4294C12.0623 9.32133 12.6358 7.88279 12.6358 6.3179C12.6358 2.82847 9.80732 0 6.3179 0C2.82847 0 0 2.82847 0 6.3179C0 9.80732 2.82847 12.6358 6.3179 12.6358C7.88279 12.6358 9.32133 12.0623 10.4294 11.1098L10.6918 11.3819V12.1498L15.5517 17L17 15.5517L12.1498 10.6918ZM6.31816 10.6919C3.89792 10.6919 1.94423 8.73816 1.94423 6.31792C1.94423 3.89768 3.89792 1.944 6.31816 1.944C8.7384 1.944 10.6921 3.89768 10.6921 6.31792C10.6921 8.73816 8.7384 10.6919 6.31816 10.6919Z" fill="#42434B"/>
</svg>
