<svg width="14" height="15" viewBox="0 0 14 15" fill="none" xmlns="http://www.w3.org/2000/svg">
<path fill-rule="evenodd" clip-rule="evenodd" d="M7 0.5C3.136 0.5 0 3.636 0 7.5C0 11.364 3.136 14.5 7 14.5C10.864 14.5 14 11.364 14 7.5C14 3.636 10.864 0.5 7 0.5ZM6.33333 10.3333C6.33333 9.96512 6.63181 9.66665 7 9.66665H7.00667C7.37486 9.66665 7.67333 9.96512 7.67333 10.3333C7.67333 10.7015 7.37486 11 7.00667 11H7C6.63181 11 6.33333 10.7015 6.33333 10.3333ZM7.17214 4.34956C6.86179 4.29633 6.54262 4.35465 6.27115 4.51419C5.99968 4.67373 5.79344 4.92421 5.68895 5.22124C5.56677 5.56857 5.18616 5.75108 4.83883 5.6289C4.4915 5.50672 4.30899 5.12611 4.43117 4.77878C4.64015 4.18471 5.05264 3.68377 5.59557 3.36468C6.13851 3.04559 6.77685 2.92895 7.39755 3.03542C8.01824 3.14188 8.58123 3.46458 8.98679 3.94636C9.39231 4.42809 9.61427 5.03777 9.61339 5.66744C9.61302 6.68759 8.85666 7.36129 8.31653 7.72138C8.0261 7.91499 7.74043 8.05736 7.52998 8.15089C7.42382 8.19807 7.33441 8.23388 7.26999 8.25842C7.23773 8.27071 7.21157 8.28024 7.19253 8.28701L7.16937 8.29512L7.162 8.29764L7.1594 8.29851L7.15838 8.29886L7.15794 8.299C7.15774 8.29907 7.15754 8.29914 6.94673 7.66668L7.15754 8.29914C6.80825 8.41557 6.4307 8.22679 6.31427 7.8775C6.19799 7.52867 6.38611 7.15166 6.73452 7.03469C6.73471 7.03462 6.73491 7.03456 6.7351 7.03449L6.73478 7.0346L6.73435 7.03475C6.73437 7.03474 6.73443 7.03472 6.73452 7.03469C6.73471 7.03462 6.73505 7.03451 6.73555 7.03433L6.74585 7.03072C6.7561 7.02708 6.77291 7.02098 6.79533 7.01244C6.84029 6.99531 6.90714 6.96862 6.98847 6.93247C7.15302 6.85934 7.36735 6.7517 7.57693 6.61198C8.03666 6.30549 8.28006 5.97944 8.28006 5.66668L8.28006 5.66569C8.28053 5.35081 8.16954 5.04592 7.96676 4.80503C7.76398 4.56414 7.48248 4.40279 7.17214 4.34956ZM6.73545 7.03438C6.73533 7.03442 6.73522 7.03445 6.7351 7.03449L6.73525 7.03444L6.73545 7.03438ZM6.73556 7.03434C6.73552 7.03435 6.73549 7.03436 6.73545 7.03438L6.73556 7.03434M9.61339 5.66744C9.61339 5.66752 9.61339 5.6676 9.61339 5.66767L8.94673 5.66668H9.61339C9.61339 5.66693 9.61339 5.66719 9.61339 5.66744Z" fill="#3F4048"/>
</svg>
