<svg width="35" height="35" viewBox="0 0 100 100" fill="none" xmlns="http://www.w3.org/2000/svg">
<path d="M100 49.6933C100 77.1381 77.6142 99.3865 50 99.3865C22.3858 99.3865 0 77.1381 0 49.6933C0 22.2484 22.3858 0 50 0C77.6142 0 100 22.2484 100 49.6933ZM5 49.6933C5 74.3936 25.1472 94.4172 50 94.4172C74.8528 94.4172 95 74.3936 95 49.6933C95 24.9929 74.8528 4.96933 50 4.96933C25.1472 4.96933 5 24.9929 5 49.6933Z" fill="#EAE8EB"/>
<path d="M97.5 50.3067C98.8807 50.3067 100.007 51.4268 99.9367 52.8057C99.5421 60.5956 97.307 68.1964 93.3978 74.9865C89.0715 82.501 82.8448 88.7618 75.3347 93.1486C67.8246 97.5354 59.2916 99.896 50.581 99.9966C41.8705 100.097 33.2846 97.9343 25.6739 93.7222C18.0632 89.51 11.6919 83.3947 7.19102 75.9822C2.69016 68.5696 0.215949 60.117 0.0135039 51.4616C-0.188941 42.8062 1.8874 34.2485 6.03684 26.636C9.79194 19.7471 15.1269 13.8487 21.5955 9.41088C22.7245 8.63629 24.2554 9.00025 24.9796 10.1623C25.7095 11.3334 25.3427 12.8692 24.2096 13.6567C18.4897 17.6325 13.7689 22.8836 10.4332 29.0031C6.69866 35.8543 4.82995 43.5563 5.01215 51.3461C5.19435 59.136 7.42114 66.7433 11.4719 73.4146C15.5227 80.0859 21.2569 85.5897 28.1065 89.3806C34.9561 93.1716 42.6834 95.1182 50.5229 95.0277C58.3624 94.9371 66.0421 92.8125 72.8012 88.8644C79.5603 84.9163 85.1643 79.2816 89.058 72.5185C92.5345 66.48 94.5399 59.729 94.9297 52.8055C95.0073 51.427 96.1193 50.3067 97.5 50.3067Z" fill="#4C4D55"/>
<path d="M56.5152 56.2374V57.4444H45.8394V56.3546L51.4293 50.0148C52.1246 49.2257 52.6793 48.5343 53.0933 47.9405C53.5074 47.339 53.8043 46.7921 53.9839 46.2999C54.1714 45.7999 54.2652 45.3155 54.2652 44.8468C54.2652 44.1593 54.1285 43.5538 53.855 43.0304C53.5894 42.5069 53.191 42.0968 52.6597 41.7999C52.1285 41.503 51.4722 41.3546 50.691 41.3546C49.9097 41.3546 49.23 41.5226 48.6519 41.8585C48.0738 42.1944 47.6285 42.6632 47.316 43.2648C47.0113 43.8585 46.8589 44.5343 46.8589 45.2921H45.4644C45.4644 44.3546 45.6714 43.4952 46.0855 42.714C46.5074 41.9327 47.1089 41.3116 47.8902 40.8507C48.6714 40.3819 49.605 40.1476 50.691 40.1476C51.7222 40.1476 52.6089 40.3312 53.3511 40.6983C54.0933 41.0577 54.6636 41.5773 55.0621 42.2569C55.4683 42.9366 55.6714 43.7569 55.6714 44.7179C55.6714 45.2335 55.5777 45.753 55.3902 46.2765C55.2105 46.7999 54.9605 47.3233 54.6402 47.8468C54.3277 48.3624 53.9683 48.8741 53.5621 49.3819C53.1636 49.8898 52.7457 50.3898 52.3082 50.8819L47.5504 56.2374H56.5152Z" fill="#1D2024"/>
</svg>
