<svg width="14" height="15" viewBox="0 0 14 15" fill="none" xmlns="http://www.w3.org/2000/svg">
<path d="M7 0.241943C3.13306 0.241943 0 3.37501 0 7.24194C0 11.1089 3.13306 14.2419 7 14.2419C10.8669 14.2419 14 11.1089 14 7.24194C14 3.37501 10.8669 0.241943 7 0.241943ZM10.4379 5.03751L9.28911 10.4512C9.20444 10.8351 8.97581 10.9282 8.65685 10.7476L6.90685 9.45767L6.0629 10.2706C5.96976 10.3637 5.89073 10.4427 5.71008 10.4427L5.83427 8.6617L9.07742 5.73186C9.21855 5.60767 9.04637 5.5371 8.86008 5.6613L4.85202 8.18468L3.1246 7.64557C2.74919 7.52702 2.74073 7.27017 3.20363 7.08952L9.95242 4.4871C10.2657 4.3742 10.5395 4.56331 10.4379 5.03751Z" fill="#3F4048"/>
</svg>
