<svg width="14" height="14" viewBox="0 0 14 14" fill="none" xmlns="http://www.w3.org/2000/svg">
<path fill-rule="evenodd" clip-rule="evenodd" d="M7 0C3.136 0 0 3.136 0 7C0 10.864 3.136 14 7 14C10.864 14 14 10.864 14 7C14 3.136 10.864 0 7 0ZM6.09211 3.5003C6.09211 3.5003 5.1129 3.46083 4.05645 4.28367C4.05645 4.28367 3 6.22297 3 8.61376C3 8.61376 3.58557 9.68705 5.19128 9.72775C5.19128 9.72775 5.42585 9.399 5.66273 9.1097C4.76075 8.82103 4.40975 8.24369 4.40975 8.24369C4.40975 8.24369 4.48813 8.28439 4.60571 8.36703H4.64029C4.65713 8.36703 4.66527 8.37527 4.67387 8.38397L4.67545 8.38554V8.38927C4.68467 8.39911 4.69274 8.40777 4.71061 8.40777C6.62813 9.24047 8.23093 9.4329 10.0597 8.2005C10.0597 8.2005 9.70813 8.77785 8.76869 9.06652C8.96233 9.35395 9.23436 9.68336 9.23436 9.68336C10.5505 9.65302 11.2073 8.92702 11.4209 8.69082C11.4681 8.63874 11.4937 8.61046 11.5 8.6187C11.5 6.2316 10.4372 4.2886 10.4372 4.2886C9.4874 3.54533 8.5998 3.51202 8.43209 3.51141L8.32489 3.62428C9.5381 3.99438 10.1254 4.57234 10.1254 4.57234C7.17834 3.02005 4.71112 4.31326 4.33948 4.50805V4.50806C4.31225 4.52233 4.29627 4.53071 4.29218 4.53163C4.29218 4.53163 4.87832 3.91357 6.17108 3.58357L6.09211 3.5003ZM8.43555 3.50832L8.45458 3.50092H8.44245L8.43555 3.50832ZM8.55831 7.87296C8.96808 7.87296 9.3018 7.50288 9.3018 7.04643C9.3018 6.59306 8.96981 6.22296 8.55831 6.22296V6.22482C8.15025 6.22482 7.81597 6.59368 7.81483 7.05012C7.81483 7.50288 8.14852 7.87296 8.55831 7.87296ZM6.64022 7.04643C6.64022 7.50288 6.30653 7.87296 5.89674 7.87296C5.48696 7.87296 5.15326 7.50288 5.15326 7.05012C5.15326 6.59368 5.48696 6.22482 5.89674 6.22482L5.89905 6.22296C6.30882 6.22296 6.64022 6.59306 6.64022 7.04643Z" fill="#3F4048"/>
</svg>