<svg width="15" height="15" viewBox="0 0 15 15" fill="none" xmlns="http://www.w3.org/2000/svg">
<path d="M1.8264 5.85C1.70891 6.30738 1.64964 6.77777 1.65 7.25C1.65 7.733 1.7116 8.202 1.8264 8.65H3.82C3.72563 7.71905 3.72563 6.78095 3.82 5.85H1.8264ZM2.399 4.45H4.0412C4.2274 3.5981 4.4962 2.8351 4.8259 2.2002C3.80963 2.68979 2.96405 3.47366 2.399 4.45ZM12.6736 5.85H10.68C10.7744 6.78095 10.7744 7.71905 10.68 8.65H12.6736C12.9093 7.73154 12.9093 6.76846 12.6736 5.85ZM12.101 4.45C11.5359 3.47366 10.6904 2.68979 9.6741 2.2002C10.0045 2.8351 10.2726 3.5981 10.4588 4.45H12.101ZM5.2284 5.85C5.17595 6.31482 5.14978 6.78223 5.15 7.25C5.15 7.7295 5.1766 8.1985 5.2284 8.65H9.2716C9.37702 7.71964 9.37702 6.78036 9.2716 5.85H5.2284ZM5.479 4.45H9.021C8.89361 3.92381 8.70985 3.41289 8.4729 2.9261C8.0333 2.0476 7.5629 1.65 7.25 1.65C6.9364 1.65 6.4667 2.0476 6.0271 2.9261C5.8066 3.3685 5.6211 3.883 5.479 4.45ZM2.399 10.05C2.96405 11.0263 3.80963 11.8102 4.8259 12.2998C4.4955 11.6649 4.2274 10.9019 4.0412 10.05H2.399ZM12.101 10.05H10.4588C10.2726 10.9019 10.0038 11.6649 9.6741 12.2998C10.6904 11.8102 11.5359 11.0263 12.101 10.05ZM5.479 10.05C5.6211 10.617 5.8066 11.1315 6.0271 11.5739C6.4667 12.4524 6.9371 12.85 7.25 12.85C7.5636 12.85 8.0333 12.4524 8.4729 11.5739C8.6934 11.1315 8.8789 10.617 9.021 10.05H5.479ZM7.25 14.25C3.3839 14.25 0.25 11.1161 0.25 7.25C0.25 3.3839 3.3839 0.25 7.25 0.25C11.1161 0.25 14.25 3.3839 14.25 7.25C14.25 11.1161 11.1161 14.25 7.25 14.25Z" fill="#3F4048"/>
</svg>