<svg width="40" height="40" viewBox="0 0 40 40" fill="none" xmlns="http://www.w3.org/2000/svg">
<path d="M7.25342 6.66666L17.8319 19.971L7.25342 33.3333L16.44 19.985L7.25342 6.66666Z" fill="#4C4D55"/>
<path d="M7.51709 11.1794L13.3778 20L7.54609 29.0256L12.5428 19.985L7.51709 11.1794Z" fill="#4C4D55"/>
<path d="M32.7479 33.3333L22.1685 20.029L32.7479 6.66666L23.5604 20.015L32.7479 33.3333Z" fill="#4C4D55"/>
<path d="M32.4838 28.8206L26.623 20L32.4548 10.9745L27.458 20.015L32.4838 28.8206Z" fill="#4C4D55"/>
<path d="M11.4131 8.24258L20.1007 18.5581L28.9122 8.24258L20.1007 16.9791L11.4131 8.24258Z" fill="#4C4D55"/>
<path d="M28.774 31.6404L20.0865 21.325L11.2749 31.6404L20.0865 22.9039L28.774 31.6404Z" fill="#4C4D55"/>
</svg>