<svg width="14" height="11" viewBox="0 0 14 11" fill="none" xmlns="http://www.w3.org/2000/svg">
<path d="M0.24798 5.98677C-0.0826601 5.65613 -0.0826601 5.12006 0.24798 4.78942C0.578621 4.45878 1.11469 4.45878 1.44533 4.78942L5.25046 8.59455C5.5811 8.92519 5.5811 9.46126 5.25046 9.7919C4.91982 10.1225 4.38375 10.1225 4.05311 9.7919L0.24798 5.98677Z" fill="#50ff7f"/>
<path d="M5.37054 9.82682C5.0399 10.1575 4.50382 10.1575 4.17318 9.82682C3.84254 9.49618 3.84254 8.9601 4.17318 8.62946L12.5547 0.24798C12.8853 -0.0826603 13.4214 -0.08266 13.752 0.24798C14.0827 0.578621 14.0827 1.11469 13.752 1.44533L5.37054 9.82682Z" fill="#50ff7f"/>
</svg>
