<svg width="100" height="100" viewBox="0 0 100 100" fill="none" xmlns="http://www.w3.org/2000/svg">
    <path
        d="M100 49.6933C100 77.1381 77.6142 99.3865 50 99.3865C22.3858 99.3865 0 77.1381 0 49.6933C0 22.2484 22.3858 0 50 0C77.6142 0 100 22.2484 100 49.6933ZM5 49.6933C5 74.3936 25.1472 94.4172 50 94.4172C74.8528 94.4172 95 74.3936 95 49.6933C95 24.9929 74.8528 4.96933 50 4.96933C25.1472 4.96933 5 24.9929 5 49.6933Z"
        fill="#2A2B31" />
    <path
        d="M97.5 50.3067C98.8807 50.3067 100.007 51.4268 99.9367 52.8057C99.5421 60.5956 97.307 68.1964 93.3978 74.9865C89.0715 82.501 82.8448 88.7618 75.3347 93.1486C67.8246 97.5354 59.2916 99.896 50.581 99.9966C41.8705 100.097 33.2846 97.9343 25.6739 93.7222C18.0632 89.51 11.6919 83.3947 7.19102 75.9822C2.69016 68.5696 0.215949 60.117 0.0135039 51.4616C-0.188941 42.8062 1.8874 34.2485 6.03684 26.636C9.79194 19.7471 15.1269 13.8487 21.5955 9.41088C22.7245 8.63629 24.2554 9.00025 24.9796 10.1623C25.7095 11.3334 25.3427 12.8692 24.2096 13.6567C18.4897 17.6325 13.7689 22.8836 10.4332 29.0031C6.69866 35.8543 4.82995 43.5563 5.01215 51.3461C5.19435 59.136 7.42114 66.7433 11.4719 73.4146C15.5227 80.0859 21.2569 85.5897 28.1065 89.3806C34.9561 93.1716 42.6834 95.1182 50.5229 95.0277C58.3624 94.9371 66.0421 92.8125 72.8012 88.8644C79.5603 84.9163 85.1643 79.2816 89.058 72.5185C92.5345 66.48 94.5399 59.729 94.9297 52.8055C95.0073 51.427 96.1193 50.3067 97.5 50.3067Z"
        fill="#50ff7f " />
    <path
        d="M56.8199 57.6632V59.4444H45.6519V57.8858L51.2418 51.6632C51.9293 50.8976 52.4605 50.2491 52.8355 49.7179C53.2183 49.1788 53.4839 48.6983 53.6324 48.2765C53.7886 47.8468 53.8668 47.4093 53.8668 46.964C53.8668 46.4015 53.7496 45.8937 53.5152 45.4405C53.2886 44.9796 52.9527 44.6124 52.5074 44.339C52.0621 44.0655 51.523 43.9288 50.8902 43.9288C50.1324 43.9288 49.4996 44.0773 48.9918 44.3741C48.4918 44.6632 48.1168 45.0694 47.8668 45.5929C47.6168 46.1163 47.4918 46.7179 47.4918 47.3976H45.3238C45.3238 46.4366 45.5347 45.5577 45.9566 44.7608C46.3785 43.964 47.0035 43.3312 47.8316 42.8624C48.6597 42.3858 49.6793 42.1476 50.8902 42.1476C51.9683 42.1476 52.8902 42.339 53.6558 42.7218C54.4214 43.0968 55.0074 43.628 55.4136 44.3155C55.8277 44.9952 56.0347 45.7921 56.0347 46.7062C56.0347 47.2062 55.9488 47.714 55.7769 48.2296C55.6129 48.7374 55.3824 49.2452 55.0855 49.753C54.7964 50.2608 54.4566 50.7608 54.066 51.253C53.6832 51.7452 53.273 52.2296 52.8355 52.7062L48.2652 57.6632H56.8199Z"
        fill="white" />
</svg>