<svg width="320" height="316" viewBox="0 0 320 316" fill="none" xmlns="http://www.w3.org/2000/svg">
<path d="M27.1876 0.857617C24.393 0.312162 21.5122 0.392582 18.7525 1.09309C15.9928 1.79359 13.4228 3.09676 11.2276 4.90877C9.0324 6.72079 7.26649 8.99658 6.05711 11.5723C4.84772 14.1481 4.22493 16.9597 4.23349 19.8049C4.24287 23.1963 5.16309 26.5231 6.89814 29.438V29.4879C7.41116 30.2944 7.97099 31.0703 8.57478 31.8114C8.88416 32.2003 9.17358 32.5494 9.38316 32.8086L9.62267 33.1078L9.69254 33.1876L20.9899 48.1459C21.267 48.5329 21.6325 48.8484 22.056 49.0659C22.4795 49.2835 22.9489 49.397 23.4251 49.397C23.9013 49.397 24.3707 49.2835 24.7942 49.0659C25.2177 48.8484 25.5831 48.5329 25.8602 48.1459L37.3173 32.9682C37.7065 32.4197 38.1057 31.971 38.485 31.4923L38.7245 31.1931C39.1759 30.6621 39.583 30.0951 39.942 29.4979V29.448C41.4954 26.7979 42.3891 23.8138 42.5478 20.7467C42.7066 17.6796 42.1258 14.6193 40.8543 11.8232C39.5828 9.02717 37.6578 6.57715 35.2413 4.67931C32.8248 2.78148 29.9874 1.49134 26.968 0.917451L27.1876 0.857617ZM32.6965 19.6453C32.6965 21.4638 32.1569 23.2414 31.1458 24.7534C30.1347 26.2654 28.6976 27.4439 27.0162 28.1398C25.3349 28.8357 23.4848 29.0178 21.6998 28.663C19.9149 28.3083 18.2753 27.4326 16.9884 26.1467C15.7016 24.8609 14.8252 23.2226 14.4702 21.439C14.1151 19.6555 14.2973 17.8068 14.9938 16.1268C15.6902 14.4467 16.8696 13.0107 18.3828 12.0004C19.896 10.9901 21.675 10.4509 23.4949 10.4509C25.9354 10.4509 28.2758 11.4196 30.0015 13.1439C31.7271 14.8682 32.6965 17.2068 32.6965 19.6453Z" stroke="#606166"/>
<path d="M253.532 286.622C253.458 286.613 253.387 286.589 253.323 286.552C253.11 286.493 252.9 286.423 252.694 286.343C251.914 286.149 251.145 285.916 250.389 285.645C248.393 285.086 245.399 284.248 241.656 283.201L241.726 283.341C242.145 281.875 242.724 280.2 243.193 278.355V278.285L243.123 278.215C240.713 276.172 238.659 273.742 237.045 271.025C236.184 269.483 235.514 267.842 235.049 266.139C234.582 264.316 234.464 262.421 234.7 260.554C235.352 256.511 237.374 252.814 240.429 250.084C243.756 247.184 247.91 245.402 252.305 244.988C255.61 244.683 258.933 245.338 261.876 246.873C264.704 248.257 267.15 250.311 269.001 252.856C270.697 255.251 271.755 258.037 272.075 260.953C272.145 261.651 272.215 262.349 272.215 263.047C272.215 263.746 272.145 264.444 272.145 265.042C272.027 266.34 271.793 267.625 271.447 268.881C271.109 270.069 270.64 271.217 270.049 272.302C269.505 273.335 268.835 274.296 268.053 275.164C266.665 276.743 265.01 278.066 263.163 279.073C260.479 280.583 257.545 281.596 254.5 282.064H254.431V282.134C254.151 283.53 253.942 284.577 253.732 285.276C253.662 285.55 253.616 285.831 253.592 286.113C253.592 286.462 253.522 286.532 253.592 286.532C253.603 286.436 253.627 286.342 253.662 286.253C253.732 286.043 253.802 285.764 253.872 285.485C254.011 284.717 254.291 283.67 254.64 282.274L254.57 282.344C257.643 281.937 260.608 280.942 263.303 279.412C265.172 278.362 266.858 277.015 268.293 275.423C269.085 274.541 269.787 273.582 270.389 272.561C271.003 271.454 271.495 270.284 271.856 269.071C272.196 267.789 272.43 266.482 272.554 265.162C272.554 264.464 272.624 263.765 272.624 263.067C272.624 262.369 272.554 261.671 272.484 260.973C272.179 257.989 271.121 255.131 269.411 252.666C267.532 250.052 265.036 247.942 262.145 246.523C259.138 244.951 255.748 244.26 252.365 244.529C247.882 244.946 243.648 246.78 240.279 249.764C238.703 251.194 237.38 252.88 236.367 254.751C236.092 255.194 235.859 255.661 235.668 256.147C235.452 256.6 235.265 257.066 235.109 257.543L234.69 259.009C234.62 259.497 234.48 260.006 234.411 260.475C234.174 262.388 234.292 264.328 234.76 266.199C235.211 267.954 235.918 269.634 236.856 271.185C238.498 273.922 240.602 276.354 243.073 278.375L243.003 278.235C242.445 280.05 242.005 281.725 241.536 283.221V283.361H241.676C245.449 284.358 248.453 285.176 250.478 285.734C251.456 286.014 252.225 286.223 252.784 286.363C252.966 286.426 253.153 286.473 253.343 286.502C253.402 286.548 253.465 286.588 253.532 286.622Z" fill="#606166"/>
<path d="M240.479 286.622C240.479 286.692 243.204 287.529 246.557 288.507C248.57 289.136 250.624 289.626 252.705 289.972C252.705 289.903 249.98 289.065 246.627 288.088C243.274 287.11 240.559 286.552 240.479 286.622Z" fill="#DEDEDE"/>
<path d="M243.203 292.346C243.833 292.774 244.548 293.06 245.299 293.184C246.024 293.394 246.783 293.465 247.534 293.393C246.839 293.115 246.112 292.927 245.369 292.835C244.66 292.617 243.936 292.454 243.203 292.346Z" fill="#DEDEDE"/>
<path d="M251.028 285.994C251.037 285.92 251.061 285.848 251.098 285.784C251.168 285.645 251.168 285.435 251.238 285.226C251.378 284.667 251.587 283.899 251.797 282.922C252.286 280.928 252.984 278.036 253.893 274.476C254.312 272.661 254.801 270.776 255.29 268.682C255.396 268.155 255.61 267.656 255.919 267.216C256.041 267.004 256.236 266.845 256.468 266.768C256.699 266.69 256.952 266.701 257.176 266.797C257.389 266.943 257.559 267.142 257.67 267.375C257.78 267.608 257.827 267.866 257.805 268.123C257.762 268.689 257.542 269.226 257.176 269.659C256.768 270.084 256.261 270.401 255.7 270.584C255.14 270.766 254.543 270.808 253.963 270.706C253.342 270.613 252.756 270.366 252.255 269.988C251.755 269.61 251.357 269.113 251.098 268.542C250.541 267.368 250.393 266.041 250.679 264.773C250.8 264.148 251.09 263.568 251.517 263.097C251.734 262.881 252.016 262.743 252.32 262.705C252.623 262.668 252.931 262.732 253.194 262.888C253.419 263.096 253.574 263.37 253.637 263.67C253.699 263.97 253.667 264.282 253.543 264.563C253.235 265.14 252.776 265.622 252.216 265.959C251.189 266.772 249.955 267.28 248.653 267.425C248.033 267.51 247.402 267.413 246.837 267.146C246.286 266.895 245.806 266.511 245.44 266.029C245.071 265.57 244.852 265.01 244.811 264.424C244.774 264.142 244.806 263.855 244.903 263.588C245 263.32 245.16 263.08 245.37 262.888C245.543 262.676 245.773 262.518 246.032 262.431C246.292 262.345 246.571 262.334 246.837 262.399C247.078 262.495 247.294 262.646 247.468 262.84C247.641 263.034 247.767 263.265 247.835 263.516C248.056 264.578 248.032 265.676 247.765 266.727C247.416 268.821 247.066 270.846 246.767 272.591C246.068 276.151 245.44 279.083 245.02 281.107C244.811 282.104 244.671 282.852 244.531 283.411C244.461 283.69 244.461 283.83 244.392 284.039V284.248C244.4 284.175 244.424 284.103 244.462 284.039C244.523 283.833 244.57 283.623 244.601 283.411C244.741 282.852 244.881 282.084 245.16 281.107C245.649 279.113 246.278 276.221 246.977 272.661C247.326 270.846 247.745 268.891 248.094 266.797C248.164 266.239 248.234 265.75 248.304 265.191C248.397 264.607 248.349 264.009 248.164 263.446C248.065 263.146 247.901 262.872 247.684 262.643C247.466 262.413 247.201 262.235 246.907 262.12C246.582 262.033 246.239 262.039 245.918 262.138C245.597 262.237 245.31 262.424 245.09 262.678C244.649 263.177 244.423 263.829 244.462 264.493C244.469 265.162 244.717 265.807 245.16 266.308C245.569 266.839 246.095 267.269 246.697 267.565C247.328 267.827 248.015 267.923 248.693 267.844C250.076 267.722 251.391 267.187 252.466 266.308C253.071 265.913 253.555 265.357 253.863 264.703C254.025 264.355 254.072 263.964 253.996 263.587C253.921 263.211 253.727 262.868 253.444 262.609C253.107 262.395 252.706 262.306 252.31 262.357C251.915 262.408 251.549 262.596 251.278 262.888C250.758 263.398 250.41 264.056 250.28 264.773C249.924 266.128 250.073 267.567 250.699 268.821C250.982 269.442 251.42 269.979 251.97 270.383C252.521 270.786 253.165 271.042 253.843 271.125C254.488 271.226 255.149 271.171 255.769 270.964C256.388 270.758 256.95 270.406 257.406 269.938C257.836 269.456 258.083 268.839 258.104 268.193C258.136 267.873 258.073 267.551 257.924 267.266C257.775 266.981 257.547 266.745 257.266 266.588C256.95 266.454 256.599 266.429 256.268 266.518C255.994 266.646 255.755 266.837 255.569 267.076C255.243 267.532 255.027 268.058 254.941 268.612C254.452 270.706 253.943 272.661 253.543 274.476C252.705 278.036 252.076 280.898 251.547 282.922C251.338 283.919 251.128 284.667 251.058 285.226C250.988 285.505 250.988 285.645 250.919 285.854L251.028 285.994Z" fill="#DEDEDE"/>
<path d="M240.968 289.274C242.57 289.872 244.202 290.385 245.858 290.81C247.491 291.323 249.159 291.719 250.848 291.997C249.246 291.399 247.614 290.886 245.958 290.461C244.331 289.925 242.662 289.528 240.968 289.274Z" fill="#DEDEDE"/>
<path d="M9.78027 315.302C9.78027 315.372 76.427 315.511 158.653 315.511C240.878 315.511 307.595 315.442 307.595 315.302C307.595 315.162 240.948 315.093 158.653 315.093C76.3572 315.093 9.78027 315.162 9.78027 315.302Z" fill="#606166"/>
<path d="M21.9961 34.4541H295.08V51.9055H21.9961V34.4541Z" fill="#DEDEDE"/>
<path d="M294.661 68.4793H22.5752V220.496H294.661V68.4793Z" stroke="#606166"/>
<path d="M22.0762 51.8556H59.5212L63.2937 41.0357H124.072L127.785 51.8556H295.1V68.3596H22.0762V51.8556Z" fill="#E9E9E9"/>
<path d="M40.1895 43.1997C40.1895 43.5942 40.3066 43.9798 40.5259 44.3077C40.7452 44.6357 41.0569 44.8914 41.4217 45.0423C41.7864 45.1933 42.1877 45.2328 42.5749 45.1558C42.9621 45.0789 43.3177 44.8889 43.5969 44.61C43.876 44.331 44.0661 43.9757 44.1432 43.5888C44.2202 43.2019 44.1806 42.8009 44.0296 42.4365C43.8785 42.072 43.6226 41.7605 43.2944 41.5414C42.9661 41.3222 42.5802 41.2052 42.1855 41.2052C41.6561 41.2052 41.1484 41.4154 40.7741 41.7894C40.3998 42.1634 40.1895 42.6707 40.1895 43.1997Z" fill="#606166"/>
<path d="M33.832 43.1997C33.832 43.5942 33.9491 43.9798 34.1685 44.3077C34.3878 44.6357 34.6995 44.8914 35.0642 45.0423C35.4289 45.1933 35.8303 45.2328 36.2175 45.1558C36.6046 45.0789 36.9603 44.8889 37.2395 44.61C37.5186 44.331 37.7087 43.9757 37.7857 43.5888C37.8627 43.2019 37.8232 42.8009 37.6721 42.4365C37.5211 42.072 37.2652 41.7605 36.937 41.5414C36.6087 41.3222 36.2228 41.2052 35.828 41.2052C35.2987 41.2052 34.791 41.4154 34.4167 41.7894C34.0424 42.1634 33.832 42.6707 33.832 43.1997Z" fill="#606166"/>
<path d="M27.4746 43.1997C27.4746 43.5942 27.5917 43.9798 27.811 44.3077C28.0304 44.6357 28.342 44.8914 28.7068 45.0423C29.0715 45.1933 29.4728 45.2328 29.86 45.1558C30.2472 45.0789 30.6029 44.8889 30.882 44.61C31.1612 44.331 31.3513 43.9757 31.4283 43.5888C31.5053 43.2019 31.4658 42.8009 31.3147 42.4365C31.1636 42.072 30.9078 41.7605 30.5795 41.5414C30.2513 41.3222 29.8654 41.2052 29.4706 41.2052C28.9412 41.2052 28.4336 41.4154 28.0593 41.7894C27.6849 42.1634 27.4746 42.6707 27.4746 43.1997Z" fill="#606166"/>
<path d="M52.2552 65.1187H239.561C240.932 65.1187 242.247 64.5744 243.216 63.6057C244.186 62.6369 244.73 61.323 244.73 59.953C244.73 58.583 244.186 57.2691 243.216 56.3004C242.247 55.3317 240.932 54.7874 239.561 54.7874H52.1853C51.506 54.7861 50.8332 54.9188 50.2054 55.178C49.5776 55.4371 49.0071 55.8175 48.5268 56.2975C48.0465 56.7774 47.6658 57.3474 47.4065 57.9747C47.1471 58.602 47.0143 59.2743 47.0156 59.953C47.0391 61.3278 47.6009 62.6386 48.5804 63.6043C49.5599 64.57 50.8791 65.1136 52.2552 65.1187Z" fill="#F9F9F9"/>
<path d="M59.321 60.5813V62.3763H58.4128V60.7209C58.4128 60.2323 58.2032 60.0228 57.7841 60.0228C57.6765 60.0208 57.5698 60.0417 57.471 60.084C57.3721 60.1264 57.2834 60.1893 57.2107 60.2685C57.1381 60.3477 57.0831 60.4414 57.0494 60.5435C57.0158 60.6456 57.0043 60.7536 57.0156 60.8605V62.3763H56.1074V58.1381H57.0156V59.604C57.1508 59.483 57.3085 59.3899 57.4797 59.33C57.651 59.2701 57.8325 59.2446 58.0136 59.255C58.191 59.2393 58.3696 59.2631 58.5367 59.3245C58.7038 59.3859 58.8552 59.4835 58.9802 59.6102C59.1051 59.737 59.2005 59.8897 59.2594 60.0576C59.3183 60.2255 59.3394 60.4043 59.321 60.5813Z" fill="#606166"/>
<path d="M62.1257 62.1868C61.9209 62.3287 61.6763 62.4021 61.4271 62.3962C61.2756 62.4158 61.1217 62.4004 60.9772 62.3512C60.8326 62.302 60.7013 62.2203 60.5934 62.1124C60.4854 62.0045 60.4036 61.8733 60.3544 61.7289C60.3052 61.5845 60.2897 61.4307 60.3093 61.2794V60.0228H59.8203V59.3248H60.3093V58.5569H61.2175V59.3248H61.986V60.0228H61.2175V61.2794C61.2175 61.5586 61.3572 61.6982 61.5668 61.6982C61.6964 61.696 61.8207 61.6463 61.9161 61.5586L62.1257 62.1868Z" fill="#606166"/>
<path d="M64.4909 62.1868C64.2861 62.3287 64.0415 62.4021 63.7923 62.3962C63.6409 62.4158 63.4869 62.4004 63.3424 62.3512C63.1979 62.302 63.0666 62.2203 62.9586 62.1124C62.8506 62.0045 62.7689 61.8733 62.7196 61.7289C62.6704 61.5845 62.655 61.4307 62.6746 61.2794V60.0228H62.1855V59.3248H62.6746V58.5569H63.5827V59.3248H64.3512V60.0228H63.5827V61.2794C63.5827 61.5586 63.7225 61.6982 63.9321 61.6982C64.0617 61.696 64.186 61.6463 64.2813 61.5586L64.4909 62.1868Z" fill="#606166"/>
<path d="M68.3435 60.7907C68.3516 60.9969 68.3178 61.2026 68.244 61.3953C68.1703 61.5881 68.0582 61.7639 67.9146 61.9121C67.7709 62.0603 67.5986 62.1779 67.4082 62.2576C67.2177 62.3374 67.0131 62.3778 66.8066 62.3763C66.4706 62.379 66.146 62.2543 65.8984 62.0273V63.4234H64.9902V59.235H65.8285V59.5841C65.9487 59.4389 66.1023 59.3251 66.2761 59.2521C66.4498 59.1792 66.6387 59.1494 66.8265 59.1652C67.0349 59.1661 67.2409 59.2097 67.4318 59.2931C67.6227 59.3765 67.7944 59.4981 67.9366 59.6504C68.0787 59.8027 68.1881 59.9824 68.2581 60.1785C68.328 60.3746 68.3571 60.583 68.3435 60.7907ZM67.5052 60.7907C67.5165 60.6838 67.505 60.5758 67.4714 60.4737C67.4377 60.3716 67.3827 60.2779 67.3101 60.1987C67.2374 60.1195 67.1487 60.0566 67.0498 60.0142C66.951 59.9719 66.8443 59.951 66.7367 59.953C66.6306 59.9555 66.526 59.9794 66.4293 60.0233C66.3325 60.0671 66.2457 60.1301 66.1739 60.2083C66.1021 60.2865 66.0469 60.3784 66.0116 60.4785C65.9762 60.5786 65.9615 60.6848 65.9683 60.7907C65.9683 60.9944 66.0492 61.1897 66.1933 61.3337C66.3374 61.4777 66.5329 61.5586 66.7367 61.5586C66.9406 61.5586 67.136 61.4777 67.2801 61.3337C67.4242 61.1897 67.5052 60.9944 67.5052 60.7907Z" fill="#606166"/>
<path d="M68.7526 59.7436C68.7526 59.6332 68.7855 59.5252 68.8469 59.4334C68.9083 59.3415 68.9955 59.27 69.0977 59.2277C69.1998 59.1854 69.3121 59.1744 69.4206 59.1959C69.529 59.2175 69.6286 59.2706 69.7067 59.3487C69.7849 59.4268 69.8381 59.5263 69.8597 59.6347C69.8812 59.743 69.8702 59.8553 69.8279 59.9573C69.7856 60.0594 69.714 60.1466 69.6221 60.208C69.5302 60.2693 69.4221 60.3021 69.3115 60.3021C69.2366 60.3081 69.1613 60.2978 69.0908 60.2718C69.0202 60.2459 68.9561 60.205 68.903 60.1519C68.8498 60.0988 68.8089 60.0347 68.7829 59.9643C68.757 59.8938 68.7466 59.8185 68.7526 59.7436ZM68.7526 61.8378C68.7526 61.7273 68.7855 61.6194 68.8469 61.5275C68.9083 61.4357 68.9955 61.3641 69.0977 61.3219C69.1998 61.2796 69.3121 61.2685 69.4206 61.2901C69.529 61.3116 69.6286 61.3648 69.7067 61.4429C69.7849 61.521 69.8381 61.6205 69.8597 61.7288C69.8812 61.8372 69.8702 61.9495 69.8279 62.0515C69.7856 62.1535 69.714 62.2408 69.6221 62.3021C69.5302 62.3635 69.4221 62.3962 69.3115 62.3962C69.2378 62.3976 69.1645 62.3841 69.0961 62.3565C69.0277 62.3289 68.9655 62.2878 68.9133 62.2357C68.8612 62.1836 68.8201 62.1215 68.7925 62.0531C68.7649 61.9847 68.7513 61.9115 68.7526 61.8378Z" fill="#606166"/>
<path d="M72.0461 57.5098H72.8145L70.8984 62.8849H70.1299L72.0461 57.5098Z" fill="#606166"/>
<path d="M73.8921 57.5098H74.6606L72.7743 62.8849H72.0059L73.8921 57.5098Z" fill="#606166"/>
<path d="M52.4051 95.5539H215.609C218.054 95.5539 220.4 94.5831 222.129 92.8551C223.859 91.1271 224.83 88.7834 224.83 86.3396C224.83 83.8958 223.859 81.5521 222.129 79.824C220.4 78.096 218.054 77.1252 215.609 77.1252H52.4051C49.9594 77.1252 47.6139 78.096 45.8846 79.824C44.1552 81.5521 43.1836 83.8958 43.1836 86.3396C43.1836 88.7834 44.1552 91.1271 45.8846 92.8551C47.6139 94.5831 49.9594 95.5539 52.4051 95.5539Z" fill="#F9F9F9"/>
<path d="M52.4047 95.5539C51.1057 95.5145 49.8258 95.2303 48.6323 94.7162C47.1983 94.0526 45.9505 93.0455 44.9995 91.7844C44.3932 90.992 43.9428 90.0919 43.6722 89.1318C43.3422 88.0475 43.2237 86.91 43.3229 85.7811C43.4232 84.4468 43.8125 83.1501 44.4639 81.981C45.1152 80.8118 46.0131 79.7981 47.0954 79.01C48.3246 78.0997 49.7685 77.5226 51.2869 77.3346C52.0554 77.2648 52.8937 77.2648 53.7321 77.2648H79.6802C114.471 77.2648 162.465 77.2648 215.558 77.3346C217.182 77.3201 218.778 77.755 220.169 78.5911C221.2 79.2114 222.098 80.0309 222.808 81.0018C223.518 81.9727 224.028 83.0754 224.307 84.2454C224.586 85.4154 224.628 86.6293 224.432 87.8159C224.235 89.0025 223.804 90.1381 223.163 91.1561C222.311 92.4972 221.133 93.6016 219.74 94.3672C218.336 95.0808 216.773 95.4241 215.199 95.3644H169.72C146.766 95.3644 126.057 95.3644 108.662 95.4342C91.267 95.504 77.2251 95.504 67.5145 95.504H53.4527C53.1213 95.4623 52.786 95.4623 52.4547 95.504H67.5445C77.255 95.504 91.3668 95.504 108.692 95.5738C126.018 95.6437 146.766 95.5738 169.75 95.6437H215.229C216.861 95.6982 218.478 95.3124 219.91 94.5268C221.376 93.7799 222.608 92.645 223.473 91.2459C224.356 89.8299 224.848 88.2048 224.897 86.5369C224.946 84.8689 224.551 83.2178 223.752 81.7523C222.932 80.2946 221.754 79.0694 220.329 78.1922C218.877 77.3102 217.208 76.8508 215.509 76.8659C162.485 76.8659 114.421 76.9357 79.6303 76.9357H53.6822C52.8439 76.9357 52.0055 76.9357 51.2371 77.0055C49.6757 77.1928 48.1864 77.7689 46.9058 78.6809C45.7565 79.5406 44.8038 80.6353 44.1113 81.8919C43.5377 82.9773 43.1867 84.1661 43.0787 85.3887C42.9707 86.6113 43.1081 87.8432 43.4826 89.0121C43.8054 89.986 44.2767 90.9043 44.8798 91.7345C45.8108 93.0147 47.0641 94.0262 48.5125 94.6664C49.3929 95.081 50.3382 95.3407 51.3069 95.4342C52.0554 95.5539 52.4047 95.5539 52.4047 95.5539Z" fill="#2E353A"/>
<path d="M53.084 88.3041L53.4333 87.5362C53.8572 87.8521 54.3715 88.0234 54.9003 88.0249C55.529 88.0249 55.7386 87.8155 55.7386 87.5362C55.7386 86.6986 53.1538 87.257 53.1538 85.6515C53.1538 84.8836 53.7825 84.2554 55.04 84.2554C55.582 84.2442 56.1158 84.3896 56.577 84.6742L56.2277 85.4421C55.8412 85.2299 55.4107 85.1104 54.9702 85.093C54.3414 85.093 54.1319 85.3024 54.1319 85.5817C54.1319 86.4193 56.7167 85.8609 56.7167 87.4664C56.7167 88.2343 56.088 88.8625 54.8305 88.8625C54.2149 88.8043 53.6191 88.6138 53.084 88.3041Z" fill="#606166"/>
<path d="M60.7088 87.3069H58.124C58.1782 87.5239 58.309 87.7141 58.4924 87.8424C58.6758 87.9707 58.8994 88.0284 59.122 88.0049C59.2781 88.0062 59.4328 87.976 59.5769 87.916C59.7209 87.856 59.8513 87.7675 59.9603 87.6559L60.5192 88.2143C60.339 88.4008 60.1213 88.5469 59.8805 88.6431C59.6397 88.7394 59.3812 88.7836 59.122 88.7728C58.8738 88.8021 58.6221 88.7791 58.3833 88.7051C58.1446 88.6312 57.924 88.508 57.7358 88.3435C57.5477 88.179 57.3962 87.9769 57.2912 87.7502C57.1861 87.5236 57.1299 87.2774 57.126 87.0276C57.1243 86.7951 57.1703 86.5647 57.261 86.3506C57.3517 86.1364 57.4853 85.9431 57.6535 85.7824C57.8218 85.6218 58.0211 85.4972 58.2393 85.4164C58.4575 85.3356 58.69 85.3002 58.9224 85.3124C59.154 85.3041 59.3849 85.3435 59.6006 85.4282C59.8163 85.5129 60.0121 85.6412 60.176 85.8049C60.3399 85.9687 60.4683 86.1644 60.5531 86.3799C60.6379 86.5955 60.6773 86.8261 60.6689 87.0576C60.7787 87.1074 60.7787 87.1772 60.7088 87.3069ZM58.124 86.6786H59.8007C59.7697 86.4787 59.6682 86.2964 59.5144 86.1647C59.3607 86.033 59.1648 85.9606 58.9623 85.9606C58.7598 85.9606 58.564 86.033 58.4103 86.1647C58.2565 86.2964 58.155 86.4787 58.124 86.6786Z" fill="#606166"/>
<path d="M64.3414 86.7584V88.7528H63.4332V88.3041C63.3155 88.4565 63.1642 88.5798 62.9912 88.6646C62.8181 88.7493 62.6279 88.7931 62.4352 88.7927C61.6668 88.7927 61.1777 88.3739 61.1777 87.7955C61.1777 87.2171 61.5969 86.7484 62.6448 86.7484H63.4133C63.417 86.6496 63.3992 86.5512 63.3609 86.4601C63.3226 86.3689 63.2648 86.2872 63.1916 86.2207C63.1184 86.1542 63.0316 86.1045 62.9371 86.0751C62.8426 86.0456 62.7428 86.0372 62.6448 86.0504C62.281 86.0434 61.9268 86.1672 61.6468 86.3994L61.2975 85.7013C61.729 85.4083 62.2432 85.2615 62.7645 85.2825C63.7126 85.3124 64.3414 85.7113 64.3414 86.7584ZM63.3434 87.6659V87.3069H62.6448C62.1557 87.3069 62.016 87.4465 62.016 87.7257C62.016 88.0049 62.2256 88.1445 62.5749 88.1445C62.7352 88.134 62.8905 88.085 63.0278 88.0017C63.1651 87.9184 63.2802 87.8032 63.3634 87.6659H63.3434Z" fill="#606166"/>
<path d="M67.3355 85.3124V86.2199H67.1259C66.567 86.2199 66.2177 86.4991 66.2177 87.2171V88.8226H65.2197V85.4022H66.2177V85.821C66.3429 85.6456 66.5122 85.5063 66.7084 85.417C66.9046 85.3277 67.1209 85.2916 67.3355 85.3124Z" fill="#606166"/>
<path d="M67.6242 87.0376C67.6204 86.7953 67.6677 86.5549 67.7631 86.3321C67.8584 86.1093 67.9996 85.909 68.1776 85.7444C68.3555 85.5797 68.5662 85.4544 68.7958 85.3765C69.0255 85.2987 69.269 85.27 69.5105 85.2925C69.8203 85.2687 70.1304 85.3351 70.4032 85.4838C70.6759 85.6325 70.8998 85.857 71.0474 86.1301L70.279 86.549C70.207 86.4058 70.0975 86.2848 69.9622 86.1987C69.8269 86.1127 69.6708 86.0649 69.5105 86.0603C69.2458 86.0603 68.992 86.1654 68.8048 86.3524C68.6176 86.5394 68.5125 86.7931 68.5125 87.0576C68.5125 87.322 68.6176 87.5757 68.8048 87.7627C68.992 87.9497 69.2458 88.0548 69.5105 88.0548C69.6708 88.0502 69.8269 88.0024 69.9622 87.9164C70.0975 87.8304 70.207 87.7093 70.279 87.5661L71.0474 87.985C70.8998 88.2581 70.6759 88.4827 70.4032 88.6313C70.1304 88.78 69.8203 88.8465 69.5105 88.8226C69.2683 88.8334 69.0265 88.7953 68.7993 88.7106C68.5722 88.626 68.3644 88.4965 68.1884 88.33C68.0124 88.1634 67.8717 87.9631 67.7748 87.7411C67.6779 87.5191 67.6267 87.2798 67.6242 87.0376Z" fill="#606166"/>
<path d="M75.0994 86.7584V88.7528H74.1014V86.9379C74.1014 86.3794 73.8219 86.1002 73.4028 86.1002C73.2842 86.0913 73.1652 86.1092 73.0546 86.1527C72.944 86.1962 72.8446 86.2642 72.764 86.3514C72.6834 86.4387 72.6236 86.5431 72.589 86.6567C72.5545 86.7704 72.546 86.8904 72.5644 87.0077V88.683H71.5664V83.9662H72.5644V85.6415C72.7775 85.4375 73.0466 85.3015 73.3373 85.2508C73.6281 85.2001 73.9273 85.237 74.1969 85.3568C74.4666 85.4765 74.6946 85.6738 74.8517 85.9234C75.0088 86.173 75.0881 86.4636 75.0794 86.7584H75.0994Z" fill="#606166"/>
<path d="M77.5352 88.1545C77.5352 87.9879 77.6014 87.8281 77.7193 87.7103C77.8372 87.5924 77.9972 87.5263 78.1639 87.5263C78.248 87.5203 78.3324 87.5325 78.4113 87.562C78.4903 87.5915 78.562 87.6376 78.6216 87.6971C78.6812 87.7567 78.7273 87.8283 78.7568 87.9073C78.7863 87.9862 78.7985 88.0705 78.7926 88.1545C78.7926 88.3211 78.7264 88.4809 78.6084 88.5987C78.4905 88.7166 78.3307 88.7828 78.1639 88.7828C77.9972 88.7828 77.8372 88.7166 77.7193 88.5987C77.6014 88.4809 77.5352 88.3211 77.5352 88.1545Z" fill="#606166"/>
<path d="M79.2119 88.1545C79.2119 87.9879 79.2781 87.8281 79.3961 87.7103C79.514 87.5924 79.6739 87.5263 79.8407 87.5263C79.9248 87.5203 80.0091 87.5325 80.0881 87.562C80.1671 87.5915 80.2388 87.6376 80.2984 87.6971C80.358 87.7567 80.4041 87.8283 80.4336 87.9073C80.4631 87.9862 80.4753 88.0705 80.4694 88.1545C80.4694 88.3211 80.4031 88.4809 80.2852 88.5987C80.1673 88.7166 80.0074 88.7828 79.8407 88.7828C79.6739 88.7828 79.514 88.7166 79.3961 88.5987C79.2781 88.4809 79.2119 88.3211 79.2119 88.1545Z" fill="#606166"/>
<path d="M80.8779 88.1545C80.8779 87.9879 80.9442 87.8281 81.0621 87.7103C81.18 87.5924 81.3399 87.5263 81.5067 87.5263C81.5908 87.5203 81.6751 87.5325 81.7541 87.562C81.8331 87.5915 81.9048 87.6376 81.9644 87.6971C82.024 87.7567 82.0701 87.8283 82.0996 87.9073C82.1291 87.9862 82.1413 88.0705 82.1354 88.1545C82.1354 88.3211 82.0692 88.4809 81.9513 88.5987C81.8334 88.7166 81.6734 88.7828 81.5067 88.7828C81.3399 88.7828 81.18 88.7166 81.0621 88.5987C80.9442 88.4809 80.8779 88.3211 80.8779 88.1545Z" fill="#606166"/>
<path d="M243.812 111.539C243.812 111.609 250.379 111.749 258.413 111.749C266.447 111.749 273.014 111.679 273.014 111.539C273.014 111.4 266.447 111.33 258.413 111.33C250.379 111.33 243.812 111.47 243.812 111.539Z" fill="#606166"/>
<path d="M242.694 119.916H273.084V150.281H242.694V119.916Z" fill="#50ff7f"/>
<path d="M57.9238 127.036C57.9238 127.106 95.6484 127.246 142.175 127.246C188.702 127.246 226.497 127.176 226.497 127.036C226.497 126.897 188.772 126.827 142.175 126.827C95.5785 126.827 57.9238 126.966 57.9238 127.036Z" fill="#606166"/>
<path d="M180.379 138.484C180.379 138.554 190.299 138.694 202.594 138.694C214.89 138.694 224.81 138.624 224.81 138.484C224.81 138.345 214.89 138.275 202.594 138.275C190.299 138.275 180.379 138.415 180.379 138.484Z" fill="#606166"/>
<path d="M84.8701 149.135C84.8701 149.204 116.168 149.344 154.87 149.344C193.573 149.344 224.87 149.274 224.87 149.135C224.87 148.995 193.573 148.925 154.87 148.925C116.168 148.925 84.8701 149.025 84.8701 149.135Z" fill="#606166"/>
<path d="M243.812 165.988C243.812 166.058 250.379 166.197 258.413 166.197C266.447 166.197 273.014 166.127 273.014 165.988C273.014 165.848 266.447 165.778 258.413 165.778C250.379 165.778 243.812 165.848 243.812 165.988Z" fill="#606166"/>
<path d="M242.694 174.295H273.084V204.66H242.694V174.295Z" fill="#606166"/>
<path d="M47.9443 181.485C47.9443 181.554 87.8645 181.694 137.226 181.694C186.587 181.694 226.507 181.624 226.507 181.485C226.507 181.345 186.587 181.275 137.226 181.275C87.8645 181.275 47.9443 181.415 47.9443 181.485Z" fill="#606166"/>
<path d="M180.379 192.933C180.379 193.003 190.299 193.142 202.594 193.142C214.89 193.142 224.81 193.072 224.81 192.933C224.81 192.793 214.89 192.723 202.594 192.723C190.299 192.723 180.379 192.793 180.379 192.933Z" fill="#606166"/>
<path d="M60.499 203.543C60.499 203.613 97.3154 203.753 142.655 203.753C187.994 203.753 224.81 203.683 224.81 203.543C224.81 203.404 188.064 203.334 142.655 203.334C97.2455 203.334 60.499 203.404 60.499 203.543Z" fill="#50ff7f"/>
<path d="M22.0763 221.413C22.0763 220.227 22.1461 148.257 22.2159 34.474L22.0763 34.6136C97.6651 34.6136 192.465 34.6136 295.09 34.6834L294.881 34.474V221.413L295.02 221.274C134.062 221.344 23.5633 221.413 22.0763 221.413C23.5433 221.413 134.062 221.483 295.16 221.553H295.3V34.2646H295.09C192.465 34.2646 97.6651 34.2646 22.0763 34.3344H21.9365V34.4541C21.9964 148.257 22.0763 220.227 22.0763 221.413Z" fill="#2E353A"/>
<path d="M71.7666 46.0218C71.7666 46.0916 81.4073 46.2313 93.2836 46.2313C105.16 46.2313 114.811 46.1615 114.811 46.0218C114.811 45.8822 105.17 45.8124 93.2936 45.8124C81.4173 45.8124 71.7666 45.952 71.7666 46.0218Z" fill="#606166"/>
<path d="M171.696 112.517C171.696 112.586 183.573 112.726 198.243 112.726C212.914 112.726 224.79 112.656 224.79 112.517C224.79 112.377 212.914 112.307 198.243 112.307C183.573 112.307 171.696 112.447 171.696 112.517Z" fill="#50ff7f"/>
<path d="M171.696 165.988C171.696 166.058 183.573 166.197 198.243 166.197C212.914 166.197 224.79 166.127 224.79 165.988C224.79 165.848 212.914 165.778 198.243 165.778C183.573 165.778 171.696 165.848 171.696 165.988Z" fill="#50ff7f"/>
<path d="M208.293 89.411C207.409 89.411 206.545 89.149 205.809 88.6581C205.074 88.1672 204.501 87.4695 204.163 86.6531C203.824 85.8368 203.736 84.9385 203.908 84.0719C204.081 83.2053 204.507 82.4092 205.132 81.7844C205.757 81.1596 206.554 80.7341 207.421 80.5617C208.288 80.3894 209.187 80.4778 210.004 80.816C210.821 81.1541 211.52 81.7267 212.011 82.4614C212.502 83.1961 212.764 84.0598 212.764 84.9434C212.744 86.1219 212.266 87.2464 211.432 88.0798C210.598 88.9132 209.473 89.3905 208.293 89.411ZM208.293 81.2438C207.547 81.2438 206.818 81.4648 206.197 81.879C205.577 82.2932 205.094 82.8819 204.808 83.5707C204.522 84.2595 204.448 85.0174 204.593 85.7486C204.739 86.4799 205.098 87.1515 205.626 87.6787C206.153 88.2059 206.826 88.5649 207.557 88.7103C208.289 88.8558 209.048 88.7811 209.737 88.4958C210.426 88.2105 211.015 87.7274 211.43 87.1075C211.845 86.4876 212.066 85.7588 212.066 85.0133C212.045 84.0199 211.641 83.0729 210.938 82.3704C210.235 81.6678 209.287 81.2641 208.293 81.2438Z" fill="#606166"/>
<path d="M213.742 91.3656C213.644 91.376 213.545 91.3513 213.463 91.2958L210.599 88.4337C210.559 88.4037 210.526 88.3655 210.502 88.3216C210.478 88.2777 210.463 88.2291 210.46 88.1793C210.456 88.1294 210.464 88.0793 210.481 88.0325C210.499 87.9856 210.526 87.9431 210.561 87.9077C210.597 87.8724 210.639 87.845 210.686 87.8275C210.733 87.81 210.783 87.8028 210.833 87.8064C210.883 87.8099 210.932 87.8241 210.976 87.8481C211.019 87.872 211.058 87.9051 211.088 87.9451L213.952 90.8071C213.985 90.8388 214.011 90.8767 214.029 90.9187C214.047 90.9607 214.056 91.0058 214.056 91.0514C214.056 91.0971 214.047 91.1422 214.029 91.1842C214.011 91.2262 213.985 91.2641 213.952 91.2958C213.882 91.2958 213.812 91.3656 213.742 91.3656Z" fill="#606166"/>
<path d="M123.792 137.716C123.792 137.786 135.249 137.926 149.361 137.926C163.473 137.926 174.93 137.856 174.93 137.716C174.93 137.577 163.473 137.507 149.361 137.507C135.249 137.507 123.792 137.647 123.792 137.716Z" fill="#606166"/>
<path d="M90.8584 136.949C90.8584 137.018 96.8464 137.158 104.202 137.158C111.557 137.158 117.545 137.088 117.545 136.949C117.545 136.809 111.557 136.739 104.202 136.739C96.8464 136.739 90.8584 136.809 90.8584 136.949Z" fill="#606166"/>
<path d="M124.072 192.933C124.072 193.003 135.529 193.142 149.641 193.142C163.753 193.142 175.21 193.072 175.21 192.933C175.21 192.793 163.753 192.723 149.641 192.723C135.529 192.723 124.072 192.793 124.072 192.933Z" fill="#606166"/>
<path d="M54.3517 204.64C48.693 207.572 44.3717 212.618 41.218 218.182C38.0643 223.747 36.0483 229.84 34.0922 235.913L32.3457 267.186C38.9126 255.947 44.2219 242.824 45.689 229.84L41.2878 229.421C44.222 229.002 46.6671 226.838 48.2739 224.325C49.7104 221.719 50.7689 218.922 51.4175 216.018C49.6012 216.298 47.8547 216.577 46.0383 216.786C50.2864 213.974 53.2689 209.616 54.3517 204.64Z" fill="#606166"/>
<g opacity="0.3">
<path d="M54.3517 204.64C48.693 207.572 44.3717 212.618 41.218 218.182C38.0643 223.747 36.0483 229.84 34.0922 235.913L32.3457 267.186C38.9126 255.947 44.2219 242.824 45.689 229.84L41.2878 229.421C44.222 229.002 46.6671 226.838 48.2739 224.325C49.7104 221.719 50.7689 218.922 51.4175 216.018C49.6012 216.298 47.8547 216.577 46.0383 216.786C50.2864 213.974 53.2689 209.616 54.3517 204.64Z" fill="black"/>
</g>
<path d="M31.3677 274.446C31.3677 274.446 17.0064 257.343 17.1861 241.009H22.9945C22.9945 241.009 16.707 236.89 17.1961 234.587C17.6851 232.283 17.8248 223.557 17.8248 223.557L23.1342 224.884C23.1342 224.884 19.1421 222.889 18.6631 219.788C18.1841 216.687 19.8507 202.127 19.8507 202.127C19.8507 202.127 26.2779 208.898 28.3038 215.809C30.3298 222.72 35.4994 230.767 33.9625 251.968C32.4256 273.169 31.3677 274.446 31.3677 274.446Z" fill="#606166"/>
<path d="M38.6322 276.051C38.6322 276.051 54.1412 265.72 57.5943 252.527L52.9337 251.27C52.9337 251.27 58.8718 249.276 59.0115 247.361C59.1513 245.446 60.8977 238.386 60.8977 238.386L56.3568 238.316C56.3568 238.316 59.9895 237.618 61.0374 235.175C62.0854 232.732 63.9117 220.695 63.9117 220.695C63.9117 220.695 57.275 224.744 54.1313 229.84C50.9876 234.936 45.0494 240.381 41.6961 257.692C38.3428 275.004 38.6322 276.051 38.6322 276.051Z" fill="#606166"/>
<path d="M24 217C24.0083 217.077 24.0315 217.151 24.0681 217.218C24.0967 217.415 24.1422 217.61 24.2041 217.799C24.3402 218.307 24.4763 219.033 24.6805 219.873C25.0887 221.688 25.565 224.374 26.1774 227.64C27.3341 234.247 28.7631 243.394 29.8518 253.63C30.9405 263.866 31.5529 273.085 31.7959 279.837C31.932 283.176 32 285.935 32 287.822V290C32 289.492 31.9319 288.766 31.9319 287.822C31.8639 285.935 31.7959 283.249 31.5918 279.837C31.2515 273.158 30.6197 263.866 29.5504 253.702C28.4811 243.539 27.1009 234.319 25.9441 227.713C25.3998 224.374 24.972 221.76 24.5832 219.873C24.4805 219.174 24.3443 218.482 24.175 217.799C24.1228 217.61 24.0998 217.414 24.1069 217.218C24 217.052 24 217 24 217Z" fill="#2E353A"/>
<path d="M29.4111 284.917C29.4111 284.917 16.2774 270.048 12.2255 261.113L15.2994 259.787C14.1809 259.911 13.0487 259.797 11.9772 259.454C10.9057 259.11 9.91897 258.544 9.08181 257.792C7.4188 256.259 5.98377 254.496 4.82031 252.557L8.87221 251.859C5.15488 250.783 1.98433 248.338 0 245.018C4.7505 245.786 9.08182 248.438 12.6447 251.719C15.462 254.443 18.0335 257.409 20.3293 260.584C21.4733 262.119 22.4754 263.755 23.3233 265.471C25.499 269.978 29.4111 279.472 29.4111 284.917Z" fill="#606166"/>
<path d="M58 229C57.9943 229.056 57.9682 229.108 57.9263 229.146L57.7052 229.584C57.484 230.022 57.1891 230.626 56.8943 231.335C56.1571 232.794 55.1251 234.983 53.8719 237.683C51.3655 243.083 47.9746 250.598 44.6573 258.989C41.3401 267.38 38.76 275.261 36.9171 280.879C36.0325 283.725 35.2953 285.987 34.8109 287.592C34.5898 288.395 34.3686 288.978 34.2212 289.416C34.1602 289.558 34.1109 289.704 34.0737 289.854C34.0319 289.892 34.0057 289.944 34 290V289.854C34.0241 289.678 34.0738 289.506 34.1474 289.343C34.2949 288.906 34.4423 288.249 34.6635 287.519C35.1058 285.914 35.7166 283.579 36.5801 280.733C38.2756 275.042 40.8556 267.234 44.1729 258.77C47.4901 250.306 50.8811 242.791 53.4612 237.464C54.7881 234.764 55.8201 232.648 56.6204 231.21C56.989 230.48 57.2839 229.896 57.5051 229.532L57.7262 229.094C58.0001 229.073 58 229 58 229Z" fill="#2E353A"/>
<path d="M30.4591 291.269L30.2495 290.272C30.1098 289.574 29.9701 288.596 29.6906 287.41C29.0493 284.25 28.1617 281.146 27.0359 278.125C25.8787 275.12 24.501 272.203 22.9141 269.4C22.2854 268.353 21.7964 267.405 21.3772 266.887L20.8184 265.979C21.0561 266.236 21.2668 266.517 21.4471 266.817C21.8663 267.375 22.4451 268.213 23.0539 269.26C24.7629 272.019 26.1906 274.942 27.3154 277.986C28.4567 281.02 29.3218 284.151 29.9002 287.34C30.1131 288.596 30.2528 289.574 30.3194 290.272C30.4591 290.92 30.5289 291.269 30.4591 291.269Z" fill="#2E353A"/>
<path d="M47.7843 289.749H19.1416V295.612H47.7843V289.749Z" fill="#606166"/>
<path d="M21.8662 295.642L24.99 315.327H42.3153L45.1796 295.642H21.8662Z" fill="#606166"/>
<path d="M46.0379 295.642C46.0379 295.712 40.5888 295.852 33.952 295.852C27.3153 295.852 21.8662 295.782 21.8662 295.642C21.8662 295.503 27.3153 295.433 33.952 295.433C40.5888 295.433 46.0379 295.572 46.0379 295.642Z" fill="#2E353A"/>
<path d="M144.681 301.48V316L115.409 315.86C115.619 312.929 131.687 307.065 131.687 307.065L131.337 301.48H144.681Z" fill="#606166"/>
<g opacity="0.6">
<path d="M139.93 305.699C140.217 305.805 140.454 306.014 140.596 306.284C140.738 306.555 140.775 306.869 140.699 307.165C140.674 307.31 140.618 307.449 140.536 307.572C140.454 307.695 140.346 307.799 140.221 307.878C140.096 307.957 139.956 308.009 139.81 308.03C139.663 308.052 139.514 308.042 139.371 308.002C139.069 307.891 138.817 307.675 138.663 307.392C138.509 307.11 138.463 306.781 138.533 306.467C138.743 305.908 139.531 305.419 140 305.768" fill="#606166"/>
</g>
<path d="M144.68 316V313.676L116.736 314.025C116.736 314.025 115.269 314.933 115.409 315.84L144.68 316Z" fill="#85858A"/>
<path d="M131.686 307.274C131.686 307.414 132.385 307.484 133.084 307.972C133.782 308.461 134.132 309.089 134.271 309.019C134.411 308.95 134.201 308.112 133.363 307.484C132.525 306.855 131.617 307.135 131.686 307.274Z" fill="#85858A"/>
<path d="M127.845 308.69C127.845 308.83 128.404 309.109 128.893 309.688C129.382 310.266 129.521 311.014 129.661 311.014C129.801 311.014 129.871 310.176 129.312 309.339C128.753 308.501 127.845 308.531 127.845 308.69Z" fill="#85858A"/>
<path d="M126.107 312.37C126.247 312.37 126.457 311.672 126.107 310.834C125.758 309.997 125.06 309.648 125.06 309.837C125.06 310.027 125.409 310.396 125.688 311.094C125.968 311.792 125.968 312.3 126.107 312.37Z" fill="#85858A"/>
<path d="M131.966 303.156C132.036 303.295 132.664 303.086 133.503 303.156C134.341 303.226 134.9 303.505 134.97 303.365C135.04 303.226 134.481 302.667 133.503 302.597C133.222 302.577 132.939 302.616 132.674 302.712C132.41 302.808 132.168 302.96 131.966 303.156Z" fill="#85858A"/>
<path d="M131.827 307.972C131.771 307.673 131.747 307.369 131.757 307.065C131.838 306.249 132.101 305.462 132.525 304.761C132.822 304.3 133.201 303.898 133.643 303.575C133.782 303.465 133.948 303.394 134.123 303.37C134.299 303.345 134.477 303.368 134.641 303.435C134.825 303.524 134.978 303.667 135.078 303.846C135.178 304.024 135.22 304.229 135.2 304.432C135.14 305.189 134.864 305.913 134.406 306.519C133.949 307.125 133.327 307.587 132.615 307.853C131.907 308.078 131.148 308.085 130.436 307.873C129.724 307.662 129.093 307.241 128.623 306.666C128.397 306.39 128.209 306.085 128.064 305.759C127.994 305.579 127.994 305.38 128.064 305.2C128.094 305.101 128.148 305.011 128.221 304.938C128.294 304.865 128.385 304.811 128.483 304.781C128.785 304.697 129.107 304.721 129.392 304.851C129.634 304.975 129.867 305.115 130.09 305.27C130.751 305.717 131.32 306.285 131.767 306.945C131.949 307.176 132.09 307.435 132.186 307.713C131.562 306.876 130.807 306.145 129.951 305.549C129.531 305.34 129.042 304.991 128.623 305.13C128.414 305.2 128.344 305.409 128.483 305.689C128.595 305.974 128.761 306.235 128.972 306.457C129.406 306.95 129.971 307.311 130.602 307.496C131.233 307.681 131.903 307.684 132.535 307.504C133.168 307.3 133.726 306.913 134.137 306.39C134.548 305.868 134.793 305.235 134.841 304.572C134.85 304.445 134.822 304.317 134.759 304.206C134.697 304.094 134.604 304.003 134.491 303.944C134.383 303.916 134.27 303.914 134.16 303.938C134.051 303.962 133.949 304.012 133.863 304.083C133.442 304.377 133.065 304.73 132.745 305.13C132.303 305.752 132.016 306.47 131.907 307.224C131.862 307.471 131.835 307.721 131.827 307.972Z" fill="#85858A"/>
<path d="M155.369 303.575L154.88 307.274L155.229 315.721L166.207 316L166.556 307.274L165.299 302.109L155.369 303.575Z" fill="#606166"/>
<path d="M160.619 315.093C160.689 315.093 160.549 312.51 160.27 309.368C159.99 306.227 159.711 303.644 159.641 303.575C159.571 303.505 159.711 306.157 159.99 309.299C160.27 312.44 160.549 315.093 160.619 315.093Z" fill="#85858A"/>
<path d="M155.17 314.325L166.278 314.464V316H155.17V314.325Z" fill="#85858A"/>
<path d="M166.208 309.508C166.126 309.361 166.032 309.221 165.928 309.089C165.616 308.737 165.283 308.404 164.93 308.092C164.412 307.61 163.823 307.209 163.184 306.905C162.387 306.493 161.495 306.3 160.599 306.347C159.795 306.335 158.997 306.498 158.262 306.823C157.526 307.149 156.87 307.629 156.337 308.232C156.03 308.592 155.772 308.991 155.569 309.418C155.489 309.577 155.419 309.74 155.359 309.907C155.696 309.37 156.069 308.857 156.477 308.371C157.02 307.834 157.663 307.41 158.37 307.122C159.078 306.834 159.835 306.69 160.599 306.696C162.135 306.756 163.608 307.32 164.79 308.301C165.298 308.661 165.772 309.064 166.208 309.508Z" fill="#85858A"/>
<path d="M160.718 68.7486L160.788 106.643L144.511 107.411L144.022 98.1965C144.022 98.1965 138.223 99.3134 136.756 94.0082C135.758 90.5877 136.058 64.0915 136.058 64.0915L160.718 68.7486Z" fill="#A98676"/>
<path d="M133.932 66.794C136.517 67.5619 137.076 71.6804 137.076 71.6804L141.128 80.5457C143.124 78.9402 145.948 79.01 146.437 82.6399C146.786 85.2227 143.573 85.7811 143.573 85.7811C145.459 88.9922 146.717 91.575 149.441 94.6464C152.375 97.9273 154.052 98.2763 157.265 98.3461H160.828C160.828 98.3461 162.575 92.6919 165.818 78.6609C169.381 63.0245 150.848 65.0489 147.445 61.0699C141.826 54.5082 125.788 64.4904 133.932 66.794Z" fill="#606166"/>
<path d="M129.391 63.3735C129.535 62.5392 129.973 61.7841 130.627 61.2459C131.281 60.7077 132.107 60.4223 132.954 60.4417C132.671 59.9997 132.564 59.4675 132.654 58.9503C132.745 58.4332 133.026 57.9689 133.443 57.6495C133.853 57.3287 134.328 57.1003 134.834 56.9798C135.34 56.8594 135.867 56.8497 136.377 56.9514C137.396 57.148 138.384 57.4836 139.312 57.9486C139.662 56.9347 140.322 56.0559 141.198 55.4356C142.148 54.8788 143.241 54.6119 144.341 54.6678C149.332 54.6678 151.956 58.0882 154.611 61.5785C155 62.2247 155.554 62.755 156.218 63.1142C156.715 63.2672 157.238 63.3148 157.755 63.2538C159.658 63.3205 161.511 63.884 163.129 64.8882C164.747 65.8924 166.073 67.3024 166.976 68.9779C168.723 72.3286 170.05 80.1468 165.509 85.0332L162.785 91.1063L136.767 70.4937C136.557 70.5635 134.95 71.4012 133.693 70.7031C130.549 69.0278 131.876 66.3054 131.876 66.3054C131.557 66.2355 129.112 65.0489 129.391 63.3735Z" fill="#606166"/>
<path d="M153.563 83.687C153.317 84.6285 153.341 85.6205 153.633 86.549C153.778 87.5126 154.162 88.4245 154.751 89.2016C154.89 89.1318 154.332 88.0149 153.982 86.4792C153.896 85.5412 153.756 84.6089 153.563 83.687Z" fill="#606166"/>
<path d="M151.606 81.8022C151.446 82.7318 151.494 83.6854 151.746 84.5944C151.873 85.5198 152.156 86.4169 152.584 87.247C152.522 86.3293 152.382 85.4185 152.165 84.5246C152.031 83.6072 151.845 82.6982 151.606 81.8022Z" fill="#606166"/>
<path d="M145.938 75.5895C145.868 75.6593 146.367 76.0083 146.936 76.5867C147.663 77.4922 148.252 78.5004 148.683 79.5784C149.099 80.6926 149.432 81.8358 149.681 82.9989C149.751 83.5048 149.892 83.9983 150.1 84.4648C150.132 83.9718 150.085 83.477 149.96 82.9989C149.805 81.8019 149.5 80.6292 149.052 79.5086C148.632 78.3451 147.949 77.2941 147.056 76.4371C146.497 75.7989 145.938 75.5197 145.938 75.5895Z" fill="#606166"/>
<path d="M143.643 71.3513C143.573 71.3513 143.433 71.7003 143.293 72.3485C143.173 73.2104 143.22 74.0874 143.433 74.9313C143.66 75.7922 144.039 76.606 144.551 77.3346C144.97 77.8931 145.25 78.1025 145.319 78.1025C144.699 77.097 144.206 76.0184 143.852 74.8914C143.685 73.7192 143.615 72.5351 143.643 71.3513Z" fill="#606166"/>
<path d="M163.063 80.7551C163.133 80.8249 163.622 80.6853 164.181 80.3363C164.74 79.9872 165.179 79.708 165.089 79.5684C165 79.4288 164.531 79.6382 163.972 79.9873C163.617 80.1743 163.307 80.4363 163.063 80.7551Z" fill="#606166"/>
<path d="M155.24 76.7064C155.1 76.7064 155.17 77.5441 155.729 78.3817C156.288 79.2194 156.916 79.6382 156.986 79.5684C156.728 79.0756 156.424 78.6081 156.078 78.1723C155.589 77.4044 155.31 76.7064 155.24 76.7064Z" fill="#606166"/>
<path d="M152.794 75.4499C152.655 75.4499 152.864 76.4471 153.493 77.4443C153.841 78.0802 154.378 78.5924 155.03 78.9103C155.1 78.8404 154.471 78.2122 153.842 77.2349C153.213 76.2576 152.934 75.3402 152.794 75.4499Z" fill="#606166"/>
<path d="M140.759 59.604C141.05 59.3997 141.353 59.2133 141.667 59.0456C142.496 58.5733 143.437 58.3322 144.392 58.3475C145.795 58.3115 147.179 58.6746 148.384 59.3946C149.814 60.3543 150.989 61.6482 151.807 63.1641C152.392 64.3002 152.86 65.4931 153.204 66.7242L153.274 66.9336L153.483 66.794C154.605 66.208 155.85 65.897 157.116 65.8865C158.108 65.8977 159.095 66.0385 160.05 66.3054C160.893 66.6402 161.711 67.0369 162.495 67.492C162.339 67.2974 162.15 67.1319 161.936 67.0034C161.376 66.5949 160.766 66.2597 160.12 66.0062C159.134 65.648 158.095 65.4592 157.046 65.4477C155.714 65.4637 154.402 65.7736 153.204 66.3552L153.483 66.4948C153.172 65.2311 152.702 64.0116 152.086 62.8649C151.262 61.2725 150.033 59.9244 148.523 58.9558C147.251 58.2271 145.796 57.8808 144.332 57.9586C143.345 58.0033 142.385 58.2911 141.537 58.7963C141.318 58.9467 141.108 59.1098 140.909 59.2849C140.849 59.4644 140.759 59.5342 140.759 59.604Z" fill="#606166"/>
<path d="M132.245 61.6284C132.245 61.6284 131.826 61.4888 131.337 62.0472C131.204 62.2124 131.104 62.4022 131.044 62.6058C130.984 62.8094 130.965 63.0229 130.988 63.2339C131.039 63.5175 131.156 63.7852 131.329 64.0155C131.502 64.2458 131.727 64.4324 131.986 64.5602C132.589 64.9098 133.305 65.01 133.982 64.8394C134.704 64.6349 135.381 64.2967 135.978 63.8422C136.606 63.4234 137.235 62.845 137.974 62.4461C138.707 62.0231 139.512 61.7391 140.349 61.6084C141.982 61.2958 143.668 61.4161 145.239 61.9575C146.522 62.4055 147.743 63.0154 148.872 63.7724C149.872 64.5327 150.828 65.3484 151.736 66.2156C151.736 66.2156 151.527 65.9364 151.107 65.4477C150.486 64.7392 149.782 64.1066 149.012 63.563C147.893 62.7034 146.643 62.03 145.309 61.5685C143.666 61.0246 141.911 60.9045 140.209 61.2195C139.325 61.3738 138.474 61.6809 137.694 62.127C136.926 62.5458 136.297 63.1242 135.698 63.5231C135.133 63.9637 134.495 64.3013 133.812 64.5203C133.224 64.6675 132.602 64.5929 132.066 64.3109C131.852 64.1987 131.665 64.0402 131.52 63.847C131.375 63.6538 131.275 63.4307 131.227 63.194C131.2 63.0175 131.211 62.8372 131.259 62.6653C131.308 62.4933 131.392 62.3336 131.507 62.1968C131.826 61.6284 132.245 61.6982 132.245 61.6284Z" fill="#606166"/>
<path d="M56.4569 90.7373C57.0856 90.1789 65.3291 93.6692 65.3291 93.6692C68.3929 96.0496 71.3091 98.6139 74.0616 101.348L75.5986 102.674L99.1415 120.963L128.084 108.996L134.371 125.122C134.371 125.122 101.886 138.085 96.9259 135.802C91.5467 133.428 71.5666 112.487 71.4967 112.417L68.6325 109.625C68.6325 109.625 67.0956 109.625 65.9778 109.555C64.86 109.485 61.4169 107.251 61.4169 107.251C61.1004 106.625 60.888 105.951 60.7882 105.257C60.7214 104.977 60.7464 104.684 60.8597 104.42C60.9729 104.156 61.1683 103.935 61.4169 103.791C61.2849 103.266 61.2611 102.72 61.3471 102.185C61.6334 101.412 62.1146 100.725 62.7443 100.191C62.3553 99.7843 62.0889 99.2762 61.9758 98.7251C61.6964 97.7278 63.0936 96.6309 63.0936 96.6309C63.0936 96.6309 58.2732 93.35 57.1055 92.7916C55.9379 92.2332 55.8281 91.226 56.4569 90.7373Z" fill="#A98676"/>
<path d="M123.792 255.838C123.722 254.79 123.653 253.953 123.653 253.464L120.369 201.389C120.369 201.389 123.094 186.172 124.421 182.123L136.088 177.585L151.667 183.659C151.736 182.402 151.806 181.664 151.806 181.664L174.76 189.552C174.76 189.552 175.319 205.189 174.76 209.935C174.551 211.471 173.992 215.38 173.223 220.057C173.223 220.057 172.455 230.179 172.315 230.737C171.756 232.832 171.617 237.858 171.617 242.884C171.617 249.306 171.267 256.984 170.848 260.614C170.429 264.244 170.219 304.173 170.219 304.173H153.313L151.148 240.51C150.798 233.669 150.239 223.268 149.89 215.729L145.898 239.254C145.898 240.091 143.453 253.564 143.453 253.564C144.03 257.8 144.38 262.065 144.501 266.338C144.78 278.205 146.178 304.233 146.178 304.233H129.601C129.78 304.133 124.79 266.508 123.792 255.838Z" fill="#85858A"/>
<path d="M120.938 198.238C121.501 198.064 122.024 197.779 122.475 197.4C123.651 196.647 124.75 195.782 125.759 194.817C126.776 193.845 127.69 192.769 128.483 191.606C128.851 191.174 129.135 190.677 129.322 190.14C128.951 190.553 128.617 190.996 128.324 191.467C127.485 192.55 126.575 193.576 125.599 194.538C124.6 195.479 123.551 196.365 122.455 197.191C121.924 197.5 121.416 197.85 120.938 198.238Z" fill="#606166"/>
<path d="M150.489 207.662C150.623 207.512 150.74 207.348 150.839 207.173C151.109 206.679 151.342 206.166 151.537 205.637C152.25 203.957 152.766 202.2 153.074 200.402C153.381 198.581 153.498 196.733 153.423 194.887C153.354 194.189 153.354 193.631 153.284 193.212C153.214 192.793 153.214 192.584 153.144 192.584C153.106 193.329 153.129 194.076 153.214 194.817C153.223 196.641 153.082 198.462 152.795 200.262C152.492 202.047 152.025 203.8 151.397 205.498C151.032 206.191 150.728 206.915 150.489 207.662Z" fill="#606166"/>
<path d="M148.043 227.277C148.043 227.277 148.113 226.928 148.253 226.37C148.393 225.811 148.532 224.904 148.742 223.857C149.091 221.693 149.58 218.761 150.139 215.62C151.047 209.756 151.676 205.777 152.025 203.962C151.649 205.048 151.392 206.171 151.257 207.313C150.838 209.407 150.349 212.299 149.79 215.55C149.231 218.801 148.792 221.693 148.532 223.787C148.393 224.784 148.253 225.602 148.183 226.3C148.113 226.998 147.974 227.277 148.043 227.277Z" fill="#606166"/>
<path d="M187.924 140.369C187.924 140.369 190.159 156.075 190.578 161.59C190.858 164.871 187.435 169.269 184.92 169.568C182.405 169.867 173.672 170.405 173.672 170.405L172.974 160.563L173.183 158.568L175.838 158.08L175 142.443L187.924 140.369Z" fill="#A98676"/>
<path d="M175.35 143.092C175.296 143.367 175.272 143.648 175.28 143.929C175.215 144.695 175.191 145.464 175.21 146.233C175.14 148.227 175.21 150.91 175.35 153.911C175.489 156.913 175.769 159.635 175.979 161.59C176.048 162.587 176.188 163.335 176.258 163.894C176.289 164.175 176.336 164.455 176.398 164.731V163.894C176.328 163.265 176.328 162.497 176.258 161.59C176.118 159.596 175.978 156.843 175.769 153.911C175.559 150.98 175.489 148.187 175.489 146.233V143.929C175.42 143.371 175.42 143.092 175.35 143.092Z" fill="#986552"/>
<g opacity="0.3">
<path d="M174.52 189.791C170.119 191.397 165.299 191.537 160.618 191.188C155.938 190.839 151.327 189.861 146.646 189.373C139.561 188.683 132.411 189.155 125.479 190.769C125.005 190.918 124.505 190.966 124.011 190.908C123.764 190.884 123.53 190.784 123.343 190.622C123.155 190.459 123.022 190.242 122.964 190.001C122.824 189.233 123.732 188.675 124.431 188.395C132.421 185.084 141.015 183.474 149.663 183.666C158.312 183.858 166.825 185.849 174.66 189.512" fill="black"/>
</g>
<path d="M107.166 116.007L131.966 103.651C135.884 103.188 139.831 103.025 143.773 103.163H160.19C160.19 103.163 180.15 109.026 183.384 114.401L191.907 139.95L175.07 142.463L172.974 160.822C172.974 160.822 175.07 182.043 175.07 185.184C175.119 186.609 175.025 188.036 174.791 189.442C174.791 189.442 141.048 184.347 132.735 186.999C124.421 189.652 122.186 189.442 122.186 189.442C122.186 189.442 122.885 180.647 123.513 175.481L125.509 149.863L126.907 130.317L111.328 135.064L107.166 116.007Z" fill="#50ff7f"/>
<path d="M175.149 142.742C175.219 142.742 175.359 141.695 175.778 140.02C176.258 137.803 176.926 135.632 177.774 133.528C178.598 131.4 179.555 129.325 180.638 127.315C181.058 126.617 181.407 125.989 181.636 125.501L181.986 124.802C181.804 124.997 181.641 125.207 181.497 125.431C181.217 125.85 180.798 126.478 180.379 127.246C179.218 129.234 178.217 131.311 177.385 133.458C176.576 135.59 175.945 137.785 175.499 140.02C175.361 140.678 175.268 141.344 175.219 142.015C175.177 142.255 175.154 142.498 175.149 142.742Z" fill="#85858A"/>
<path d="M143.354 150.002C143.36 150.121 143.383 150.239 143.423 150.351C143.493 150.631 143.633 150.91 143.773 151.349C143.912 151.787 144.122 152.256 144.332 152.814C144.541 153.373 144.821 154.071 145.1 154.809C145.729 156.205 146.497 157.88 147.475 159.695C148.544 161.638 149.709 163.525 150.968 165.35C152.365 167.344 153.763 169.049 155.09 170.585C156.278 171.953 157.538 173.258 158.863 174.494C159.421 175.053 159.98 175.491 160.399 175.89C160.819 176.289 161.238 176.658 161.587 176.887C161.936 177.117 162.146 177.306 162.356 177.516C162.454 177.577 162.548 177.648 162.635 177.725C162.557 177.638 162.487 177.545 162.425 177.446C162.184 177.198 161.927 176.964 161.657 176.748C161.308 176.469 160.958 176.12 160.469 175.701C159.98 175.282 159.471 174.793 159.002 174.235C157.885 173.238 156.627 171.792 155.3 170.246C153.849 168.581 152.496 166.833 151.248 165.01C149.92 163.016 148.733 161.171 147.755 159.426C146.777 157.681 145.938 156.006 145.31 154.609C144.998 153.996 144.718 153.367 144.471 152.725C144.192 152.166 144.052 151.727 143.843 151.259C143.633 150.79 143.563 150.561 143.493 150.351C143.474 150.226 143.426 150.107 143.354 150.002Z" fill="#85858A"/>
<path d="M131.896 105.396C132.548 106.342 132.999 107.411 133.223 108.538C133.433 109.739 133.433 110.967 133.223 112.168C132.958 113.652 132.608 115.121 132.175 116.565C131.337 119.707 130.429 122.499 129.73 124.543C129.381 125.54 129.101 126.288 128.892 126.917C128.777 127.212 128.683 127.515 128.612 127.824L129.031 126.986C129.241 126.428 129.59 125.66 129.94 124.613C130.708 122.619 131.616 119.866 132.524 116.725C132.941 115.256 133.274 113.764 133.522 112.257C133.748 111.009 133.724 109.727 133.453 108.488C133.285 107.637 132.945 106.83 132.455 106.114C132.301 105.851 132.113 105.61 131.896 105.396Z" fill="#85858A"/>
<path d="M178.683 132.272C179.061 132.658 179.512 132.967 180.01 133.179C181.214 133.718 182.545 133.911 183.852 133.738C185.159 133.543 186.376 132.96 187.345 132.062C188.114 131.364 188.343 130.806 188.343 130.806C188.343 130.806 187.924 131.294 187.156 131.803C186.189 132.582 185.033 133.09 183.805 133.274C182.577 133.458 181.322 133.312 180.17 132.85C179.261 132.621 178.772 132.182 178.683 132.272Z" fill="#606166"/>
<path d="M131.138 120.754C131.138 120.754 131.208 120.963 131.347 121.312C131.487 121.661 131.766 122.15 132.046 122.778C133.03 124.561 134.278 126.185 135.748 127.595C137.935 129.717 140.668 131.191 143.643 131.853C145.386 132.238 147.184 132.309 148.952 132.062C150.841 131.751 152.662 131.113 154.331 130.177C157.754 128.293 160.689 125.85 163.832 124.663C166.632 123.649 169.669 123.479 172.565 124.174C174.519 124.674 176.366 125.525 178.014 126.687C179.132 127.525 179.691 128.153 179.76 128.083C179.279 127.518 178.74 127.003 178.154 126.548C176.135 125 173.758 123.984 171.244 123.594C168.729 123.203 166.156 123.451 163.763 124.314C160.549 125.501 157.615 127.944 154.192 129.828C152.542 130.753 150.746 131.39 148.882 131.713C147.137 131.961 145.362 131.89 143.643 131.504C140.738 130.844 138.061 129.422 135.888 127.385C134.43 125.999 133.161 124.427 132.116 122.708C131.834 122.233 131.578 121.744 131.347 121.242C131.323 121.064 131.251 120.895 131.138 120.754Z" fill="#606166"/>
<path d="M115.619 111.819C115.619 111.819 115.479 112.098 115.269 112.656C115.058 113.409 114.918 114.181 114.85 114.96C114.763 116.139 114.905 117.325 115.269 118.45C115.662 119.854 116.342 121.161 117.265 122.289C118.224 123.358 119.276 124.339 120.409 125.221C121.289 125.946 122.004 126.85 122.505 127.874C122.833 128.573 123 129.336 122.994 130.108C122.962 130.389 122.916 130.669 122.854 130.945C122.902 130.887 122.927 130.812 122.924 130.736C123.019 130.54 123.067 130.325 123.064 130.108C123.128 129.3 123.008 128.489 122.714 127.734C122.202 126.677 121.491 125.729 120.619 124.942C119.525 124.039 118.498 123.059 117.545 122.01C115.955 120.008 115.115 117.515 115.169 114.96C115.217 113.901 115.368 112.849 115.619 111.819Z" fill="#606166"/>
<path d="M155.998 170.665C156.225 170.773 156.458 170.866 156.697 170.944C157.346 171.15 158.015 171.291 158.693 171.363C159.741 171.564 160.824 171.492 161.836 171.153C162.436 170.934 163.001 170.628 163.513 170.246C163.991 169.791 164.435 169.301 164.84 168.78C165.253 168.285 165.722 167.84 166.238 167.454C166.737 167.128 167.277 166.87 167.844 166.686C168.808 166.365 169.832 166.269 170.838 166.407C171.533 166.464 172.211 166.654 172.834 166.965L173.533 167.314C173.345 167.145 173.133 167.003 172.904 166.895C172.294 166.528 171.614 166.291 170.908 166.197C169.858 166.031 168.784 166.102 167.765 166.407C167.181 166.604 166.619 166.862 166.088 167.174C165.535 167.541 165.041 167.988 164.621 168.501C164.216 169.022 163.772 169.512 163.293 169.967C162.84 170.359 162.319 170.666 161.757 170.874C160.787 171.164 159.769 171.258 158.763 171.153C157.046 170.874 155.998 170.595 155.998 170.665Z" fill="#606166"/>
<path d="M123.862 169.129L124.072 169.338C124.285 169.527 124.52 169.691 124.77 169.827C125.649 170.337 126.588 170.735 127.565 171.014C129.051 171.366 130.587 171.461 132.106 171.293C133.977 171.039 135.755 170.318 137.275 169.199C138.882 168.012 140.14 166.616 141.397 165.499C142.476 164.485 143.701 163.638 145.03 162.986C145.957 162.585 146.954 162.371 147.964 162.358C148.663 162.358 149.082 162.497 149.082 162.428C149 162.371 148.901 162.347 148.802 162.358C148.593 162.288 148.313 162.288 147.964 162.218C146.936 162.173 145.912 162.364 144.97 162.777C143.572 163.381 142.294 164.232 141.198 165.29C139.902 166.585 138.525 167.798 137.076 168.92C135.742 169.885 134.213 170.548 132.596 170.861C130.979 171.175 129.313 171.132 127.715 170.735C126.74 170.54 125.798 170.204 124.92 169.737C124.212 169.338 123.862 169.129 123.862 169.129Z" fill="#606166"/>
<path d="M253.413 69.7258C245.783 66.0855 239.699 59.8523 236.247 52.1408C232.795 44.4293 232.201 35.7422 234.57 27.6331C236.602 20.6064 240.744 14.3729 246.437 9.77552C252.13 5.17818 259.099 2.43892 266.401 1.92828C273.703 1.41764 280.985 3.16026 287.263 6.92042C293.542 10.6806 298.513 16.2768 301.504 22.9522C304.495 29.6275 305.363 37.0598 303.989 44.2438C302.614 51.4277 299.065 58.0166 293.821 63.1191C288.577 68.2217 281.891 71.5917 274.667 72.7733C267.444 73.955 260.031 72.8912 253.433 69.7258H253.413ZM283.173 7.45923C278.023 4.99728 272.326 3.89918 266.629 4.27031C260.932 4.64143 255.426 6.46932 250.639 9.57859C245.853 12.6879 241.946 16.9741 239.294 22.0262C236.643 27.0782 235.335 32.7264 235.496 38.4288C235.658 44.1312 237.283 49.6965 240.217 54.5906C243.15 59.4846 247.293 63.5433 252.248 66.3771C257.203 69.2108 262.804 70.7246 268.513 70.7732C274.222 70.8218 279.847 69.4035 284.85 66.6544C288.71 64.5642 292.111 61.7225 294.854 58.297C297.597 54.8714 299.624 50.9315 300.818 46.7099C303.03 39.1372 302.474 31.0251 299.248 23.8248C296.023 16.6245 290.339 10.8057 283.213 7.40937L283.173 7.45923Z" fill="#606166"/>
<path d="M313.702 108.677C312.702 109.288 311.499 109.477 310.359 109.202C309.22 108.927 308.236 108.211 307.624 107.211L284.291 69.3569C284.243 69.2732 284.213 69.1809 284.201 69.0853C284.189 68.9897 284.196 68.8927 284.222 68.7999C284.248 68.7072 284.292 68.6205 284.352 68.5449C284.412 68.4693 284.486 68.4064 284.57 68.3596L289.56 65.2882C289.724 65.1951 289.915 65.1651 290.099 65.2036C290.283 65.2422 290.446 65.3468 290.558 65.4976L315.149 102.395C315.471 102.901 315.689 103.466 315.791 104.057C315.892 104.649 315.875 105.254 315.741 105.839C315.606 106.423 315.356 106.975 315.006 107.462C314.657 107.95 314.213 108.363 313.702 108.677Z" fill="#606166"/>
<path d="M254.322 67.9111C246.689 64.2742 240.6 58.0424 237.144 50.3305C233.689 42.6187 233.091 33.9298 235.46 25.8183C237.494 18.8011 241.635 12.5772 247.324 7.98812C253.013 3.39901 259.975 0.665984 267.269 0.15851C274.563 -0.348964 281.836 1.39359 288.107 5.1506C294.377 8.90761 299.342 14.4979 302.33 21.1657C305.318 27.8334 306.185 35.2572 304.814 42.4332C303.442 49.6092 299.899 56.1915 294.663 61.2901C289.426 66.3888 282.749 69.7579 275.535 70.942C268.32 72.1261 260.915 71.0681 254.322 67.9111ZM284.082 5.64448C278.932 3.18253 273.235 2.08443 267.538 2.45555C261.841 2.82668 256.335 4.65457 251.548 7.76383C246.762 10.8731 242.855 15.1594 240.203 20.2114C237.552 25.2634 236.244 30.9116 236.405 36.6141C236.567 42.3165 238.192 47.8817 241.126 52.7758C244.059 57.6699 248.202 61.7285 253.157 64.5623C258.112 67.3961 263.713 68.9099 269.422 68.9584C275.131 69.007 280.756 67.5887 285.759 64.8396C289.614 62.7551 293.012 59.9211 295.755 56.5045C298.497 53.0878 300.528 49.1576 301.727 44.945C303.939 37.3723 303.383 29.2602 300.157 22.0599C296.932 14.8596 291.248 9.04081 284.122 5.64448H284.082Z" fill="#606166"/>
<path d="M314.681 108.119L314.332 108.328C313.551 108.801 312.616 108.949 311.728 108.74C310.84 108.531 310.069 107.982 309.581 107.211L284.711 67.0034L290.998 63.1641L315.869 103.372C316.313 104.166 316.437 105.099 316.217 105.981C315.996 106.863 315.447 107.628 314.681 108.119Z" fill="#606166"/>
<path d="M243.004 27.2142C243.004 27.2142 243.074 26.7954 243.214 26.0973C243.282 25.6667 243.399 25.2452 243.563 24.8408C243.707 24.2691 243.893 23.7091 244.122 23.1655C244.282 22.85 244.399 22.5147 244.471 22.1683C244.605 21.8223 244.768 21.4886 244.96 21.171C245.317 20.4289 245.713 19.7065 246.148 19.0071C247.133 17.4265 248.28 15.9527 249.571 14.6093C250.885 13.3014 252.311 12.1102 253.832 11.0492C254.531 10.6304 255.23 10.1418 255.928 9.79273C256.277 9.65312 256.557 9.4437 256.926 9.30409C257.295 9.16448 257.555 9.02487 257.834 8.88526C258.393 8.60603 258.952 8.46642 259.441 8.257C259.846 8.09375 260.268 7.97666 260.699 7.90798C261.397 7.76836 261.816 7.62875 261.816 7.69856C261.816 7.76837 261.467 7.83817 260.818 8.04759C260.37 8.16114 259.935 8.32158 259.521 8.52626C259.032 8.73567 258.523 8.87528 257.914 9.1545C257.635 9.29412 257.285 9.43373 257.006 9.57334C256.726 9.71295 256.377 9.92237 256.008 10.062C255.312 10.4311 254.645 10.851 254.012 11.3185C250.959 13.3688 248.365 16.0312 246.397 19.1367C245.978 19.8348 245.559 20.5328 245.21 21.2309C245.07 21.5799 244.86 21.8591 244.721 22.2281C244.581 22.5971 244.441 22.8563 244.301 23.1356C244.022 23.694 243.882 24.2525 243.673 24.7411C243.509 25.1455 243.392 25.567 243.323 25.9976C243.144 26.8652 243.074 27.2142 243.004 27.2142Z" fill="#DEDEDE"/>
</svg>
