<svg width="16" height="16" viewBox="0 0 16 16" fill="none" xmlns="http://www.w3.org/2000/svg">
<path fill-rule="evenodd" clip-rule="evenodd" d="M1.83297 0.0983887C1.25859 0.0983887 0.792969 0.564012 0.792969 1.13839V14.2584C0.792969 14.8328 1.25859 15.2984 1.83297 15.2984H14.953C15.5273 15.2984 15.993 14.8328 15.993 14.2584V1.13839C15.993 0.564013 15.5273 0.0983887 14.953 0.0983887H1.83297ZM4.38904 10.3615C4.19618 10.5743 4.216 10.899 4.4333 11.0868L5.32817 11.86C5.54547 12.0478 5.87797 12.0275 6.07083 11.8147L12.212 5.03854C12.4048 4.82574 12.385 4.50101 12.1677 4.31325L11.2728 3.53999C11.0555 3.35222 10.723 3.37251 10.5302 3.58531L4.38904 10.3615ZM3.89922 4.66949C3.89922 4.3823 4.13203 4.14949 4.41922 4.14949H5.89446C6.18164 4.14949 6.41446 4.3823 6.41446 4.66949V6.08549C6.41446 6.37267 6.18164 6.60549 5.89446 6.60549H4.41922C4.13203 6.60549 3.89922 6.37268 3.89922 6.08549V4.66949ZM10.9036 8.71794C10.6164 8.71794 10.3836 8.95075 10.3836 9.23794V10.6539C10.3836 10.9411 10.6164 11.1739 10.9036 11.1739H12.3788C12.666 11.1739 12.8988 10.9411 12.8988 10.6539V9.23794C12.8988 8.95075 12.666 8.71794 12.3788 8.71794H10.9036Z" fill="#FAFAFA"/>
</svg>
