<svg width="20" height="20" viewBox="0 0 20 20" fill="none" xmlns="http://www.w3.org/2000/svg">
<path fill-rule="evenodd" clip-rule="evenodd" d="M9.25651 0.879802C9.25651 0.63197 9.35564 0.421314 9.51673 0.260223C9.8513 -0.086741 10.4213 -0.086741 10.7559 0.260223L10.7683 0.285006C10.917 0.446096 11.0037 0.656753 11.0037 0.879802V2.47832C11.0037 2.71376 10.9046 2.9368 10.7435 3.09789C10.3965 3.44486 9.83891 3.44486 9.50434 3.09789C9.34325 2.9368 9.24411 2.71376 9.24411 2.47832V0.879802H9.25651ZM10 4.74597C11.4498 4.74597 12.7633 5.34077 13.7175 6.28253C14.6716 7.23668 15.254 8.55019 15.254 10C15.254 11.4498 14.6592 12.7633 13.7175 13.7175C12.7757 14.6716 11.4498 15.254 10 15.254C8.55019 15.254 7.23668 14.6592 6.28253 13.7175C5.32838 12.7633 4.74597 11.4498 4.74597 10C4.74597 8.55019 5.34077 7.23668 6.28253 6.28253C7.23668 5.32838 8.55019 4.74597 10 4.74597ZM3.02354 4.07683C2.86245 3.91574 2.76332 3.69269 2.76332 3.45725C2.76332 2.97398 3.15985 2.57745 3.64312 2.57745C3.86617 2.57745 4.08922 2.66419 4.2627 2.83767L5.40273 3.97769C5.56382 4.13879 5.66295 4.36183 5.66295 4.59727C5.66295 4.82032 5.57621 5.04337 5.40273 5.21685C5.24164 5.37794 5.01859 5.47708 4.78315 5.47708C4.5601 5.47708 4.33705 5.39033 4.16357 5.21685L3.02354 4.07683ZM0.879802 10.7559C0.63197 10.7559 0.421314 10.6568 0.260223 10.4957C-0.086741 10.1611 -0.086741 9.59108 0.260223 9.25651L0.285006 9.24411C0.446097 9.09542 0.669145 9.00867 0.892193 9.00867H2.49071C2.97398 9.00867 3.37051 9.4052 3.37051 9.88848C3.37051 10.1239 3.27138 10.347 3.11029 10.5081C2.94919 10.6691 2.72615 10.7683 2.49071 10.7683H0.879802V10.7559ZM4.07683 16.9765C3.91574 17.1375 3.69269 17.2367 3.45725 17.2367C2.97398 17.2367 2.57745 16.8401 2.57745 16.3569C2.57745 16.1338 2.66419 15.9108 2.83767 15.7373L3.99009 14.5849C4.15118 14.4362 4.37423 14.3494 4.59727 14.3494C5.08055 14.3494 5.47708 14.746 5.47708 15.2292C5.47708 15.4523 5.39033 15.6753 5.21685 15.8488L4.07683 16.9765ZM10.7559 19.1202C10.7559 19.3556 10.6568 19.5787 10.4957 19.7398C10.1611 20.0867 9.59108 20.0867 9.25651 19.7398L9.24411 19.7274C9.09542 19.5663 9.00867 19.3556 9.00867 19.1202V17.5217C9.00867 17.2739 9.10781 17.0632 9.2689 16.9021C9.61586 16.5551 10.1735 16.5551 10.5081 16.9021C10.6691 17.0632 10.7683 17.2862 10.7683 17.5217V19.1202H10.7559ZM16.9765 15.9232C17.1375 16.0843 17.2367 16.3073 17.2367 16.5428C17.2367 17.026 16.8401 17.4226 16.3569 17.4226C16.1338 17.4226 15.9108 17.3358 15.7373 17.1623L14.5973 16.0223C14.4362 15.8612 14.3371 15.6382 14.3371 15.4027C14.3371 14.9195 14.7336 14.5229 15.2169 14.5229C15.4399 14.5229 15.6629 14.6097 15.8364 14.7831L16.9765 15.9232ZM19.1202 9.25651C19.3556 9.25651 19.5787 9.35564 19.7398 9.51673C20.0867 9.86369 20.0867 10.4213 19.7398 10.7559L19.7274 10.7683C19.5663 10.917 19.3556 11.0037 19.1202 11.0037H17.5217C17.2739 11.0037 17.0632 10.9046 16.9021 10.7435C16.5551 10.3965 16.5551 9.83891 16.9021 9.50434C17.0632 9.34325 17.2862 9.24411 17.5217 9.24411C17.5217 9.25651 19.1202 9.25651 19.1202 9.25651ZM15.9232 3.02354C16.0843 2.86245 16.3073 2.76332 16.5428 2.76332C17.026 2.76332 17.4226 3.15985 17.4226 3.64312C17.4226 3.86617 17.3358 4.08922 17.1623 4.2627L16.0099 5.41512C15.8488 5.56382 15.6258 5.65056 15.4027 5.65056C14.9195 5.65056 14.5229 5.25403 14.5229 4.77076C14.5229 4.54771 14.6097 4.32466 14.7831 4.15118L15.9232 3.02354Z" fill="#FAFAFA"/>
</svg>
