<svg width="31" height="30" viewBox="0 0 31 30" fill="none" xmlns="http://www.w3.org/2000/svg">
<path d="M0.4375 15C0.4375 23.3 7.1955 30 15.5674 30C23.9392 30 30.6972 23.3 30.6972 15C30.6972 6.7 23.9392 0 15.5674 0C7.1955 0 0.4375 6.7 0.4375 15Z" fill="#FFCC4D"/>
<path d="M23.978 7.17724C23.978 12.1461 30.8124 12.1461 30.8124 7.17724C30.8124 3.56352 27.4205 0 27.4205 0C27.4205 0 23.978 3.56352 23.978 7.17724Z" fill="#5DADEC"/>
<path d="M21.4468 19.5743C22.8447 19.5743 23.978 18.4508 23.978 17.0648C23.978 15.6788 22.8447 14.5553 21.4468 14.5553C20.0488 14.5553 18.9155 15.6788 18.9155 17.0648C18.9155 18.4508 20.0488 19.5743 21.4468 19.5743Z" fill="#664500"/>
<path d="M9.80322 19.5743C11.2012 19.5743 12.3345 18.4508 12.3345 17.0648C12.3345 15.6788 11.2012 14.5553 9.80322 14.5553C8.40525 14.5553 7.27197 15.6788 7.27197 17.0648C7.27197 18.4508 8.40525 19.5743 9.80322 19.5743Z" fill="#664500"/>
<path d="M12.3853 9.98796C10.7653 11.3431 8.58839 11.9454 6.46214 11.5439C6.15839 11.4937 5.90527 12.5477 6.25964 12.6481C8.68964 13.0998 11.2209 12.3971 13.094 10.8412C13.3471 10.5902 12.5878 9.7872 12.3853 9.98796ZM24.7884 11.4937C22.6621 11.845 20.4853 11.2929 18.8653 9.93777C18.6628 9.73701 17.8528 10.5401 18.1565 10.791C20.0296 12.3971 22.5609 13.0496 24.9909 12.5979C25.3453 12.4975 25.0921 11.4435 24.7884 11.4937Z" fill="#664500"/>
<path d="M19.6749 25.0951H11.5749C10.8155 25.0951 10.8155 23.0875 11.5749 23.0875H19.6749C20.4343 23.0875 20.4343 25.0951 19.6749 25.0951Z" fill="#664500"/>
</svg>