<svg width="15" height="3" viewBox="0 0 15 3" fill="none" xmlns="http://www.w3.org/2000/svg">
<path d="M14.0027 1.50012C14.0027 1.77637 13.7788 2.00033 13.5025 2.00033C13.2263 2.00033 13.0023 1.77637 13.0023 1.50012C13.0023 1.22386 13.2263 0.999908 13.5025 0.999908C13.7788 0.999908 14.0027 1.22386 14.0027 1.50012" stroke="#1D2024" stroke-width="1.5" stroke-linecap="round" stroke-linejoin="round"/>
<path d="M8.00023 1.50012C8.00023 1.77637 7.77628 2.00033 7.50003 2.00033C7.22377 2.00033 6.99982 1.77637 6.99982 1.50012C6.99982 1.22386 7.22377 0.999908 7.50003 0.999908C7.77628 0.999908 8.00023 1.22386 8.00023 1.50012" stroke="#1D2024" stroke-width="1.5" stroke-linecap="round" stroke-linejoin="round"/>
<path d="M1.99773 1.50012C1.99773 1.77637 1.77378 2.00033 1.49752 2.00033C1.22127 2.00033 0.997314 1.77637 0.997314 1.50012C0.997314 1.22386 1.22127 0.999908 1.49752 0.999908C1.77378 0.999908 1.99773 1.22386 1.99773 1.50012" stroke="#1D2024" stroke-width="1.5" stroke-linecap="round" stroke-linejoin="round"/>
</svg>
