<svg width="21" height="21" viewBox="0 0 21 21" fill="none" xmlns="http://www.w3.org/2000/svg">
<path fill-rule="evenodd" clip-rule="evenodd" d="M9.75651 1.3798C9.75651 1.13197 9.85564 0.921314 10.0167 0.760223C10.3513 0.413259 10.9213 0.413259 11.2559 0.760223L11.2683 0.785006C11.417 0.946096 11.5037 1.15675 11.5037 1.3798V2.97832C11.5037 3.21376 11.4046 3.4368 11.2435 3.59789C10.8965 3.94486 10.3389 3.94486 10.0043 3.59789C9.84325 3.4368 9.74411 3.21376 9.74411 2.97832V1.3798H9.75651ZM10.5 5.24597C11.9498 5.24597 13.2633 5.84077 14.2175 6.78253C15.1716 7.73668 15.754 9.05019 15.754 10.5C15.754 11.9498 15.1592 13.2633 14.2175 14.2175C13.2757 15.1716 11.9498 15.754 10.5 15.754C9.05019 15.754 7.73668 15.1592 6.78253 14.2175C5.82838 13.2633 5.24597 11.9498 5.24597 10.5C5.24597 9.05019 5.84077 7.73668 6.78253 6.78253C7.73668 5.82838 9.05019 5.24597 10.5 5.24597ZM3.52354 4.57683C3.36245 4.41574 3.26332 4.19269 3.26332 3.95725C3.26332 3.47398 3.65985 3.07745 4.14312 3.07745C4.36617 3.07745 4.58922 3.16419 4.7627 3.33767L5.90273 4.47769C6.06382 4.63879 6.16295 4.86183 6.16295 5.09727C6.16295 5.32032 6.07621 5.54337 5.90273 5.71685C5.74164 5.87794 5.51859 5.97708 5.28315 5.97708C5.0601 5.97708 4.83705 5.89033 4.66357 5.71685L3.52354 4.57683ZM1.3798 11.2559C1.13197 11.2559 0.921314 11.1568 0.760223 10.9957C0.413259 10.6611 0.413259 10.0911 0.760223 9.75651L0.785006 9.74411C0.946097 9.59542 1.16914 9.50867 1.39219 9.50867H2.99071C3.47398 9.50867 3.87051 9.9052 3.87051 10.3885C3.87051 10.6239 3.77138 10.847 3.61029 11.0081C3.44919 11.1691 3.22615 11.2683 2.99071 11.2683H1.3798V11.2559ZM4.57683 17.4765C4.41574 17.6375 4.19269 17.7367 3.95725 17.7367C3.47398 17.7367 3.07745 17.3401 3.07745 16.8569C3.07745 16.6338 3.16419 16.4108 3.33767 16.2373L4.49009 15.0849C4.65118 14.9362 4.87423 14.8494 5.09727 14.8494C5.58055 14.8494 5.97708 15.246 5.97708 15.7292C5.97708 15.9523 5.89033 16.1753 5.71685 16.3488L4.57683 17.4765ZM11.2559 19.6202C11.2559 19.8556 11.1568 20.0787 10.9957 20.2398C10.6611 20.5867 10.0911 20.5867 9.75651 20.2398L9.74411 20.2274C9.59542 20.0663 9.50867 19.8556 9.50867 19.6202V18.0217C9.50867 17.7739 9.60781 17.5632 9.7689 17.4021C10.1159 17.0551 10.6735 17.0551 11.0081 17.4021C11.1691 17.5632 11.2683 17.7862 11.2683 18.0217V19.6202H11.2559ZM17.4765 16.4232C17.6375 16.5843 17.7367 16.8073 17.7367 17.0428C17.7367 17.526 17.3401 17.9226 16.8569 17.9226C16.6338 17.9226 16.4108 17.8358 16.2373 17.6623L15.0973 16.5223C14.9362 16.3612 14.8371 16.1382 14.8371 15.9027C14.8371 15.4195 15.2336 15.0229 15.7169 15.0229C15.9399 15.0229 16.1629 15.1097 16.3364 15.2831L17.4765 16.4232ZM19.6202 9.75651C19.8556 9.75651 20.0787 9.85564 20.2398 10.0167C20.5867 10.3637 20.5867 10.9213 20.2398 11.2559L20.2274 11.2683C20.0663 11.417 19.8556 11.5037 19.6202 11.5037H18.0217C17.7739 11.5037 17.5632 11.4046 17.4021 11.2435C17.0551 10.8965 17.0551 10.3389 17.4021 10.0043C17.5632 9.84325 17.7862 9.74411 18.0217 9.74411C18.0217 9.75651 19.6202 9.75651 19.6202 9.75651ZM16.4232 3.52354C16.5843 3.36245 16.8073 3.26332 17.0428 3.26332C17.526 3.26332 17.9226 3.65985 17.9226 4.14312C17.9226 4.36617 17.8358 4.58922 17.6623 4.7627L16.5099 5.91512C16.3488 6.06382 16.1258 6.15056 15.9027 6.15056C15.4195 6.15056 15.0229 5.75403 15.0229 5.27076C15.0229 5.04771 15.1097 4.82466 15.2831 4.65118L16.4232 3.52354Z" fill="white"/>
</svg>
