<svg width="14" height="14" viewBox="0 0 14 14" fill="none" xmlns="http://www.w3.org/2000/svg">
<path fill-rule="evenodd" clip-rule="evenodd" d="M0 7C0 3.136 3.136 0 7 0C10.864 0 14 3.136 14 7C14 10.864 10.864 14 7 14C3.136 14 0 10.864 0 7ZM6.2998 9.50001H7.6998V8.10001H6.2998V9.50001ZM7.6998 7.7H6.2998V3.5H7.6998V7.7ZM7.87866 1.617C7.50006 0.920267 6.49994 0.920266 6.12134 1.617L2.17367 8.88192C1.81159 9.54826 2.29397 10.3594 3.05232 10.3594H10.9477C11.706 10.3594 12.1884 9.54826 11.8263 8.88192L7.87866 1.617Z" fill="#3F4048"/>
</svg>
