<svg width="35" height="35" viewBox="0 0 35 35" fill="none" xmlns="http://www.w3.org/2000/svg">
<rect x="0.5" y="0.5" width="34" height="34" rx="1.5" stroke="#EAE8EB"/>
<path d="M27.999 15.28C27.9831 14.9785 27.774 14.779 27.5319 14.8343L25.7637 15.2386C25.5808 15.2804 25.4317 15.456 25.3767 15.6694C24.5999 14.5505 23.2315 12.7388 22.2584 12.3316C22.1237 12.2762 21.2852 12 18 12C14.7148 12 13.8764 12.2762 13.7388 12.3328C12.7677 12.7391 11.4 14.5505 10.6233 15.6694C10.5683 15.456 10.4192 15.2804 10.2363 15.2386L8.46805 14.8343C8.22609 14.779 8.01698 14.9785 8.00098 15.28C7.98489 15.5815 8.16809 15.8708 8.40996 15.9261L9.97849 16.2847C9.43169 16.6924 9.07756 17.3441 9.07756 18.0786L9.30116 21.9391C9.30116 22.6757 9.89832 23.2728 10.6349 23.2728H11.437C12.1736 23.2728 12.7708 22.6757 12.7708 21.9391L12.7446 21.6565H23.2553L23.2292 21.9391C23.2292 22.6757 23.8263 23.2728 24.5629 23.2728H25.365C26.1016 23.2728 26.6988 22.6757 26.6988 21.9391L26.9224 18.0786C26.9224 17.3441 26.5682 16.6924 26.0214 16.2847L27.59 15.9261C27.8319 15.8708 28.0151 15.5815 27.999 15.28ZM14.1076 13.2452C14.1847 13.2201 14.9924 12.984 18 12.984C21.0016 12.984 21.8121 13.2192 21.892 13.2451C22.4741 13.498 23.4728 14.7041 24.2935 15.8423H11.7064C12.5281 14.7027 13.5279 13.4952 14.1076 13.2452ZM19.8785 21.0037H16.1216C15.9486 21.0037 15.8084 20.8635 15.8084 20.6906C15.8084 20.5177 15.9486 20.3776 16.1216 20.3776H19.8785C20.0515 20.3776 20.1916 20.5177 20.1916 20.6906C20.1916 20.8635 20.0515 21.0037 19.8785 21.0037ZM22.9378 19.3339C22.9378 19.3339 22.3116 18.9732 21.5513 18.8852H14.0641C13.3038 18.9732 12.6776 19.3339 12.6776 19.3339C10.9333 19.7812 10.4592 18.35 10.4592 18.35H25.1562C25.1562 18.35 24.6821 19.7812 22.9378 19.3339Z" fill="#1D2024"/>
</svg>
