<svg width="28" height="25" viewBox="0 0 28 25" fill="none" xmlns="http://www.w3.org/2000/svg">
<g clip-path="url(#clip0_377_2071)">
<path d="M18.1968 11.7808C18.239 11.8375 18.2937 11.8836 18.3568 11.9155C18.4199 11.9473 18.4894 11.964 18.5601 11.9642H9.42976C9.36569 11.9641 9.30252 11.9491 9.24527 11.9203C9.18801 11.8915 9.13824 11.8497 9.09988 11.7983L0.558122 0.461507C0.527037 0.418346 0.508354 0.367474 0.504105 0.314422C0.499856 0.261369 0.510203 0.208164 0.534022 0.16059C0.55784 0.113015 0.594218 0.0728908 0.639203 0.0445781C0.684187 0.0162654 0.736058 0.000848465 0.789177 0H9.23358C9.30442 0.000112962 9.37426 0.0167464 9.43756 0.0485856C9.50087 0.0804249 9.55591 0.126595 9.59833 0.183437L18.1968 11.7808Z" fill="url(#paint0_linear_377_2071)"/>
<path d="M9.80324 11.7808C9.76113 11.8376 9.70635 11.8838 9.64327 11.9156C9.5802 11.9475 9.51057 11.9641 9.43994 11.9642H18.5659C18.63 11.9644 18.6932 11.9494 18.7505 11.9206C18.8078 11.8918 18.8576 11.8499 18.8958 11.7983L27.4375 0.461507C27.4686 0.418346 27.4873 0.367474 27.4915 0.314421C27.4958 0.261369 27.4854 0.208164 27.4616 0.16059C27.4378 0.113015 27.4014 0.0728908 27.3564 0.0445781C27.3115 0.0162654 27.2596 0.000848465 27.2065 0H18.7664C18.6956 0.000112962 18.6257 0.0167464 18.5624 0.0485856C18.4991 0.0804249 18.4441 0.126595 18.4017 0.183437L9.80324 11.7808Z" fill="#95FF00"/>
<path d="M18.1968 13.2192C18.239 13.1625 18.2937 13.1164 18.3568 13.0845C18.4199 13.0527 18.4894 13.036 18.5601 13.0358H9.42976C9.36575 13.0362 9.3027 13.0514 9.24549 13.0802C9.18829 13.109 9.13847 13.1506 9.09988 13.2017L0.558122 24.5385C0.527037 24.5817 0.508354 24.6325 0.504105 24.6856C0.499856 24.7386 0.510203 24.7918 0.534022 24.8394C0.55784 24.887 0.594218 24.9271 0.639203 24.9554C0.684187 24.9837 0.736058 24.9992 0.789177 25H9.23358C9.30431 25.0002 9.37411 24.9838 9.43743 24.9522C9.50075 24.9206 9.55584 24.8747 9.59833 24.818L18.1968 13.2192Z" fill="url(#paint1_linear_377_2071)"/>
<path d="M9.80324 13.2192C9.76113 13.1624 9.70635 13.1162 9.64327 13.0844C9.5802 13.0525 9.51057 13.0359 9.43994 13.0358H18.5659C18.6299 13.036 18.6931 13.0511 18.7503 13.0799C18.8075 13.1087 18.8573 13.1504 18.8958 13.2017L27.4375 24.5385C27.4686 24.5817 27.4873 24.6325 27.4915 24.6856C27.4958 24.7386 27.4854 24.7918 27.4616 24.8394C27.4378 24.887 27.4014 24.9271 27.3564 24.9554C27.3115 24.9837 27.2596 24.9992 27.2065 25H18.7664C18.6957 25.0002 18.6259 24.9838 18.5626 24.9522C18.4993 24.9206 18.4442 24.8747 18.4017 24.818L9.80324 13.2192Z" fill="#95FF00"/>
</g>
<defs>
<linearGradient id="paint0_linear_377_2071" x1="11.377" y1="8.76281" x2="6.54359" y2="2.00878" gradientUnits="userSpaceOnUse">
<stop stop-color="#229613"/>
<stop offset="0.02" stop-color="#249813"/>
<stop offset="0.48" stop-color="#61CF09"/>
<stop offset="0.82" stop-color="#87F202"/>
<stop offset="1" stop-color="#95FF00"/>
</linearGradient>
<linearGradient id="paint1_linear_377_2071" x1="11.377" y1="16.2372" x2="6.54359" y2="22.9927" gradientUnits="userSpaceOnUse">
<stop stop-color="#229613"/>
<stop offset="0.02" stop-color="#249813"/>
<stop offset="0.48" stop-color="#61CF09"/>
<stop offset="0.82" stop-color="#87F202"/>
<stop offset="1" stop-color="#95FF00"/>
</linearGradient>
<clipPath id="clip0_377_2071">
<rect width="27" height="25" fill="white" transform="translate(0.5)"/>
</clipPath>
</defs>
</svg>