<svg width="20" height="22" viewBox="0 0 20 22" fill="none" xmlns="http://www.w3.org/2000/svg">
<path d="M20 10C20 15.5229 15.5229 20 10 20C4.47765 20 0 15.5229 0 10C0 4.47765 4.47765 0 10 0C15.5229 0 20 4.47765 20 10Z" fill="#FFCC4D"/>
<path d="M16.1513 8.40999C16.116 8.33058 15.2695 6.47058 13.5295 6.47058C11.7901 6.47058 10.943 8.33058 10.9077 8.40999C10.8536 8.53176 10.8889 8.67411 10.993 8.75764C11.096 8.84117 11.2436 8.84411 11.3519 8.76588C11.3589 8.76058 12.0942 8.23529 13.5295 8.23529C14.9566 8.23529 15.6907 8.75352 15.7072 8.76529C15.7589 8.80411 15.8213 8.82352 15.8824 8.82352C15.9472 8.82352 16.0124 8.80176 16.066 8.7594C16.1701 8.67588 16.206 8.53235 16.1513 8.40999ZM9.09245 8.40999C9.05715 8.33058 8.21068 6.47058 6.47068 6.47058C4.73127 6.47058 3.88421 8.33058 3.84892 8.40999C3.7948 8.53176 3.83009 8.67411 3.93362 8.75764C4.03715 8.84117 4.1848 8.84411 4.29245 8.76588C4.30009 8.76058 5.0348 8.23529 6.47068 8.23529C7.89774 8.23529 8.63186 8.75352 8.64833 8.76529C8.70009 8.80411 8.76245 8.82352 8.82362 8.82352C8.88833 8.82352 8.95362 8.80176 9.00715 8.7594C9.11186 8.67588 9.14656 8.53235 9.09245 8.40999Z" fill="#664500"/>
<path d="M15.0017 16.1006C15.0017 16.1006 15.5882 15.6765 15.0988 15.1512C14.6094 14.6259 14.1453 15.1818 14.1453 15.1818L11.7058 17.4559C11.6653 17.3353 11.4358 17.0188 11.3823 16.8988L14.7676 13.7424C14.7676 13.7424 15.3547 13.3182 14.8641 12.7924C14.3747 12.2677 13.91 12.8224 13.91 12.8224L10.7258 15.7906C10.6523 15.6977 10.4547 15.473 10.3764 15.38L14.0682 11.9388C14.0682 11.9388 14.6547 11.5141 14.1647 10.9894C13.6753 10.4641 13.2111 11.0194 13.2111 11.0194L9.5182 14.4594C9.42996 14.3741 9.1582 14.1012 9.06879 14.0206L12.5194 10.8041C12.5194 10.8041 13.1053 10.3794 12.6158 9.85472C12.1258 9.32942 11.6623 9.88472 11.6623 9.88472L8.01349 13.2853L7.72114 13.5582L7.59055 13.68C7.59055 13.68 7.27408 14.1177 6.95114 13.7853L8.03467 11.3394C8.03467 11.3394 8.37585 10.7077 7.74467 10.3659C7.11232 10.0241 6.77114 10.6559 6.77114 10.6559L5.78996 12.2782C5.39996 12.9212 4.99643 13.5594 4.51996 14.1412C3.17643 15.7841 3.21937 18.2082 4.70702 19.8053C6.32996 21.5459 9.05761 21.6418 10.7982 20.0194L11.0611 19.7735L15.0017 16.1006Z" fill="#F4900C"/>
</svg>
