<svg width="20" height="20" viewBox="0 0 20 20" fill="none" xmlns="http://www.w3.org/2000/svg">
<path d="M20 10C20 15.5228 15.5228 20 10 20C4.47778 20 0 15.5228 0 10C0 4.47778 4.47778 0 10 0C15.5228 0 20 4.47778 20 10Z" fill="#FFCC4D"/>
<path d="M15.8095 9.88727C15.7762 9.81227 14.9767 8.0556 13.3334 8.0556C11.6906 8.0556 10.8906 9.81227 10.8573 9.88727C10.8062 10.0023 10.8395 10.1367 10.9378 10.2156C11.0351 10.2945 11.1745 10.2973 11.2767 10.2234C11.2834 10.2184 11.9778 9.72227 13.3334 9.72227C14.6812 9.72227 15.3745 10.2117 15.3901 10.2228C15.439 10.2595 15.4978 10.2778 15.5556 10.2778C15.6167 10.2778 15.6784 10.2573 15.729 10.2173C15.8273 10.1384 15.8612 10.0028 15.8095 9.88727ZM9.14285 9.88727C9.10951 9.81227 8.31007 8.0556 6.66674 8.0556C5.02396 8.0556 4.22396 9.81227 4.19062 9.88727C4.13951 10.0023 4.17285 10.1367 4.27062 10.2156C4.3684 10.2945 4.50785 10.2973 4.60951 10.2234C4.61674 10.2184 5.31062 9.72227 6.66674 9.72227C8.01451 9.72227 8.70785 10.2117 8.7234 10.2228C8.77229 10.2595 8.83118 10.2778 8.88896 10.2778C8.95007 10.2778 9.01174 10.2573 9.06229 10.2173C9.16118 10.1384 9.19396 10.0028 9.14285 9.88727ZM17.2223 8.88894C17.0023 8.88894 16.7934 8.75671 16.7062 8.53949C15.7184 6.07005 13.249 5.55005 13.224 5.54449C12.9234 5.48449 12.7278 5.19171 12.7884 4.8906C12.8484 4.58949 13.1412 4.3956 13.4423 4.45505C13.5678 4.48005 16.529 5.10394 17.7378 8.12616C17.8517 8.41116 17.7128 8.73449 17.4278 8.84838C17.3612 8.87616 17.2912 8.88894 17.2223 8.88894ZM2.77785 8.88894C2.70896 8.88894 2.63951 8.87616 2.57174 8.84894C2.28674 8.73505 2.1484 8.41171 2.26229 8.12671C3.47118 5.10449 6.43229 4.4806 6.55785 4.4556C6.85951 4.39671 7.15118 4.5906 7.21174 4.89116C7.27174 5.19116 7.07729 5.48338 6.77785 5.54449C6.67507 5.5656 4.27451 6.08894 3.29396 8.53949C3.20674 8.75671 2.99785 8.88894 2.77785 8.88894ZM10.0001 12.2223C7.98729 12.2223 6.65174 11.9878 5.00007 11.6667C4.62285 11.5939 3.88896 11.6667 3.88896 12.7778C3.88896 15 6.44174 17.7778 10.0001 17.7778C13.5578 17.7778 16.1112 15 16.1112 12.7778C16.1112 11.6667 15.3773 11.5934 15.0001 11.6667C13.3484 11.9878 12.0128 12.2223 10.0001 12.2223Z" fill="#664500"/>
<path d="M5 12.7778C5 12.7778 6.66667 13.3334 10 13.3334C13.3333 13.3334 15 12.7778 15 12.7778C15 12.7778 13.8889 15.0001 10 15.0001C6.11111 15.0001 5 12.7778 5 12.7778Z" fill="white"/>
<path d="M6.02614 15.6827C5.64836 17.17 4.13725 18.0689 2.65003 17.6911C1.16336 17.3139 0.263916 15.8027 0.641138 14.3155C1.01836 12.8283 4.16169 9.47774 4.70058 9.61441C5.23947 9.75163 6.40336 14.1961 6.02614 15.6827ZM13.9628 15.6827C14.3406 17.17 15.8517 18.0689 17.3389 17.6911C18.8261 17.3139 19.7256 15.8027 19.3478 14.3155C18.97 12.8283 15.8267 9.47774 15.2878 9.61441C14.75 9.75163 13.5856 14.1961 13.9628 15.6827Z" fill="#5DADEC"/>
</svg>