<svg width="20" height="20" viewBox="0 0 20 20" fill="none" xmlns="http://www.w3.org/2000/svg">
<path d="M20 10C20 15.5228 15.5228 20 10 20C4.47722 20 0 15.5228 0 10C0 4.47722 4.47722 0 10 0C15.5228 0 20 4.47722 20 10Z" fill="#FFCC4D"/>
<path fill-rule="evenodd" clip-rule="evenodd" d="M0.688939 6.12105C0.822272 6.25383 1.48783 6.65272 1.62061 7.05161C1.75394 7.44994 2.02061 9.70939 2.81949 10.3744C3.64338 11.0588 6.75116 10.8044 7.34616 10.5077C8.67783 9.84383 8.84116 7.9905 9.07672 7.05161C9.20949 6.51994 10.0084 6.51994 10.0084 6.51994C10.0084 6.51994 10.8073 6.51994 10.9406 7.05105C11.1762 7.9905 11.3406 9.84383 12.6712 10.5072C13.2667 10.8044 16.3745 11.0594 17.1995 10.3749C17.9973 9.70994 18.2634 7.4505 18.3967 7.05161C18.5289 6.65327 19.1956 6.25439 19.3284 6.12161C19.4623 5.98883 19.4623 5.45716 19.3284 5.32383C19.0623 5.05827 15.9206 4.82161 12.5378 5.19105C11.8628 5.26494 11.6062 5.45661 10.0078 5.45661C8.4106 5.45661 8.15283 5.26439 7.47838 5.19105C4.09783 4.82105 0.955605 5.05772 0.688939 5.32327C0.556161 5.45605 0.556161 5.98827 0.688939 6.12105Z" fill="#292F33"/>
<path d="M15.1861 13.1272C15.0872 13.0378 14.9394 13.0322 14.8333 13.1111C14.8117 13.1272 12.6544 14.7222 9.99999 14.7222C7.35221 14.7222 5.18777 13.1272 5.16665 13.1111C5.06054 13.0322 4.91277 13.0389 4.81388 13.1272C4.71554 13.2161 4.69332 13.3628 4.76165 13.4761C4.83332 13.5956 6.54888 16.3889 9.99999 16.3889C13.4511 16.3889 15.1672 13.5956 15.2383 13.4761C15.3067 13.3622 15.285 13.2161 15.1861 13.1272Z" fill="#664500"/>
</svg>
