<svg width="20" height="20" viewBox="0 0 20 20" fill="none" xmlns="http://www.w3.org/2000/svg">
<path d="M10 20C15.5228 20 20 15.5228 20 10C20 4.47715 15.5228 0 10 0C4.47715 0 0 4.47715 0 10C0 15.5228 4.47715 20 10 20Z" fill="#FFCC4D"/>
<path d="M8.88888 9.42116C8.6561 9.42116 8.43943 9.27393 8.36165 9.04116C8.24888 8.70838 7.7961 7.75449 7.22221 7.75449C6.63221 7.75449 6.17332 8.76949 6.08277 9.04116C5.98554 9.33171 5.67277 9.49004 5.37999 9.39227C5.08888 9.2956 4.93165 8.9806 5.02888 8.68949C5.09832 8.48004 5.75332 6.64282 7.22277 6.64282C8.69221 6.64282 9.34665 8.48004 9.41665 8.68949C9.51388 8.9806 9.35665 9.2956 9.06554 9.39227C9.00665 9.41227 8.94721 9.42116 8.88888 9.42116ZM14.4444 9.42116C14.2117 9.42116 13.995 9.27393 13.9178 9.04116C13.805 8.70838 13.3517 7.75449 12.7778 7.75449C12.1878 7.75449 11.7283 8.76949 11.6378 9.04116C11.5405 9.33171 11.2289 9.49004 10.935 9.39227C10.6444 9.2956 10.4867 8.9806 10.5839 8.68949C10.6533 8.48004 11.3083 6.64282 12.7772 6.64282C14.2461 6.64282 14.9011 8.48004 14.9705 8.68949C15.0678 8.9806 14.9105 9.2956 14.6194 9.39227C14.5617 9.41227 14.5028 9.42116 14.4444 9.42116ZM15.1861 11.495C15.0872 11.4056 14.9394 11.4 14.8333 11.4789C14.8117 11.495 12.6544 13.09 9.99999 13.09C7.35221 13.09 5.18777 11.495 5.16665 11.4789C5.06054 11.4 4.91277 11.4067 4.81388 11.495C4.71554 11.5839 4.69332 11.7306 4.76165 11.8439C4.83332 11.9634 6.54888 14.7567 9.99999 14.7567C13.4511 14.7567 15.1672 11.9634 15.2383 11.8439C15.3067 11.73 15.285 11.5845 15.1861 11.495Z" fill="#664500"/>
<path d="M11.7938 2.19272C11.7938 2.32605 11.8105 2.45494 11.8394 2.57938C12.0755 4.04772 13.7083 5.59661 14.8783 6.02216C15.8033 5.68605 17.0149 4.64661 17.5994 3.5005C16.4388 2.14494 14.9222 1.10383 13.1944 0.521606C12.3988 0.664384 11.7938 1.35605 11.7938 2.19272ZM7.63494 16.1544C7.66661 16.0199 7.68494 15.8799 7.68494 15.7355C7.68494 14.7172 6.85938 13.8916 5.84105 13.8916C5.22272 13.8916 4.67772 14.1966 4.34272 14.6633C4.00827 14.1972 3.46272 13.8916 2.84438 13.8916C2.15494 13.8916 1.5605 14.2744 1.24438 14.8349C2.25772 16.6655 3.82772 18.1444 5.72661 19.0427C6.63605 18.2922 7.46605 17.2055 7.63494 16.1544ZM19.056 14.2455C18.8994 13.7177 18.416 13.3305 17.8372 13.3305C17.4088 13.3305 17.0311 13.5416 16.7994 13.8649C16.5677 13.5416 16.1899 13.3305 15.7616 13.3305C15.0561 13.3305 14.4844 13.9022 14.4844 14.6077C14.4844 14.7077 14.4972 14.8044 14.5188 14.8977C14.6894 15.9561 15.8233 17.0622 16.6905 17.4316C17.6772 16.5427 18.4855 15.4611 19.056 14.2455Z" fill="#FFAC33"/>
<path d="M18.6807 1.81617C18.6807 0.876169 17.9185 0.114502 16.979 0.114502C16.4085 0.114502 15.9051 0.396169 15.5962 0.826724C15.2873 0.396169 14.784 0.114502 14.2135 0.114502C13.2735 0.114502 12.5118 0.876169 12.5118 1.81617C12.5118 1.9495 12.5285 2.07839 12.5573 2.20284C12.794 3.67117 14.4262 5.22006 15.5962 5.64561C16.7662 5.22006 18.3985 3.67117 18.6346 2.20339C18.664 2.07839 18.6807 1.9495 18.6807 1.81617ZM6.78234 15.7823C6.78234 14.7639 5.95679 13.9384 4.93846 13.9384C4.32012 13.9384 3.77512 14.2434 3.44012 14.7101C3.10568 14.2434 2.56012 13.9384 1.94179 13.9384C0.923456 13.9384 0.0979004 14.7639 0.0979004 15.7823C0.0979004 15.9267 0.116234 16.0662 0.147345 16.2012C0.403456 17.7917 2.17179 19.4701 3.43957 19.9312C4.70734 19.4706 6.47568 17.7923 6.73179 16.2017C6.76401 16.0662 6.78234 15.9262 6.78234 15.7823ZM19.9712 14.5151C19.9712 13.8095 19.3996 13.2378 18.694 13.2378C18.2657 13.2378 17.8879 13.4489 17.6562 13.7723C17.4246 13.4489 17.0468 13.2378 16.6185 13.2378C15.9129 13.2378 15.3412 13.8095 15.3412 14.5151C15.3412 14.6151 15.354 14.7117 15.3757 14.8051C15.5529 15.9067 16.7779 17.0695 17.6562 17.3884C18.534 17.0695 19.7596 15.9067 19.9362 14.8051C19.9585 14.7117 19.9712 14.6151 19.9712 14.5151Z" fill="#DD2E44"/>
</svg>
