<svg width="20" height="20" viewBox="0 0 20 20" fill="none" xmlns="http://www.w3.org/2000/svg">
<path d="M10 20C15.5228 20 20 15.5228 20 10C20 4.47715 15.5228 0 10 0C4.47715 0 0 4.47715 0 10C0 15.5228 4.47715 20 10 20Z" fill="#EA596E"/>
<path d="M14.5138 16.2562C14.4983 16.2562 14.4821 16.2545 14.4671 16.2506C9.78714 15.1717 5.58047 16.2384 5.53825 16.2495C5.47659 16.2651 5.40992 16.2523 5.35825 16.2128C5.3077 16.1728 5.2777 16.1123 5.2777 16.0478C5.2777 14.2823 7.34047 12.2301 9.99992 12.2301C12.6594 12.2301 14.7221 14.2823 14.7221 16.0478C14.7221 16.1112 14.6933 16.1717 14.6433 16.2112C14.606 16.2401 14.5605 16.2562 14.5138 16.2562ZM16.111 6.66672C13.0255 6.66672 11.7766 4.24061 11.7249 4.13728C11.5877 3.86283 11.6988 3.52894 11.9733 3.39172C12.2471 3.2545 12.5799 3.36505 12.7177 3.63783C12.7594 3.71894 13.7294 5.55561 16.111 5.55561C16.4183 5.55561 16.6666 5.8045 16.6666 6.11117C16.6666 6.41783 16.4183 6.66672 16.111 6.66672ZM3.88881 6.66672C3.58214 6.66672 3.33325 6.41783 3.33325 6.11117C3.33325 5.8045 3.58214 5.55561 3.88881 5.55561C6.7127 5.55561 7.21992 3.82228 7.24047 3.74839C7.32103 3.45505 7.62492 3.27728 7.9177 3.3545C8.21214 3.43172 8.39047 3.72839 8.31659 4.02394C8.28936 4.13172 7.61325 6.66672 3.88881 6.66672Z" fill="#292F33"/>
<path d="M6.66672 11.1111C7.43378 11.1111 8.05561 10.2405 8.05561 9.16661C8.05561 8.09273 7.43378 7.22217 6.66672 7.22217C5.89966 7.22217 5.27783 8.09273 5.27783 9.16661C5.27783 10.2405 5.89966 11.1111 6.66672 11.1111Z" fill="#292F33"/>
<path d="M13.3332 11.1111C14.1003 11.1111 14.7221 10.2405 14.7221 9.16661C14.7221 8.09273 14.1003 7.22217 13.3332 7.22217C12.5662 7.22217 11.9443 8.09273 11.9443 9.16661C11.9443 10.2405 12.5662 11.1111 13.3332 11.1111Z" fill="#292F33"/>
<path d="M10.3496 12.8217V13.2811L9.74345 13.2817V12.8167C8.47845 12.8872 7.41511 13.4622 6.71289 14.2144L6.71733 14.4705C6.76511 16.0994 7.87289 17.6939 10.0462 17.6939C12.2123 17.6939 13.3196 16.11 13.3746 14.4867L13.3796 14.3289C12.6968 13.5428 11.6323 12.9194 10.3496 12.8217Z" fill="#F4ABBA"/>
<path d="M10.0001 12.8051C9.91285 12.8051 9.82896 12.8128 9.74341 12.8173V15.2878C9.74341 15.4551 9.87896 15.5906 10.0462 15.5906C10.2134 15.5906 10.349 15.4551 10.349 15.2878V12.8223C10.234 12.8128 10.119 12.8051 10.0001 12.8051Z" fill="#EA596E"/>
<path d="M19.9477 6.70115C19.9477 8.26448 18.681 9.53115 17.1177 9.53115C15.5544 9.53115 14.2877 8.26448 14.2877 6.70115C14.2877 5.13781 16.5516 1.04115 17.1177 1.04115C17.6838 1.04115 19.9477 5.13837 19.9477 6.70115ZM4.76271 4.68781C4.76271 5.97281 3.72104 7.01448 2.43604 7.01448C1.15104 7.01448 0.109375 5.97281 0.109375 4.68781C0.109375 3.40281 1.97049 0.0350342 2.43604 0.0350342C2.9016 0.0350342 4.76271 3.40281 4.76271 4.68781Z" fill="#5DADEC"/>
</svg>
