<svg width="20" height="20" viewBox="0 0 20 20" fill="none" xmlns="http://www.w3.org/2000/svg">
<path d="M2.70365 5.06419C3.22648 4.69877 4.01462 4.76885 4.48406 5.15652L3.94565 4.37394C3.51237 3.756 3.66755 3.08744 4.28605 2.6536C4.90455 2.22143 6.65715 3.38334 6.65715 3.38334C6.21997 2.75928 6.30173 1.96836 6.9258 1.53063C7.54986 1.09456 8.41086 1.24529 8.84804 1.87047L14.6437 10.0578L13.9051 17.2189L7.74064 14.9708L2.36381 6.99867C1.92274 6.37072 2.07514 5.50471 2.70365 5.06419Z" fill="#EF9645"/>
<path d="M1.49889 9.61898C1.49889 9.61898 0.869264 8.70124 1.78756 8.07217C2.70474 7.44311 3.33381 8.36029 3.33381 8.36029L6.25444 12.6197C6.35511 12.4517 6.46524 12.286 6.58816 12.1225L2.53454 6.21167C2.53454 6.21167 1.90547 5.29449 2.82321 4.66542C3.74039 4.03635 4.36946 4.95353 4.36946 4.95353L8.18224 10.5139C8.32407 10.3982 8.46924 10.282 8.61886 10.168L4.1987 3.72099C4.1987 3.72099 3.56964 2.8038 4.48737 2.17474C5.40455 1.54567 6.03362 2.46285 6.03362 2.46285L10.4538 8.9087C10.6162 8.80914 10.7769 8.72293 10.9382 8.63171L6.80675 2.60691C6.80675 2.60691 6.17768 1.68973 7.09486 1.06066C8.01204 0.431592 8.64111 1.34877 8.64111 1.34877L13.0095 7.71954L13.6736 8.68845C10.9215 10.5762 10.6596 14.1276 12.232 16.4208C12.5462 16.8797 13.0051 16.5654 13.0051 16.5654C11.1179 13.8128 11.6941 10.7197 14.4468 8.8325L13.6353 4.7711C13.6353 4.7711 13.3321 3.70096 14.4017 3.39727C15.4719 3.09414 15.7755 4.16428 15.7755 4.16428L16.7127 6.94753C17.0843 8.05104 17.4798 9.15065 18.0031 10.1908C19.481 13.1275 18.5983 16.7773 15.8117 18.689C12.772 20.7731 8.61664 19.9983 6.53198 16.9592L1.49889 9.61898Z" fill="#FFDC5D"/>
<path d="M6.67452 17.7985C4.4497 17.7985 2.20152 15.5503 2.20152 13.3255C2.20152 13.0179 1.97626 12.7693 1.66868 12.7693C1.3611 12.7693 1.08911 13.0179 1.08911 13.3255C1.08911 16.6627 3.33729 18.9109 6.67452 18.9109C6.9821 18.9109 7.23072 18.6389 7.23072 18.3313C7.23072 18.0238 6.9821 17.7985 6.67452 17.7985Z" fill="#5DADEC"/>
<path d="M3.89343 18.8875C2.22482 18.8875 1.11241 17.7751 1.11241 16.1065C1.11241 15.7989 0.863786 15.5503 0.556204 15.5503C0.248623 15.5503 0 15.7989 0 16.1065C0 18.3313 1.66861 19.9999 3.89343 19.9999C4.20101 19.9999 4.44964 19.7513 4.44964 19.4437C4.44964 19.1362 4.20101 18.8875 3.89343 18.8875ZM13.3489 1.08899C13.0419 1.08899 12.7927 1.33817 12.7927 1.64519C12.7927 1.95222 13.0419 2.2014 13.3489 2.2014C15.5737 2.2014 17.7985 4.19762 17.7985 6.65103C17.7985 6.95806 18.0477 7.20724 18.3547 7.20724C18.6618 7.20724 18.911 6.95806 18.911 6.65103C18.911 3.58412 16.6861 1.08899 13.3489 1.08899Z" fill="#5DADEC"/>
<path d="M16.1299 0C15.8229 0 15.5737 0.225819 15.5737 0.532844C15.5737 0.839869 15.8229 1.11241 16.1299 1.11241C17.7985 1.11241 18.8876 2.34996 18.8876 3.87007C18.8876 4.1771 19.1596 4.42628 19.4672 4.42628C19.7747 4.42628 20 4.1771 20 3.87007C20 1.73591 18.3548 0 16.1299 0Z" fill="#5DADEC"/>
</svg>
