<svg width="20" height="22" viewBox="0 0 20 22" fill="none" xmlns="http://www.w3.org/2000/svg">
<path d="M20 10C20 15.5229 15.5229 20 10 20C4.47765 20 0 15.5229 0 10C0 4.47765 4.47765 0 10 0C15.5229 0 20 4.47765 20 10Z" fill="#FFCB4C"/>
<path d="M9.99992 15.9624C11.9617 15.9624 13.2629 16.1906 14.8729 16.5035C15.2405 16.5741 15.9558 16.5035 15.9558 15.4206C15.9558 13.2547 13.4676 10.5477 9.99992 10.5477C6.53227 10.5477 4.04404 13.2547 4.04404 15.4206C4.04404 16.5035 4.75933 16.5747 5.12698 16.5035C6.73639 16.1906 8.03815 15.9624 9.99992 15.9624ZM3.33404 11.1106C3.16521 11.1106 2.99815 11.0341 2.88933 10.8882C2.70521 10.643 2.75462 10.2947 3.00051 10.1106C3.07992 10.0512 4.63992 8.89825 6.80933 8.48119C5.43404 7.79178 3.90815 7.77707 3.88874 7.77707C3.58227 7.77648 3.33404 7.52707 3.33462 7.2206C3.33462 6.91413 3.58286 6.66589 3.88992 6.66589C4.01286 6.66589 6.91874 6.68707 8.72698 8.49531C8.8858 8.65413 8.93345 8.89295 8.84757 9.1006C8.76168 9.30825 8.55874 9.44354 8.33463 9.44354C5.77168 9.44354 3.68874 10.9835 3.66815 10.9988C3.56639 11.0747 3.44992 11.1106 3.33404 11.1106ZM16.6658 11.1106C16.5505 11.1106 16.4334 11.0747 16.334 11.0006C16.3129 10.9847 14.2164 9.44472 11.6664 9.44472C11.4417 9.44472 11.2387 9.30942 11.1534 9.10178C11.067 8.89413 11.1146 8.65531 11.274 8.49648C13.0829 6.68766 15.9887 6.66707 16.1111 6.66707C16.4176 6.66707 16.6658 6.91531 16.6664 7.22178C16.667 7.52825 16.4182 7.77707 16.1123 7.77825C16.0923 7.77825 14.5658 7.79295 13.1911 8.48236C15.3605 8.89883 16.9205 10.0518 16.9999 10.1118C17.2452 10.2959 17.2952 10.643 17.1117 10.8888C17.0023 11.0341 16.8352 11.1106 16.6658 11.1106Z" fill="#65471B"/>
<path d="M14.5365 18.9923V14.8153C14.5365 13.29 12.2489 11.7653 9.96125 11.7653C7.6736 11.7653 5.38595 13.2906 5.38595 14.8153V18.9923C2.79595 19.1976 1.05713 19.5717 1.05713 20C1.05713 20.65 5.0436 21.1764 9.96125 21.1764C14.8789 21.1764 18.8654 20.65 18.8654 20C18.8654 19.5717 17.1265 19.1976 14.5365 18.9923Z" fill="#77AF57"/>
<path d="M8.74991 14.39C9.15113 14.39 9.47638 14.0647 9.47638 13.6635C9.47638 13.2623 9.15113 12.937 8.74991 12.937C8.34869 12.937 8.02344 13.2623 8.02344 13.6635C8.02344 14.0647 8.34869 14.39 8.74991 14.39Z" fill="#5D8F3F"/>
<path d="M11.5871 15.8088C11.9883 15.8088 12.3135 15.4835 12.3135 15.0823C12.3135 14.6811 11.9883 14.3558 11.5871 14.3558C11.1858 14.3558 10.8606 14.6811 10.8606 15.0823C10.8606 15.4835 11.1858 15.8088 11.5871 15.8088Z" fill="#5D8F3F"/>
<path d="M12.6189 18.0659C12.6832 17.6698 12.4143 17.2967 12.0182 17.2324C11.6222 17.1681 11.249 17.437 11.1847 17.8331C11.1205 18.2291 11.3894 18.6023 11.7854 18.6666C12.1815 18.7308 12.5546 18.4619 12.6189 18.0659Z" fill="#5D8F3F"/>
<path d="M9.32316 19.3122C9.41502 18.7462 9.03067 18.2129 8.46467 18.1211C7.89868 18.0292 7.36538 18.4136 7.27351 18.9796C7.18165 19.5456 7.56601 20.0789 8.132 20.1707C8.698 20.2626 9.2313 19.8782 9.32316 19.3122Z" fill="#5D8F3F"/>
</svg>
