<svg width="20" height="20" viewBox="0 0 20 20" fill="none" xmlns="http://www.w3.org/2000/svg">
<path d="M10 20C15.5228 20 20 15.5228 20 10C20 4.47715 15.5228 0 10 0C4.47715 0 0 4.47715 0 10C0 15.5228 4.47715 20 10 20Z" fill="#FFCC4D"/>
<path d="M13.6112 10.5556C15.2988 10.5556 16.6668 9.18755 16.6668 7.50001C16.6668 5.81248 15.2988 4.44446 13.6112 4.44446C11.9237 4.44446 10.5557 5.81248 10.5557 7.50001C10.5557 9.18755 11.9237 10.5556 13.6112 10.5556Z" fill="#F4F7F9"/>
<path d="M6.38881 10.5556C8.07634 10.5556 9.44436 9.18755 9.44436 7.50001C9.44436 5.81248 8.07634 4.44446 6.38881 4.44446C4.70127 4.44446 3.33325 5.81248 3.33325 7.50001C3.33325 9.18755 4.70127 10.5556 6.38881 10.5556Z" fill="#F4F7F9"/>
<path d="M12.8382 13.0134C11.3032 12.6428 7.90878 12.98 6.63711 15.4606C6.59156 15.5484 6.61489 15.6567 6.69267 15.7184C6.73045 15.7489 6.77656 15.7639 6.82267 15.7639C6.86989 15.7639 6.91767 15.7478 6.95656 15.7156C8.66989 14.2822 11.0877 14.2822 12.5321 14.2822C13.4404 14.2822 13.941 14.2822 13.941 13.8889C13.941 13.4956 13.5493 13.1845 12.8382 13.0134ZM5.83322 7.22224C6.60045 7.22224 7.22211 6.60058 7.22211 5.83335C7.22211 5.1378 6.70934 4.56669 6.04211 4.46558C5.60323 4.51502 5.19434 4.65891 4.83211 4.87447C4.59322 5.12391 4.44434 5.46058 4.44434 5.83335C4.44434 6.60058 5.066 7.22224 5.83322 7.22224ZM13.0554 7.22224C13.8227 7.22224 14.4443 6.60058 14.4443 5.83335C14.4443 5.1378 13.9316 4.56669 13.2643 4.46558C12.826 4.51502 12.4166 4.65891 12.0549 4.87447C11.8154 5.12391 11.6666 5.46058 11.6666 5.83335C11.6666 6.60058 12.2882 7.22224 13.0554 7.22224Z" fill="#65471B"/>
</svg>
