<svg width="20" height="20" viewBox="0 0 20 20" fill="none" xmlns="http://www.w3.org/2000/svg">
<path d="M20 10C20 15.5228 15.5228 20 10 20C4.47722 20 0 15.5228 0 10C0 4.47722 4.47722 0 10 0C15.5228 0 20 4.47722 20 10Z" fill="#FFCC4D"/>
<path d="M10 11.6667C7.98725 11.6667 6.65169 11.4323 5.00003 11.1111C4.6228 11.0384 3.88892 11.1111 3.88892 12.2223C3.88892 14.4445 6.44169 17.2222 10 17.2222C13.5578 17.2222 16.1111 14.4445 16.1111 12.2223C16.1111 11.1111 15.3772 11.0378 15 11.1111C13.3484 11.4323 12.0128 11.6667 10 11.6667Z" fill="#664500"/>
<path d="M5 12.2222C5 12.2222 6.66667 12.7777 10 12.7777C13.3333 12.7777 15 12.2222 15 12.2222C15 12.2222 13.8889 14.4444 10 14.4444C6.11111 14.4444 5 12.2222 5 12.2222Z" fill="white"/>
<path d="M8.7121 2.45168L6.18876 2.89668L4.88876 0.533905C4.74543 0.27335 4.45099 0.133905 4.15987 0.185016C3.8671 0.236683 3.63932 0.468905 3.59376 0.762239L3.17987 3.42724L0.656541 3.87224C0.359319 3.92446 0.129874 4.16391 0.0893189 4.46335C0.0487633 4.76279 0.206541 5.05391 0.479874 5.18391L2.74099 6.25724L2.32543 8.93057C2.27932 9.22835 2.43043 9.52168 2.69932 9.65779C2.79876 9.70779 2.90543 9.73168 3.01154 9.73168C3.19321 9.73168 3.37265 9.66057 3.50654 9.52502L5.45765 7.54668L7.96765 8.73835C8.23987 8.86724 8.56432 8.80668 8.77098 8.58724C8.97765 8.36779 9.01876 8.04057 8.87376 7.77668L7.56932 5.40557L9.32765 3.62335C9.53988 3.40835 9.58821 3.08057 9.44821 2.81279C9.3071 2.54502 9.00765 2.40002 8.7121 2.45168ZM11.2877 2.45168L13.811 2.89668L15.111 0.533905C15.2543 0.27335 15.5488 0.133905 15.8399 0.185016C16.1321 0.236683 16.3599 0.468905 16.4054 0.762239L16.8193 3.42724L19.3427 3.87224C19.6404 3.92446 19.8699 4.16335 19.9099 4.46279C19.9499 4.76224 19.7927 5.05335 19.5193 5.18335L17.2582 6.25668L17.6738 8.93002C17.7199 9.22779 17.5688 9.52113 17.2999 9.65724C17.2004 9.70724 17.0938 9.73113 16.9877 9.73113C16.806 9.73113 16.6265 9.66002 16.4927 9.52446L14.5415 7.54613L12.0315 8.73779C11.7593 8.86668 11.4349 8.80613 11.2282 8.58668C11.0215 8.36724 10.9804 8.04002 11.1254 7.77613L12.4299 5.40557L10.6715 3.62335C10.4593 3.40835 10.411 3.08057 10.551 2.81279C10.6927 2.54502 10.9921 2.40002 11.2877 2.45168Z" fill="#E95F28"/>
</svg>
