<svg width="20" height="20" viewBox="0 0 20 20" fill="none" xmlns="http://www.w3.org/2000/svg">
<path d="M18.6339 12.8872C18.8361 12.0106 18.7689 11.0728 18.3794 10.1394C18.0028 9.23667 17.3533 8.52278 16.5622 8.04333C16.7389 7.38111 16.6922 6.66833 16.3822 5.96C15.915 4.89333 14.9044 4.18167 13.7644 3.98111C13.9028 3.66333 13.9472 3.265 13.7844 2.77722C13.2289 1.11056 11.0067 2.22167 9.34 0C7.98445 0.813333 7.69 2.02222 7.74111 3.04833C6.39611 3.27722 5.63 3.56833 5.63 3.56833V3.56944C4.87444 3.875 4.34 4.61556 4.34 5.48167C4.34 5.97 4.51667 6.41278 4.8 6.76611L4.41556 6.90944L4.41611 6.91111C3.12167 7.395 2.20778 8.56444 2.20778 9.93278C2.20778 10.5144 2.37444 11.0589 2.66333 11.5317C1.095 12.2367 0 13.7667 0 15.555C0 18.0094 2.05056 19.9994 4.58 19.9994C6.39611 19.9994 8.22389 19.6089 9.875 19.0744C11.1211 19.6522 13.0389 19.9994 15.9261 19.9994C18.1761 19.9994 20 18.1756 20 15.9256C20 14.7167 19.4706 13.6339 18.6339 12.8872Z" fill="#BF6952"/>
<path d="M7.50011 11.1106C8.574 11.1106 9.44455 9.99131 9.44455 8.6106C9.44455 7.22988 8.574 6.1106 7.50011 6.1106C6.42622 6.1106 5.55566 7.22988 5.55566 8.6106C5.55566 9.99131 6.42622 11.1106 7.50011 11.1106Z" fill="#F5F8FA"/>
<path d="M13.0555 11.1106C14.1294 11.1106 15 9.99131 15 8.6106C15 7.22988 14.1294 6.1106 13.0555 6.1106C11.9816 6.1106 11.1111 7.22988 11.1111 8.6106C11.1111 9.99131 11.9816 11.1106 13.0555 11.1106Z" fill="#F5F8FA"/>
<path d="M7.77786 9.99946C8.39151 9.99946 8.88897 9.37763 8.88897 8.61057C8.88897 7.84351 8.39151 7.22168 7.77786 7.22168C7.16421 7.22168 6.66675 7.84351 6.66675 8.61057C6.66675 9.37763 7.16421 9.99946 7.77786 9.99946Z" fill="#292F33"/>
<path d="M12.7779 9.99946C13.3915 9.99946 13.889 9.37763 13.889 8.61057C13.889 7.84351 13.3915 7.22168 12.7779 7.22168C12.1642 7.22168 11.6667 7.84351 11.6667 8.61057C11.6667 9.37763 12.1642 9.99946 12.7779 9.99946Z" fill="#292F33"/>
<path d="M5.24828 13.83C5.11162 13.5561 5.24995 13.3328 5.55551 13.3328H15.5555C15.8611 13.3328 15.9994 13.5561 15.8627 13.83C15.8627 13.83 14.4444 16.6661 10.5555 16.6661C6.66662 16.6661 5.24828 13.83 5.24828 13.83Z" fill="#292F33"/>
<path d="M10.5556 14.4438C9.01617 14.4438 7.69061 14.9561 7.06006 15.6972C7.88895 16.2277 9.0295 16.6661 10.5556 16.6661C12.0817 16.6661 13.2228 16.2277 14.0512 15.6972C13.4206 14.9561 12.0951 14.4438 10.5556 14.4438Z" fill="#F2ABBA"/>
</svg>
