<svg width="20" height="22" viewBox="0 0 20 22" fill="none" xmlns="http://www.w3.org/2000/svg">
<path d="M10 20C15.5228 20 20 15.5228 20 10C20 4.47715 15.5228 0 10 0C4.47715 0 0 4.47715 0 10C0 15.5228 4.47715 20 10 20Z" fill="#FFCB4C"/>
<path d="M7.95526 12.3636C7.86997 12.2953 7.8035 12.2024 7.77173 12.0906C7.69291 11.82 7.8482 11.5506 8.11879 11.49C10.7823 10.8895 12.5758 12.2918 12.6517 12.3518C12.8776 12.5318 12.9217 12.8489 12.7535 13.0606C12.5853 13.2712 12.2664 13.2965 12.0411 13.1177C11.9764 13.0683 10.557 11.9865 8.40467 12.4718C8.2435 12.5077 8.07879 12.4624 7.95526 12.3636Z" fill="#65471B"/>
<path d="M7.12891 8.12471C7.81926 8.12471 8.37891 7.42522 8.37891 6.56235C8.37891 5.69949 7.81926 5 7.12891 5C6.43855 5 5.87891 5.69949 5.87891 6.56235C5.87891 7.42522 6.43855 8.12471 7.12891 8.12471Z" fill="#65471B"/>
<path d="M13.75 8.74946C14.4404 8.74946 15 8.04997 15 7.18711C15 6.32425 14.4404 5.62476 13.75 5.62476C13.0596 5.62476 12.5 6.32425 12.5 7.18711C12.5 8.04997 13.0596 8.74946 13.75 8.74946Z" fill="#65471B"/>
<path d="M9.57404 20.6652C9.57404 20.6652 10.3182 20.4235 10.4146 19.8699C10.5164 19.2982 10.0476 19.1835 10.0476 19.1835C10.0476 19.1835 10.6599 19.0611 10.737 18.3741C10.8093 17.7264 10.2305 17.5723 10.2305 17.5723C10.2305 17.5723 10.8011 17.337 10.8282 16.667C10.8505 16.1029 10.2429 15.827 10.2429 15.827C10.2429 15.827 13.2064 15.1088 13.5111 15.0382C13.8146 14.9676 14.2876 14.6764 14.1399 14.0417C13.9935 13.4064 13.4317 13.3841 13.1417 13.4517C12.8511 13.5194 9.17463 14.3729 7.90639 14.6682L7.05992 14.8646C6.74228 14.9394 6.59816 14.7999 6.82228 14.5635C7.1211 14.2482 7.31228 13.8994 7.37875 13.3205C7.44875 12.7117 7.24228 11.9599 7.12404 11.6682C6.90404 11.1264 6.53286 10.6982 6.10404 10.5511C5.43522 10.3217 4.95992 10.7399 5.19698 11.4694C5.55228 12.5599 5.31933 13.4546 4.70698 13.9946C3.26639 15.2635 2.59639 16.1682 3.04228 18.0964C3.52933 20.1994 5.61698 21.5529 7.71992 21.0658L9.57404 20.6652Z" fill="#F19020"/>
<path d="M4.88 3.72533C4.78353 3.67356 4.70177 3.59356 4.65 3.49062C4.52294 3.23886 4.62647 2.94533 4.88118 2.83651C7.39059 1.75945 9.41 2.81121 9.49471 2.85651C9.74942 2.99239 9.85236 3.29592 9.72471 3.53533C9.59765 3.77356 9.28942 3.85651 9.03471 3.72239C8.96236 3.68533 7.36883 2.88003 5.34177 3.75003C5.19059 3.81415 5.02 3.80003 4.88 3.72533ZM12.0182 5.93121C11.9265 5.87356 11.85 5.78827 11.8053 5.6818C11.6953 5.4218 11.8188 5.13651 12.0806 5.04415C14.6577 4.14062 16.6012 5.3265 16.6824 5.37768C16.9265 5.53062 17.0088 5.84062 16.8659 6.07062C16.7235 6.30003 16.4094 6.3618 16.1653 6.21062C16.0947 6.16827 14.5612 5.25709 12.4788 5.98768C12.3224 6.04121 12.1535 6.01474 12.0182 5.93121Z" fill="#65471B"/>
</svg>
