<svg width="20" height="18" viewBox="0 0 20 18" fill="none" xmlns="http://www.w3.org/2000/svg">
<path d="M7.53348 13.7301C7.36742 13.4534 7.37469 13.1056 7.55304 12.8361L10.0103 9.12024L6.65847 6.24696C6.3476 5.98082 6.27491 5.52962 6.48514 5.1785L8.89156 1.16854C7.9584 0.441139 6.79209 0 5.51732 0C2.47016 0 0 2.4696 0 5.51732C0 5.94895 0.054793 6.36717 0.148724 6.77029C0.914707 11.5306 6.2067 16.552 9.99972 17.9307C10.0137 17.9257 10.0288 17.9184 10.0428 17.9128L7.53348 13.7301Z" fill="#DD2E44"/>
<path d="M14.4827 0.00109863C12.9368 0.00109863 11.5485 0.644637 10.5483 1.66893L8.28833 5.43567L11.6648 8.32963C11.9857 8.60472 12.0512 9.07605 11.818 9.42885L9.24385 13.3214L11.5703 17.1988C15.114 15.2257 19.186 10.9015 19.8502 6.77195C19.9453 6.36883 20.0001 5.95061 20.0001 5.51898C19.9995 2.4707 17.5293 0.00109863 14.4827 0.00109863Z" fill="#DD2E44"/>
</svg>
