<svg width="20" height="21" viewBox="0 0 20 21" fill="none" xmlns="http://www.w3.org/2000/svg">
<path d="M12.2222 0L10 4.46L7.22222 1.67222V5.57444L1.66667 4.46L6.11111 8.92L0 12.2644H6.66667L3.33333 18.9544L10 14.4944L16.1111 20.0694L14.4444 12.2644H20L15.5556 8.91945L20 3.90222L13.3333 5.57444L12.2222 0Z" fill="#BB1A34"/>
<path d="M12.7299 7.17996L13.7632 6.92052L16.6666 6.19219L14.7882 8.31219L14.0555 9.13996L14.9388 9.80385L16.5638 11.0272H13.276L13.5388 12.2594L14.4005 16.2927L11.1532 13.3305L10.5666 12.795L9.90657 13.2366L6.99545 15.1844L8.33212 12.5022L9.06657 11.0272H5.31323L7.40157 9.8833L8.59323 9.23219L7.63379 8.2683L5.94268 6.57219L7.73212 6.93107L8.94657 7.17496V4.82552L9.75212 5.63385L10.7488 6.6333L11.3782 5.36885L12.0855 3.94885" fill="#FCAB40"/>
<path d="M11.9511 7.94497L12.3772 7.83775L13.5761 7.5372L12.8006 8.41275L12.4978 8.75442L12.8622 9.02831L13.5334 9.53331H12.1761L12.2845 10.0422L12.6406 11.7072L11.3 10.4844L11.0572 10.2633L10.785 10.4455L9.58336 11.25L10.135 10.1422L10.4384 9.53331H8.88892L9.75169 9.06108L10.2434 8.7922L9.84725 8.39442L9.14892 7.69386L9.88725 7.8422L10.3889 7.94275V6.97331L10.7217 7.30664L11.1328 7.71942L11.3928 7.19775L11.6845 6.61108" fill="#F5F8FA"/>
</svg>
