<svg width="20" height="20" viewBox="0 0 20 20" fill="none" xmlns="http://www.w3.org/2000/svg">
<path d="M20 10C20 15.5228 15.5228 20 10 20C4.47778 20 0 15.5228 0 10C0 4.47778 4.47778 0 10 0C15.5228 0 20 4.47778 20 10Z" fill="#FFCC4D"/>
<path d="M6.38889 9.99997C7.15595 9.99997 7.77778 9.12942 7.77778 8.05553C7.77778 6.98164 7.15595 6.11108 6.38889 6.11108C5.62183 6.11108 5 6.98164 5 8.05553C5 9.12942 5.62183 9.99997 6.38889 9.99997Z" fill="#664500"/>
<path d="M13.6111 9.99997C14.3781 9.99997 14.9999 9.12942 14.9999 8.05553C14.9999 6.98164 14.3781 6.11108 13.6111 6.11108C12.844 6.11108 12.2222 6.98164 12.2222 8.05553C12.2222 9.12942 12.844 9.99997 13.6111 9.99997Z" fill="#664500"/>
<path d="M4.81379 15.4838C4.91268 15.5733 5.06045 15.5788 5.16656 15.4999C5.18823 15.4838 7.34545 13.8888 9.9999 13.8888C12.6477 13.8888 14.8121 15.4838 14.8332 15.4999C14.9393 15.5788 15.0871 15.5722 15.186 15.4838C15.2843 15.3949 15.3066 15.2483 15.2382 15.1349C15.1666 15.0161 13.451 12.2222 9.9999 12.2222C6.54879 12.2222 4.83268 15.0155 4.76156 15.1349C4.69323 15.2488 4.7149 15.3949 4.81379 15.4838Z" fill="#664500"/>
</svg>
