<svg width="20" height="20" viewBox="0 0 20 20" fill="none" xmlns="http://www.w3.org/2000/svg">
<path d="M9.44444 20C14.6605 20 18.8889 15.7716 18.8889 10.5555C18.8889 5.33951 14.6605 1.11108 9.44444 1.11108C4.22842 1.11108 0 5.33951 0 10.5555C0 15.7716 4.22842 20 9.44444 20Z" fill="#FFCC4D"/>
<path d="M9.99954 15.8333C10.6132 15.8333 11.1107 15.2115 11.1107 14.4444C11.1107 13.6774 10.6132 13.0555 9.99954 13.0555C9.38589 13.0555 8.88843 13.6774 8.88843 14.4444C8.88843 15.2115 9.38589 15.8333 9.99954 15.8333Z" fill="#664500"/>
<path d="M4.50607 11.8794C4.40496 11.8794 4.30218 11.8516 4.21051 11.7938C3.95107 11.6305 3.87329 11.2877 4.03662 11.0277C4.54551 10.2205 6.09274 8.83996 8.30885 9.38218C8.60662 9.45496 8.78885 9.75607 8.71607 10.0538C8.64273 10.3516 8.34051 10.5327 8.0444 10.4611C6.04218 9.97107 4.98773 11.6033 4.97718 11.62C4.87107 11.7877 4.69051 11.8794 4.50607 11.8794ZM11.1577 9.80051C10.9966 9.80051 10.8377 9.73107 10.7277 9.59718C10.5333 9.35996 10.5677 9.0094 10.8055 8.81496C12.57 7.36829 14.5622 7.94718 15.3694 8.45607C15.6288 8.6194 15.7066 8.96273 15.5427 9.22218C15.38 9.48051 15.0383 9.5594 14.7783 9.39718C14.7016 9.35051 13.0827 8.3844 11.5094 9.6744C11.4061 9.7594 11.2816 9.80051 11.1577 9.80051Z" fill="#664500"/>
<path d="M7.41437 17.3739C7.37659 17.3739 7.33825 17.3689 7.30048 17.3584C7.07937 17.2956 6.95048 17.0656 7.01325 16.8439C7.25603 15.9884 7.15659 15.1611 6.74103 14.5739C6.46492 14.1839 6.07159 13.9456 5.66159 13.9195C5.43159 13.9056 5.25714 13.7073 5.27159 13.4778C5.28603 13.2484 5.48325 13.0606 5.71325 13.0884C6.37603 13.1295 6.99825 13.4956 7.42048 14.0923C7.98214 14.8861 8.12603 15.9717 7.81437 17.0706C7.7627 17.2545 7.59548 17.3739 7.41437 17.3739ZM13.546 15.6734C13.4671 15.6734 13.3877 15.6511 13.3171 15.6045C12.6688 15.1767 12.306 14.4284 12.3216 13.5517C12.3377 12.6434 12.771 11.8 13.4238 11.4023C13.6199 11.2823 13.876 11.3445 13.996 11.5417C14.116 11.7384 14.0538 11.9939 13.8566 12.1139C13.4483 12.3628 13.1655 12.9467 13.1544 13.5661C13.1433 14.1523 13.3705 14.6417 13.7755 14.9089C13.9677 15.0356 14.0205 15.2939 13.8938 15.4861C13.8138 15.6078 13.6816 15.6734 13.546 15.6734Z" fill="#E2A62D"/>
<path d="M9.54379 1.51108C9.51991 1.48386 9.48268 1.46886 9.43879 1.46053C9.43879 1.46053 0.592128 -0.218917 0.20935 0.11886C-0.172873 0.457194 0.411016 9.44331 0.411016 9.44331C0.413794 9.48831 0.423794 9.52664 0.448239 9.55386C0.783794 9.93386 3.09157 8.44053 5.60324 6.21997C8.11546 3.99886 9.87935 1.89108 9.54379 1.51108Z" fill="#DD2E44"/>
<path d="M0.193963 0.150517C0.185629 0.167183 0.178407 0.189961 0.172852 0.21885C0.261185 0.980517 1.11452 7.24774 1.64618 9.20663C2.44396 8.76052 3.25452 8.15441 4.20674 7.39941C3.39785 5.91885 0.643407 0.0810723 0.193963 0.150517Z" fill="#EA596E"/>
<path d="M16.6123 16.2384L10.7384 15.5145C10.1106 15.4578 9.00671 15.4523 9.06338 14.4578C9.11505 13.5562 10.1967 13.695 10.9962 13.8134L16.9062 14.7989L16.6123 16.2384Z" fill="#3B88C3"/>
<path d="M16.9054 14.7995L14.5599 14.3973C14.2854 14.3478 14.041 14.7567 14.0288 15.1895C14.0149 15.6706 14.1549 15.9139 14.4321 15.9706L16.7343 16.255L16.9054 14.7995Z" fill="#88C9F9"/>
<path d="M19.3989 14.6338L17.9423 15.9733L15.3384 13.1416L16.795 11.8022C17.5512 11.1066 18.7389 11.1566 19.4345 11.9127L19.5095 11.9944C20.2045 12.7511 20.155 13.9383 19.3989 14.6338Z" fill="#3B88C3"/>
<path d="M17.9412 15.974C18.5669 15.3988 18.4912 14.2986 17.7723 13.5166C17.0533 12.7347 15.9633 12.5671 15.3377 13.1424C14.712 13.7176 14.7877 14.8178 15.5066 15.5998C16.2256 16.3817 17.3156 16.5493 17.9412 15.974Z" fill="#88C9F9"/>
<path d="M17.4206 15.4077C17.7335 15.12 17.6374 14.5066 17.2061 14.0375C16.7747 13.5683 16.1715 13.4212 15.8586 13.7088C15.5458 13.9964 15.6419 14.6099 16.0732 15.079C16.5046 15.5481 17.1078 15.6953 17.4206 15.4077Z" fill="#226699"/>
<path d="M1.389 19.4445C1.84923 19.4445 2.22233 19.0714 2.22233 18.6112C2.22233 18.1509 1.84923 17.7778 1.389 17.7778C0.92876 17.7778 0.555664 18.1509 0.555664 18.6112C0.555664 19.0714 0.92876 19.4445 1.389 19.4445Z" fill="#55ACEE"/>
<path d="M16.1111 2.22222C16.7248 2.22222 17.2222 1.72476 17.2222 1.11111C17.2222 0.497461 16.7248 0 16.1111 0C15.4975 0 15 0.497461 15 1.11111C15 1.72476 15.4975 2.22222 16.1111 2.22222Z" fill="#55ACEE"/>
<path d="M2.70234 16.2478L1.40345 13.1278L0.229004 16.4861L2.70234 16.2478ZM14.4446 2.77775L12.2223 3.33331L12.7779 1.11108L14.4446 2.77775Z" fill="#EA596E"/>
<path d="M17.7771 7.22226L19.9999 4.44393L18.3332 3.33337L17.7771 7.22226Z" fill="#77B255"/>
</svg>
