<svg width="18" height="24" viewBox="0 0 18 24" fill="none" xmlns="http://www.w3.org/2000/svg">
<path d="M12.4915 13.6538L11.3664 9.1689L8.78595 3.40524C8.45775 2.5573 8.87944 1.60345 9.72738 1.27591C10.5747 0.9451 11.5292 1.3694 11.8574 2.21734L15.9127 12.5267L12.4915 13.6538Z" fill="#EF9645"/>
<path d="M17.9498 12.0272C17.6308 10.3398 16.6501 7.76268 16.6501 7.76268L12.8668 0.905267C12.4575 0.0932823 11.4664 -0.232296 10.655 0.176311C9.84306 0.585572 9.51617 1.57604 9.92608 2.38802L13.4107 8.62958C13.4192 8.64396 14.3345 12.2194 14.3345 12.2194C13.6297 11.5689 12.6301 10.6772 11.7096 9.8541C9.68419 8.04184 8.48256 7.36257 8.48256 7.36257C8.01838 7.07295 7.71176 7.03176 7.08871 7.324L3.24977 9.00288C3.14712 9.05388 3.06017 9.12579 2.99153 9.21798L1.47935 11.2355C0.895535 11.9331 0.987716 12.9713 1.68529 13.5544C2.38221 14.1383 3.41975 14.0448 4.00487 13.3492C4.03625 13.3112 5.16859 11.6755 5.27058 11.6232C5.94854 11.2747 7.20901 10.6772 7.76014 10.6948C8.34657 10.7138 11.8665 14.5894 11.8665 14.5894C12.0012 14.7587 12.0168 14.9934 11.9057 15.1791L9.99996 18.597C9.94831 18.6826 9.87378 18.7513 9.78422 18.7951L8.03603 19.7757C7.93535 19.8248 7.82159 19.8405 7.71176 19.8195L4.26638 18.3342C4.09509 18.2603 3.95257 18.125 3.87935 17.953C3.36483 16.7435 3.29226 15.587 3.29161 15.5739C3.24911 14.6652 2.47832 13.9637 1.56957 14.0062C0.662792 14.0428 -0.0406668 14.8188 0.00182837 15.7276C0.0103274 15.8995 0.231302 19.4149 3.09221 21.8024C4.74494 23.1806 6.78863 23.7141 9.40045 23.363C12.4156 22.9583 14.2835 22.5569 16.9228 17.1142C17.653 15.6073 18.1669 13.1759 17.9498 12.0272Z" fill="#FFDC5D"/>
</svg>
