<svg width="20" height="19" viewBox="0 0 20 19" fill="none" xmlns="http://www.w3.org/2000/svg">
<path d="M0.960324 11.1107C0.617551 11.1107 0.430887 10.9685 0.334222 10.8491C0.239223 10.7319 0.140891 10.5241 0.209223 10.2019L1.72476 3.14308L0.772549 3.19697H0.765327C0.478109 3.19697 0.269778 3.10364 0.139224 2.94197C0.017004 2.79086 -0.0268843 2.59698 0.0164485 2.39754C0.0997806 2.00754 0.506997 1.6831 0.942546 1.65921L3.16918 1.5331C3.21251 1.53033 3.25251 1.52866 3.28974 1.52866C3.3714 1.52866 3.58751 1.52866 3.72473 1.69866C3.86473 1.87199 3.81751 2.09254 3.80195 2.16476L2.06642 10.2519C1.96253 10.743 1.55587 11.0791 1.02977 11.1085L0.960324 11.1107ZM6.92857 9.99965C6.12914 9.99965 5.4647 9.70021 5.00693 9.13355C4.36083 8.33412 4.19194 7.10525 4.51916 5.57971C5.09249 2.90642 6.85691 1.032 8.9091 0.91589C9.79242 0.866447 10.5235 1.167 11.0163 1.77643C11.6624 2.57587 11.8313 3.80474 11.5041 5.33027C10.9307 8.00246 9.16632 9.87687 7.11301 9.99354C7.05079 9.99798 6.98913 9.99965 6.92857 9.99965ZM8.82521 2.36309L8.7491 2.36531C7.67134 2.42698 6.77413 3.6453 6.34914 5.62416C6.08358 6.86192 6.13747 7.79024 6.50025 8.23912C6.66524 8.44356 6.89857 8.54745 7.19412 8.54745L7.2719 8.54523C8.34966 8.48467 9.24632 7.26691 9.67076 5.28749C9.93631 4.04973 9.88297 3.12086 9.52076 2.67198C9.35632 2.46698 9.12187 2.36309 8.82521 2.36309ZM15.2646 9.08911C14.4651 9.08911 13.7996 8.78967 13.3413 8.22245C12.6952 7.42302 12.5263 6.19415 12.8535 4.66861C13.4274 1.99476 15.1918 0.120902 17.244 0.00534775C18.1345 -0.0446515 18.8567 0.257011 19.3495 0.865891C19.9956 1.66532 20.1645 2.8942 19.8373 4.41917C19.2645 7.0908 17.5006 8.96522 15.4473 9.08355C15.3851 9.088 15.3246 9.08911 15.2646 9.08911ZM17.1595 1.45199L17.084 1.45422C16.0057 1.51588 15.1085 2.7342 14.684 4.7125C14.4185 5.95082 14.4724 6.87969 14.8351 7.32802C15.0001 7.53246 15.2346 7.63635 15.5301 7.63635L15.6079 7.63413C16.6851 7.57357 17.5823 6.35526 18.0067 4.3764C18.2729 3.13919 18.2195 2.21032 17.8567 1.76143C17.6912 1.55588 17.4568 1.45199 17.1595 1.45199ZM6.11136 18.889C5.66137 18.889 5.23804 18.6134 5.07082 18.1673C4.85527 17.5929 5.14638 16.9523 5.72081 16.7368C5.90803 16.6668 10.3869 15.0101 17.1295 14.4479C17.7412 14.3946 18.2779 14.8518 18.329 15.4629C18.3801 16.0746 17.9251 16.6112 17.314 16.6623C10.8752 17.199 6.54413 18.8017 6.5008 18.8179C6.37302 18.8656 6.2408 18.889 6.11136 18.889ZM1.11199 15.5551C0.665328 15.5551 0.243667 15.284 0.0742254 14.8424C-0.145771 14.2696 0.13978 13.6268 0.71255 13.4074C1.01366 13.2913 8.22133 10.5596 18.8301 10.0013C19.4484 9.96298 19.9662 10.4396 19.9984 11.0524C20.0312 11.6652 19.5601 12.1885 18.9473 12.2207C8.71243 12.7596 1.58032 15.4546 1.50921 15.4818C1.37865 15.5312 1.24421 15.5551 1.11199 15.5551Z" fill="#BB1A34"/>
</svg>
