<svg width="20" height="22" viewBox="0 0 20 22" fill="none" xmlns="http://www.w3.org/2000/svg">
<path d="M20 10C20 15.5229 15.5229 20 10 20C4.47765 20 0 15.5229 0 10C0 4.47765 4.47765 0 10 0C15.5229 0 20 4.47765 20 10Z" fill="#FFCC4D"/>
<path d="M9.99997 15.8824C12.2741 15.8824 14.1176 13.9072 14.1176 11.4706C14.1176 9.03405 12.2741 7.05884 9.99997 7.05884C7.72586 7.05884 5.88232 9.03405 5.88232 11.4706C5.88232 13.9072 7.72586 15.8824 9.99997 15.8824Z" fill="#664500"/>
<path d="M12.6283 16.1006C12.6283 16.1006 13.2148 15.6765 12.7254 15.1512C12.236 14.6259 11.7719 15.1818 11.7719 15.1818L9.33187 17.4559C9.29128 17.3353 9.06186 17.0188 9.00834 16.8988L12.3936 13.7424C12.3936 13.7424 12.9807 13.3182 12.4901 12.7924C12.0007 12.2677 11.536 12.8224 11.536 12.8224L8.35187 15.7906C8.27834 15.6977 8.08069 15.473 8.00245 15.38L11.6942 11.9388C11.6942 11.9388 12.2807 11.5141 11.7907 10.9894C11.3013 10.4641 10.8372 11.0194 10.8372 11.0194L7.14422 14.4594C7.05598 14.3741 6.78422 14.1012 6.69481 14.0206L10.1454 10.8041C10.1454 10.8041 10.7313 10.3794 10.2419 9.85472C9.75187 9.32942 9.28834 9.88472 9.28834 9.88472L5.63951 13.2853L5.34716 13.5582L5.21775 13.68C5.21775 13.68 4.90128 14.1177 4.57834 13.7853L5.66187 11.3394C5.66187 11.3394 6.00304 10.7077 5.37187 10.3659C4.73951 10.0241 4.39834 10.6559 4.39834 10.6559L3.41716 12.2782C3.02716 12.9212 2.62363 13.5594 2.14716 14.1412C0.803631 15.7841 0.846572 18.2082 2.33422 19.8053C3.95716 21.5459 6.68481 21.6418 8.4254 20.0194L8.68834 19.7735L12.6283 16.1006Z" fill="#F4900C"/>
<path d="M5.8918 3.57645C4.56533 3.93174 3.84475 4.73233 3.80063 4.78233C3.58651 5.02645 3.61063 5.39822 3.85416 5.61292C4.09827 5.82763 4.46945 5.8041 4.68416 5.55939C4.73063 5.50822 5.91357 4.2341 8.1018 4.68174C8.42063 4.74704 8.73122 4.54116 8.79592 4.22351C8.86122 3.90527 8.65592 3.5941 8.33769 3.52939C7.37592 3.33174 6.55769 3.39822 5.8918 3.57645ZM14.1083 3.57704C13.4424 3.3988 12.6242 3.33233 11.6618 3.5288C11.3436 3.5941 11.1383 3.90469 11.2036 4.22292C11.2695 4.54116 11.5795 4.74645 11.8977 4.68116C14.0883 4.23292 15.2689 5.50763 15.3177 5.56174C15.5336 5.80116 15.9059 5.82292 16.1471 5.60763C16.3883 5.39233 16.4124 5.02469 16.1989 4.78174C16.1547 4.73233 15.4342 3.93233 14.1083 3.57704Z" fill="#664500"/>
</svg>
