<svg width="20" height="22" viewBox="0 0 20 22" fill="none" xmlns="http://www.w3.org/2000/svg">
<path d="M20 10C20 15.5229 15.5229 20 10 20C4.47706 20 0 15.5229 0 10C0 4.47706 4.47706 0 10 0C15.5229 0 20 4.47706 20 10Z" fill="#FFCB4C"/>
<path d="M9.88941 14.7382C11.209 14.7382 12.2788 14.23 12.2788 13.6029C12.2788 12.9759 11.209 12.4677 9.88941 12.4677C8.56978 12.4677 7.5 12.9759 7.5 13.6029C7.5 14.23 8.56978 14.7382 9.88941 14.7382Z" fill="#65471B"/>
<path d="M14.3236 15.2829L14.3042 15.2711C13.8106 14.9682 13.1589 15.1241 12.8559 15.6176L12.7671 15.7617C12.4483 15.4311 12.0318 15.1888 11.5506 15.0905L10.7277 14.9223L11.4759 11.2611C11.5918 10.6935 11.2224 10.1347 10.6554 10.0188L10.633 10.0141C10.0654 9.89819 9.50653 10.2676 9.39064 10.8347L8.40653 15.6482L8.3977 15.6917L8.21359 16.5923L8.213 16.5982L7.54947 19.8529C7.42006 20.487 7.70829 21.1764 8.66417 21.1764H10.5883C12.2377 21.1764 12.7265 20.5823 13.0577 19.357L14.6701 16.7317C14.9724 16.2382 14.8171 15.5864 14.3236 15.2829Z" fill="#F19020"/>
<path d="M12.5935 18.0841C12.5818 18.0841 12.5688 18.0829 12.5559 18.0806C12.4477 18.0606 12.3765 17.9559 12.3977 17.847C12.4324 17.6635 12.3965 17.5017 12.2877 17.3535C11.9406 16.8782 10.9412 16.6623 10.5853 16.6194C10.4759 16.6065 10.3977 16.5065 10.4112 16.3976C10.4241 16.2882 10.5194 16.2088 10.633 16.2235C10.6924 16.23 12.0882 16.4059 12.6094 17.1182C12.7847 17.3576 12.8453 17.6288 12.7894 17.9229C12.7712 18.0176 12.6877 18.0841 12.5935 18.0841ZM10.6765 20.8665C10.5277 20.8665 10.3647 20.8482 10.1865 20.8065C9.82766 20.7217 9.57472 20.5129 9.49236 20.2329C9.42295 19.997 9.48648 19.7476 9.66237 19.5653C9.8906 19.3288 10.2524 19.2512 10.6594 19.3547C10.7659 19.3817 10.8306 19.4906 10.8035 19.5976C10.7765 19.7035 10.6688 19.7688 10.5606 19.7417C10.2988 19.6747 10.0753 19.7123 9.95001 19.8423C9.87472 19.92 9.84707 20.0241 9.87531 20.1206C9.91589 20.2594 10.063 20.3682 10.2782 20.4182C10.9724 20.5812 11.3565 20.3088 11.5571 20.0506C11.8559 19.6665 11.8912 19.1459 11.7847 18.9417C11.5365 18.4641 10.5794 18.3582 10.2318 18.3576C10.1218 18.3576 10.0324 18.2682 10.0324 18.1582C10.0324 18.0482 10.1218 17.9588 10.2318 17.9588C10.2924 17.9588 11.7271 17.9676 12.1388 18.7582C12.3182 19.1023 12.2671 19.7882 11.8718 20.2959C11.6906 20.5276 11.3171 20.8665 10.6765 20.8665ZM7.77766 7.77763C7.77766 8.59587 7.28001 9.25939 6.66648 9.25939C6.05295 9.25939 5.55531 8.59645 5.55531 7.77763C5.55531 6.95939 6.05236 6.29587 6.66648 6.29587C7.28001 6.29645 7.77766 6.95939 7.77766 7.77763ZM16.9918 6.04175C17.1224 6.04175 17.2535 6.00116 17.3665 5.91645C17.643 5.70939 17.6982 5.31763 17.4912 5.04175C15.4524 2.32292 12.7312 2.29175 12.6165 2.29175C12.2712 2.29175 11.9918 2.57175 11.9918 2.91704C11.9918 3.26116 12.27 3.54057 12.6141 3.54175C12.7118 3.54292 14.8447 3.59528 16.4918 5.79175C16.6141 5.95528 16.8018 6.04175 16.9918 6.04175ZM12.2224 7.77763C12.2224 8.59587 12.72 9.25939 13.3335 9.25939C13.9471 9.25939 14.4447 8.59645 14.4447 7.77763C14.4447 6.95939 13.9477 6.29587 13.3335 6.29587C12.7194 6.29645 12.2224 6.95939 12.2224 7.77763ZM3.00825 6.04175C2.87766 6.04175 2.74648 6.00116 2.63354 5.91645C2.35766 5.70939 2.30178 5.31763 2.50884 5.04175C4.54766 2.32292 7.26884 2.29175 7.38354 2.29175C7.72884 2.29175 8.00825 2.57175 8.00825 2.91704C8.00825 3.26116 7.73001 3.54057 7.38589 3.54175C7.28825 3.54292 5.15531 3.59528 3.50825 5.79175C3.38589 5.95528 3.19825 6.04175 3.00825 6.04175Z" fill="#65471B"/>
</svg>
