<svg width="20" height="17" viewBox="0 0 20 17" fill="none" xmlns="http://www.w3.org/2000/svg">
<path d="M18.3163 1.72638C17.0396 1.51964 13.97 -0.549569 11.763 0.140166C9.55593 0.829901 9.7288 1.3818 8.62499 1.72696C7.52119 2.07211 7.3489 1.52021 5.14186 2.20994C2.9354 2.89968 1.59039 6.34835 0.659447 7.24541C0.659447 7.24541 -0.261157 8.17635 0.0730861 9.2457C0.407903 10.3145 1.52205 10.0038 1.52205 10.0038C5.38479 8.7966 6.69477 7.17535 6.69477 7.17535C6.69477 7.17535 8.69448 7.76171 10.3496 7.24426C12.0048 6.72682 13.3153 5.10557 13.3153 5.10557C13.3153 5.10557 15.3162 5.69193 19.1783 4.48475C19.1783 4.48475 20.2707 4.10514 19.9364 3.03636C19.6016 1.96702 18.3163 1.72638 18.3163 1.72638ZM17.6949 5.55467C14.3847 6.58899 15.075 8.79602 11.2122 10.0038C7.34947 11.211 6.65974 9.00449 3.34947 10.0388C2.24624 10.384 1.86663 11.1076 2.03949 11.6606C2.55636 13.3152 6.86763 17.418 12.9374 15.5217C19.0066 13.6247 20.2138 7.79616 19.6964 6.14161C19.5235 5.58855 18.7982 5.20952 17.6949 5.55467Z" fill="#DD2E44"/>
</svg>
