<svg width="20" height="20" viewBox="0 0 20 20" fill="none" xmlns="http://www.w3.org/2000/svg">
<path d="M16.6667 12.2222C15 12.2222 12.9511 16.1633 12.7778 17.7777C12.5439 19.9527 13.8889 19.9999 13.8889 19.9999H20V14.4444C20 14.4444 18.09 12.2222 16.6667 12.2222Z" fill="#50A5E6"/>
<path d="M16.1064 16.2825C17.0035 14.7286 17.378 13.2652 16.9427 13.0139C16.5075 12.7626 15.4274 13.8186 14.5302 15.3725C13.6331 16.9265 13.2586 18.3899 13.6938 18.6412C14.1291 18.8924 15.2092 17.8365 16.1064 16.2825Z" fill="#1C6399"/>
<path d="M11.159 0C11.8151 0 12.3467 0.531667 12.3467 1.18778C12.3467 1.62611 12.7179 7.20111 12.7179 7.20111L9.97119 10V1.18778C9.97119 0.531667 10.5029 0 11.159 0Z" fill="#F9CA55"/>
<path d="M10.4862 2.40163C10.4862 1.79108 10.9595 1.29663 11.5434 1.29663C12.1273 1.29663 12.6006 1.79163 12.6006 2.40163C12.6006 2.40163 12.8978 5.70274 13.2628 7.60719C13.7506 8.64385 14.0234 10.2083 13.9634 11.0783C13.9934 11.2994 17.0884 13.8594 17.0884 13.8594C16.9323 14.8666 15.8334 17.2789 14.4445 18.3922L12.4884 16.7677C10.8856 16.5433 10.0117 14.9172 10.0117 14.3989C10.0117 12.7411 10.4862 2.40163 10.4862 2.40163Z" fill="#FFDC5D"/>
<path d="M3.33333 12.2222C5 12.2222 7.04889 16.1633 7.22222 17.7777C7.45611 19.9527 6.11111 19.9999 6.11111 19.9999H0V14.4444C0 14.4444 1.91 12.2222 3.33333 12.2222Z" fill="#50A5E6"/>
<path d="M6.30553 18.6403C6.74077 18.389 6.36632 16.9256 5.46917 15.3716C4.57201 13.8177 3.49188 12.7617 3.05664 13.013C2.62139 13.2643 2.99584 14.7277 3.893 16.2816C4.79015 17.8356 5.87028 18.8915 6.30553 18.6403Z" fill="#1C6399"/>
<path d="M8.92275 0.00610274C8.21941 -0.0644528 7.62664 0.486103 7.62664 1.17444C7.62664 1.60777 7.52441 6.90721 7.52441 6.90721L9.94164 9.99999L9.97608 1.24166C9.97608 0.627214 9.53441 0.0672138 8.92275 0.00610274Z" fill="#F9CA55"/>
<path d="M9.51384 2.40163C9.51384 1.79108 9.04051 1.29663 8.45662 1.29663C7.87273 1.29663 7.3994 1.79163 7.3994 2.40163C7.3994 2.40163 7.10218 5.70274 6.73718 7.60719C6.2494 8.64385 5.97662 10.2083 6.03662 11.0783C6.00662 11.2994 2.91162 13.8594 2.91162 13.8594C3.06773 14.8666 4.16662 17.2789 5.55551 18.3922L7.51162 16.7677C9.1144 16.5433 9.98829 14.9172 9.98829 14.3989C9.98829 12.7411 9.51384 2.40163 9.51384 2.40163Z" fill="#FFDC5D"/>
<path d="M9.97673 14.3461C9.74673 14.3461 9.56006 14.1594 9.56006 13.9294V1.55107C9.56006 1.32107 9.74673 1.1344 9.97673 1.1344C10.2067 1.1344 10.3934 1.32107 10.3934 1.55107V13.93C10.3939 14.1594 10.2073 14.3461 9.97673 14.3461Z" fill="#F9CA55"/>
</svg>
