<svg width="20" height="20" viewBox="0 0 20 20" fill="none" xmlns="http://www.w3.org/2000/svg">
<path d="M0 10C0 4.47722 4.47722 0 10 0C15.5228 0 20 4.47722 20 10C20 15.5228 15.5228 20 10 20C4.47722 20 0 15.5228 0 10Z" fill="#FFCC4D"/>
<path d="M4.81379 7.15058C4.91268 7.24003 5.06045 7.24558 5.16656 7.16669C5.18823 7.15058 7.34545 5.55558 9.9999 5.55558C12.6477 5.55558 14.8121 7.15058 14.8332 7.16669C14.9393 7.24558 15.0871 7.23892 15.186 7.15058C15.2843 7.06169 15.3066 6.91503 15.2382 6.80169C15.1666 6.6828 13.451 3.88892 9.9999 3.88892C6.54879 3.88892 4.83268 6.68225 4.76156 6.80169C4.69323 6.91558 4.7149 7.06169 4.81379 7.15058Z" fill="#664500"/>
<path d="M6.38889 13.8889C7.15595 13.8889 7.77778 13.0183 7.77778 11.9444C7.77778 10.8706 7.15595 10 6.38889 10C5.62183 10 5 10.8706 5 11.9444C5 13.0183 5.62183 13.8889 6.38889 13.8889Z" fill="#664500"/>
<path d="M13.6111 13.8889C14.3781 13.8889 14.9999 13.0183 14.9999 11.9444C14.9999 10.8706 14.3781 10 13.6111 10C12.844 10 12.2222 10.8706 12.2222 11.9444C12.2222 13.0183 12.844 13.8889 13.6111 13.8889Z" fill="#664500"/>
</svg>
