<svg width="20" height="22" viewBox="0 0 20 22" fill="none" xmlns="http://www.w3.org/2000/svg">
<path d="M10.5779 20.5163H9.42311C5.61292 20.5163 1.91821 17.5959 1.91821 13.5079C1.91821 11.1719 2.78401 10.0037 2.78401 10.0037C2.78401 10.0037 2.4956 8.8354 2.4956 7.66773C2.4956 4.16353 6.19031 1.24316 10.0005 1.24316C13.8107 1.24316 17.5054 4.74737 17.5054 7.66773C17.5054 8.83599 17.217 10.0037 17.217 10.0037C17.217 10.0037 18.0828 11.1719 18.0828 13.5079C18.0828 17.5959 14.3881 20.5163 10.5779 20.5163Z" fill="#BF6952"/>
<path d="M16.8396 9.01478C16.8396 6.78318 15.0301 4.97363 12.7985 4.97363C11.7117 4.97363 10.7269 5.40506 10.0006 6.10262C9.27433 5.40448 8.28955 4.97363 7.20276 4.97363C4.97117 4.97363 3.16162 6.78318 3.16162 9.01478C3.16162 10.3683 3.82987 11.5635 4.851 12.2968C4.56436 13.0073 4.40491 13.7892 4.40491 14.6099C4.40491 17.872 6.91026 19.8943 10 19.8943C13.0898 19.8943 15.5951 17.872 15.5951 14.6099C15.5951 13.7886 15.4357 13.0073 15.1491 12.2968C16.1714 11.5635 16.8396 10.3683 16.8396 9.01478Z" fill="#D79E84"/>
<path d="M7.06958 11.7235C7.71706 11.7235 8.24195 10.9362 8.24195 9.96497C8.24195 8.99375 7.71706 8.20642 7.06958 8.20642C6.4221 8.20642 5.89722 8.99375 5.89722 9.96497C5.89722 10.9362 6.4221 11.7235 7.06958 11.7235Z" fill="#292F33"/>
<path d="M12.9314 11.7235C13.5789 11.7235 14.1038 10.9362 14.1038 9.96497C14.1038 8.99375 13.5789 8.20642 12.9314 8.20642C12.2839 8.20642 11.759 8.99375 11.759 9.96497C11.759 10.9362 12.2839 11.7235 12.9314 11.7235Z" fill="#292F33"/>
<path d="M10.0005 18.4646C11.592 18.4646 12.9472 17.6557 13.4561 16.5249C13.6665 16.0572 13.3095 15.5337 12.7778 15.5337H7.22317C6.6915 15.5337 6.33452 16.0572 6.54496 16.5249C7.05376 17.6557 8.40902 18.4646 10.0005 18.4646Z" fill="#642116"/>
<path d="M9.12134 13.5178C9.44508 13.5178 9.70752 13.2394 9.70752 12.8959C9.70752 12.5524 9.44508 12.2739 9.12134 12.2739C8.7976 12.2739 8.53516 12.5524 8.53516 12.8959C8.53516 13.2394 8.7976 13.5178 9.12134 13.5178Z" fill="#642116"/>
<path d="M10.8799 13.4821C11.2036 13.4821 11.4661 13.2196 11.4661 12.8959C11.4661 12.5721 11.2036 12.3097 10.8799 12.3097C10.5561 12.3097 10.2937 12.5721 10.2937 12.8959C10.2937 13.2196 10.5561 13.4821 10.8799 13.4821Z" fill="#642116"/>
<path d="M12.4871 0.0995479C12.4871 0.0995479 9.37862 -0.522392 8.13533 1.34284C6.89203 3.20808 10.6219 1.96478 10.6219 1.96478C10.6219 1.96478 11.2439 0.0995479 12.4871 0.0995479Z" fill="#BF6952"/>
<path d="M4.72485 18.756C4.79813 19.1423 5.76885 19.5819 5.76885 19.5819L5.31104 11.135L4.13867 14.0683C4.13867 14.0683 4.65158 18.3691 4.72485 18.756ZM15.2761 18.756C15.1659 19.1792 14.2503 19.5637 14.2503 19.5637L14.6905 11.135L15.8623 14.0683C15.8623 14.0683 15.3863 18.3327 15.2761 18.756Z" fill="#9B3C07"/>
<path d="M0.621582 21.1024H5.31104L4.71783 11.8214L2.37486 9.37817L0.621582 21.1024ZM19.3794 21.1024H14.69L15.2773 11.8214L17.6203 9.37817L19.3794 21.1024Z" fill="#BF6952"/>
<path d="M17.3911 8.82374C17.3911 8.82374 17.5083 7.37236 18.0928 6.74748C18.856 5.93093 19.7751 6.56342 19.7042 7.70882C19.4463 11.8625 18.5342 13.0038 17.3489 13.6855C16.1642 14.3679 14.5417 14.2401 12.8247 12.5882C11.1078 10.9363 10.3874 9.91873 10.1822 9.19011C9.97706 8.4609 10.7426 7.86885 11.3956 8.23991C11.983 8.57344 12.8669 9.59282 12.8669 9.59282C12.8669 9.59282 11.7256 8.01247 11.5639 7.40166C11.3399 6.55698 12.3388 6.05286 12.881 6.51829C13.4156 6.97727 14.5176 8.36828 14.5176 8.36828C14.5176 8.36828 13.5762 6.92393 13.4895 6.22813C13.4039 5.54112 14.2157 4.93384 14.9332 5.53291C15.6501 6.13258 16.8026 7.86065 17.3911 8.82374ZM2.60991 8.82374C2.60991 8.82374 2.49268 7.37236 1.90825 6.74748C1.14504 5.93093 0.225906 6.56342 0.296834 7.70882C0.554755 11.8625 1.46686 13.0038 2.65212 13.6855C3.83679 14.3679 5.45935 14.2401 7.17628 12.5882C8.89321 10.9363 9.61362 9.91873 9.81879 9.19011C10.024 8.4609 9.2584 7.86885 8.60539 8.23991C8.01803 8.57344 7.13407 9.59282 7.13407 9.59282C7.13407 9.59282 8.27537 8.01247 8.43716 7.40166C8.66108 6.55698 7.66222 6.05286 7.12 6.51829C6.5854 6.97727 5.48338 8.36828 5.48338 8.36828C5.48338 8.36828 6.42479 6.92393 6.51155 6.22813C6.59713 5.54112 5.78526 4.93384 5.06778 5.53291C4.35029 6.13199 3.19844 7.86065 2.60991 8.82374Z" fill="#D79E84"/>
<path d="M15.9106 14.3684C14.8379 14.3684 13.6983 13.8355 12.6215 12.7997C10.9831 11.2241 10.1437 10.1349 9.90044 9.26974C9.77324 8.8178 9.92037 8.35881 10.285 8.07334C10.632 7.80136 11.0834 7.75681 11.4784 7.952C11.3864 7.77146 11.3155 7.60733 11.2809 7.4772C11.1484 6.97835 11.3337 6.50062 11.7633 6.23097C12.1889 5.96367 12.7147 5.98946 13.0723 6.29662C13.1215 6.33942 13.1754 6.38865 13.2317 6.44376C13.2165 6.38103 13.2048 6.32124 13.1977 6.26497C13.1409 5.81009 13.3777 5.35463 13.7862 5.13129C14.2124 4.89916 14.7107 4.96658 15.1198 5.30832C15.7763 5.85699 16.692 7.19055 17.2242 8.01121C17.3338 7.52233 17.5308 6.91856 17.8778 6.54692C18.277 6.1196 18.7782 5.97715 19.2213 6.16766C19.7366 6.38983 20.0408 7.0018 19.9957 7.72632C19.7401 11.8478 18.8491 13.1597 17.4939 13.9399C16.9974 14.2271 16.4622 14.3684 15.9106 14.3684ZM10.9737 8.41861C10.8583 8.41861 10.7445 8.45729 10.6461 8.53467C10.4696 8.67301 10.4016 8.88814 10.4638 9.11089C10.6719 9.84948 11.5101 10.9181 13.0271 12.3771C14.4774 13.771 15.9592 14.1456 17.2025 13.4316C18.1744 12.8718 19.1457 11.9674 19.4113 7.69057C19.4447 7.15069 19.2237 6.80719 18.9892 6.70637C18.7811 6.61492 18.5373 6.70168 18.3063 6.94787C17.886 7.39806 17.7137 8.47195 17.6832 8.84769C17.6726 8.97431 17.5824 9.07982 17.4587 9.10913C17.3356 9.13902 17.2072 9.08451 17.141 8.97665C16.5765 8.05341 15.4369 6.33648 14.7447 5.75851C14.4398 5.50411 14.1895 5.57855 14.0676 5.64596C13.8677 5.75499 13.7522 5.97422 13.7798 6.19228C13.8443 6.70812 14.5114 7.82246 14.7634 8.20875C14.849 8.34006 14.8162 8.51474 14.689 8.60677C14.5629 8.69821 14.3853 8.67418 14.288 8.55108C14.2769 8.5376 13.1971 7.17648 12.6895 6.74154C12.506 6.58327 12.2411 6.62313 12.074 6.72747C11.9744 6.79019 11.7528 6.97367 11.8466 7.32713C11.9679 7.78494 12.795 8.99482 13.1039 9.42215C13.1954 9.54935 13.1713 9.72638 13.0482 9.82369C12.9257 9.91982 12.7475 9.90458 12.6449 9.78617C12.4087 9.51301 11.6965 8.74863 11.251 8.49598C11.1613 8.44381 11.0669 8.41861 10.9737 8.41861Z" fill="#BF6952"/>
<path d="M4.09069 14.3684C3.53851 14.3684 3.00391 14.2271 2.50565 13.9404C1.15098 13.1602 0.259987 11.8489 0.00441136 7.72691C-0.0407247 7.00239 0.263504 6.39041 0.779345 6.16825C1.21898 5.97833 1.72251 6.1196 2.12229 6.54751C2.46931 6.91856 2.66685 7.52233 2.77647 8.01179C3.30872 7.19172 4.22317 5.85816 4.88087 5.30891C5.29061 4.96599 5.78886 4.89916 6.21385 5.13188C6.623 5.35463 6.85982 5.81068 6.80237 6.26556C6.79534 6.32183 6.78362 6.38162 6.76837 6.44434C6.82523 6.38924 6.87858 6.33941 6.9284 6.29721C7.2848 5.99122 7.81178 5.96484 8.23676 6.23156C8.66702 6.5012 8.85225 6.97894 8.72036 7.47778C8.68578 7.60791 8.61485 7.77205 8.52341 7.95318C8.91732 7.75856 9.36927 7.80253 9.7157 8.07452C10.0809 8.35999 10.228 8.81897 10.1008 9.27092C9.85697 10.1373 9.01756 11.2258 7.37918 12.8009C6.30295 13.8355 5.16341 14.3684 4.09069 14.3684ZM1.18088 6.67119C1.12226 6.67119 1.06599 6.68292 1.01089 6.70637C0.777 6.80719 0.556009 7.15069 0.589422 7.69057C0.854963 11.9674 1.82627 12.8718 2.79816 13.4316C4.04145 14.1474 5.52274 13.7722 6.97295 12.3771C8.48999 10.9187 9.32823 9.85006 9.53633 9.11089C9.59905 8.88814 9.53105 8.67242 9.35461 8.53467C9.177 8.39516 8.95073 8.37992 8.74967 8.49481C8.30359 8.74863 7.59196 9.51184 7.35514 9.785C7.25198 9.90341 7.07378 9.91923 6.95185 9.82251C6.82934 9.72521 6.80472 9.54818 6.89616 9.42098C7.20449 8.99365 8.03218 7.78377 8.15411 7.32596C8.2479 6.97249 8.02574 6.78902 7.92609 6.7263C7.75961 6.62137 7.49583 6.58092 7.31118 6.74036C6.80413 7.1759 5.72438 8.53643 5.71383 8.54991C5.61653 8.67184 5.44008 8.69704 5.31288 8.6056C5.18568 8.51415 5.15285 8.33888 5.23844 8.20758C5.48991 7.82128 6.15757 6.70637 6.22147 6.19111C6.24843 5.97305 6.13295 5.75382 5.93365 5.64479C5.81172 5.57855 5.56084 5.50352 5.2572 5.75733C4.65343 6.26145 3.59185 7.77908 2.86029 8.97548C2.79405 9.08392 2.66744 9.13844 2.54258 9.10796C2.41948 9.07865 2.32863 8.97313 2.31807 8.84652C2.28759 8.47078 2.11526 7.39689 1.69496 6.9467C1.5238 6.76557 1.34677 6.67119 1.18088 6.67119Z" fill="#BF6952"/>
<path d="M14.683 5.7199C14.7041 5.73514 14.7234 5.74042 14.7451 5.75859C15.4374 6.33656 16.577 8.05349 17.1414 8.97673C17.1942 9.06231 17.2874 9.09983 17.3841 9.10276C17.5107 8.4861 17.5442 7.76451 17.5401 7.0775C17.3953 7.38114 17.2909 7.71468 17.2247 8.01129C16.6924 7.19063 15.7768 5.85707 15.1203 5.3084C14.7299 4.9819 14.2598 4.91448 13.8477 5.1091C14.2416 5.24157 14.5042 5.4696 14.683 5.7199ZM2.85969 8.97673C3.59125 7.77975 4.65282 6.26271 5.25659 5.75859C5.29704 5.72459 5.33338 5.71052 5.37148 5.68766C5.54675 5.45319 5.79998 5.24275 6.16811 5.11555C5.75309 4.91097 5.27594 4.97779 4.88026 5.30899C4.22256 5.85824 3.30753 7.19181 2.77587 8.01188C2.71373 7.7352 2.61935 7.42511 2.48981 7.13846C2.48805 7.8073 2.52322 8.5031 2.64515 9.10159C2.7319 9.08987 2.8128 9.05352 2.85969 8.97673Z" fill="#9B3C07"/>
</svg>
