<svg width="18" height="21" viewBox="0 0 18 21" fill="none" xmlns="http://www.w3.org/2000/svg">
<path d="M18 9.9366C18 9.65382 17.9325 9.38847 17.8195 9.14729C17.0656 6.71528 13.5363 6.89293 8.51596 6.77431C7.67662 6.75464 8.15672 5.76351 8.45131 3.58786C8.64301 2.17284 7.73059 0 6.19695 0C3.66825 0 6.10082 1.99463 3.86501 6.92723C2.67037 9.56275 0 8.08645 0 10.7338V16.7598C0 17.7903 0.101193 18.7809 1.5505 18.9439C2.9554 19.1019 2.63945 20.1031 4.66613 20.1031H14.8102C15.8435 20.1031 16.6839 19.2621 16.6839 18.2288C16.6839 17.8004 16.5338 17.4103 16.2915 17.0943C16.865 16.7733 17.2585 16.1673 17.2585 15.4646C17.2585 15.0373 17.1089 14.6471 16.8672 14.3317C17.4423 14.0113 17.837 13.4047 17.837 12.7009C17.837 12.1898 17.6301 11.7266 17.2967 11.3876C17.7223 11.0441 18 10.5246 18 9.9366Z" fill="#FFDB5E"/>
<path d="M11.2898 11.8104H16.1268C16.7845 11.8104 17.4018 11.4585 17.738 10.8923C17.8763 10.659 17.7993 10.3571 17.5654 10.2183C17.3321 10.0794 17.0302 10.1576 16.8914 10.3909C16.7323 10.6602 16.4382 10.8266 16.1262 10.8266H11.1734C10.6826 10.8266 10.2835 10.4274 10.2835 9.93662C10.2835 9.44584 10.6826 9.04669 11.1734 9.04669H14.483C14.7545 9.04669 14.9749 8.82631 14.9749 8.55478C14.9749 8.28324 14.7545 8.06287 14.483 8.06287H11.1728C10.1395 8.06287 9.29907 8.90333 9.29907 9.93662C9.29907 10.5129 9.56611 11.0228 9.9765 11.3668C9.63076 11.7069 9.41544 12.1792 9.41544 12.7009C9.41544 13.2788 9.68417 13.7904 10.0968 14.1339C9.75332 14.4734 9.54025 14.944 9.54025 15.4646C9.54025 16.0942 9.85451 16.6497 10.3324 16.9898C10.0378 17.3209 9.85339 17.7521 9.85339 18.2288C9.85339 19.2621 10.6939 20.1026 11.7271 20.1026H14.8102C15.4679 20.1026 16.0858 19.7512 16.4219 19.1851C16.5608 18.9518 16.4838 18.6499 16.2505 18.5111C16.0166 18.3733 15.7147 18.4492 15.5764 18.6825C15.4162 18.9518 15.1222 19.1188 14.8102 19.1188H11.7271C11.2364 19.1188 10.8372 18.7196 10.8372 18.2288C10.8372 17.738 11.2364 17.3389 11.7271 17.3389H15.3847C16.0425 17.3389 16.6609 16.987 16.9965 16.4209C17.1354 16.187 17.0583 15.8851 16.825 15.7468C16.5895 15.6057 16.2887 15.685 16.151 15.9183C15.9885 16.192 15.7018 16.3551 15.3847 16.3551H11.414C10.9232 16.3551 10.5241 15.9554 10.5241 15.4646C10.5241 14.9738 10.9232 14.5746 11.414 14.5746H15.9626C16.6204 14.5746 17.2382 14.2233 17.5744 13.6572C17.7133 13.4239 17.6363 13.122 17.403 12.9831C17.1685 12.8448 16.8672 12.9213 16.7289 13.1546C16.5664 13.4278 16.2797 13.5908 15.9626 13.5908H11.2898C10.799 13.5908 10.3998 13.1917 10.3998 12.7009C10.3998 12.2101 10.7984 11.8104 11.2898 11.8104Z" fill="#EE9547"/>
</svg>
