<svg width="20" height="20" viewBox="0 0 20 20" fill="none" xmlns="http://www.w3.org/2000/svg">
<path d="M20 10C20 15.5228 15.5228 20 10 20C4.47722 20 0 15.5228 0 10C0 4.47722 4.47722 0 10 0C15.5228 0 20 4.47722 20 10Z" fill="#FFCC4D"/>
<path d="M9.99992 16.1111C10.9204 16.1111 11.6666 15.2405 11.6666 14.1666C11.6666 13.0927 10.9204 12.2222 9.99992 12.2222C9.07944 12.2222 8.33325 13.0927 8.33325 14.1666C8.33325 15.2405 9.07944 16.1111 9.99992 16.1111Z" fill="#664500"/>
<path d="M17.2227 6.11117C17.0533 6.11117 16.8871 6.0345 16.7777 5.88894C15.311 3.93283 13.4105 3.89005 13.3299 3.88894C13.0244 3.88561 12.7777 3.63561 12.7794 3.33061C12.781 3.0245 13.0277 2.77783 13.3333 2.77783C13.4355 2.77783 15.8538 2.80561 17.6666 5.22228C17.851 5.46783 17.801 5.81617 17.5555 6.00005C17.4555 6.07505 17.3388 6.11117 17.2227 6.11117ZM2.77714 6.11117C2.66158 6.11117 2.54436 6.07505 2.44436 6.00005C2.19881 5.81617 2.14936 5.46783 2.33325 5.22228C4.14547 2.80561 6.56436 2.77783 6.66658 2.77783C6.97325 2.77783 7.22214 3.02672 7.22214 3.33339C7.22214 3.6395 6.97492 3.88783 6.66881 3.88894C6.5827 3.89005 4.68658 3.93672 3.22214 5.88894C3.11325 6.0345 2.94603 6.11117 2.77714 6.11117Z" fill="#664500"/>
<path d="M6.66672 9.99997C7.43378 9.99997 8.05561 9.12942 8.05561 8.05553C8.05561 6.98164 7.43378 6.11108 6.66672 6.11108C5.89966 6.11108 5.27783 6.98164 5.27783 8.05553C5.27783 9.12942 5.89966 9.99997 6.66672 9.99997Z" fill="#664500"/>
<path d="M13.3332 9.99997C14.1003 9.99997 14.7221 9.12942 14.7221 8.05553C14.7221 6.98164 14.1003 6.11108 13.3332 6.11108C12.5662 6.11108 11.9443 6.98164 11.9443 8.05553C11.9443 9.12942 12.5662 9.99997 13.3332 9.99997Z" fill="#664500"/>
</svg>
