<svg width="20" height="20" viewBox="0 0 20 20" fill="none" xmlns="http://www.w3.org/2000/svg">
<path d="M20 10C20 15.5228 15.5228 20 10 20C4.47778 20 0 15.5228 0 10C0 4.47778 4.47778 0 10 0C15.5228 0 20 4.47778 20 10Z" fill="#DA2F47"/>
<path d="M14.1584 16.5995C14.1334 16.5001 13.5095 14.1667 10.0001 14.1667C6.4901 14.1667 5.86676 16.5001 5.84176 16.5995C5.81121 16.7201 5.86565 16.8451 5.97343 16.9073C6.08176 16.9678 6.21732 16.9512 6.30676 16.8645C6.31732 16.8539 7.39232 15.8334 10.0001 15.8334C12.6079 15.8334 13.6834 16.8539 13.6934 16.8639C13.7468 16.9167 13.8179 16.9445 13.889 16.9445C13.9357 16.9445 13.9829 16.9328 14.0257 16.9089C14.1345 16.8467 14.189 16.7206 14.1584 16.5995ZM8.72621 9.60728C6.91787 7.79894 4.01176 7.77783 3.88899 7.77783C3.58232 7.77783 3.33399 8.02617 3.33399 8.33228C3.33343 8.63894 3.58176 8.88783 3.88843 8.88894C3.90454 8.88894 4.95787 8.90117 6.10121 9.29839C5.77176 9.65394 5.55565 10.2062 5.55565 10.8334C5.55565 11.9078 6.17732 12.7778 6.94454 12.7778C7.71176 12.7778 8.33343 11.9078 8.33343 10.8334C8.33343 10.7367 8.32287 10.6445 8.31287 10.5517C8.3201 10.5517 8.32676 10.5556 8.33343 10.5556C8.47565 10.5556 8.61787 10.5012 8.72621 10.3928C8.94343 10.1756 8.94343 9.8245 8.72621 9.60728ZM16.1112 7.77783C15.9884 7.77783 13.0829 7.79894 11.274 9.60728C11.0568 9.8245 11.0568 10.1756 11.274 10.3928C11.3823 10.5012 11.5245 10.5556 11.6668 10.5556C11.674 10.5556 11.6801 10.5517 11.6868 10.5517C11.6779 10.6445 11.6668 10.7367 11.6668 10.8334C11.6668 11.9078 12.2884 12.7778 13.0557 12.7778C13.8229 12.7778 14.4445 11.9078 14.4445 10.8334C14.4445 10.2062 14.2284 9.65394 13.899 9.29839C15.0423 8.90117 16.0957 8.88894 16.1123 8.88894C16.4184 8.88783 16.6668 8.63894 16.6662 8.33228C16.6657 8.02617 16.4179 7.77783 16.1112 7.77783Z" fill="#292F33"/>
</svg>
