<svg width="20" height="20" viewBox="0 0 20 20" fill="none" xmlns="http://www.w3.org/2000/svg">
<path d="M10 20C15.5228 20 20 15.5228 20 10C20 4.47715 15.5228 0 10 0C4.47715 0 0 4.47715 0 10C0 15.5228 4.47715 20 10 20Z" fill="#FFCC4D"/>
<path d="M3.88841 9.44439C3.80508 9.44439 3.72008 9.4255 3.64063 9.38606C3.36619 9.24884 3.25508 8.91495 3.3923 8.6405C3.42119 8.58217 4.12452 7.22217 6.11119 7.22217C8.09841 7.22217 8.80119 8.58272 8.83008 8.6405C8.9673 8.91495 8.85563 9.24884 8.58174 9.38606C8.30896 9.52328 7.97896 9.41328 7.83952 9.14383C7.81508 9.09883 7.37785 8.33328 6.11119 8.33328C4.82396 8.33328 4.38952 9.12939 4.38563 9.13717C4.28841 9.33217 4.0923 9.44439 3.88841 9.44439ZM16.1112 9.44439C16.1945 9.44439 16.2795 9.4255 16.359 9.38606C16.6334 9.24884 16.7445 8.91495 16.6073 8.6405C16.5784 8.58217 15.8751 7.22217 13.8884 7.22217C11.9012 7.22217 11.1984 8.58272 11.1695 8.6405C11.0323 8.91495 11.144 9.24884 11.4179 9.38606C11.6906 9.52328 12.0206 9.41328 12.1601 9.14383C12.1845 9.09883 12.6217 8.33328 13.8884 8.33328C15.1756 8.33328 15.6101 9.12939 15.614 9.13717C15.7112 9.33217 15.9073 9.44439 16.1112 9.44439ZM16.3906 13.0666C16.5701 12.6505 16.6467 12.3683 16.6495 12.3572C16.724 12.0605 16.544 11.7599 16.2467 11.6849C15.949 11.6094 15.6484 11.7894 15.5717 12.0866C15.5306 12.2505 14.4895 16.1111 10.0001 16.1111C5.51063 16.1111 4.46952 12.2505 4.42785 12.0861C4.35119 11.7894 4.05063 11.6094 3.75285 11.6844C3.45619 11.7594 3.27619 12.0599 3.35008 12.3566C3.3623 12.4055 4.62841 17.2222 10.0001 17.2222C10.9167 17.2222 11.7056 17.0744 12.3973 16.8416C14.8029 16.0316 15.9384 14.1138 16.3906 13.0666Z" fill="#664500"/>
<path d="M18.0038 14.8228L16.3616 13.1278C16.3616 13.1278 15.9838 12.8845 15.6544 13.4433C15.2211 14.1778 14.5016 15.0739 13.4688 15.7606C13.0349 16.0489 12.2805 16.4211 11.9705 16.4928C11.5622 16.5867 11.7549 17.0283 11.7549 17.0283C12.0799 16.9578 12.3388 16.8611 12.3388 16.8611L12.5033 17.0256L14.0177 18.54C14.9777 19.5 16.7955 19.6511 17.9066 18.54C19.0177 17.4289 18.9644 15.7833 18.0038 14.8228Z" fill="#E75B70"/>
<path d="M16.6195 17.2633C16.7378 17.145 16.7378 16.9533 16.6195 16.835L14.6034 14.8188L14.1611 15.2344L16.1906 17.2638C16.3089 17.3816 16.5011 17.3816 16.6195 17.2633Z" fill="#DE3146"/>
</svg>
