<svg width="20" height="20" viewBox="0 0 20 20" fill="none" xmlns="http://www.w3.org/2000/svg">
<path d="M20 10C20 15.5228 15.5228 20 10 20C4.47778 20 0 15.5228 0 10C0 4.47778 4.47778 0 10 0C15.5228 0 20 4.47778 20 10Z" fill="#FFCC4D"/>
<path d="M6.38889 11.1111C7.15595 11.1111 7.77778 10.2405 7.77778 9.16661C7.77778 8.09273 7.15595 7.22217 6.38889 7.22217C5.62183 7.22217 5 8.09273 5 9.16661C5 10.2405 5.62183 11.1111 6.38889 11.1111Z" fill="#664500"/>
<path d="M15.8095 9.88721C15.7761 9.81221 14.9767 8.05555 13.3334 8.05555C11.6906 8.05555 10.8906 9.81221 10.8572 9.88721C10.8061 10.0022 10.8395 10.1367 10.9378 10.2155C11.035 10.2944 11.1745 10.2972 11.2767 10.2233C11.2834 10.2183 11.9778 9.72221 13.3334 9.72221C14.6811 9.72221 15.3745 10.2117 15.39 10.2228C15.4389 10.2594 15.4978 10.2778 15.5556 10.2778C15.6167 10.2778 15.6784 10.2572 15.7289 10.2172C15.8272 10.1383 15.8611 10.0028 15.8095 9.88721ZM3.3328 6.9211C3.21725 6.9211 3.10003 6.88499 3.00003 6.80999C2.75447 6.6261 2.70503 6.27777 2.88892 6.03221C4.70114 3.61555 7.12003 3.58777 7.22225 3.58777C7.52892 3.58777 7.7778 3.83666 7.7778 4.14332C7.7778 4.44944 7.53058 4.69777 7.22447 4.69888C7.1378 4.69999 5.24169 4.74666 3.77725 6.69888C3.66892 6.84443 3.50169 6.9211 3.3328 6.9211ZM16.1117 8.10166C15.9422 8.10166 15.7761 8.02499 15.6667 7.87944C14.2267 5.95888 11.7995 6.41999 11.7756 6.42388C11.4717 6.48388 11.1822 6.28888 11.1217 5.98832C11.0617 5.68721 11.2567 5.39499 11.5572 5.33444C11.6856 5.30832 14.7 4.73888 16.555 7.21221C16.7395 7.45777 16.6895 7.8061 16.4439 7.98999C16.3445 8.0661 16.2278 8.10166 16.1117 8.10166ZM12.9189 13.0983C12.8145 13.0372 12.6789 13.05 12.5872 13.1317C12.5817 13.1361 12.0245 13.6111 10 13.6111C7.97725 13.6111 7.41892 13.1367 7.41892 13.1367C7.33058 13.0478 7.19447 13.0311 7.08558 13.0911C6.97725 13.1528 6.9228 13.2794 6.95336 13.4005C6.95892 13.425 7.58892 15.8333 10 15.8333C12.4111 15.8333 13.0411 13.425 13.0472 13.4005C13.0767 13.2822 13.0228 13.1611 12.9189 13.0983Z" fill="#664500"/>
</svg>
