<svg width="20" height="20" viewBox="0 0 20 20" fill="none" xmlns="http://www.w3.org/2000/svg">
<path d="M20 10C20 15.5228 15.5228 20 10 20C4.47722 20 0 15.5228 0 10C0 4.47722 4.47722 0 10 0C15.5228 0 20 4.47722 20 10Z" fill="#FFCC4D"/>
<path d="M12.2222 15C12.2222 16.535 11.2272 16.6667 10 16.6667C8.77222 16.6667 7.77778 16.535 7.77778 15C7.77778 13.4661 8.77222 11.6667 10 11.6667C11.2272 11.6667 12.2222 13.4661 12.2222 15ZM16.6667 8.33335C16.5978 8.33335 16.5278 8.32057 16.4606 8.29335C13.5556 7.13169 12.365 5.38169 12.3156 5.3078C12.145 5.05224 12.2139 4.70724 12.4694 4.53724C12.7244 4.36724 13.0678 4.43502 13.2389 4.68946C13.2494 4.70446 14.3111 6.23669 16.8728 7.26113C17.1578 7.37557 17.2967 7.69835 17.1828 7.98335C17.0956 8.20113 16.8867 8.33335 16.6667 8.33335ZM3.33333 8.33335C3.11278 8.33335 2.90445 8.20113 2.81722 7.98391C2.70333 7.69891 2.84167 7.37557 3.12667 7.26169C5.68889 6.23724 6.75056 4.70502 6.76111 4.69002C6.93222 4.43669 7.27722 4.36946 7.53167 4.54002C7.78556 4.71113 7.85444 5.05391 7.68444 5.30835C7.635 5.38224 6.44445 7.13224 3.54 8.29391C3.47222 8.32057 3.40222 8.33335 3.33333 8.33335Z" fill="#664500"/>
<path d="M13.3332 8.88892H15.5554V19.4445L13.3332 19.4189V8.88892ZM4.44434 19.4445L6.66656 19.4189V8.88892H4.44434V19.4445Z" fill="#5DADEC"/>
<path d="M8.33285 10C8.24952 10 8.16452 9.98113 8.08508 9.94168C6.13397 8.96613 4.1573 9.93168 4.13785 9.94168C3.86285 10.08 3.52952 9.96724 3.3923 9.69335C3.25508 9.41891 3.36619 9.08502 3.64063 8.9478C3.74174 8.8978 6.13952 7.72724 8.5823 8.9478C8.85674 9.08502 8.96785 9.41891 8.83063 9.69335C8.73285 9.88779 8.53674 10 8.33285 10ZM16.1106 10C16.0273 10 15.9423 9.98113 15.8629 9.94168C13.9112 8.96613 11.9351 9.93168 11.9156 9.94168C11.6412 10.0795 11.3079 9.96779 11.1701 9.69335C11.0329 9.41891 11.144 9.08502 11.4184 8.9478C11.5195 8.8978 13.919 7.7278 16.3601 8.9478C16.6345 9.08502 16.7456 9.41891 16.6084 9.69335C16.5106 9.88779 16.3145 10 16.1106 10Z" fill="#664500"/>
<path d="M10 20.0001C15.5228 20.0001 20 19.5026 20 18.8889C20 18.2753 15.5228 17.7778 10 17.7778C4.47715 17.7778 0 18.2753 0 18.8889C0 19.5026 4.47715 20.0001 10 20.0001Z" fill="#5DADEC"/>
<path d="M9.99992 16.1111C10.9204 16.1111 11.6666 15.6137 11.6666 15C11.6666 14.3864 10.9204 13.8889 9.99992 13.8889C9.07944 13.8889 8.33325 14.3864 8.33325 15C8.33325 15.6137 9.07944 16.1111 9.99992 16.1111Z" fill="#E75A70"/>
</svg>
