<svg width="20" height="20" viewBox="0 0 20 20" fill="none" xmlns="http://www.w3.org/2000/svg">
<path d="M20 10C20 15.5228 15.5228 20 10 20C4.47722 20 0 15.5228 0 10C0 4.47722 4.47722 0 10 0C15.5228 0 20 4.47722 20 10Z" fill="#FFCC4D"/>
<path d="M11.1116 7.22228C11.081 7.22228 11.051 7.22005 11.0199 7.2145C10.7171 7.16394 10.5127 6.87783 10.5632 6.57505C10.7816 5.26172 11.991 2.77783 14.9999 2.77783C15.3071 2.77783 15.5554 3.02672 15.5554 3.33339C15.5554 3.64005 15.3071 3.88894 14.9999 3.88894C12.1693 3.88894 11.6782 6.64117 11.6588 6.75839C11.6138 7.0295 11.3782 7.22228 11.1116 7.22228ZM8.88822 7.22228C8.62211 7.22228 8.38711 7.03061 8.341 6.7595C8.32044 6.64283 7.81044 3.88894 4.99989 3.88894C4.69322 3.88894 4.44433 3.64005 4.44433 3.33339C4.44433 3.02672 4.69322 2.77783 4.99989 2.77783C8.00878 2.77783 9.21767 5.26172 9.43655 6.57505C9.48711 6.87783 9.28267 7.16394 8.97989 7.2145C8.94933 7.22005 8.91822 7.22228 8.88822 7.22228ZM6.33878 9.94005C5.04156 9.94005 4.18878 9.38617 4.13656 9.35117C3.88156 9.18117 3.81267 8.83617 3.98267 8.58061C4.15267 8.32505 4.49711 8.25561 4.75322 8.42672C4.80822 8.46228 6.19878 9.33561 8.08544 8.39228C8.36044 8.25505 8.69378 8.36672 8.831 8.64061C8.96822 8.91505 8.85711 9.24894 8.58267 9.38617C7.75211 9.80061 6.98933 9.94005 6.33878 9.94005ZM13.6616 9.94005C13.0104 9.94005 12.2477 9.80061 11.4182 9.38561C11.1438 9.24839 11.0327 8.9145 11.1699 8.64005C11.3077 8.36561 11.641 8.2545 11.9154 8.39172C13.8043 9.33617 15.1927 8.46172 15.251 8.4245C15.5066 8.25894 15.8516 8.33005 16.0188 8.58505C16.1866 8.84005 16.1182 9.18172 15.8643 9.35117C15.811 9.38617 14.9582 9.94005 13.6616 9.94005ZM14.4449 15.0001C14.2754 15.0001 14.1093 14.9234 13.9999 14.7778C13.986 14.7589 12.4543 12.7778 9.99989 12.7778C7.546 12.7778 6.01433 14.7589 5.99878 14.7795C5.81378 15.0228 5.46489 15.0712 5.221 14.8873C4.97656 14.7028 4.92711 14.3562 5.111 14.1112C5.186 14.0112 6.97878 11.6667 9.99989 11.6667C13.021 11.6667 14.8138 14.0117 14.8888 14.1112C15.0732 14.3562 15.0232 14.7045 14.7777 14.8884C14.6777 14.9639 14.561 15.0001 14.4449 15.0001Z" fill="#664500"/>
<path d="M8.55065 11.1556C8.29898 11.0472 8.00676 11.1406 7.86231 11.3722L5.08453 15.8167C4.97787 15.9883 4.97176 16.2039 5.07009 16.3806C5.16787 16.5572 5.35342 16.6667 5.55565 16.6667H7.22231C7.47731 16.6667 7.69953 16.4933 7.7612 16.2456L8.87231 11.8011C8.93842 11.5367 8.80231 11.2622 8.55065 11.1556ZM14.9156 15.8167L12.1379 11.3722C11.9923 11.14 11.7006 11.0478 11.4501 11.1556C11.1984 11.2622 11.0618 11.5367 11.1284 11.8011L12.2395 16.2456C12.3012 16.4933 12.5229 16.6667 12.7779 16.6667H14.4445C14.6462 16.6667 14.8323 16.5572 14.9306 16.38C15.0284 16.2039 15.0229 15.9878 14.9156 15.8167Z" fill="#F5F8FA"/>
<path d="M17.7678 16.7656C17.7694 16.7322 17.7778 16.7006 17.7778 16.6667C17.7778 15.7467 17.0311 15 16.1111 15C15.5405 15 15.0378 15.2878 14.7372 15.725C14.4761 15.6167 14.1894 15.5556 13.8889 15.5556C12.6616 15.5556 11.6666 16.5506 11.6666 17.7778C11.6666 19.005 12.6616 20 13.8889 20C14.6472 20 15.3155 19.6183 15.7166 19.0383C15.9833 19.605 16.5544 20 17.2222 20C18.1428 20 18.8889 19.2539 18.8889 18.3333C18.8889 17.6044 18.4189 16.9922 17.7678 16.7656ZM6.11108 15.5556C5.80997 15.5556 5.52442 15.6167 5.26275 15.725C4.96219 15.2878 4.45942 15 3.88886 15C2.96886 15 2.2222 15.7467 2.2222 16.6667C2.2222 16.7006 2.22997 16.7322 2.2322 16.7656C1.58108 16.9922 1.11108 17.6044 1.11108 18.3333C1.11108 19.2539 1.8572 20 2.77775 20C3.44553 20 4.0172 19.605 4.28275 19.0383C4.68442 19.6183 5.3522 20 6.11108 20C7.33831 20 8.33331 19.005 8.33331 17.7778C8.33331 16.5506 7.33831 15.5556 6.11108 15.5556Z" fill="#E1E8ED"/>
</svg>
