<svg width="20" height="20" viewBox="0 0 20 20" fill="none" xmlns="http://www.w3.org/2000/svg">
<path d="M10 20C15.5228 20 20 15.5228 20 10C20 4.47715 15.5228 0 10 0C4.47715 0 0 4.47715 0 10C0 15.5228 4.47715 20 10 20Z" fill="#FFCC4D"/>
<path d="M6.38889 10.5555C7.15595 10.5555 7.77778 9.68496 7.77778 8.61107C7.77778 7.53718 7.15595 6.66663 6.38889 6.66663C5.62183 6.66663 5 7.53718 5 8.61107C5 9.68496 5.62183 10.5555 6.38889 10.5555Z" fill="#664500"/>
<path d="M15.8095 9.88728C15.7761 9.81228 14.9767 8.05561 13.3334 8.05561C11.6906 8.05561 10.8906 9.81228 10.8572 9.88728C10.8061 10.0023 10.8395 10.1367 10.9378 10.2156C11.035 10.2945 11.1745 10.2973 11.2767 10.2234C11.2834 10.2184 11.9778 9.72228 13.3334 9.72228C14.6811 9.72228 15.3745 10.2117 15.39 10.2228C15.4389 10.2595 15.4978 10.2778 15.5556 10.2778C15.6167 10.2778 15.6784 10.2573 15.7289 10.2173C15.8272 10.1384 15.8611 10.0028 15.8095 9.88728ZM3.3328 6.11117C3.21725 6.11117 3.10003 6.07505 3.00003 6.00005C2.75447 5.81617 2.70503 5.46783 2.88892 5.22228C4.70114 2.80561 7.12003 2.77783 7.22225 2.77783C7.52892 2.77783 7.7778 3.02672 7.7778 3.33339C7.7778 3.6395 7.53058 3.88783 7.22447 3.88894C7.13836 3.89005 5.24225 3.93672 3.7778 5.88894C3.66892 6.0345 3.50169 6.11117 3.3328 6.11117ZM16.1117 7.77783C15.9422 7.77783 15.7761 7.70117 15.6667 7.55561C14.2267 5.63561 11.7995 6.09561 11.7756 6.10005C11.4717 6.16117 11.1822 5.9645 11.1217 5.6645C11.0617 5.36394 11.2567 5.07117 11.5572 5.01061C11.6856 4.9845 14.7 4.41505 16.555 6.88839C16.7395 7.13394 16.6895 7.48228 16.4439 7.66617C16.3445 7.74172 16.2278 7.77783 16.1117 7.77783ZM11.155 15.0234C11.8967 14.7945 12.6156 14.3812 12.6156 13.6345C12.6156 12.1795 9.88669 11.9856 9.57558 11.9684C9.42336 11.9539 9.2928 12.0756 9.2828 12.2284C9.27336 12.3806 9.38836 12.5123 9.54058 12.5228C9.56003 12.5239 11.5045 12.6889 11.5045 13.6345C11.5045 14.5801 9.56003 14.7451 9.54058 14.7462C9.5328 14.7467 9.52725 14.7512 9.52003 14.7523C9.49114 14.7556 9.46392 14.7623 9.43892 14.7745L9.42836 14.7806C9.40225 14.7951 9.37947 14.8123 9.35892 14.8351C9.35114 14.8434 9.34558 14.8523 9.33892 14.8617C9.32614 14.8795 9.31447 14.8967 9.30614 14.9184C9.29947 14.9345 9.29614 14.9523 9.2928 14.9695C9.29058 14.9823 9.28392 14.9939 9.2828 15.0067C9.2828 15.0128 9.28503 15.0184 9.28503 15.0239C9.28503 15.0295 9.28225 15.0356 9.2828 15.0412C9.28336 15.0545 9.29003 15.0662 9.2928 15.0789C9.29614 15.0962 9.29892 15.1128 9.30558 15.1289C9.3128 15.1456 9.3228 15.1606 9.3328 15.1756C9.34225 15.1889 9.35058 15.2034 9.36169 15.2151C9.37447 15.2278 9.38947 15.2378 9.40503 15.2489C9.41836 15.2584 9.43058 15.2678 9.44614 15.2751C9.46392 15.2834 9.4828 15.2867 9.50225 15.2901C9.51558 15.2934 9.52669 15.3001 9.54058 15.3012C9.56003 15.3023 11.5045 15.4673 11.5045 16.4128C11.5045 17.3584 9.56003 17.5234 9.54058 17.5245C9.38836 17.5356 9.27336 17.6673 9.2828 17.8189C9.29225 17.9662 9.41447 18.0795 9.56003 18.0795L9.57558 18.0789C9.88669 18.0617 12.6156 17.8678 12.6156 16.4128C12.6156 15.6656 11.8967 15.2523 11.155 15.0234Z" fill="#664500"/>
<path d="M19.001 14.335C18.8699 13.8961 18.5682 13.5094 18.1243 13.2933C17.6121 13.0439 17.0377 13.0761 16.5727 13.3267C16.4838 12.8067 16.156 12.3328 15.6449 12.0839C14.8021 11.6728 13.7849 12.0228 13.3743 12.865C13.316 12.9844 13.2743 13.1078 13.2465 13.2311C12.816 14.6511 13.6021 16.7539 14.4643 17.6467C15.1477 17.7189 16.1049 17.5367 16.9715 17.1617C17.8049 16.3505 18.4899 15.3933 19.001 14.335Z" fill="#FFAC33"/>
<path d="M19.8077 15.1233C20.2183 14.2811 19.8689 13.2638 19.0272 12.8533C18.515 12.6038 17.9405 12.6361 17.4755 12.8866C17.3866 12.3666 17.0589 11.8927 16.5477 11.6438C15.705 11.2327 14.6877 11.5833 14.2772 12.425C14.2189 12.5444 14.1772 12.6677 14.1494 12.7911C13.7194 14.2111 14.505 16.3138 15.3672 17.2066C16.6022 17.3366 18.7433 16.6627 19.5977 15.4505C19.6783 15.3511 19.7494 15.2427 19.8077 15.1233Z" fill="#DD2E44"/>
</svg>
