<svg width="20" height="21" viewBox="0 0 20 21" fill="none" xmlns="http://www.w3.org/2000/svg">
<path d="M18.977 8.97716C18.977 13.9337 14.9564 17.9543 9.99986 17.9543C5.04223 17.9543 1.02271 13.9337 1.02271 8.97716C1.02271 4.01952 5.04223 0 9.99986 0C14.9564 0 18.977 4.01952 18.977 8.97716Z" fill="#FFCC4D"/>
<path d="M14.4104 9.04957C14.3263 8.95924 14.2006 8.95363 14.1103 9.0333C14.0918 9.04957 12.257 10.6604 9.99985 10.6604C7.74827 10.6604 5.90795 9.04957 5.88943 9.0333C5.79854 8.95363 5.67342 8.96036 5.58926 9.04957C5.50566 9.13934 5.48715 9.28746 5.54494 9.40192C5.60553 9.52255 7.06488 12.3436 9.99985 12.3436C12.9348 12.3436 14.3947 9.52255 14.4548 9.40192C14.5126 9.2869 14.494 9.13934 14.4104 9.04957V9.04957Z" fill="#664500"/>
<path d="M7.415 12.991L6.55151 11.746C6.55151 11.746 6.24685 11.2596 5.75984 11.5637C5.27339 11.8672 5.57805 12.3542 5.57805 12.3542L6.56442 14.2506C6.56442 14.2506 6.64521 14.6815 6.04935 14.1996C5.78957 13.9897 5.93882 14.1081 5.93882 14.1081L5.69195 13.9056L2.6111 11.3763C2.6111 11.3763 2.2133 10.9566 1.8486 11.3998C1.48503 11.8436 1.97372 12.1522 1.97372 12.1522L4.88737 14.5458C4.82004 14.6131 4.61693 14.8454 4.55073 14.9178L1.43285 12.3593C1.43285 12.3593 1.03449 11.939 0.670911 12.3823C0.306214 12.8261 0.795469 13.1347 0.795469 13.1347L3.91223 15.6943C3.85444 15.7728 3.70856 15.9614 3.65469 16.0388L0.966035 13.8315C0.966035 13.8315 0.567674 13.4118 0.204099 13.8551C-0.161159 14.2989 0.328657 14.608 0.328657 14.608L3.18676 16.9556C3.15085 17.0554 2.98309 17.318 2.95672 17.4157L0.896462 15.7257C0.896462 15.7257 0.498662 15.3038 0.135087 15.7487C-0.22961 16.1925 0.259645 16.5011 0.259645 16.5011L3.58681 19.2324L3.80843 19.4153C5.27844 20.6222 7.44923 20.409 8.65609 18.939C9.76197 17.5907 9.67556 15.655 8.52144 14.4117C8.11242 13.9729 7.75838 13.4842 7.415 12.991V12.991ZM19.8652 15.7493C19.5016 15.3043 19.1038 15.7263 19.1038 15.7263L17.0436 17.4162C17.0172 17.3186 16.8494 17.0554 16.8135 16.9561L19.6716 14.6086C19.6716 14.6086 20.1614 14.2995 19.7967 13.8556C19.4332 13.4124 19.0348 13.8321 19.0348 13.8321L16.3462 16.0393C16.2923 15.9614 16.1459 15.7728 16.0886 15.6948L19.2054 13.1352C19.2054 13.1352 19.6952 12.8266 19.3305 12.3828C18.9669 11.9396 18.5691 12.3598 18.5691 12.3598L15.4507 14.9183C15.385 14.8459 15.1819 14.6137 15.114 14.5463L18.0277 12.1528C18.0277 12.1528 18.5158 11.8442 18.1528 11.4004C17.7881 10.9571 17.3903 11.3768 17.3903 11.3768L14.3095 13.9061L14.0632 14.1087C14.0632 14.1087 14.6186 13.6368 13.9526 14.2001C13.2861 14.7635 13.4376 14.2512 13.4376 14.2512L14.4239 12.3548C14.4239 12.3548 14.7286 11.8678 14.2421 11.5642C13.7546 11.2601 13.4505 11.7466 13.4505 11.7466L12.5875 12.9916C12.2436 13.4848 11.8896 13.9735 11.48 14.4128C10.3253 15.6567 10.2389 17.5918 11.3459 18.9401C12.5522 20.4101 14.7235 20.6233 16.1935 19.4164L16.4157 19.2335L19.7429 16.5022C19.7401 16.5017 20.2293 16.1931 19.8652 15.7493V15.7493Z" fill="#F4900C"/>
<path d="M15.4293 6.1622C15.4007 6.09375 14.7084 4.48853 13.2855 4.48853C11.8637 4.48853 11.1714 6.09375 11.1427 6.1622C11.0979 6.26769 11.127 6.39 11.2118 6.46294C11.2954 6.53476 11.4166 6.537 11.5052 6.46967C11.5108 6.46462 12.1117 6.01184 13.2855 6.01184C14.452 6.01184 15.0523 6.45901 15.0663 6.46967C15.1084 6.50278 15.1589 6.51961 15.2094 6.51961C15.2627 6.51961 15.3154 6.50053 15.3592 6.46406C15.4451 6.39168 15.4742 6.26769 15.4293 6.1622ZM9.25754 6.1622C9.22837 6.09375 8.53657 4.48853 7.11369 4.48853C5.69193 4.48853 4.99957 6.09375 4.97039 6.1622C4.92607 6.26769 4.95468 6.39 5.03996 6.46294C5.12412 6.53476 5.24532 6.537 5.3334 6.46967C5.33958 6.46462 5.93992 6.01184 7.11369 6.01184C8.28072 6.01184 8.8805 6.45901 8.89397 6.46967C8.93661 6.50278 8.98655 6.51961 9.03704 6.51961C9.09035 6.51961 9.14309 6.50053 9.18685 6.46406C9.27326 6.39168 9.30187 6.26769 9.25754 6.1622Z" fill="#664500"/>
<path d="M6.17439 14.295C6.17439 14.295 4.71953 16.1544 6.44595 18.4806C6.5649 18.6405 6.86676 18.5626 6.73827 18.3752C6.598 18.1709 5.19532 16.1892 6.51384 14.4157C6.51384 14.4157 6.30007 14.3893 6.17439 14.295V14.295ZM13.7954 14.35C13.7954 14.35 15.2509 16.2094 13.5239 18.5356C13.4049 18.6955 13.1031 18.6175 13.2316 18.4301C13.3718 18.2259 14.7745 16.2442 13.456 14.4707C13.4554 14.4712 13.6698 14.4449 13.7954 14.35V14.35Z" fill="#B55005"/>
</svg>
