<svg width="20" height="21" viewBox="0 0 20 21" fill="none" xmlns="http://www.w3.org/2000/svg">
<path d="M3.78208 12.6682C4.90686 12.3815 5.48155 10.8264 5.06568 9.19492C4.64982 7.56341 3.40088 6.47323 2.2761 6.75993C1.15132 7.04663 0.576629 8.60165 0.992496 10.2332C1.40836 11.8647 2.6573 12.9549 3.78208 12.6682Z" fill="#D79E84"/>
<path d="M19.0078 10.2339C19.4237 8.6024 18.849 7.04738 17.7242 6.76067C16.5994 6.47397 15.3505 7.56416 14.9346 9.19567C14.5188 10.8272 15.0935 12.3822 16.2182 12.6689C17.343 12.9556 18.592 11.8654 19.0078 10.2339Z" fill="#D79E84"/>
<path d="M10.5628 19.9999H9.43709C5.72281 19.9999 2.12109 17.1531 2.12109 13.1679C2.12109 10.8908 2.96509 9.75191 2.96509 9.75191C2.96509 9.75191 2.68395 8.61306 2.68395 7.47477C2.68395 4.05877 6.28567 1.21191 9.99995 1.21191C13.7142 1.21191 17.3159 4.62791 17.3159 7.47477C17.3159 8.61363 17.0348 9.75191 17.0348 9.75191C17.0348 9.75191 17.8788 10.8908 17.8788 13.1679C17.8788 17.1531 14.2771 19.9999 10.5628 19.9999Z" fill="#BF6952"/>
<path d="M12.424 0.0970423C12.424 0.0970423 9.39367 -0.509243 8.18167 1.30904C6.96967 3.12733 10.6057 1.91533 10.6057 1.91533C10.6057 1.91533 11.212 0.0970423 12.424 0.0970423Z" fill="#BF6952"/>
<path d="M16.667 8.78794C16.667 6.61251 14.903 4.84851 12.7275 4.84851C11.6681 4.84851 10.7081 5.26908 10.0001 5.94908C9.29211 5.26851 8.33211 4.84851 7.27268 4.84851C5.09725 4.84851 3.33325 6.61251 3.33325 8.78794C3.33325 10.1074 3.98468 11.2725 4.98011 11.9874C4.70068 12.6799 4.54525 13.4422 4.54525 14.2422C4.54525 17.4222 6.98754 19.3937 9.99954 19.3937C13.0115 19.3937 15.4538 17.4222 15.4538 14.2422C15.4538 13.4417 15.2984 12.6799 15.019 11.9874C16.0155 11.2725 16.667 10.1074 16.667 8.78794Z" fill="#D79E84"/>
<path d="M7.14286 11.4284C7.77404 11.4284 8.28571 10.6609 8.28571 9.71416C8.28571 8.76739 7.77404 7.99988 7.14286 7.99988C6.51167 7.99988 6 8.76739 6 9.71416C6 10.6609 6.51167 11.4284 7.14286 11.4284Z" fill="#292F33"/>
<path d="M12.8572 11.4284C13.4884 11.4284 14.0001 10.6609 14.0001 9.71416C14.0001 8.76739 13.4884 7.99988 12.8572 7.99988C12.226 7.99988 11.7144 8.76739 11.7144 9.71416C11.7144 10.6609 12.226 11.4284 12.8572 11.4284Z" fill="#292F33"/>
<path d="M10.0001 17.9998C11.5516 17.9998 12.8727 17.2113 13.3687 16.109C13.5738 15.653 13.2258 15.1427 12.7076 15.1427H7.29269C6.77441 15.1427 6.42641 15.653 6.63155 16.109C7.12755 17.2113 8.44869 17.9998 10.0001 17.9998Z" fill="#642116"/>
<path d="M9.14296 13.1777C9.45855 13.1777 9.71439 12.9062 9.71439 12.5714C9.71439 12.2365 9.45855 11.9651 9.14296 11.9651C8.82737 11.9651 8.57153 12.2365 8.57153 12.5714C8.57153 12.9062 8.82737 13.1777 9.14296 13.1777Z" fill="#642116"/>
<path d="M10.8571 13.1427C11.1727 13.1427 11.4285 12.8869 11.4285 12.5713C11.4285 12.2557 11.1727 11.9999 10.8571 11.9999C10.5415 11.9999 10.2856 12.2557 10.2856 12.5713C10.2856 12.8869 10.5415 13.1427 10.8571 13.1427Z" fill="#642116"/>
<path d="M3.64229 13.2828C3.984 12.5439 4.14286 11.9553 4.14286 11.4285C4.14286 10.6811 3.79771 9.96563 3.52 9.39077C3.36343 9.0662 3.20171 8.7302 3.20171 8.57134C3.20171 8.46106 3.28286 8.1182 3.35429 7.81534C3.57543 6.88048 3.85029 5.71648 3.50457 5.15877C3.41886 5.02106 3.25657 4.85706 2.96629 4.85706C1.85143 4.85706 0.142857 7.28906 0.142857 10.2856C0.142857 11.7576 0.242286 12.6725 0.46 13.2068L0 20.5713H4L3.52171 13.4622C3.57029 13.4091 3.61143 13.3496 3.64229 13.2828Z" fill="#BF6952"/>
<path d="M3.64239 13.2827C3.9841 12.5439 4.14296 11.9553 4.14296 11.4285C4.14296 10.681 3.79782 9.9656 3.5201 9.39074C3.36353 9.06617 3.20182 8.73017 3.20182 8.57131C3.20182 8.46102 3.28296 8.11817 3.35439 7.81531C3.57553 6.88045 3.85039 5.71645 3.50468 5.15874C3.4681 5.10045 3.41439 5.03931 3.34639 4.9856C2.92696 5.75188 2.6841 6.5936 2.6841 7.47474C2.6841 8.61302 2.57153 10.8907 2.57153 13.1679C2.57153 13.3479 3.71439 20.5713 3.71439 20.5713H4.0001L3.52068 13.4462C3.56582 13.3953 3.61325 13.3462 3.64239 13.2827Z" fill="#9B3C07"/>
<path d="M2.96618 5.42847C2.18161 5.42847 0.613037 7.52847 0.613037 10.2856C0.613037 11.7382 0.718751 12.6708 0.927323 13.0576C1.07304 13.329 1.49018 13.3262 1.89189 13.3222L2.02447 13.3216C2.68732 13.3216 3.15875 13.1599 3.23132 13.0028C3.52789 12.3622 3.67189 11.8468 3.67189 11.4285C3.67189 10.8365 3.37532 10.2216 3.11361 9.67932C2.89989 9.2359 2.73075 8.88561 2.73075 8.57132C2.73075 8.38961 2.79247 8.11932 2.90161 7.65761C3.05247 7.0199 3.33304 5.83247 3.12789 5.50275C3.11475 5.48047 3.08218 5.42847 2.96618 5.42847Z" fill="#D79E84"/>
<path d="M20 20.5713L19.54 13.2068C19.7577 12.6725 19.8572 11.7582 19.8572 10.2856C19.8572 7.28906 18.1486 4.85706 17.0337 4.85706C16.7435 4.85706 16.5812 5.02106 16.4955 5.15877C16.1492 5.71648 16.4246 6.88048 16.6457 7.81534C16.7172 8.1182 16.7983 8.46106 16.7983 8.57134C16.7983 8.7302 16.6366 9.0662 16.48 9.39077C16.2023 9.96563 15.8572 10.6816 15.8572 11.4285C15.8572 11.9553 16.016 12.5439 16.3583 13.2828C16.3892 13.3496 16.4303 13.4091 16.4789 13.4622L16 20.5713H20Z" fill="#BF6952"/>
<path d="M17.4286 13.1679C17.4286 10.8908 17.316 8.61308 17.316 7.47479C17.316 6.68965 17.0343 5.86222 16.5595 5.07422C16.5355 5.10279 16.5126 5.13136 16.4955 5.15879C16.1492 5.7165 16.4246 6.8805 16.6457 7.81536C16.7172 8.11822 16.7983 8.46108 16.7983 8.57136C16.7983 8.73022 16.6366 9.06622 16.48 9.39079C16.2023 9.96565 15.8572 10.6816 15.8572 11.4285C15.8572 11.9554 16.016 12.5439 16.3583 13.2828C16.3875 13.3456 16.4349 13.3954 16.48 13.4462L16 20.5714H16.2857C16.2857 20.5714 17.4286 13.3479 17.4286 13.1679Z" fill="#9B3C07"/>
<path d="M17.0337 5.42847C16.9177 5.42847 16.8851 5.48047 16.8714 5.50275C16.6668 5.83247 16.9474 7.0199 17.0977 7.65761C17.2068 8.11932 17.2685 8.38961 17.2685 8.57132C17.2685 8.88561 17.0994 9.2359 16.8857 9.67932C16.624 10.2216 16.3274 10.8365 16.3274 11.4285C16.3274 11.8468 16.4714 12.3622 16.7674 13.0028C16.84 13.1593 17.3108 13.3216 17.9742 13.3216L18.1068 13.3222C18.508 13.3262 18.9251 13.329 19.072 13.0576C19.2805 12.6713 19.3862 11.7388 19.3862 10.2856C19.3862 7.52847 17.8182 5.42847 17.0337 5.42847Z" fill="#D79E84"/>
</svg>
