<svg width="20" height="20" viewBox="0 0 20 20" fill="none" xmlns="http://www.w3.org/2000/svg">
<path d="M20 10C20 15.5228 15.5228 20 10 20C4.47778 20 0 15.5228 0 10C0 4.47778 4.47778 0 10 0C15.5228 0 20 4.47778 20 10Z" fill="#FFCC4D"/>
<path d="M3.88954 8.33331C3.71009 8.33331 3.53398 8.24664 3.42676 8.08608C3.25676 7.83053 3.32565 7.48553 3.58065 7.31553C3.65454 7.26664 5.41454 6.11108 7.77787 6.11108C8.08454 6.11108 8.33342 6.35997 8.33342 6.66664C8.33342 6.97331 8.08454 7.2222 7.77787 7.2222C5.74731 7.2222 4.21231 8.22997 4.19731 8.23997C4.10231 8.30331 3.99509 8.33331 3.88954 8.33331ZM16.1106 8.33331C16.0056 8.33331 15.8984 8.30331 15.804 8.24053C15.7884 8.23053 14.2379 7.2222 12.2223 7.2222C11.9151 7.2222 11.6668 6.97331 11.6668 6.66664C11.6668 6.35997 11.9151 6.11108 12.2223 6.11108C14.5856 6.11108 16.3456 7.26664 16.4195 7.31553C16.6751 7.48553 16.744 7.83053 16.5734 8.08608C16.4668 8.24664 16.2901 8.33331 16.1106 8.33331Z" fill="#664500"/>
<path d="M15 12.2727L20 9.99996C20 9.63329 19.9772 9.27274 19.9394 8.91663L15 11.1616V10.5555C15 9.94218 14.5022 9.4444 13.8889 9.4444H6.11111C5.49778 9.4444 5 9.94218 5 10.5555V11.1616L0.0611111 8.91663C0.0227778 9.27274 0 9.63329 0 9.99996L5 12.2727V14.7983L0.859444 14.0455C1.04889 14.4733 1.27111 14.8827 1.51667 15.2761L5 15.9094V16.6666C5 17.28 5.49778 17.7777 6.11111 17.7777H13.8889C14.5022 17.7777 15 17.28 15 16.6666V15.9094L18.4839 15.2755C18.7289 14.8822 18.9511 14.4727 19.1406 14.045L15 14.7983V12.2727Z" fill="#F5F8FA"/>
</svg>
