<svg width="20" height="20" viewBox="0 0 20 20" fill="none" xmlns="http://www.w3.org/2000/svg">
<path d="M10 20C15.5228 20 20 15.5228 20 10C20 4.47715 15.5228 0 10 0C4.47715 0 0 4.47715 0 10C0 15.5228 4.47715 20 10 20Z" fill="#FFCC4D"/>
<path d="M15.1861 12.5717C15.0872 12.4823 14.9394 12.4767 14.8333 12.5556C14.8117 12.5717 12.6544 14.1667 9.99999 14.1667C7.35221 14.1667 5.18777 12.5717 5.16665 12.5556C5.06054 12.4767 4.91277 12.4834 4.81388 12.5717C4.71554 12.6606 4.69332 12.8073 4.76165 12.9206C4.83332 13.0401 6.54888 15.8334 9.99999 15.8334C13.4511 15.8334 15.1672 13.0401 15.2383 12.9206C15.3067 12.8067 15.285 12.6606 15.1861 12.5717ZM14.4444 10.5556C14.2117 10.5556 13.995 10.4084 13.9178 10.1756C13.805 9.84283 13.3517 8.88894 12.7778 8.88894C12.1878 8.88894 11.7283 9.90394 11.6378 10.1756C11.5405 10.4662 11.2289 10.6245 10.935 10.5267C10.6444 10.4301 10.4867 10.1156 10.5839 9.82394C10.6539 9.61505 11.3083 7.77783 12.7778 7.77783C14.2472 7.77783 14.9017 9.61505 14.9711 9.8245C15.0683 10.1156 14.9111 10.4306 14.62 10.5273C14.5617 10.5462 14.5022 10.5556 14.4444 10.5556ZM8.88888 10.5556C8.6561 10.5556 8.43943 10.4084 8.36165 10.1756C8.24888 9.84283 7.79665 8.88894 7.22221 8.88894C6.63221 8.88894 6.17332 9.90394 6.08277 10.1756C5.98554 10.4662 5.67277 10.6245 5.37999 10.5267C5.08888 10.4301 4.93165 10.1156 5.02888 9.82394C5.09832 9.61505 5.75277 7.77783 7.22221 7.77783C8.69165 7.77783 9.3461 9.61505 9.4161 9.8245C9.51332 10.1156 9.3561 10.4306 9.06499 10.5273C9.0061 10.5462 8.94665 10.5556 8.88888 10.5556Z" fill="#664500"/>
<path d="M18.4305 4.62C18.4305 4.62 13.4071 4.70944 9.99992 4.70944C7.83047 4.70944 1.55214 4.64388 1.55214 4.64388L1.2627 5.13055C2.95325 6.16166 6.29825 6.75111 9.99992 6.75111C13.6644 6.75111 16.9866 6.17333 18.6955 5.16222L18.7388 5.13611C18.7388 5.13611 18.531 4.76722 18.4305 4.62Z" fill="#FFAC33"/>
<path d="M13.2095 0.191655C12.5362 0.139433 11.8357 0.103322 11.1134 0.0860997C10.7462 0.0772108 10.3757 0.0716553 10.0001 0.0716553C9.62677 0.0716553 9.25788 0.0772108 8.89288 0.0855442C8.16955 0.102766 7.46844 0.138878 6.79455 0.1911C2.96677 0.488878 0.0939941 1.36166 0.0939941 2.93721C0.0939941 4.93054 4.6851 6.14332 10.0001 6.14332C15.3151 6.14332 19.9062 4.93054 19.9062 2.93721C19.9062 1.36221 17.0351 0.489989 13.2095 0.191655ZM10.0001 4.10166C6.18844 4.10166 2.82788 3.63888 2.82788 2.58166C2.82788 2.28388 3.10233 2.01332 3.57177 1.77666C4.21233 1.45388 5.22622 1.19666 6.45455 1.02721C7.51622 0.881655 8.73122 0.799433 10.0001 0.799433C11.2729 0.799433 12.4918 0.881655 13.5557 1.02888C14.8012 1.2011 15.8257 1.46388 16.4623 1.79388C16.9107 2.0261 17.1723 2.29054 17.1723 2.58166C17.1723 3.63888 13.8118 4.10166 10.0001 4.10166Z" fill="#5DADEC"/>
<path d="M13.5555 1.02946C14.8011 1.20168 15.8255 1.46446 16.4622 1.79446L16.4967 1.8039C15.2272 0.873905 13.9578 0.381682 13.2094 0.191682C12.5361 0.13946 11.8355 0.103349 11.1133 0.0861268L11.1233 0.0900157L13.5555 1.02946ZM3.57166 1.77724C4.21221 1.45446 5.2261 1.19724 6.45444 1.02779L8.87999 0.0900157L8.89277 0.0855713C8.16944 0.102794 7.46833 0.138905 6.79444 0.191127C6.0461 0.381127 4.7761 0.872793 3.5061 1.80335L3.57166 1.77724Z" fill="#3B94D9"/>
<path d="M15.8178 1.875C15.4511 1.62889 15.07 1.36944 14.7061 1.175C13.3039 0.425 11.7017 0 9.99999 0C8.37277 0 6.83611 0.388889 5.47777 1.07833C4.87277 1.38556 4.43277 1.63333 4.27222 1.875H15.8178Z" fill="#FFCC4D"/>
</svg>
