<svg width="20" height="14" viewBox="0 0 20 14" fill="none" xmlns="http://www.w3.org/2000/svg">
<path d="M8.93158 12.8062C9.2228 13.01 9.58305 13.0898 9.93309 13.028C10.2831 12.9662 10.5943 12.7679 10.7981 12.4767C10.8332 12.4268 10.8581 12.3704 10.8713 12.3109C10.8845 12.2514 10.8859 12.1898 10.8753 12.1297C10.8646 12.0697 10.8423 12.0123 10.8094 11.9609C10.7765 11.9095 10.7339 11.8652 10.6838 11.8303L9.61042 10.6995L12.06 12.414C12.1536 12.4798 12.2592 12.5264 12.3709 12.5512C12.4825 12.576 12.5979 12.5786 12.7105 12.5587C12.8231 12.5388 12.9307 12.4969 13.0271 12.4353C13.1234 12.3737 13.2067 12.2937 13.2721 12.1999C13.3376 12.1063 13.384 12.0006 13.4088 11.8891C13.4335 11.7775 13.4359 11.6621 13.4161 11.5496C13.3962 11.437 13.3543 11.3295 13.2929 11.2331C13.2314 11.1367 13.1516 11.0534 13.058 10.9879L10.9716 9.0703L14.0902 11.2536C14.1837 11.3194 14.2894 11.366 14.401 11.3908C14.5126 11.4156 14.628 11.4182 14.7407 11.3983C14.8533 11.3784 14.9608 11.3365 15.0572 11.2749C15.1536 11.2133 15.2368 11.1333 15.3022 11.0395C15.3677 10.9459 15.4142 10.8402 15.4389 10.7286C15.4636 10.6171 15.4661 10.5017 15.4462 10.3891C15.4263 10.2766 15.3845 10.1691 15.323 10.0727C15.2616 9.97632 15.1818 9.89299 15.0881 9.82746L12.3229 7.4643L15.7252 9.84603C15.8187 9.91178 15.9244 9.95841 16.036 9.98324C16.1476 10.0081 16.2631 10.0106 16.3757 9.99072C16.4883 9.97083 16.5959 9.92889 16.6922 9.86732C16.7886 9.80576 16.8718 9.72576 16.9372 9.63194C17.0027 9.53829 17.0492 9.43266 17.0739 9.32107C17.0986 9.20948 17.1011 9.09412 17.0812 8.98157C17.0613 8.86902 17.0195 8.76149 16.958 8.66512C16.8966 8.56875 16.8168 8.48542 16.7231 8.41989L2.14611 1.70288L0.134542 4.90618C-0.0911568 5.2543 -0.0296553 5.72601 0.294678 6.00335L4.81214 9.87388C5.01811 10.0503 5.23221 10.2168 5.45442 10.3723L8.93158 12.8062Z" fill="#EF9645"/>
<path d="M16.6911 7.82868L10.1337 3.09944L10.0994 3.05303L10.1302 3.00661L10.1609 2.97586L10.6564 3.24797C11.2123 3.6077 12.4823 4.13916 13.4449 4.13916C14.1034 4.13916 14.4979 3.89258 14.6157 3.40985C14.6515 3.19647 14.6013 2.97759 14.476 2.80119C14.3507 2.62478 14.1606 2.50524 13.9473 2.46876C13.3651 2.38187 12.8098 2.16556 12.3222 1.83576L12.0002 1.61934C11.6381 1.37508 11.2279 1.09832 10.9251 0.919619C10.5479 0.691019 10.1377 0.5802 9.67007 0.5802C8.97615 0.5802 8.2712 0.825046 7.59004 1.06177L6.85551 1.31474C6.53853 1.42154 6.20595 1.47468 5.87148 1.47197C4.97565 1.47197 4.09896 1.13197 3.25129 0.803578L3.166 0.769927C2.99153 0.703117 2.79928 0.698993 2.62212 0.75826C2.44495 0.817527 2.29388 0.936502 2.19474 1.09484L0.183172 4.2993C0.0807592 4.459 0.039452 4.6503 0.0668485 4.83803C0.0942451 5.02575 0.188503 5.19727 0.332284 5.32104L4.84916 9.19215C5.0534 9.36679 5.26807 9.53331 5.48739 9.68649L9.06434 12.1906C9.18917 12.2781 9.33001 12.3401 9.47882 12.3731C9.62762 12.4061 9.78147 12.4095 9.93158 12.3831C10.0817 12.3566 10.2251 12.3008 10.3537 12.2189C10.4822 12.137 10.5934 12.0306 10.6808 11.9058C10.7511 11.8048 10.7786 11.6801 10.7573 11.5588C10.736 11.4376 10.6676 11.3298 10.5671 11.2588L9.50355 10.5144C9.47576 10.4949 9.45231 10.4698 9.4347 10.4407C9.41708 10.4117 9.40568 10.3793 9.40121 10.3456C9.39674 10.3119 9.3993 10.2776 9.40873 10.245C9.41815 10.2123 9.43424 10.182 9.45598 10.1559C9.49533 10.1086 9.55102 10.0779 9.61197 10.0699C9.67292 10.0618 9.73467 10.077 9.78495 10.1124L12.0936 11.7282C12.2701 11.8518 12.4884 11.9002 12.7006 11.8627C12.9128 11.8253 13.1014 11.7051 13.225 11.5286C13.3485 11.3521 13.3969 11.1338 13.3595 10.9216C13.3221 10.7094 13.2019 10.5208 13.0254 10.3972L10.8647 8.88523C10.8369 8.86567 10.8135 8.84058 10.7959 8.81151C10.7782 8.78245 10.7668 8.75005 10.7624 8.71636C10.7579 8.68268 10.7605 8.64843 10.7699 8.61578C10.7793 8.58313 10.7954 8.55278 10.8171 8.52666C10.8566 8.47954 10.9122 8.44893 10.9732 8.44088C11.0341 8.43282 11.0958 8.4479 11.1461 8.48314L14.1237 10.5678C14.2111 10.629 14.3097 10.6724 14.4138 10.6955C14.518 10.7185 14.6257 10.7209 14.7307 10.7023C14.8358 10.6838 14.9362 10.6448 15.0262 10.5874C15.1161 10.5301 15.1939 10.4556 15.2551 10.3682C15.3163 10.2808 15.3597 10.1822 15.3827 10.0781C15.4058 9.97393 15.4082 9.86625 15.3896 9.76119C15.3711 9.65613 15.3321 9.55575 15.2747 9.46578C15.2174 9.37581 15.1429 9.29801 15.0555 9.23683L12.2311 7.26008C12.203 7.24071 12.1794 7.21568 12.1616 7.18659C12.1438 7.15751 12.1324 7.12502 12.1279 7.09123C12.1235 7.05744 12.1262 7.0231 12.1359 6.99042C12.1456 6.95774 12.162 6.92745 12.1841 6.90151C12.2193 6.85949 12.269 6.83224 12.3234 6.82515C12.3778 6.81805 12.4328 6.83164 12.4777 6.86322L15.7593 9.16024C15.8467 9.22143 15.9454 9.26479 16.0496 9.28786C16.1537 9.31092 16.2615 9.31324 16.3665 9.29468C16.4716 9.27612 16.572 9.23704 16.662 9.17968C16.752 9.12232 16.8298 9.04779 16.891 8.96036C16.9522 8.87293 16.9955 8.7743 17.0186 8.67011C17.0417 8.56592 17.044 8.45821 17.0254 8.35312C17.0069 8.24803 16.9678 8.14763 16.9104 8.05765C16.8531 7.96766 16.7785 7.88986 16.6911 7.82868Z" fill="#FFDC5D"/>
<path d="M8.99422 11.4126C8.9536 11.5675 8.87412 11.7015 8.76852 11.8077L8.186 12.3856C8.0793 12.4935 7.94614 12.5716 7.79982 12.6119C7.6535 12.6522 7.49917 12.6534 7.35224 12.6154C7.20391 12.5768 7.06841 12.4996 6.95945 12.3918C6.85048 12.284 6.77192 12.1494 6.7317 12.0015C6.69149 11.8536 6.69105 11.6977 6.73043 11.5495C6.76981 11.4014 6.84761 11.2663 6.95597 11.1579L7.53849 10.58C7.64518 10.4721 7.77835 10.3941 7.92466 10.3537C8.07098 10.3134 8.22532 10.3122 8.37224 10.3503C8.59545 10.4089 8.78629 10.5537 8.9029 10.7528C9.0195 10.952 9.05234 11.1893 8.99422 11.4126ZM2.87656 8.55743L3.7486 7.68887C3.84831 7.58928 3.92235 7.46697 3.96435 7.33245C4.00634 7.19793 4.01505 7.05522 3.98971 6.91659C3.96437 6.77797 3.90574 6.64756 3.81887 6.5366C3.732 6.42563 3.61949 6.33743 3.49099 6.27955C3.33003 6.20716 3.15081 6.18559 2.97726 6.21773C2.80371 6.24987 2.6441 6.33418 2.51973 6.45942L1.64769 7.32798C1.548 7.42761 1.47399 7.54995 1.43203 7.6845C1.39008 7.81905 1.38143 7.96178 1.40683 8.10041C1.43222 8.23905 1.49091 8.36944 1.57784 8.48037C1.66477 8.59131 1.77734 8.67948 1.90588 8.73729C2.06679 8.80947 2.24587 8.83093 2.41928 8.7988C2.59269 8.76666 2.75219 8.68247 2.87656 8.55743ZM5.89593 8.5876C5.98136 8.50784 6.04985 8.4117 6.09732 8.30489C6.14478 8.19809 6.17025 8.08283 6.1722 7.96597C6.17415 7.84911 6.15255 7.73306 6.10867 7.62473C6.0648 7.51641 5.99956 7.41803 5.91684 7.33546C5.83412 7.2529 5.73562 7.18784 5.62721 7.14417C5.5188 7.1005 5.4027 7.07912 5.28585 7.08129C5.169 7.08346 5.05378 7.10915 4.94707 7.15681C4.84036 7.20448 4.74434 7.27315 4.66474 7.35873L2.92297 9.09818C2.83754 9.17794 2.76905 9.27408 2.72159 9.38088C2.67412 9.48768 2.64866 9.60295 2.64671 9.71981C2.64475 9.83667 2.66636 9.95272 2.71023 10.061C2.75411 10.1694 2.81935 10.2677 2.90207 10.3503C2.98479 10.4329 3.08329 10.4979 3.1917 10.5416C3.30011 10.5853 3.4162 10.6067 3.53306 10.6045C3.64991 10.6023 3.76513 10.5766 3.87184 10.529C3.97855 10.4813 4.07457 10.4126 4.15417 10.327L5.89593 8.5876ZM7.20139 10.3282C7.31885 10.2105 7.40013 10.0616 7.43561 9.89917C7.47109 9.73672 7.45929 9.5675 7.40161 9.41155C7.34393 9.25559 7.24278 9.11943 7.11013 9.01916C6.97747 8.9189 6.81888 8.85873 6.6531 8.84579C6.52792 8.83634 6.40219 8.85429 6.28465 8.89837C6.16712 8.94246 6.0606 9.01164 5.97252 9.10108L4.80921 10.2586C4.69158 10.3763 4.61014 10.5252 4.57455 10.6877C4.53896 10.8503 4.55072 11.0196 4.60842 11.1757C4.66612 11.3317 4.76735 11.468 4.90011 11.5683C5.03288 11.6686 5.19161 11.7287 5.35751 11.7416C5.6215 11.7625 5.8646 11.6598 6.03808 11.4863L7.20139 10.3282ZM16.8067 7.92791L17.1704 7.61344L13.1595 1.31824L6.0404 2.46994C5.92718 2.48906 5.81883 2.5303 5.72154 2.59129C5.62425 2.65229 5.53993 2.73185 5.47339 2.82544C5.40686 2.91902 5.3594 3.0248 5.33374 3.13672C5.30809 3.24865 5.30473 3.36453 5.32385 3.47775C5.70563 5.0414 8.80681 3.87983 10.1715 3.12905L16.8067 7.92791Z" fill="#EF9645"/>
<path d="M8.99422 10.8324C8.9536 10.9873 8.87412 11.1214 8.76852 11.2275L8.186 11.8054C8.0793 11.9133 7.94614 11.9914 7.79982 12.0317C7.6535 12.072 7.49917 12.0732 7.35224 12.0352C7.20391 11.9966 7.06841 11.9194 6.95945 11.8116C6.85048 11.7039 6.77192 11.5692 6.7317 11.4213C6.69149 11.2734 6.69105 11.1175 6.73043 10.9693C6.76981 10.8212 6.84761 10.6861 6.95597 10.5777L7.53849 9.99982C7.64518 9.89188 7.77835 9.81385 7.92466 9.77353C8.07098 9.73321 8.22532 9.73201 8.37224 9.77006C8.59545 9.82869 8.78629 9.97346 8.9029 10.1726C9.0195 10.3718 9.05234 10.6091 8.99422 10.8324ZM2.87656 7.97723L3.7486 7.10867C3.84831 7.00908 3.92235 6.88677 3.96435 6.75225C4.00634 6.61773 4.01505 6.47502 3.98971 6.33639C3.96437 6.19777 3.90574 6.06737 3.81887 5.9564C3.732 5.84544 3.61949 5.75723 3.49099 5.69935C3.32999 5.62712 3.15081 5.60564 2.97731 5.63778C2.8038 5.66991 2.64419 5.75412 2.51973 5.87922L1.64769 6.74778C1.548 6.84741 1.47399 6.96976 1.43203 7.10431C1.39008 7.23886 1.38143 7.38158 1.40683 7.52021C1.43222 7.65885 1.49091 7.78924 1.57784 7.90018C1.66477 8.01111 1.77734 8.09928 1.90588 8.15709C2.06679 8.22928 2.24587 8.25073 2.41928 8.2186C2.59269 8.18647 2.75219 8.10227 2.87656 7.97723ZM5.89593 8.0074C5.98136 7.92764 6.04985 7.8315 6.09732 7.7247C6.14478 7.6179 6.17025 7.50263 6.1722 7.38577C6.17415 7.26891 6.15255 7.15286 6.10867 7.04454C6.0648 6.93621 5.99956 6.83783 5.91684 6.75527C5.83412 6.6727 5.73562 6.60764 5.62721 6.56397C5.5188 6.52031 5.4027 6.49892 5.28585 6.50109C5.169 6.50326 5.05378 6.52895 4.94707 6.57661C4.84036 6.62428 4.74434 6.69295 4.66474 6.77853L2.92297 8.51798C2.83754 8.59774 2.76905 8.69388 2.72159 8.80068C2.67412 8.90749 2.64866 9.02275 2.64671 9.13961C2.64475 9.25647 2.66636 9.37252 2.71023 9.48085C2.75411 9.58917 2.81935 9.68755 2.90207 9.77011C2.98479 9.85268 3.08329 9.91774 3.1917 9.96141C3.30011 10.0051 3.4162 10.0265 3.53306 10.0243C3.64991 10.0221 3.76513 9.99644 3.87184 9.94877C3.97855 9.9011 4.07457 9.83243 4.15417 9.74685L5.89593 8.0074ZM7.20139 9.74801C7.31885 9.63031 7.40013 9.48142 7.43561 9.31897C7.47109 9.15652 7.45929 8.98731 7.40161 8.83135C7.34393 8.67539 7.24278 8.53923 7.11013 8.43896C6.97747 8.3387 6.81888 8.27853 6.6531 8.26559C6.52792 8.25614 6.40219 8.27409 6.28465 8.31818C6.16712 8.36226 6.0606 8.43144 5.97252 8.52088L4.80921 9.67839C4.69158 9.79606 4.61014 9.94499 4.57455 10.1075C4.53896 10.2701 4.55072 10.4394 4.60842 10.5955C4.66612 10.7515 4.76735 10.8878 4.90011 10.9881C5.03288 11.0884 5.19161 11.1485 5.35751 11.1614C5.6215 11.1823 5.8646 11.0796 6.03808 10.9061L7.20139 9.74801ZM19.7088 5.42202C19.8624 5.28924 19.9629 5.10539 19.9915 4.90438C20.0202 4.70338 19.9752 4.49878 19.8649 4.32833L19.8632 4.32543L17.8516 0.541929C17.7454 0.372208 17.5835 0.244681 17.3936 0.181176C17.2037 0.11767 16.9977 0.122136 16.8107 0.193807C15.6549 0.641144 14.3889 1.1552 13.1601 0.737457L12.523 0.518721C11.3928 0.127084 10.1639 -0.331857 9.0418 0.348141C8.63855 0.585444 8.0334 1.00551 7.64293 1.26486C7.16052 1.58704 6.61363 1.8001 6.0404 1.88916C5.92701 1.90792 5.81845 1.94893 5.72097 2.00982C5.62348 2.07071 5.53901 2.15028 5.47241 2.24396C5.40581 2.33763 5.3584 2.44355 5.3329 2.55563C5.3074 2.6677 5.30433 2.78371 5.32385 2.89697C5.67952 4.35444 8.39893 3.4238 9.87149 2.68288C9.9634 2.63673 10.0662 2.6167 10.1687 2.62499C10.2713 2.63328 10.3695 2.66956 10.4528 2.72987L17.1739 7.61286L19.7088 5.42202Z" fill="#FFCC4D"/>
</svg>
