<svg width="18" height="21" viewBox="0 0 18 21" fill="none" xmlns="http://www.w3.org/2000/svg">
<path d="M18 10.1665C18 10.4493 17.9325 10.7147 17.8195 10.9558C17.0656 13.3878 13.5363 13.2102 8.51596 13.3288C7.67662 13.3485 8.15672 14.3396 8.45131 16.5153C8.64301 17.9303 7.73059 20.1031 6.19695 20.1031C3.66825 20.1031 6.10082 18.1085 3.86501 13.1759C2.67037 10.5404 0 12.0167 0 9.36935V3.34387C0 2.31339 0.101193 1.32282 1.5505 1.15979C2.9554 1.00125 2.63945 0 4.66613 0H14.8102C15.8435 0 16.6839 0.841027 16.6839 1.87432C16.6839 2.3027 16.5338 2.69286 16.2915 3.00881C16.865 3.32981 17.2585 3.93585 17.2585 4.63858C17.2585 5.06584 17.1089 5.45599 16.8672 5.77138C17.4423 6.09182 17.837 6.69842 17.837 7.40227C17.837 7.9133 17.6301 8.37654 17.2967 8.71553C17.7223 9.05903 18 9.57849 18 10.1665Z" fill="#FFDB5E"/>
<path d="M11.2898 8.29282H16.1268C16.7845 8.29282 17.4018 8.64475 17.738 9.21087C17.8763 9.44417 17.7993 9.74607 17.5654 9.88492C17.3321 10.0238 17.0302 9.94564 16.8914 9.71233C16.7323 9.44305 16.4382 9.27664 16.1262 9.27664H11.1734C10.6826 9.27664 10.2835 9.67579 10.2835 10.1666C10.2835 10.6574 10.6826 11.0565 11.1734 11.0565H14.483C14.7545 11.0565 14.9749 11.2769 14.9749 11.5484C14.9749 11.82 14.7545 12.0403 14.483 12.0403H11.1728C10.1395 12.0403 9.29907 11.1999 9.29907 10.1666C9.29907 9.59034 9.56611 9.08044 9.9765 8.73638C9.63076 8.39626 9.41544 7.92403 9.41544 7.40232C9.41544 6.8244 9.68417 6.31281 10.0968 5.96932C9.75332 5.62976 9.54025 5.15921 9.54025 4.63863C9.54025 4.00898 9.85451 3.45354 10.3324 3.11342C10.0378 2.7823 9.85339 2.3511 9.85339 1.87437C9.85339 0.841075 10.6939 0.000610352 11.7271 0.000610352H14.8102C15.4679 0.000610352 16.0858 0.351975 16.4219 0.918094C16.5608 1.1514 16.4838 1.45329 16.2505 1.59215C16.0166 1.72989 15.7147 1.65399 15.5764 1.42069C15.4162 1.1514 15.1222 0.984432 14.8102 0.984432H11.7271C11.2364 0.984432 10.8372 1.38358 10.8372 1.87437C10.8372 2.36516 11.2364 2.76431 11.7271 2.76431H15.3847C16.0425 2.76431 16.6609 3.11623 16.9965 3.68235C17.1354 3.91622 17.0583 4.21811 16.825 4.35641C16.5895 4.49752 16.2887 4.41825 16.151 4.18494C15.9885 3.91116 15.7018 3.74813 15.3847 3.74813H11.414C10.9232 3.74813 10.5241 4.14784 10.5241 4.63863C10.5241 5.12941 10.9232 5.52856 11.414 5.52856H15.9626C16.6204 5.52856 17.2382 5.87993 17.5744 6.44605C17.7133 6.67935 17.6363 6.98125 17.403 7.1201C17.1685 7.2584 16.8672 7.18194 16.7289 6.94864C16.5664 6.67542 16.2797 6.51238 15.9626 6.51238H11.2898C10.799 6.51238 10.3998 6.91153 10.3998 7.40232C10.3998 7.89311 10.7984 8.29282 11.2898 8.29282Z" fill="#EE9547"/>
</svg>
