<svg width="20" height="20" viewBox="0 0 20 20" fill="none" xmlns="http://www.w3.org/2000/svg">
<path d="M20 10C20 15.5228 15.5228 20 10 20C4.47778 20 0 15.5228 0 10C0 4.47778 4.47778 0 10 0C15.5228 0 20 4.47778 20 10Z" fill="#FFCB4C"/>
<path d="M6.7645 10.2311C7.57667 10.2311 8.23506 9.30926 8.23506 8.17217C8.23506 7.03508 7.57667 6.11328 6.7645 6.11328C5.95234 6.11328 5.29395 7.03508 5.29395 8.17217C5.29395 9.30926 5.95234 10.2311 6.7645 10.2311Z" fill="#65471B"/>
<path d="M13.8233 11.7645C15.9349 11.7645 17.6467 10.0527 17.6467 7.94113C17.6467 5.82956 15.9349 4.1178 13.8233 4.1178C11.7118 4.1178 10 5.82956 10 7.94113C10 10.0527 11.7118 11.7645 13.8233 11.7645Z" fill="#F4F7F9"/>
<path d="M8.23624 5.52556C8.05735 5.52556 7.88069 5.44445 7.76513 5.29056C7.21458 4.55667 6.63846 4.16334 6.05235 4.12167C5.28013 4.0689 4.65069 4.64779 4.53346 4.76501C4.30346 4.99501 3.93124 4.99501 3.7018 4.76501C3.4718 4.53501 3.4718 4.16279 3.7018 3.93334C3.95569 3.67945 4.88457 2.85779 6.13569 2.94834C7.07735 3.01501 7.9418 3.56556 8.70624 4.58445C8.90124 4.84445 8.84846 5.21334 8.58902 5.40779C8.48235 5.48723 8.35846 5.52556 8.23624 5.52556Z" fill="#65471B"/>
<path d="M18.2356 20C17.9106 20 17.6472 19.7367 17.6472 19.4117V8.23555C17.6472 7.91055 17.9106 7.64722 18.2356 7.64722C18.5606 7.64722 18.8239 7.91055 18.8239 8.23555V19.4122C18.8233 19.7367 18.5606 20 18.2356 20Z" fill="#292F33"/>
<path d="M18.2355 7.05886C18.2055 7.05886 18.1772 7.06553 18.1477 7.06775C17.7411 5.0522 15.9572 3.52942 13.8233 3.52942C11.3905 3.52942 9.41162 5.50831 9.41162 7.94109C9.41162 10.3739 11.3905 12.3528 13.8233 12.3528C15.75 12.3528 17.3877 11.1094 17.9877 9.38442C18.0677 9.40164 18.15 9.41164 18.235 9.41164C18.885 9.41164 19.4116 8.88497 19.4116 8.23497C19.4116 7.58553 18.885 7.05886 18.2355 7.05886ZM13.8233 11.1766C12.0394 11.1766 10.5883 9.72553 10.5883 7.94109C10.5883 6.15664 12.04 4.70553 13.8233 4.70553C15.6072 4.70553 17.0588 6.15664 17.0588 7.94109C17.0588 9.72553 15.6072 11.1766 13.8233 11.1766Z" fill="#67757F"/>
<path d="M11.7639 15.8822C11.6756 15.8822 11.5856 15.8622 11.5012 15.82C10.4906 15.3145 9.50839 15.3145 8.49783 15.82C8.20672 15.965 7.85339 15.8478 7.70839 15.5567C7.56283 15.2661 7.68061 14.9128 7.97172 14.7672C9.31672 14.095 10.6812 14.095 12.0273 14.7672C12.3178 14.9128 12.4356 15.2661 12.2906 15.5567C12.1878 15.7633 11.9801 15.8822 11.7639 15.8822Z" fill="#65471B"/>
<path d="M15.5829 5.22828C15.0762 4.89883 14.4729 4.70605 13.8234 4.70605C12.0368 4.70605 10.5879 6.15439 10.5879 7.94161C10.5879 8.59106 10.7812 9.19439 11.1101 9.70106L15.5829 5.22828ZM12.4429 10.8638C12.8623 11.0622 13.329 11.1766 13.8234 11.1766C15.6101 11.1766 17.059 9.72828 17.059 7.94105C17.059 7.44661 16.9446 6.97939 16.7462 6.5605L12.4429 10.8638Z" fill="#BDDDF4"/>
</svg>
