<svg width="20" height="20" viewBox="0 0 20 20" fill="none" xmlns="http://www.w3.org/2000/svg">
<path d="M20 10C20 15.5228 15.5228 20 10 20C4.47778 20 0 15.5228 0 10C0 4.47778 4.47778 0 10 0C15.5228 0 20 4.47778 20 10Z" fill="#FFCC4D"/>
<path d="M16.111 15C17.6452 15 18.8888 13.7564 18.8888 12.2222C18.8888 10.6881 17.6452 9.44446 16.111 9.44446C14.5769 9.44446 13.3333 10.6881 13.3333 12.2222C13.3333 13.7564 14.5769 15 16.111 15Z" fill="#FF7892"/>
<path d="M3.88886 15C5.42299 15 6.66664 13.7564 6.66664 12.2222C6.66664 10.6881 5.42299 9.44446 3.88886 9.44446C2.35474 9.44446 1.11108 10.6881 1.11108 12.2222C1.11108 13.7564 2.35474 15 3.88886 15Z" fill="#FF7892"/>
<path d="M16.1112 7.77782C15.9689 7.77782 15.8267 7.72338 15.7184 7.61504C14.2867 6.18449 11.7989 6.6506 11.7745 6.65616C11.4701 6.71671 11.1817 6.51893 11.1223 6.21893C11.0628 5.91838 11.2567 5.62671 11.5573 5.56671C11.6834 5.54116 14.6478 4.97505 16.5034 6.82949C16.7206 7.04671 16.7206 7.39782 16.5034 7.61504C16.3956 7.72338 16.2534 7.77782 16.1112 7.77782ZM3.88895 7.77782C3.74672 7.77782 3.6045 7.72338 3.49617 7.61504C3.27895 7.39782 3.27895 7.04671 3.49617 6.82949C5.35172 4.97338 8.31728 5.54171 8.44228 5.56671C8.74339 5.62671 8.93839 5.91949 8.87783 6.2206C8.81783 6.5206 8.52617 6.71616 8.22506 6.65671C8.18672 6.64838 5.70895 6.18838 4.28172 7.6156C4.17339 7.72338 4.03117 7.77782 3.88895 7.77782ZM14.4445 10.5556C14.3023 10.5556 14.1601 10.5012 14.0517 10.3928C13.3273 9.66782 11.7795 9.85171 11.2451 9.98393C10.9451 10.0573 10.6467 9.8756 10.5723 9.57838C10.4984 9.2806 10.6789 8.98005 10.9767 8.9056C11.0801 8.88005 13.5184 8.28838 14.8373 9.60727C15.0545 9.82449 15.0545 10.1756 14.8373 10.3928C14.7289 10.5012 14.5867 10.5556 14.4445 10.5556ZM5.55561 10.5556C5.41339 10.5556 5.27117 10.5012 5.16284 10.3928C4.94561 10.1756 4.94561 9.82449 5.16284 9.60727C6.48117 8.28893 8.92061 8.88005 9.02395 8.9056C9.32117 8.98005 9.50172 9.2806 9.42783 9.57838C9.3545 9.87616 9.05395 10.0578 8.75561 9.98393C8.22006 9.85227 6.67284 9.66893 5.94895 10.3928C5.84006 10.5012 5.69783 10.5556 5.55561 10.5556Z" fill="#664500"/>
<path d="M7.22217 13.8888C7.22217 13.8888 7.77772 16.111 9.99995 16.111C12.2222 16.111 12.7777 13.8888 12.7777 13.8888C12.7777 13.8888 12.2222 14.4443 9.99995 14.4443C7.77772 14.4443 7.22217 13.8888 7.22217 13.8888Z" fill="#664500"/>
<path d="M9.99999 16.3888C7.58887 16.3888 6.95888 13.9805 6.95276 13.9561C6.92221 13.8349 6.97665 13.7088 7.08499 13.6466C7.1911 13.5877 7.32388 13.6027 7.41332 13.6866C7.43499 13.7055 8.00554 14.1666 9.99999 14.1666C12.0244 14.1666 12.5817 13.6916 12.5872 13.6872C12.6789 13.6061 12.8144 13.5922 12.9189 13.6538C13.0233 13.7166 13.0767 13.8377 13.0472 13.9561C13.0411 13.9805 12.4111 16.3888 9.99999 16.3888ZM7.74943 14.4488C8.06999 15.0399 8.73554 15.8333 9.99999 15.8333C11.2644 15.8333 11.9305 15.0399 12.2505 14.4488C11.795 14.5922 11.0833 14.7222 9.99999 14.7222C8.91665 14.7222 8.20499 14.5922 7.74943 14.4488ZM7.22221 13.8888H7.22776H7.22221Z" fill="#664500"/>
</svg>
