<svg width="20" height="20" viewBox="0 0 20 20" fill="none" xmlns="http://www.w3.org/2000/svg">
<path d="M9.99998 20C15.5228 20 20 15.5228 20 9.99998C20 4.47714 15.5228 0 9.99998 0C4.47714 0 0 4.47714 0 9.99998C0 15.5228 4.47714 20 9.99998 20Z" fill="#50A5E6"/>
<path d="M6.65842 10.3822C7.42548 10.3822 8.0473 9.51161 8.0473 8.43773C8.0473 7.36384 7.42548 6.49329 6.65842 6.49329C5.89136 6.49329 5.26953 7.36384 5.26953 8.43773C5.26953 9.51161 5.89136 10.3822 6.65842 10.3822Z" fill="#1C6399"/>
<path d="M13.3249 10.3822C14.092 10.3822 14.7138 9.51161 14.7138 8.43773C14.7138 7.36384 14.092 6.49329 13.3249 6.49329C12.5579 6.49329 11.936 7.36384 11.936 8.43773C11.936 9.51161 12.5579 10.3822 13.3249 10.3822Z" fill="#1C6399"/>
<path d="M13.8806 12.1294C15.1078 12.1294 16.1028 13.1244 16.1028 14.3516C16.1028 15.5788 15.1078 16.5738 13.8806 16.5738H6.10283C4.87561 16.5738 3.88062 15.5788 3.88062 14.3516C3.88062 13.1244 4.87561 12.1294 6.10283 12.1294H13.8806Z" fill="white"/>
<path d="M13.8805 11.5623H6.10272C4.57106 11.5623 3.32495 12.8084 3.32495 14.34C3.32495 15.8717 4.57106 17.1178 6.10272 17.1178H13.8805C15.4121 17.1178 16.6583 15.8717 16.6583 14.34C16.6583 12.8084 15.4121 11.5623 13.8805 11.5623ZM13.8805 12.6734C14.7044 12.6734 15.386 13.2756 15.5188 14.0623H13.6027V12.6734H13.8805ZM13.0472 12.6734V14.0623H11.3805V12.6734H13.0472ZM10.8249 12.6734V14.0623H9.15827V12.6734H10.8249ZM8.60272 12.6734V14.0623H6.93605V12.6734H8.60272ZM6.10272 12.6734H6.3805V14.0623H4.46384C4.59717 13.2761 5.27884 12.6734 6.10272 12.6734ZM6.10272 16.0067C5.27884 16.0067 4.59717 15.4045 4.46439 14.6178H6.3805V16.0067H6.10272ZM6.93605 16.0067V14.6178H8.60272V16.0067H6.93605ZM9.15827 16.0067V14.6178H10.8249V16.0067H9.15827ZM11.3805 16.0067V14.6178H13.0472V16.0067H11.3805ZM13.8805 16.0067H13.6027V14.6178H15.5188C15.386 15.4045 14.7044 16.0067 13.8805 16.0067Z" fill="#1C6399"/>
<path d="M19.8643 8.43777C19.8643 8.19055 19.8388 9.68222 17.7799 10.3233C16.9682 10.5761 17.0643 11.7567 17.0771 12.0744C17.1216 13.1717 17.2982 14.2367 17.3532 14.5144C17.4088 14.7961 17.6349 15.6844 17.6877 15.9528C17.746 16.2483 17.8216 17.2894 17.8727 17.5489C17.9343 17.8616 17.9921 18.0866 18.0393 18.3255C18.1416 18.8416 18.2749 19.2133 18.5016 19.2133C18.7288 19.2133 18.7327 18.5883 18.8343 18.0728C18.8816 17.8344 18.8938 17.6355 18.9555 17.3233C19.0066 17.0655 19.1571 15.3005 19.2138 15.0144C19.2677 14.7416 19.5671 13.5878 19.6216 13.3105C19.6771 13.0289 19.8432 11.925 19.8877 11.6555C20.1532 10.0461 19.8643 8.43833 19.8643 8.43777ZM0.173828 11.875C0.173828 11.7139 0.514383 12.5217 0.811604 12.7017C1.19494 12.9339 1.49494 13.3683 1.94494 13.75C2.39493 14.1317 2.39382 14.8467 2.37605 15.1911C2.30049 16.6666 2.10605 18.135 2.06382 18.3161C2.0216 18.5 1.86494 19.8844 1.65827 19.8844C1.4516 19.8844 1.35105 19.3966 1.27327 19.06L1.14827 18.5172C1.10938 18.3494 1.0816 18.1666 1.03716 17.975C0.99716 17.8005 0.803271 16.5378 0.761605 16.3566C0.719383 16.1728 0.53605 15.4439 0.495494 15.2689C0.45105 15.0761 0.432161 14.8889 0.389939 14.7205C0.208273 13.9983 0.173828 11.8755 0.173828 11.875Z" fill="#BBDDF5"/>
<path d="M3.32557 6.31937C3.01891 6.31937 2.77002 6.07048 2.77002 5.76382C2.77002 5.45771 3.01724 5.20937 3.32335 5.20826C3.41002 5.20715 5.30613 5.16049 6.77057 3.20827C6.95446 2.96382 7.30223 2.91271 7.54834 3.09716C7.7939 3.28104 7.84334 3.62938 7.65945 3.87493C5.84668 6.29159 3.4278 6.31937 3.32557 6.31937ZM16.6589 6.31937C16.5567 6.31937 14.1383 6.29159 12.3256 3.87493C12.1411 3.62938 12.1911 3.28104 12.4367 3.09716C12.6817 2.91216 13.0294 2.96271 13.2139 3.20827C14.6811 5.16437 16.5817 5.20771 16.6617 5.20826C16.9672 5.2116 17.2139 5.4616 17.2122 5.7666C17.2111 6.07271 16.9644 6.31937 16.6589 6.31937Z" fill="#1C6399"/>
<path d="M13.4811 0.625042C13.4811 0.625042 12.9306 0.391154 12.7495 0.335598C12.59 0.28671 12.0867 0.182265 11.7756 0.122266C11.4283 0.0550434 11.0567 0.0583767 11.0567 0.0583767C11.0567 0.0583767 11.04 0.28171 11.12 0.62782C11.1845 0.906708 11.3445 1.29337 11.3745 1.49393C11.4072 1.71115 11.4122 1.96893 11.4528 2.24282C11.4883 2.47948 11.5239 2.7317 11.5622 2.98837C11.5995 3.23615 11.6633 3.48504 11.7006 3.73337C11.7395 3.99115 11.7572 4.24726 11.7933 4.48503C11.8345 4.76059 11.7878 5.02837 11.8206 5.2467C11.8878 5.69448 12.0056 6.32003 12.1328 6.32003C12.26 6.32003 12.3722 5.75392 12.4395 5.30448C12.4722 5.08726 12.4245 4.91837 12.4656 4.64448C12.5011 4.40781 12.5311 4.17226 12.57 3.91559C12.6072 3.66781 12.6372 3.42559 12.6745 3.17781C12.7133 2.92004 12.7083 2.66893 12.7439 2.43115C12.785 2.15559 12.9456 1.81615 12.9783 1.59782C13.0445 1.15004 13.4811 0.625042 13.4811 0.625042ZM3.26392 5.21059C3.26392 5.21059 3.67003 5.11948 4.05669 5.03892C4.30836 4.9867 4.5078 4.78392 4.91947 4.63392C5.3478 4.47781 5.62336 4.34281 5.62336 4.34281C5.62336 4.34281 5.65836 5.06781 5.5628 5.42948C5.48558 5.72114 5.44502 6.09781 5.40947 6.30725C5.37058 6.53392 5.34891 6.80114 5.30002 7.08725C5.2578 7.33447 5.18002 7.59281 5.13391 7.86169C5.08947 8.12114 5.05391 8.42503 5.00947 8.68447C4.96336 8.95391 4.95113 9.18558 4.90836 9.43391C4.85891 9.72169 4.89613 9.75058 4.85669 9.97836C4.77613 10.4467 4.76502 10.3822 4.73891 10.6372C4.7128 10.8922 4.52002 10.9239 4.43669 10.7372C4.35336 10.5506 4.44169 10.4478 4.36114 9.9778C4.32225 9.75113 4.17947 9.15169 4.13336 8.88336C4.08891 8.62391 4.02891 8.21725 3.98447 7.95781C3.93836 7.68836 3.92669 7.25392 3.88391 7.00503C3.83447 6.71725 3.75892 6.53947 3.72003 6.3117C3.63947 5.84448 3.26392 5.21059 3.26392 5.21059Z" fill="#BBDDF5"/>
</svg>
