<svg width="14" height="14" viewBox="0 0 14 14" fill="none" xmlns="http://www.w3.org/2000/svg">
<path id="Mask" fill-rule="evenodd" clip-rule="evenodd" d="M7 0C3.136 0 0 3.136 0 7C0 10.864 3.136 14 7 14C10.864 14 14 10.864 14 7C14 3.136 10.864 0 7 0ZM11.1922 11.3136C11.1518 11.3137 11.1117 11.3058 11.0744 11.2903C11.037 11.2748 11.0031 11.252 10.9746 11.2234L3.58468 3.83349C3.52938 3.77527 3.499 3.69775 3.50003 3.61746C3.50105 3.53717 3.53341 3.46046 3.59019 3.40368C3.64696 3.3469 3.72368 3.31454 3.80397 3.31352C3.88426 3.31249 3.96178 3.34287 4.01999 3.39817L11.4099 10.7881C11.4529 10.8311 11.4822 10.886 11.4941 10.9457C11.506 11.0054 11.4999 11.0673 11.4766 11.1235C11.4533 11.1798 11.4138 11.2279 11.3632 11.2617C11.3126 11.2955 11.2531 11.3136 11.1922 11.3136ZM10.99 8.89248L11.0395 8.95252C11.1231 9.05413 11.1755 9.17778 11.1904 9.30854C11.1943 9.34037 11.1882 9.37262 11.1729 9.40079C11.1576 9.42897 11.1339 9.45167 11.105 9.46572C11.0762 9.47976 11.0437 9.48447 11.0121 9.47916C10.9805 9.47386 10.9513 9.45882 10.9287 9.43613L5.89083 4.39908C5.87434 4.3826 5.86181 4.3626 5.85418 4.34057C5.84655 4.31854 5.84402 4.29507 5.84678 4.27193C5.84954 4.24878 5.85752 4.22657 5.87012 4.20695C5.88272 4.18734 5.8996 4.17085 5.91951 4.15871C6.05417 4.07735 6.19495 4.00658 6.34058 3.94702C6.34643 3.94375 6.3517 3.93952 6.35616 3.93451C6.5234 3.37508 6.98084 3 7.49698 3C8.01312 3 8.47075 3.37508 8.63799 3.93509C8.64244 3.94029 8.64778 3.94466 8.65377 3.94798C9.11871 4.13928 9.47147 4.39811 9.73242 4.73932C10.0863 5.20119 10.2659 5.81701 10.2659 6.56755C10.2659 8.01649 10.5218 8.32598 10.9447 8.8376L10.9454 8.8384L10.99 8.89248ZM4.72876 6.56697C4.72876 8.01723 4.473 8.3263 4.04924 8.83782L4.0378 8.85162C4.01068 8.88431 3.98313 8.91753 3.95513 8.95194C3.87261 9.05146 3.82033 9.17253 3.80447 9.30084C3.78861 9.42914 3.80984 9.5593 3.86565 9.67592C3.98438 9.9261 4.23745 10.0814 4.52631 10.0814H8.59037C8.62083 10.0814 8.65062 10.0724 8.67596 10.0555C8.7013 10.0386 8.72105 10.0145 8.73272 9.98638C8.74438 9.95823 8.74743 9.92726 8.74148 9.89738C8.73553 9.86749 8.72084 9.84005 8.69929 9.81852L5.00434 6.12357C4.98357 6.10286 4.9573 6.08852 4.92865 6.08223C4.89999 6.07594 4.87014 6.07798 4.8426 6.08809C4.81506 6.0982 4.79098 6.11596 4.7732 6.1393C4.75542 6.16263 4.74467 6.19056 4.74223 6.21979C4.73325 6.33128 4.72876 6.44701 4.72876 6.56697ZM8.28721 11.4031C8.04855 11.5458 7.7757 11.6213 7.49761 11.6215C7.21955 11.6213 6.94675 11.5458 6.70813 11.403C6.4695 11.2603 6.27396 11.0556 6.14222 10.8108C6.13601 10.799 6.13294 10.7859 6.13332 10.7726C6.1337 10.7593 6.13752 10.7463 6.1444 10.7349C6.15128 10.7236 6.16099 10.7142 6.17258 10.7077C6.18417 10.7012 6.19725 10.6978 6.21054 10.6978H8.78507C8.79835 10.6978 8.8114 10.7012 8.82297 10.7077C8.83453 10.7143 8.84421 10.7237 8.85107 10.735C8.85792 10.7464 8.86172 10.7593 8.86209 10.7726C8.86247 10.7859 8.8594 10.799 8.8532 10.8108C8.72145 11.0557 8.52587 11.2603 8.28721 11.4031Z" fill="#3F4048"/>
</svg>
