<svg width="14" height="15" viewBox="0 0 14 15" fill="none" xmlns="http://www.w3.org/2000/svg">
<path fill-rule="evenodd" clip-rule="evenodd" d="M7 0.5C3.136 0.5 0 3.636 0 7.5C0 11.364 3.136 14.5 7 14.5C10.864 14.5 14 11.364 14 7.5C14 3.636 10.864 0.5 7 0.5ZM6.99992 6.99982C8.2867 6.99982 9.3299 5.95662 9.3299 4.6698C9.3299 3.38298 8.2867 2.33984 6.99992 2.33984C5.7131 2.33984 4.66992 3.38298 4.66992 4.6698C4.66992 5.95662 5.7131 6.99982 6.99992 6.99982ZM7 8.3999C9.21 8.3999 11 9.8599 11 11.6599H3C3 9.8599 4.79 8.3999 7 8.3999Z" fill="#3F4048"/>
</svg>
