<svg width="20" height="20" viewBox="0 0 20 20" fill="none" xmlns="http://www.w3.org/2000/svg">
<path d="M17.0712 2.92879C20.9763 6.83384 20.9763 13.1662 17.0712 17.0712C13.1662 20.9763 6.8344 20.9763 2.92879 17.0712C-0.976263 13.1662 -0.976263 6.83384 2.92879 2.92879C6.83384 -0.976263 13.1656 -0.976263 17.0712 2.92879Z" fill="#FFCB4C"/>
<path d="M10.7105 10.7112C8.76933 12.6523 7.25542 13.7134 5.35206 14.9968C4.91817 15.2907 4.28093 16.0685 5.35262 17.1407C7.49542 19.2835 12.6366 19.5002 16.0678 16.069C19.4995 12.6373 19.2834 7.49667 17.1394 5.35331C16.0678 4.28107 15.2894 4.91886 14.9961 5.35331C13.7138 7.255 12.6522 8.76947 10.7105 10.7112Z" fill="#65471B"/>
<path d="M6.42432 16.0685C6.42432 16.0685 8.56768 14.9968 11.7822 11.7817C14.9972 8.56725 16.0683 6.42444 16.0683 6.42444C16.0683 6.42444 17.1395 9.63948 13.3894 13.3895C9.63936 17.1401 6.42432 16.0685 6.42432 16.0685Z" fill="white"/>
<path d="M4.59156 14.0189C4.47212 14.1384 4.29989 14.2023 4.11989 14.1761C3.816 14.1328 3.60488 13.8517 3.64877 13.5478C3.66266 13.45 3.95044 11.5311 5.1899 9.70219C3.73044 10.1872 2.64042 11.2555 2.62654 11.2694C2.40931 11.4855 2.05764 11.485 1.84097 11.2678C1.6243 11.0511 1.6243 10.7 1.84097 10.4833C1.92764 10.3966 3.99767 8.35662 6.55492 8.35662C6.77993 8.35662 6.98215 8.49162 7.06826 8.6994C7.15438 8.90718 7.1066 9.14607 6.94771 9.30496C5.13546 11.1172 4.75156 13.6795 4.74768 13.7045C4.73045 13.8289 4.67323 13.9372 4.59156 14.0189ZM14.0184 4.59101C13.9367 4.67267 13.8289 4.7299 13.7056 4.74768C13.6795 4.75156 11.1078 5.1449 9.30496 6.94771C9.14607 7.1066 8.90718 7.15438 8.6994 7.06826C8.49162 6.98215 8.35662 6.77993 8.35662 6.55492C8.35662 3.99711 10.3966 1.92764 10.4833 1.84097C10.7 1.6243 11.0511 1.6243 11.2678 1.84097C11.485 2.05708 11.4855 2.40931 11.2694 2.62598C11.255 2.64042 10.1866 3.72988 9.70163 5.18935C11.5305 3.94989 13.4489 3.66211 13.5467 3.64822C13.85 3.60488 14.1311 3.81489 14.175 4.11878C14.2023 4.29878 14.1384 4.47156 14.0184 4.59101Z" fill="#65471B"/>
<path d="M16.7229 6.69721C18.2457 6.88276 19.6308 5.7983 19.8158 4.27495C20.0013 2.75215 18.9174 1.36713 17.3941 1.18157C15.8713 0.996571 11.6112 2.71659 11.544 3.26827C11.4768 3.81939 15.2002 6.51109 16.7229 6.69721ZM6.75392 16.6662C6.93948 18.189 5.85502 19.5741 4.33167 19.7591C2.80887 19.9446 1.42385 18.8607 1.23829 17.3374C1.05273 15.814 2.77331 11.5539 3.32499 11.4867C3.8761 11.42 6.56781 15.1434 6.75392 16.6662Z" fill="#64AADD"/>
</svg>
